<?xml version="1.0" encoding="iso-8859-1"?>
<!-- Generator: Adobe Illustrator 19.1.0, SVG Export Plug-In . SVG Version: 6.00 Build 0)  -->
<!DOCTYPE svg PUBLIC "-//W3C//DTD SVG 1.1 Tiny//EN" "http://www.w3.org/Graphics/SVG/1.1/DTD/svg11-tiny.dtd">
<svg version="1.1" baseProfile="tiny" xmlns="http://www.w3.org/2000/svg" xmlns:xlink="http://www.w3.org/1999/xlink" x="0px"
	 y="0px" viewBox="0 0 16 16" xml:space="preserve">
<g id="Layer_1">
	<path d="M10.544,11H1c-0.276,0-0.5-0.224-0.5-0.5S0.724,10,1,10h9.544C12.265,10,14,9.072,14,7s-1.735-3-3.456-3H7.5
		C7.224,4,7,3.776,7,3.5S7.224,3,7.5,3h3.044C13.168,3,15,4.645,15,7S13.168,11,10.544,11z"/>
	<path d="M4.044,14.087c-0.128,0-0.256-0.049-0.354-0.146l-3.044-3.043C0.553,10.804,0.5,10.677,0.5,10.544s0.053-0.26,0.146-0.354
		L3.69,7.146c0.195-0.195,0.512-0.195,0.707,0s0.195,0.512,0,0.707l-2.69,2.69l2.69,2.689c0.195,0.195,0.195,0.512,0,0.707
		C4.3,14.038,4.172,14.087,4.044,14.087z"/>
</g>
<g id="Layer_2">
</g>
<g id="Layer_3">
</g>
</svg>
