<?xml version="1.0" encoding="iso-8859-1"?>
<!-- Generator: Adobe Illustrator 19.1.0, SVG Export Plug-In . SVG Version: 6.00 Build 0)  -->
<!DOCTYPE svg PUBLIC "-//W3C//DTD SVG 1.1 Tiny//EN" "http://www.w3.org/Graphics/SVG/1.1/DTD/svg11-tiny.dtd">
<svg version="1.1" baseProfile="tiny" id="Layer_1" xmlns="http://www.w3.org/2000/svg" xmlns:xlink="http://www.w3.org/1999/xlink"
	 x="0px" y="0px" viewBox="0 0 16 16" xml:space="preserve">
<g>
	<path d="M13,5H4C3.724,5,3.5,4.776,3.5,4.5S3.724,4,4,4h9c0.276,0,0.5,0.224,0.5,0.5S13.276,5,13,5z"/>
</g>
<g>
	<path d="M13,7H7C6.724,7,6.5,6.776,6.5,6.5S6.724,6,7,6h6c0.276,0,0.5,0.224,0.5,0.5S13.276,7,13,7z"/>
</g>
<g>
	<path d="M13,9H4C3.724,9,3.5,8.776,3.5,8.5S3.724,8,4,8h9c0.276,0,0.5,0.224,0.5,0.5S13.276,9,13,9z"/>
</g>
<g>
	<path d="M13,13H4c-0.276,0-0.5-0.224-0.5-0.5S3.724,12,4,12h9c0.276,0,0.5,0.224,0.5,0.5S13.276,13,13,13z"/>
</g>
<g>
	<path d="M13,11H7c-0.276,0-0.5-0.224-0.5-0.5S6.724,10,7,10h6c0.276,0,0.5,0.224,0.5,0.5S13.276,11,13,11z"/>
</g>
</svg>
