<?xml version="1.0" encoding="utf-8"?>
<!-- Generator: Adobe Illustrator 19.1.0, SVG Export Plug-In . SVG Version: 6.00 Build 0)  -->
<!DOCTYPE svg PUBLIC "-//W3C//DTD SVG 1.1 Tiny//EN" "http://www.w3.org/Graphics/SVG/1.1/DTD/svg11-tiny.dtd">
<svg version="1.1" baseProfile="tiny" id="Layer_1" xmlns="http://www.w3.org/2000/svg" xmlns:xlink="http://www.w3.org/1999/xlink"
	 x="0px" y="0px" viewBox="0 0 16 16" xml:space="preserve">
<g>
	<path d="M12,5H3C2.7,5,2.5,4.8,2.5,4.5S2.7,4,3,4h9c0.3,0,0.5,0.2,0.5,0.5S12.3,5,12,5z"/>
</g>
<g>
	<path d="M9,7H3C2.7,7,2.5,6.8,2.5,6.5S2.7,6,3,6h6c0.3,0,0.5,0.2,0.5,0.5S9.3,7,9,7z"/>
</g>
<g>
	<path d="M12,9H3C2.7,9,2.5,8.8,2.5,8.5S2.7,8,3,8h9c0.3,0,0.5,0.2,0.5,0.5S12.3,9,12,9z"/>
</g>
<g>
	<path d="M12,13H3c-0.3,0-0.5-0.2-0.5-0.5S2.7,12,3,12h9c0.3,0,0.5,0.2,0.5,0.5S12.3,13,12,13z"/>
</g>
<g>
	<path d="M9,11H3c-0.3,0-0.5-0.2-0.5-0.5S2.7,10,3,10h6c0.3,0,0.5,0.2,0.5,0.5S9.3,11,9,11z"/>
</g>
</svg>
