<?xml version="1.0" encoding="iso-8859-1"?>
<!-- Generator: Adobe Illustrator 19.1.0, SVG Export Plug-In . SVG Version: 6.00 Build 0)  -->
<!DOCTYPE svg PUBLIC "-//W3C//DTD SVG 1.1 Tiny//EN" "http://www.w3.org/Graphics/SVG/1.1/DTD/svg11-tiny.dtd">
<svg version="1.1" baseProfile="tiny" id="Layer_1" xmlns="http://www.w3.org/2000/svg" xmlns:xlink="http://www.w3.org/1999/xlink"
	 x="0px" y="0px" viewBox="0 0 16 16" xml:space="preserve">
<path d="M13,5H3C2.724,5,2.5,4.776,2.5,4.5S2.724,4,3,4h10c0.276,0,0.5,0.224,0.5,0.5S13.276,5,13,5z"/>
<path d="M11,7H5C4.724,7,4.5,6.776,4.5,6.5S4.724,6,5,6h6c0.276,0,0.5,0.224,0.5,0.5S11.276,7,11,7z"/>
<path d="M13,9H3C2.724,9,2.5,8.776,2.5,8.5S2.724,8,3,8h10c0.276,0,0.5,0.224,0.5,0.5S13.276,9,13,9z"/>
<path d="M13,13H3c-0.276,0-0.5-0.224-0.5-0.5S2.724,12,3,12h10c0.276,0,0.5,0.224,0.5,0.5S13.276,13,13,13z"/>
<path d="M11,11H5c-0.276,0-0.5-0.224-0.5-0.5S4.724,10,5,10h6c0.276,0,0.5,0.224,0.5,0.5S11.276,11,11,11z"/>
</svg>
