<?xml version="1.0" encoding="utf-8"?>
<!-- Generator: Adobe Illustrator 19.1.0, SVG Export Plug-In . SVG Version: 6.00 Build 0)  -->
<!DOCTYPE svg PUBLIC "-//W3C//DTD SVG 1.1 Tiny//EN" "http://www.w3.org/Graphics/SVG/1.1/DTD/svg11-tiny.dtd">
<svg version="1.1" baseProfile="tiny" id="Layer_1" xmlns="http://www.w3.org/2000/svg" xmlns:xlink="http://www.w3.org/1999/xlink"
	 x="0px" y="0px" viewBox="0 0 16 16" xml:space="preserve">
<path d="M15.5,6h-15C0.2,6,0,5.8,0,5.5v-3C0,2.2,0.2,2,0.5,2h15C15.8,2,16,2.2,16,2.5v3C16,5.8,15.8,6,15.5,6z M1,5h14V3H1V5z"/>
<path d="M14.5,14h-13C1.2,14,1,13.8,1,13.5v-8C1,5.2,1.2,5,1.5,5h13C14.8,5,15,5.2,15,5.5v8C15,13.8,14.8,14,14.5,14z M2,13h12V6H2
	V13z"/>
<path d="M10.5,10h-5C5.2,10,5,9.8,5,9.5v-2C5,7.2,5.2,7,5.5,7h5C10.8,7,11,7.2,11,7.5v2C11,9.8,10.8,10,10.5,10z M6,9h4V8H6V9z"/>
</svg>
