<?xml version="1.0" encoding="iso-8859-1"?>
<!-- Generator: Adobe Illustrator 19.1.0, SVG Export Plug-In . SVG Version: 6.00 Build 0)  -->
<!DOCTYPE svg PUBLIC "-//W3C//DTD SVG 1.1 Tiny//EN" "http://www.w3.org/Graphics/SVG/1.1/DTD/svg11-tiny.dtd">
<svg version="1.1" baseProfile="tiny" id="Layer_1" xmlns="http://www.w3.org/2000/svg" xmlns:xlink="http://www.w3.org/1999/xlink"
	 x="0px" y="0px" viewBox="0 0 16 16" xml:space="preserve">
<g>
	<path d="M7.5,15.5C7.224,15.5,7,15.276,7,15V1c0-0.276,0.224-0.5,0.5-0.5S8,0.724,8,1v14C8,15.276,7.776,15.5,7.5,15.5z"/>
</g>
<g>
	<path d="M10.597,4.611c-0.128,0-0.256-0.049-0.354-0.146L7.5,1.722L4.757,4.465c-0.195,0.195-0.512,0.195-0.707,0
		s-0.195-0.512,0-0.707l3.097-3.097c0.195-0.195,0.512-0.195,0.707,0l3.097,3.097c0.195,0.195,0.195,0.512,0,0.707
		C10.853,4.562,10.725,4.611,10.597,4.611z"/>
</g>
<g>
	<path d="M7.5,15.5c-0.128,0-0.256-0.049-0.354-0.146L4.05,12.257c-0.195-0.195-0.195-0.512,0-0.707s0.512-0.195,0.707,0L7.5,14.293
		l2.743-2.743c0.195-0.195,0.512-0.195,0.707,0s0.195,0.512,0,0.707l-3.097,3.097C7.756,15.451,7.628,15.5,7.5,15.5z"/>
</g>
</svg>
