<?xml version="1.0" encoding="utf-8"?>
<!-- Generator: Adobe Illustrator 19.1.0, SVG Export Plug-In . SVG Version: 6.00 Build 0)  -->
<svg version="1.1" id="Layer_1" xmlns="http://www.w3.org/2000/svg" xmlns:xlink="http://www.w3.org/1999/xlink" x="0px" y="0px"
	 viewBox="0 0 16 16" style="enable-background:new 0 0 16 16;" xml:space="preserve">
<style type="text/css">
	.st0{fill:none;stroke:#000000;stroke-linecap:round;stroke-linejoin:round;stroke-miterlimit:10;}
	.st1{fill:#231F20;}
	.st2{fill:#FFFFFF;stroke:#231F20;stroke-miterlimit:10;}
</style>
<path d="M11.1,12.2L9,13.8V2.2l2.1,1.7C11.2,4,11.4,4,11.5,4s0.3,0,0.4-0.1c0.2-0.2,0.2-0.5,0-0.7l-3-2.5c-0.2-0.2-0.5-0.2-0.7,0
	l-3,2.5C5,3.4,5,3.7,5.1,3.9c0.2,0.2,0.5,0.2,0.7,0L8,2.2v11.6l-2.1-1.6c-0.2-0.2-0.5-0.2-0.7,0s-0.2,0.5,0,0.7l3,2.4
	c0.1,0.1,0.2,0.2,0.4,0.2s0.3-0.1,0.4-0.2l3-2.4c0.2-0.2,0.2-0.5,0-0.7S11.3,12,11.1,12.2z"/>
</svg>
