<?xml version="1.0" encoding="iso-8859-1"?>
<!-- Generator: Adobe Illustrator 19.1.0, SVG Export Plug-In . SVG Version: 6.00 Build 0)  -->
<!DOCTYPE svg PUBLIC "-//W3C//DTD SVG 1.1 Tiny//EN" "http://www.w3.org/Graphics/SVG/1.1/DTD/svg11-tiny.dtd">
<svg version="1.1" baseProfile="tiny" id="Layer_1" xmlns="http://www.w3.org/2000/svg" xmlns:xlink="http://www.w3.org/1999/xlink"
	 x="0px" y="0px" viewBox="0 0 16 16" xml:space="preserve">
<path d="M11.146,12.167L9,13.793V2.222l2.146,1.652c0.098,0.098,0.226,0.146,0.354,0.146s0.256-0.049,0.354-0.146
	c0.195-0.195,0.195-0.512,0-0.707l-3-2.506c-0.195-0.195-0.512-0.195-0.707,0l-3,2.506c-0.195,0.195-0.195,0.512,0,0.707
	c0.195,0.195,0.512,0.195,0.707,0L8,2.222v11.571l-2.146-1.626c-0.195-0.195-0.512-0.195-0.707,0s-0.195,0.512,0,0.707l2.957,2.436
	c0.091,0.124,0.231,0.21,0.397,0.21s0.306-0.086,0.397-0.21l2.957-2.436c0.195-0.195,0.195-0.512,0-0.707
	S11.342,11.972,11.146,12.167z"/>
</svg>
