<?xml version="1.0" encoding="iso-8859-1"?>
<!-- Generator: Adobe Illustrator 19.1.0, SVG Export Plug-In . SVG Version: 6.00 Build 0)  -->
<!DOCTYPE svg PUBLIC "-//W3C//DTD SVG 1.1 Tiny//EN" "http://www.w3.org/Graphics/SVG/1.1/DTD/svg11-tiny.dtd">
<svg version="1.1" baseProfile="tiny" id="Layer_1" xmlns="http://www.w3.org/2000/svg" xmlns:xlink="http://www.w3.org/1999/xlink"
	 x="0px" y="0px" viewBox="0 0 16 16" xml:space="preserve">
<g>
	<path d="M13.979,7.905H2c-0.276,0-0.5-0.224-0.5-0.5s0.224-0.5,0.5-0.5h11.979c0.276,0,0.5,0.224,0.5,0.5
		S14.255,7.905,13.979,7.905z"/>
</g>
<g>
	<path d="M10.31,11.627c-0.141,0-0.281-0.06-0.38-0.175c-0.18-0.21-0.155-0.526,0.055-0.705l3.924-3.353L9.984,4.042
		C9.774,3.863,9.75,3.547,9.93,3.337c0.18-0.209,0.495-0.234,0.705-0.055l4.368,3.732c0.11,0.095,0.175,0.233,0.175,0.38
		s-0.064,0.285-0.175,0.38l-4.368,3.732C10.54,11.588,10.425,11.627,10.31,11.627z"/>
</g>
</svg>
