<?xml version="1.0" encoding="utf-8"?>
<!-- Generator: Adobe Illustrator 19.1.0, SVG Export Plug-In . SVG Version: 6.00 Build 0)  -->
<!DOCTYPE svg PUBLIC "-//W3C//DTD SVG 1.1 Tiny//EN" "http://www.w3.org/Graphics/SVG/1.1/DTD/svg11-tiny.dtd">
<svg version="1.1" baseProfile="tiny" id="Layer_1" xmlns="http://www.w3.org/2000/svg" xmlns:xlink="http://www.w3.org/1999/xlink"
	 x="0px" y="0px" viewBox="0 0 16 16" xml:space="preserve">
<g id="XMLID_810_">
	<path d="M8.1,14.9c-2.4,0-4.1-0.1-4.5-0.3c-0.7-0.3-0.3-1.9-0.3-2c0.1-0.4,0.5-0.5,1.5-0.8c0.4-0.1,1.2-0.4,1.3-0.5
		c0.1-0.1,0.3-0.9,0.3-1.5c0-0.3,0.3-0.5,0.5-0.5c0.3,0,0.5,0.3,0.5,0.5c0,0.5-0.2,1.7-0.6,2.2c-0.3,0.3-0.8,0.5-1.7,0.7
		c-0.3,0.1-0.6,0.2-0.8,0.3c0,0.2,0,0.5,0,0.6c0.5,0.1,1.6,0.1,3.9,0.1c2.6,0,3.6-0.1,3.9-0.1c0-0.2,0-0.5,0-0.6
		c-0.2-0.1-0.6-0.2-0.9-0.3c-1.1-0.3-1.6-0.5-1.8-0.8c-0.4-0.4-0.5-1.7-0.5-2.4C8.8,9.4,9,9,9.3,9c0,0,0,0,0,0
		c0.3,0,0.5,0.4,0.5,0.7c0,0.7,0.1,1.5,0.2,1.6c0.1,0.1,0.9,0.4,1.4,0.5c0.9,0.3,1.3,0.4,1.4,0.7c0.2,0.3,0.3,1.7-0.1,2
		C12.6,14.7,12.4,14.9,8.1,14.9z"/>
	<path d="M8.1,10.9c-1.1,0-2.2-1-2.9-2.7C5,7.7,4.8,6.6,4.8,5.2c0-2.1,1.5-3.7,3.3-3.7c1.8,0,3.3,1.6,3.3,3.7c0,0.7,0,2.3-0.3,3
		C10.3,9.9,9.2,10.9,8.1,10.9z M8.1,2.5c-1.3,0-2.3,1.2-2.3,2.7c0,1.3,0.1,2.3,0.3,2.6c0.7,1.6,1.5,2.1,2,2.1c0.5,0,1.3-0.6,2-2.1
		c0.1-0.3,0.3-1.2,0.3-2.6C10.4,3.7,9.4,2.5,8.1,2.5z"/>
	<g id="XMLID_844_">
		<path d="M2.8,12.9c-0.5,0-1.5-0.1-1.8-0.2c0,0-0.1,0-0.1,0c-0.7-0.3-0.3-1.6-0.3-1.6c0.1-0.3,0.4-0.4,1.2-0.7
			c0.3-0.1,0.9-0.3,1-0.4C2.9,9.9,3,9.4,3,9c0-0.3,0.3-0.5,0.5-0.5C3.9,8.5,4.1,8.8,4,9c0,0.5-0.2,1.4-0.5,1.7
			c-0.2,0.2-0.6,0.3-1.4,0.6c-0.2,0.1-0.4,0.1-0.6,0.2c0,0.1,0,0.2,0,0.3c0.6,0.1,1.2,0.1,1.4,0.1c0.3,0,0.5,0.2,0.5,0.5
			c0,0.3-0.2,0.5-0.5,0.5C2.9,12.9,2.9,12.9,2.8,12.9z"/>
		<path d="M4.5,9.9c-0.9,0-1.8-0.8-2.4-2.1C1.9,7.4,1.8,6.5,1.8,5.5c0-1.6,1.2-2.9,2.7-2.9C4.8,2.5,5,2.8,5,3S4.8,3.5,4.5,3.5
			c-0.9,0-1.7,0.9-1.7,1.9c0,1.1,0.1,1.7,0.2,1.9c0.5,1.1,1.1,1.5,1.5,1.5C4.8,8.9,5,9.1,5,9.4S4.8,9.9,4.5,9.9z"/>
	</g>
	<g id="XMLID_811_">
		<path d="M13.6,12.9c0,0-0.1,0-0.1,0c-0.3,0-0.5-0.3-0.5-0.5c0-0.3,0.3-0.5,0.5-0.5c0.1,0,0.5,0,0.9-0.1c0-0.1,0-0.2,0-0.3
			c-0.2-0.1-0.4-0.1-0.6-0.2c-0.8-0.2-1.2-0.4-1.4-0.6C12.1,10.4,12,9.5,12,9c0-0.3,0.2-0.5,0.5-0.5c0.2,0,0.5,0.2,0.5,0.5
			c0,0.5,0.2,1,0.2,1.1c0.1,0.1,0.6,0.2,1,0.3c0.8,0.3,1.1,0.3,1.2,0.7c0,0,0.4,1.4-0.3,1.6C14.8,12.8,14,12.9,13.6,12.9z"/>
		<path d="M11.5,9.9c-0.3,0-0.5-0.2-0.5-0.5s0.2-0.5,0.5-0.5c0.4,0,1-0.4,1.5-1.5c0.1-0.2,0.2-0.7,0.2-1.9c0-1.1-0.8-1.9-1.7-1.9
			C11.2,3.5,11,3.3,11,3s0.2-0.5,0.5-0.5c1.5,0,2.7,1.3,2.7,2.9c0,1-0.1,1.9-0.3,2.3C13.3,9.1,12.4,9.9,11.5,9.9z"/>
	</g>
</g>
</svg>
