<svg baseProfile="tiny" xmlns="http://www.w3.org/2000/svg" viewBox="0 0 16 16"><path d="M8.105 14.9c-2.404 0-4.135-.099-4.519-.258-.693-.287-.311-1.944-.306-1.96.104-.374.478-.493 1.477-.812.432-.138 1.153-.368 1.303-.49.108-.135.268-.877.322-1.545a.512.512 0 0 1 .539-.458.5.5 0 0 1 .458.539c-.04.504-.181 1.726-.609 2.169-.257.265-.816.453-1.707.738a13.64 13.64 0 0 0-.845.288 5.658 5.658 0 0 0-.034.643c.457.057 1.635.146 3.921.146 2.625 0 3.579-.081 3.921-.131a4.474 4.474 0 0 0-.006-.646c-.201-.079-.576-.196-.866-.287-1.061-.332-1.588-.516-1.831-.771-.404-.426-.485-1.74-.497-2.379-.005-.275.215-.686.49-.686h.01c.271 0 .495.396.5.669.013.653.122 1.476.23 1.629.138.103.926.393 1.396.54.948.296 1.256.424 1.416.654.188.269.276 1.656-.068 2.01-.182.189-.373.398-4.695.398z"/><path d="M8.105 10.906c-1.118 0-2.217-1.018-2.938-2.724-.215-.508-.344-1.612-.344-2.953 0-2.056 1.473-3.729 3.282-3.729 1.84 0 3.281 1.613 3.281 3.672 0 .669-.034 2.304-.348 3.011-.766 1.731-1.835 2.723-2.933 2.723zm0-8.406c-1.259 0-2.282 1.224-2.282 2.729 0 1.339.133 2.253.265 2.564.66 1.559 1.475 2.114 2.018 2.114.521 0 1.324-.559 2.02-2.128.126-.284.262-1.221.262-2.605-.001-1.5-1.003-2.674-2.283-2.674zM2.816 12.92c-.462 0-1.479-.13-1.806-.173a.46.46 0 0 1-.116-.03c-.666-.26-.316-1.624-.312-1.637.101-.346.412-.44 1.246-.694.329-.1.881-.268 1.006-.355.055-.088.168-.616.207-1.076a.5.5 0 0 1 .996.084c-.041.492-.164 1.371-.521 1.721-.209.206-.605.342-1.396.583a13.51 13.51 0 0 0-.602.192 3.718 3.718 0 0 0-.017.266c.596.073 1.204.134 1.351.119a.494.494 0 0 1 .545.452.5.5 0 0 1-.451.544c-.037.002-.08.004-.13.004z"/><path d="M4.511 9.897c-.927 0-1.833-.794-2.424-2.125-.181-.407-.285-1.242-.285-2.29 0-1.622 1.215-2.941 2.709-2.941a.5.5 0 0 1 0 1c-.942 0-1.709.871-1.709 1.941 0 1.136.13 1.729.199 1.883.502 1.131 1.127 1.532 1.51 1.532a.5.5 0 0 1 0 1z"/><g><path d="M13.619 12.92c-.046 0-.087-.001-.124-.005a.5.5 0 0 1 .094-.996c.112.011.518-.037.911-.102a3.703 3.703 0 0 0-.018-.283 13.104 13.104 0 0 0-.602-.192c-.791-.241-1.188-.376-1.396-.583-.357-.351-.48-1.229-.521-1.722a.5.5 0 0 1 .456-.54c.249-.033.517.18.54.456.039.461.153.988.238 1.106.094.058.646.225.975.325.834.253 1.146.348 1.246.694.004.014.354 1.377-.312 1.637-.317.07-1.068.205-1.487.205z"/><path d="M11.489 9.897a.5.5 0 0 1 0-1c.383 0 1.008-.401 1.51-1.532.069-.155.199-.747.199-1.883 0-1.07-.767-1.941-1.709-1.941a.5.5 0 0 1 0-1c1.494 0 2.709 1.319 2.709 2.941 0 1.048-.104 1.883-.285 2.29-.591 1.331-1.497 2.125-2.424 2.125z"/></g></svg>