<?xml version="1.0" encoding="iso-8859-1"?>
<!-- Generator: Adobe Illustrator 19.1.0, SVG Export Plug-In . SVG Version: 6.00 Build 0)  -->
<!DOCTYPE svg PUBLIC "-//W3C//DTD SVG 1.1 Tiny//EN" "http://www.w3.org/Graphics/SVG/1.1/DTD/svg11-tiny.dtd">
<svg version="1.1" baseProfile="tiny" xmlns="http://www.w3.org/2000/svg" xmlns:xlink="http://www.w3.org/1999/xlink" x="0px"
	 y="0px" viewBox="0 0 16 16" xml:space="preserve">
<g id="Layer_1">
	<g id="XMLID_810_">
		<path d="M8.105,14.9c-2.404,0-4.135-0.099-4.519-0.258c-0.693-0.287-0.311-1.944-0.306-1.96c0.104-0.374,0.478-0.493,1.477-0.812
			c0.432-0.138,1.153-0.368,1.303-0.49c0.108-0.135,0.268-0.877,0.322-1.545C6.404,9.56,6.655,9.363,6.921,9.377
			c0.275,0.022,0.48,0.263,0.458,0.539c-0.04,0.504-0.181,1.726-0.609,2.169c-0.257,0.265-0.816,0.453-1.707,0.738
			c-0.269,0.085-0.645,0.206-0.845,0.288c-0.021,0.182-0.037,0.452-0.034,0.643C4.641,13.811,5.819,13.9,8.105,13.9
			c2.625,0,3.579-0.081,3.921-0.131c0.014-0.191,0.011-0.469-0.006-0.646c-0.201-0.079-0.576-0.196-0.866-0.287
			c-1.061-0.332-1.588-0.516-1.831-0.771c-0.404-0.426-0.485-1.74-0.497-2.379C8.821,9.411,9.041,9,9.316,9c0.004,0,0.007,0,0.01,0
			c0.271,0,0.495,0.396,0.5,0.669c0.013,0.653,0.122,1.476,0.23,1.629c0.138,0.103,0.926,0.393,1.396,0.54
			c0.948,0.296,1.256,0.424,1.416,0.654c0.188,0.269,0.276,1.656-0.068,2.01C12.618,14.691,12.427,14.9,8.105,14.9z"/>
		<path d="M8.105,10.906c-1.118,0-2.217-1.018-2.938-2.724C4.952,7.674,4.823,6.57,4.823,5.229c0-2.056,1.473-3.729,3.282-3.729
			c1.84,0,3.281,1.613,3.281,3.672c0,0.669-0.034,2.304-0.348,3.011C10.272,9.914,9.203,10.906,8.105,10.906z M8.105,2.5
			c-1.259,0-2.282,1.224-2.282,2.729c0,1.339,0.133,2.253,0.265,2.564c0.66,1.559,1.475,2.114,2.018,2.114
			c0.521,0,1.324-0.559,2.02-2.128c0.126-0.284,0.262-1.221,0.262-2.605C10.387,3.674,9.385,2.5,8.105,2.5z"/>
		<g id="XMLID_844_">
			<path d="M2.816,12.92c-0.462,0-1.479-0.13-1.806-0.173c-0.04-0.005-0.079-0.015-0.116-0.03c-0.666-0.26-0.316-1.624-0.312-1.637
				c0.101-0.346,0.412-0.44,1.246-0.694c0.329-0.1,0.881-0.268,1.006-0.355c0.055-0.088,0.168-0.616,0.207-1.076
				c0.023-0.275,0.268-0.481,0.54-0.456c0.275,0.023,0.479,0.265,0.456,0.54C3.996,9.531,3.873,10.41,3.516,10.76
				c-0.209,0.206-0.605,0.342-1.396,0.583c-0.186,0.056-0.439,0.133-0.602,0.192c-0.008,0.082-0.015,0.178-0.017,0.266
				c0.596,0.073,1.204,0.134,1.351,0.119c0.284-0.028,0.519,0.176,0.545,0.452c0.025,0.275-0.177,0.519-0.451,0.544
				C2.909,12.918,2.866,12.92,2.816,12.92z"/>
			<path d="M4.511,9.897c-0.927,0-1.833-0.794-2.424-2.125C1.906,7.365,1.802,6.53,1.802,5.482c0-1.622,1.215-2.941,2.709-2.941
				c0.276,0,0.5,0.224,0.5,0.5s-0.224,0.5-0.5,0.5c-0.942,0-1.709,0.871-1.709,1.941c0,1.136,0.13,1.729,0.199,1.883
				c0.502,1.131,1.127,1.532,1.51,1.532c0.276,0,0.5,0.224,0.5,0.5S4.787,9.897,4.511,9.897z"/>
		</g>
		<g id="XMLID_811_">
			<path d="M13.619,12.92c-0.046,0-0.087-0.001-0.124-0.005c-0.274-0.026-0.477-0.27-0.451-0.544
				c0.026-0.275,0.263-0.478,0.545-0.452c0.112,0.011,0.518-0.037,0.911-0.102c-0.002-0.092-0.009-0.195-0.018-0.283
				c-0.162-0.059-0.416-0.136-0.602-0.192c-0.791-0.241-1.188-0.376-1.396-0.583c-0.357-0.351-0.48-1.229-0.521-1.722
				c-0.023-0.275,0.181-0.517,0.456-0.54c0.249-0.033,0.517,0.18,0.54,0.456c0.039,0.461,0.153,0.988,0.238,1.106
				c0.094,0.058,0.646,0.225,0.975,0.325c0.834,0.253,1.146,0.348,1.246,0.694c0.004,0.014,0.354,1.377-0.312,1.637
				C14.789,12.785,14.038,12.92,13.619,12.92z"/>
			<path d="M11.489,9.897c-0.276,0-0.5-0.224-0.5-0.5s0.224-0.5,0.5-0.5c0.383,0,1.008-0.401,1.51-1.532
				c0.069-0.155,0.199-0.747,0.199-1.883c0-1.07-0.767-1.941-1.709-1.941c-0.276,0-0.5-0.224-0.5-0.5s0.224-0.5,0.5-0.5
				c1.494,0,2.709,1.319,2.709,2.941c0,1.048-0.104,1.883-0.285,2.29C13.322,9.103,12.416,9.897,11.489,9.897z"/>
		</g>
	</g>
</g>
<g id="Layer_2">
</g>
<g id="Layer_3">
</g>
</svg>
