<svg baseProfile="tiny" xmlns="http://www.w3.org/2000/svg" viewBox="0 0 16 16"><path d="M8 16c-4.411 0-8-3.589-8-8s3.589-8 8-8 8 3.589 8 8-3.589 8-8 8zM8 1C4.141 1 1 4.141 1 8s3.141 7 7 7 7-3.141 7-7-3.141-7-7-7z"/><path d="M3.864 11.31l-.047-.002a.504.504 0 0 1-.366-.217A5.475 5.475 0 0 1 2.5 8c0-3.032 2.468-5.5 5.5-5.5 1.107 0 2.177.329 3.091.951a.497.497 0 0 1 .072.766l-6.945 6.945a.499.499 0 0 1-.354.148zM8 3.5A4.505 4.505 0 0 0 3.5 8c0 .7.16 1.381.468 1.999l6.031-6.031A4.47 4.47 0 0 0 8 3.5zM8 13.5a5.475 5.475 0 0 1-3.091-.951.497.497 0 0 1-.072-.766l6.945-6.945a.517.517 0 0 1 .4-.145.504.504 0 0 1 .366.217c.623.913.952 1.983.952 3.09 0 3.032-2.468 5.5-5.5 5.5zm-1.999-1.468A4.47 4.47 0 0 0 8 12.5c2.481 0 4.5-2.019 4.5-4.5 0-.7-.16-1.381-.468-1.999l-6.031 6.031z"/></svg>