<?xml version="1.0" encoding="iso-8859-1"?>
<!-- Generator: Adobe Illustrator 19.2.0, SVG Export Plug-In . SVG Version: 6.00 Build 0)  -->
<svg version="1.1" baseProfile="tiny" xmlns="http://www.w3.org/2000/svg" xmlns:xlink="http://www.w3.org/1999/xlink" x="0px"
	 y="0px" viewBox="0 0 16 16" xml:space="preserve">
<g id="Layer_1">
	<g>
		<path d="M8,16c-4.411,0-8-3.589-8-8s3.589-8,8-8s8,3.589,8,8S12.411,16,8,16z M8,1C4.141,1,1,4.141,1,8s3.141,7,7,7s7-3.141,7-7
			S11.859,1,8,1z"/>
		<path d="M3.864,11.31c-0.016,0-0.031-0.001-0.047-0.002c-0.148-0.015-0.282-0.094-0.366-0.217C2.829,10.177,2.5,9.107,2.5,8
			c0-3.032,2.468-5.5,5.5-5.5c1.107,0,2.177,0.329,3.091,0.951c0.123,0.084,0.202,0.218,0.217,0.366
			c0.014,0.148-0.039,0.295-0.145,0.4l-6.945,6.945C4.124,11.257,3.996,11.31,3.864,11.31z M8,3.5C5.519,3.5,3.5,5.519,3.5,8
			c0,0.7,0.16,1.381,0.468,1.999l6.031-6.031C9.381,3.66,8.7,3.5,8,3.5z"/>
		<path d="M8,13.5c-1.107,0-2.177-0.329-3.091-0.951c-0.123-0.084-0.202-0.218-0.217-0.366c-0.014-0.148,0.039-0.295,0.145-0.4
			l6.945-6.945c0.105-0.105,0.251-0.154,0.4-0.145c0.148,0.015,0.282,0.094,0.366,0.217C13.171,5.823,13.5,6.893,13.5,8
			C13.5,11.032,11.032,13.5,8,13.5z M6.001,12.032C6.619,12.34,7.3,12.5,8,12.5c2.481,0,4.5-2.019,4.5-4.5
			c0-0.7-0.16-1.381-0.468-1.999L6.001,12.032z"/>
	</g>
</g>
<g id="Layer_2">
</g>
<g id="Layer_3">
</g>
</svg>
