<?xml version="1.0" encoding="utf-8"?>
<!-- Generator: Adobe Illustrator 19.1.0, SVG Export Plug-In . SVG Version: 6.00 Build 0)  -->
<!DOCTYPE svg PUBLIC "-//W3C//DTD SVG 1.1 Tiny//EN" "http://www.w3.org/Graphics/SVG/1.1/DTD/svg11-tiny.dtd">
<svg version="1.1" baseProfile="tiny" id="Layer_1" xmlns="http://www.w3.org/2000/svg" xmlns:xlink="http://www.w3.org/1999/xlink"
	 x="0px" y="0px" viewBox="0 0 16 16" xml:space="preserve">
<g>
	<path d="M8,16c-4.4,0-8-3.6-8-8s3.6-8,8-8s8,3.6,8,8S12.4,16,8,16z M8,1C4.1,1,1,4.1,1,8s3.1,7,7,7s7-3.1,7-7S11.9,1,8,1z"/>
	<path d="M3.9,11.3C3.8,11.3,3.8,11.3,3.9,11.3c-0.2,0-0.3-0.1-0.4-0.2c-0.6-0.9-1-2-1-3.1C2.5,5,5,2.5,8,2.5c1.1,0,2.2,0.3,3.1,1
		c0.1,0.1,0.2,0.2,0.2,0.4c0,0.1,0,0.3-0.1,0.4l-6.9,6.9C4.1,11.3,4,11.3,3.9,11.3z M8,3.5c-2.5,0-4.5,2-4.5,4.5
		c0,0.7,0.2,1.4,0.5,2l6-6C9.4,3.7,8.7,3.5,8,3.5z"/>
	<path d="M8,13.5c-1.1,0-2.2-0.3-3.1-1c-0.1-0.1-0.2-0.2-0.2-0.4c0-0.1,0-0.3,0.1-0.4l6.9-6.9c0.1-0.1,0.3-0.2,0.4-0.1
		c0.1,0,0.3,0.1,0.4,0.2c0.6,0.9,1,2,1,3.1C13.5,11,11,13.5,8,13.5z M6,12c0.6,0.3,1.3,0.5,2,0.5c2.5,0,4.5-2,4.5-4.5
		c0-0.7-0.2-1.4-0.5-2L6,12z"/>
</g>
</svg>
