<?xml version="1.0" encoding="iso-8859-1"?>
<!-- Generator: Adobe Illustrator 19.1.0, SVG Export Plug-In . SVG Version: 6.00 Build 0)  -->
<!DOCTYPE svg PUBLIC "-//W3C//DTD SVG 1.1 Tiny//EN" "http://www.w3.org/Graphics/SVG/1.1/DTD/svg11-tiny.dtd">
<svg version="1.1" baseProfile="tiny" id="Layer_1" xmlns="http://www.w3.org/2000/svg" xmlns:xlink="http://www.w3.org/1999/xlink"
	 x="0px" y="0px" viewBox="0 0 16 16" xml:space="preserve">
<path d="M15.5,12c-0.533,0-1.5-1.631-1.5-2.529V7c0-2.675-1.614-3.832-3.431-4.632C10.411,1.016,9.313,0,7.941,0
	C6.591,0,5.548,0.997,5.4,2.368C3.599,3.162,2,4.315,2,7v2.471C2,10.369,1.033,12,0.5,12C0.224,12,0,12.224,0,12.5S0.224,13,0.5,13
	h4.735c0,1.524,1.24,2.765,2.765,2.765s2.765-1.24,2.765-2.765H15.5c0.276,0,0.5-0.224,0.5-0.5S15.776,12,15.5,12z M8,14.765
	c-0.973,0-1.765-0.792-1.765-1.765h3.529C9.765,13.973,8.973,14.765,8,14.765z M2.031,12C2.615,11.213,3,10.142,3,9.471V7
	c0-2.134,1.127-3.021,3.075-3.832c0.186-0.078,0.308-0.26,0.308-0.462C6.382,1.718,7.038,1,7.941,1c0.923,0,1.647,0.749,1.647,1.706
	c0,0.202,0.121,0.384,0.308,0.462C11.862,3.988,13,4.878,13,7v2.471c0,0.671,0.385,1.742,0.969,2.529H2.031z"/>
</svg>
