<?xml version="1.0" encoding="iso-8859-1"?>
<!-- Generator: Adobe Illustrator 19.2.0, SVG Export Plug-In . SVG Version: 6.00 Build 0)  -->
<svg version="1.1" baseProfile="tiny" xmlns="http://www.w3.org/2000/svg" xmlns:xlink="http://www.w3.org/1999/xlink" x="0px"
	 y="0px" viewBox="0 0 16 16" xml:space="preserve">
<g id="Layer_1">
	<path d="M15.5,13h-15C0.224,13,0,12.776,0,12.5S0.224,12,0.5,12C1.033,12,2,10.369,2,9.471V7c0-2.685,1.599-3.838,3.4-4.632
		C5.548,0.997,6.591,0,7.941,0c1.372,0,2.469,1.016,2.627,2.368C12.386,3.168,14,4.325,14,7v2.471C14,10.369,14.967,12,15.5,12
		c0.276,0,0.5,0.224,0.5,0.5S15.776,13,15.5,13z M2.031,12h11.938C13.385,11.213,13,10.142,13,9.471V7
		c0-2.122-1.138-3.012-3.104-3.832C9.709,3.09,9.588,2.908,9.588,2.706C9.588,1.749,8.865,1,7.941,1
		C7.038,1,6.382,1.718,6.382,2.706c0,0.202-0.122,0.384-0.308,0.462C4.127,3.979,3,4.866,3,7v2.471C3,10.142,2.615,11.213,2.031,12z
		"/>
	<path d="M8,15.765c-1.524,0-2.765-1.24-2.765-2.765c0-0.276,0.224-0.5,0.5-0.5s0.5,0.224,0.5,0.5c0,0.973,0.792,1.765,1.765,1.765
		S9.765,13.973,9.765,13c0-0.276,0.224-0.5,0.5-0.5s0.5,0.224,0.5,0.5C10.765,14.524,9.524,15.765,8,15.765z"/>
</g>
<g id="Layer_2">
</g>
<g id="Layer_3">
</g>
</svg>
