<svg baseProfile="tiny" xmlns="http://www.w3.org/2000/svg" viewBox="0 0 16 16"><path d="M15.5 13H.5a.5.5 0 0 1 0-1C1.033 12 2 10.369 2 9.471V7c0-2.685 1.599-3.838 3.4-4.632C5.548.997 6.591 0 7.941 0c1.372 0 2.469 1.016 2.627 2.368C12.386 3.168 14 4.325 14 7v2.471c0 .898.967 2.529 1.5 2.529a.5.5 0 0 1 0 1zM2.031 12h11.938c-.584-.787-.969-1.858-.969-2.529V7c0-2.122-1.138-3.012-3.104-3.832a.5.5 0 0 1-.308-.462C9.588 1.749 8.865 1 7.941 1c-.903 0-1.559.718-1.559 1.706a.502.502 0 0 1-.308.462C4.127 3.979 3 4.866 3 7v2.471c0 .671-.385 1.742-.969 2.529z"/><path d="M8 15.765A2.768 2.768 0 0 1 5.235 13a.5.5 0 0 1 1 0c0 .973.792 1.765 1.765 1.765S9.765 13.973 9.765 13a.5.5 0 0 1 1 0A2.769 2.769 0 0 1 8 15.765z"/></svg>