<svg baseProfile="tiny" xmlns="http://www.w3.org/2000/svg" viewBox="0 0 16 16"><path d="M15.5 16H.5a.5.5 0 0 1-.5-.5v-14A.5.5 0 0 1 .5 1H3a.5.5 0 0 1 0 1H1v13h14V2h-1a.5.5 0 0 1 0-1h1.5a.5.5 0 0 1 .5.5v14a.5.5 0 0 1-.5.5z"/><path d="M5.5 3h-2a.5.5 0 0 1-.5-.5v-2a.5.5 0 0 1 .5-.5h2a.5.5 0 0 1 .5.5v2a.5.5 0 0 1-.5.5zM4 2h1V1H4v1zM13.5 3h-2a.5.5 0 0 1-.5-.5v-2a.5.5 0 0 1 .5-.5h2a.5.5 0 0 1 .5.5v2a.5.5 0 0 1-.5.5zM12 2h1V1h-1v1z"/><path d="M11 2H6a.5.5 0 0 1 0-1h5a.5.5 0 0 1 0 1zM0 4h15v1H0zM6.5 12.5A.5.5 0 0 1 6 12V8.685l-.489.435a.5.5 0 1 1-.664-.748l1.321-1.173A.499.499 0 0 1 7 7.572V12a.5.5 0 0 1-.5.5z"/><path d="M8 13H5a.5.5 0 0 1 0-1h3a.5.5 0 0 1 0 1z"/><g><path d="M9.62 13.205a.5.5 0 0 1-.473-.662L10.701 8H9a.5.5 0 0 1-1 0v-.5a.5.5 0 0 1 .5-.5h2.9a.496.496 0 0 1 .472.661l-1.78 5.205a.497.497 0 0 1-.472.339z"/></g></svg>