<svg baseProfile="tiny" xmlns="http://www.w3.org/2000/svg" viewBox="0 0 16 16"><path d="M.5 10.11a.5.5 0 0 1-.5-.5V6.358a.5.5 0 0 1 1 0V9.61a.5.5 0 0 1-.5.5zM15.5 15a.5.5 0 0 1-.5-.5V1a.5.5 0 0 1 1 0v13.5a.5.5 0 0 1-.5.5z"/><path d="M15.5 14.257a.517.517 0 0 1-.151-.023l-15-4.774A.502.502 0 0 1 0 8.982V6.937c0-.218.141-.41.349-.477l15-4.773a.499.499 0 0 1 .651.476v11.594a.497.497 0 0 1-.5.5zM1 8.617l14 4.456V2.847L1 7.302v1.315z"/><path d="M6.55 14.093c-1.62 0-2.55-.841-2.55-2.306V10.61a.5.5 0 0 1 1 0v1.177c0 .607.176 1.306 1.55 1.306 1.362 0 1.55-.603 1.55-1.254a.5.5 0 0 1 1 0c0 .842-.331 2.254-2.55 2.254z"/></svg>