<?xml version="1.0" encoding="iso-8859-1"?>
<!-- Generator: Adobe Illustrator 19.1.0, SVG Export Plug-In . SVG Version: 6.00 Build 0)  -->
<!DOCTYPE svg PUBLIC "-//W3C//DTD SVG 1.1 Tiny//EN" "http://www.w3.org/Graphics/SVG/1.1/DTD/svg11-tiny.dtd">
<svg version="1.1" baseProfile="tiny" id="Layer_1" xmlns="http://www.w3.org/2000/svg" xmlns:xlink="http://www.w3.org/1999/xlink"
	 x="0px" y="0px" viewBox="0 0 16 16" xml:space="preserve">
<g id="XMLID_359_">
	<path d="M0.5,10.11c-0.276,0-0.5-0.224-0.5-0.5V6.358c0-0.276,0.224-0.5,0.5-0.5S1,6.082,1,6.358V9.61
		C1,9.887,0.776,10.11,0.5,10.11z"/>
</g>
<g id="XMLID_332_">
	<path d="M15.5,15c-0.276,0-0.5-0.224-0.5-0.5V1c0-0.276,0.224-0.5,0.5-0.5S16,0.724,16,1v13.5C16,14.776,15.776,15,15.5,15z"/>
</g>
<g id="XMLID_300_">
	<path d="M15.5,14.257c-0.051,0-0.102-0.008-0.151-0.023l-15-4.774C0.141,9.393,0,9.2,0,8.982V6.937c0-0.218,0.141-0.41,0.349-0.477
		l15-4.773c0.152-0.047,0.317-0.021,0.446,0.073S16,2.004,16,2.163v11.594c0,0.159-0.076,0.31-0.205,0.403
		C15.708,14.224,15.604,14.257,15.5,14.257z M1,8.617l14,4.456V2.847L1,7.302V8.617z"/>
</g>
<g id="XMLID_134_">
	<path d="M6.55,14.093c-1.62,0-2.55-0.841-2.55-2.306V10.61c0-0.276,0.224-0.5,0.5-0.5S5,10.334,5,10.61v1.177
		c0,0.607,0.176,1.306,1.55,1.306c1.362,0,1.55-0.603,1.55-1.254c0-0.276,0.224-0.5,0.5-0.5s0.5,0.224,0.5,0.5
		C9.1,12.681,8.769,14.093,6.55,14.093z"/>
</g>
</svg>
