<svg baseProfile="tiny" xmlns="http://www.w3.org/2000/svg" viewBox="0 0 16 16"><path d="M11.5 14h-7a.5.5 0 0 1-.5-.5v-9a.5.5 0 0 1 .5-.5H5v9h6V4h.5a.5.5 0 0 1 .5.5v9a.5.5 0 0 1-.5.5z"/><path d="M13.5 16h-11a.5.5 0 0 1-.5-.5v-12a.5.5 0 0 1 .5-.5H6v1H3v11h10V4h-3V3h3.5a.5.5 0 0 1 .5.5v12a.5.5 0 0 1-.5.5z"/><path d="M10.5 5h-5a.5.5 0 0 1-.5-.5v-2a.5.5 0 0 1 .5-.5h.42C6.161 1.034 7.101.588 7.982.588c1.017 0 1.729.54 1.921 1.412h.597a.5.5 0 0 1 .5.5v2a.5.5 0 0 1-.5.5zM6 4h4V3h-.544a.5.5 0 0 1-.5-.5c0-.754-.529-.912-.974-.912-.188 0-1.122.044-1.122.912a.5.5 0 0 1-.5.5H6v1z"/></svg>