<?xml version="1.0" encoding="iso-8859-1"?>
<!-- Generator: Adobe Illustrator 19.2.0, SVG Export Plug-In . SVG Version: 6.00 Build 0)  -->
<svg version="1.1" baseProfile="tiny" xmlns="http://www.w3.org/2000/svg" xmlns:xlink="http://www.w3.org/1999/xlink" x="0px"
	 y="0px" viewBox="0 0 16 16" xml:space="preserve">
<g id="Layer_1">
	<g id="XMLID_4_">
		<path d="M13.009,13.508c-0.128,0-0.256-0.049-0.354-0.146L2.638,3.345c-0.195-0.195-0.195-0.512,0-0.707s0.512-0.195,0.707,0
			l10.018,10.017c0.195,0.195,0.195,0.512,0,0.707C13.265,13.459,13.137,13.508,13.009,13.508z"/>
		<path d="M2.991,13.508c-0.128,0-0.256-0.049-0.354-0.146c-0.195-0.195-0.195-0.512,0-0.707L12.655,2.638
			c0.195-0.195,0.512-0.195,0.707,0s0.195,0.512,0,0.707L3.345,13.362C3.247,13.459,3.119,13.508,2.991,13.508z"/>
	</g>
</g>
<g id="Layer_2">
</g>
<g id="Layer_3">
</g>
</svg>
