<?xml version="1.0" encoding="utf-8"?>
<!-- Generator: Adobe Illustrator 19.1.0, SVG Export Plug-In . SVG Version: 6.00 Build 0)  -->
<!DOCTYPE svg PUBLIC "-//W3C//DTD SVG 1.1 Tiny//EN" "http://www.w3.org/Graphics/SVG/1.1/DTD/svg11-tiny.dtd">
<svg version="1.1" baseProfile="tiny" id="Layer_1" xmlns="http://www.w3.org/2000/svg" xmlns:xlink="http://www.w3.org/1999/xlink"
	 x="0px" y="0px" viewBox="0 0 16 16" xml:space="preserve">
<g id="XMLID_1_">
	<g id="XMLID_7_">
		<path d="M13,13.5c-0.1,0-0.3,0-0.4-0.1l-10-10c-0.2-0.2-0.2-0.5,0-0.7s0.5-0.2,0.7,0l10,10c0.2,0.2,0.2,0.5,0,0.7
			C13.3,13.5,13.1,13.5,13,13.5z"/>
	</g>
	<g id="XMLID_2_">
		<path d="M3,13.5c-0.1,0-0.3,0-0.4-0.1c-0.2-0.2-0.2-0.5,0-0.7l10-10c0.2-0.2,0.5-0.2,0.7,0s0.2,0.5,0,0.7l-10,10
			C3.2,13.5,3.1,13.5,3,13.5z"/>
	</g>
</g>
</svg>
