<svg baseProfile="tiny" xmlns="http://www.w3.org/2000/svg" viewBox="0 0 16 16"><path d="M5.042 9.137a.5.5 0 0 1-.354-.853l1.268-1.269-1.268-1.269a.5.5 0 0 1 .707-.707l1.621 1.622a.5.5 0 0 1 0 .707L5.396 8.99a.5.5 0 0 1-.354.147zM11 8H9a.5.5 0 0 1 0-1h2a.5.5 0 0 1 0 1z"/><path d="M15.5 15H.5a.5.5 0 0 1-.5-.5v-13A.5.5 0 0 1 .5 1h15a.5.5 0 0 1 .5.5v13a.5.5 0 0 1-.5.5zM1 14h14V2H1v12z"/><path d="M13.5 13h-11a.5.5 0 0 1-.5-.5v-9a.5.5 0 0 1 .5-.5h11a.5.5 0 0 1 .5.5v9a.5.5 0 0 1-.5.5zM3 12h10V4H3v8z"/></svg>