<?xml version="1.0" encoding="iso-8859-1"?>
<!-- Generator: Adobe Illustrator 19.2.0, SVG Export Plug-In . SVG Version: 6.00 Build 0)  -->
<svg version="1.1" baseProfile="tiny" xmlns="http://www.w3.org/2000/svg" xmlns:xlink="http://www.w3.org/1999/xlink" x="0px"
	 y="0px" viewBox="0 0 16 16" xml:space="preserve">
<g id="Layer_1">
	<path d="M10.5,6c-0.128,0-0.256-0.049-0.354-0.146c-0.195-0.195-0.195-0.512,0-0.707l5-5c0.195-0.195,0.512-0.195,0.707,0
		s0.195,0.512,0,0.707l-5,5C10.756,5.951,10.628,6,10.5,6z"/>
	<path d="M12.5,7h-3C9.224,7,9,6.776,9,6.5v-3C9,3.224,9.224,3,9.5,3S10,3.224,10,3.5V6h2.5C12.776,6,13,6.224,13,6.5
		S12.776,7,12.5,7z"/>
	<path d="M0.5,16c-0.128,0-0.256-0.049-0.354-0.146c-0.195-0.195-0.195-0.512,0-0.707l5-5c0.195-0.195,0.512-0.195,0.707,0
		s0.195,0.512,0,0.707l-5,5C0.756,15.951,0.628,16,0.5,16z"/>
	<path d="M6.5,13C6.224,13,6,12.776,6,12.5V10H3.5C3.224,10,3,9.776,3,9.5S3.224,9,3.5,9h3C6.776,9,7,9.224,7,9.5v3
		C7,12.776,6.776,13,6.5,13z"/>
	<path d="M15.5,16c-0.128,0-0.256-0.049-0.354-0.146l-5-5c-0.195-0.195-0.195-0.512,0-0.707s0.512-0.195,0.707,0l5,5
		c0.195,0.195,0.195,0.512,0,0.707C15.756,15.951,15.628,16,15.5,16z"/>
	<path d="M9.5,13C9.224,13,9,12.776,9,12.5v-3C9,9.224,9.224,9,9.5,9h3C12.776,9,13,9.224,13,9.5S12.776,10,12.5,10H10v2.5
		C10,12.776,9.776,13,9.5,13z"/>
	<path d="M5.5,6C5.372,6,5.244,5.951,5.146,5.854l-5-5c-0.195-0.195-0.195-0.512,0-0.707s0.512-0.195,0.707,0l5,5
		c0.195,0.195,0.195,0.512,0,0.707C5.756,5.951,5.628,6,5.5,6z"/>
	<path d="M6.5,7h-3C3.224,7,3,6.776,3,6.5S3.224,6,3.5,6H6V3.5C6,3.224,6.224,3,6.5,3S7,3.224,7,3.5v3C7,6.776,6.776,7,6.5,7z"/>
</g>
<g id="Layer_2">
</g>
<g id="Layer_3">
</g>
</svg>
