<?xml version="1.0" encoding="utf-8"?>
<!-- Generator: Adobe Illustrator 19.1.0, SVG Export Plug-In . SVG Version: 6.00 Build 0)  -->
<!DOCTYPE svg PUBLIC "-//W3C//DTD SVG 1.1 Tiny//EN" "http://www.w3.org/Graphics/SVG/1.1/DTD/svg11-tiny.dtd">
<svg version="1.1" baseProfile="tiny" id="Layer_1" xmlns="http://www.w3.org/2000/svg" xmlns:xlink="http://www.w3.org/1999/xlink"
	 x="0px" y="0px" viewBox="0 0 16 16" xml:space="preserve">
<path d="M4,6.4c-1.5,0-2.8-1.2-2.8-2.8S2.4,0.9,4,0.9s2.8,1.2,2.8,2.8S5.5,6.4,4,6.4z M4,1.9c-1,0-1.8,0.8-1.8,1.8S3,5.4,4,5.4
	s1.8-0.8,1.8-1.8S4.9,1.9,4,1.9z"/>
<path d="M5.5,14h-3C2.2,14,2,13.8,2,13.5v-2.6c-0.9-0.7-1-2.6-1-4.4C1,6.2,1.2,6,1.5,6h5.1c0.3,0,0.5,0.2,0.5,0.5
	c0,1.7-0.2,3.7-1.1,4.4v2.6C6,13.8,5.8,14,5.5,14z M3,13h2v-2.4c0-0.2,0.1-0.4,0.3-0.5C5.7,10,6,8.9,6.1,7H2c0.1,2.7,0.5,3,0.7,3.1
	C2.9,10.2,3,10.4,3,10.6V13z"/>
<path d="M12,6.4c-1.5,0-2.8-1.2-2.8-2.8s1.2-2.8,2.8-2.8s2.8,1.2,2.8,2.8S13.5,6.4,12,6.4z M12,1.9c-1,0-1.8,0.8-1.8,1.8
	S11,5.4,12,5.4s1.8-0.8,1.8-1.8S12.9,1.9,12,1.9z"/>
<path d="M13.5,14h-3c-0.3,0-0.5-0.2-0.5-0.5v-2.6c-0.9-0.7-1-2.6-1-4.4C9,6.2,9.2,6,9.5,6h5.1c0.3,0,0.5,0.2,0.5,0.5
	c0,1.7-0.2,3.7-1.1,4.4v2.6C14,13.8,13.8,14,13.5,14z M11,13h2v-2.4c0-0.2,0.1-0.4,0.3-0.5C13.7,10,14,8.9,14.1,7H10
	c0.1,2.7,0.5,3,0.7,3.1c0.2,0.1,0.3,0.3,0.3,0.5V13z"/>
</svg>
