<svg baseProfile="tiny" xmlns="http://www.w3.org/2000/svg" viewBox="0 0 16 16"><path d="M10.5 6a.5.5 0 0 1-.354-.853l5-5a.5.5 0 0 1 .707.707l-5 5A.498.498 0 0 1 10.5 6z"/><path d="M12.5 7h-3a.5.5 0 0 1-.5-.5v-3a.5.5 0 0 1 1 0V6h2.5a.5.5 0 0 1 0 1zM.5 16a.5.5 0 0 1-.354-.853l5-5a.5.5 0 0 1 .707.707l-5 5A.498.498 0 0 1 .5 16z"/><path d="M6.5 13a.5.5 0 0 1-.5-.5V10H3.5a.5.5 0 0 1 0-1h3a.5.5 0 0 1 .5.5v3a.5.5 0 0 1-.5.5zM15.5 16a.502.502 0 0 1-.354-.146l-5-5a.5.5 0 0 1 .707-.707l5 5A.5.5 0 0 1 15.5 16z"/><path d="M9.5 13a.5.5 0 0 1-.5-.5v-3a.5.5 0 0 1 .5-.5h3a.5.5 0 0 1 0 1H10v2.5a.5.5 0 0 1-.5.5zM5.5 6a.502.502 0 0 1-.354-.146l-5-5A.5.5 0 0 1 .853.147l5 5A.5.5 0 0 1 5.5 6z"/><path d="M6.5 7h-3a.5.5 0 0 1 0-1H6V3.5a.5.5 0 0 1 1 0v3a.5.5 0 0 1-.5.5z"/></svg>