<?xml version="1.0" encoding="iso-8859-1"?>
<!-- Generator: Adobe Illustrator 19.1.0, SVG Export Plug-In . SVG Version: 6.00 Build 0)  -->
<!DOCTYPE svg PUBLIC "-//W3C//DTD SVG 1.1 Tiny//EN" "http://www.w3.org/Graphics/SVG/1.1/DTD/svg11-tiny.dtd">
<svg version="1.1" baseProfile="tiny" id="Layer_1" xmlns="http://www.w3.org/2000/svg" xmlns:xlink="http://www.w3.org/1999/xlink"
	 x="0px" y="0px" viewBox="0 0 16 16" xml:space="preserve">
<g>
	<path d="M3.951,6.385c-1.518,0-2.753-1.235-2.753-2.753s1.235-2.753,2.753-2.753s2.753,1.235,2.753,2.753S5.469,6.385,3.951,6.385z
		 M3.951,1.878c-0.967,0-1.753,0.786-1.753,1.753s0.786,1.753,1.753,1.753s1.753-0.787,1.753-1.753S4.918,1.878,3.951,1.878z"/>
</g>
<g>
	<path d="M5.5,14h-3C2.224,14,2,13.776,2,13.5v-2.64C1.127,10.192,1,8.306,1,6.5C1,6.224,1.224,6,1.5,6h5.1
		c0.276,0,0.5,0.224,0.5,0.5c0,1.655-0.2,3.665-1.1,4.358V13.5C6,13.776,5.776,14,5.5,14z M3,13h2v-2.43
		c0-0.212,0.135-0.402,0.335-0.472C5.677,9.979,6.037,8.864,6.093,7H2.005c0.051,2.669,0.513,3.046,0.66,3.098
		C2.865,10.168,3,10.357,3,10.57V13z"/>
</g>
<g>
	<path d="M11.951,6.385c-1.518,0-2.753-1.235-2.753-2.753s1.235-2.753,2.753-2.753s2.753,1.235,2.753,2.753
		S13.469,6.385,11.951,6.385z M11.951,1.878c-0.967,0-1.753,0.786-1.753,1.753s0.786,1.753,1.753,1.753s1.753-0.787,1.753-1.753
		S12.918,1.878,11.951,1.878z"/>
</g>
<g>
	<path d="M13.5,14h-3c-0.276,0-0.5-0.224-0.5-0.5v-2.64C9.127,10.192,9,8.306,9,6.5C9,6.224,9.224,6,9.5,6h5.1
		c0.276,0,0.5,0.224,0.5,0.5c0,1.655-0.2,3.665-1.1,4.358V13.5C14,13.776,13.776,14,13.5,14z M11,13h2v-2.43
		c0-0.212,0.135-0.402,0.335-0.472C13.677,9.979,14.037,8.864,14.093,7h-4.088c0.051,2.669,0.513,3.046,0.66,3.098
		c0.2,0.07,0.335,0.26,0.335,0.472V13z"/>
</g>
</svg>
