<?xml version="1.0" encoding="utf-8"?>
<!-- Generator: Adobe Illustrator 19.1.0, SVG Export Plug-In . SVG Version: 6.00 Build 0)  -->
<!DOCTYPE svg PUBLIC "-//W3C//DTD SVG 1.1 Tiny//EN" "http://www.w3.org/Graphics/SVG/1.1/DTD/svg11-tiny.dtd">
<svg version="1.1" baseProfile="tiny" id="Layer_1" xmlns="http://www.w3.org/2000/svg" xmlns:xlink="http://www.w3.org/1999/xlink"
	 x="0px" y="0px" viewBox="0 0 16 16" xml:space="preserve">
<g>
	<path d="M4,6.3c-1.5,0-2.6-1.2-2.6-2.6S2.5,1,4,1s2.6,1.2,2.6,2.6S5.4,6.3,4,6.3z M4,1.8c-1,0-1.9,0.8-1.9,1.9c0,1,0.8,1.9,1.9,1.9
		s1.9-0.8,1.9-1.9C5.8,2.6,5,1.8,4,1.8z"/>
</g>
<g>
	<path d="M5.5,13.9h-3c-0.2,0-0.4-0.2-0.4-0.4v-2.7c-0.9-0.6-1-2.5-1-4.3c0-0.2,0.2-0.4,0.4-0.4h5.1C6.8,6.1,7,6.3,7,6.5
		c0,1.7-0.2,3.7-1.1,4.3v2.7C5.9,13.7,5.7,13.9,5.5,13.9z M2.9,13.1h2.2v-2.5c0-0.2,0.1-0.3,0.3-0.4C5.8,10,6.2,8.7,6.2,6.9H1.9
		c0,2.7,0.5,3.2,0.7,3.3c0.2,0.1,0.3,0.2,0.3,0.4V13.1z"/>
</g>
<g>
	<path d="M12,6.3c-1.5,0-2.6-1.2-2.6-2.6S10.5,1,12,1s2.6,1.2,2.6,2.6S13.4,6.3,12,6.3z M12,1.8c-1,0-1.9,0.8-1.9,1.9
		c0,1,0.8,1.9,1.9,1.9s1.9-0.8,1.9-1.9C13.8,2.6,13,1.8,12,1.8z"/>
</g>
<g>
	<path d="M13.5,13.9h-3c-0.2,0-0.4-0.2-0.4-0.4v-2.7c-0.9-0.6-1-2.5-1-4.3c0-0.2,0.2-0.4,0.4-0.4h5.1c0.2,0,0.4,0.2,0.4,0.4
		c0,1.7-0.2,3.7-1.1,4.3v2.7C13.9,13.7,13.7,13.9,13.5,13.9z M10.9,13.1h2.2v-2.5c0-0.2,0.1-0.3,0.3-0.4c0.5-0.2,0.8-1.5,0.8-3.3
		H9.9c0,2.7,0.5,3.2,0.7,3.3c0.2,0.1,0.3,0.2,0.3,0.4V13.1z"/>
</g>
</svg>
