<?xml version="1.0" encoding="iso-8859-1"?>
<!-- Generator: Adobe Illustrator 19.2.0, SVG Export Plug-In . SVG Version: 6.00 Build 0)  -->
<svg version="1.1" baseProfile="tiny" xmlns="http://www.w3.org/2000/svg" xmlns:xlink="http://www.w3.org/1999/xlink" x="0px"
	 y="0px" viewBox="0 0 16 16" xml:space="preserve">
<g id="Layer_1">
	<path d="M13.625,12.956H2.375C1.065,12.956,0,11.864,0,10.521V3.409C0,2.081,1.065,1,2.375,1h11.25C14.935,1,16,2.081,16,3.409
		v7.112C16,11.864,14.935,12.956,13.625,12.956z M2.375,2C1.617,2,1,2.632,1,3.409v7.112c0,0.791,0.617,1.435,1.375,1.435h11.25
		c0.758,0,1.375-0.644,1.375-1.435V3.409C15,2.632,14.383,2,13.625,2H2.375z"/>
	<path d="M15.5,10h-15C0.224,10,0,9.776,0,9.5S0.224,9,0.5,9h15C15.776,9,16,9.224,16,9.5S15.776,10,15.5,10z"/>
	<path d="M11.125,15.065h-6.25c-0.276,0-0.5-0.224-0.5-0.5s0.224-0.5,0.5-0.5h6.25c0.276,0,0.5,0.224,0.5,0.5
		S11.401,15.065,11.125,15.065z"/>
	<path d="M8,15.065c-0.276,0-0.5-0.224-0.5-0.5v-2.109c0-0.276,0.224-0.5,0.5-0.5s0.5,0.224,0.5,0.5v2.109
		C8.5,14.842,8.276,15.065,8,15.065z"/>
</g>
<g id="Layer_2">
</g>
<g id="Layer_3">
</g>
</svg>
