<svg baseProfile="tiny" xmlns="http://www.w3.org/2000/svg" viewBox="0 0 16 16"><path d="M13.625 12.956H2.375C1.065 12.956 0 11.864 0 10.521V3.409C0 2.081 1.065 1 2.375 1h11.25C14.935 1 16 2.081 16 3.409v7.112c0 1.343-1.065 2.435-2.375 2.435zM2.375 2C1.617 2 1 2.632 1 3.409v7.112c0 .791.617 1.435 1.375 1.435h11.25c.758 0 1.375-.644 1.375-1.435V3.409C15 2.632 14.383 2 13.625 2H2.375z"/><path d="M15.5 10H.5a.5.5 0 0 1 0-1h15a.5.5 0 0 1 0 1zM11.125 15.065h-6.25a.5.5 0 0 1 0-1h6.25a.5.5 0 0 1 0 1z"/><path d="M8 15.065a.5.5 0 0 1-.5-.5v-2.109a.5.5 0 0 1 1 0v2.109a.5.5 0 0 1-.5.5z"/></svg>