<svg baseProfile="tiny" xmlns="http://www.w3.org/2000/svg" viewBox="0 0 16 16"><path d="M11.5 16H.5a.5.5 0 0 1-.5-.5v-11A.5.5 0 0 1 .5 4h11a.5.5 0 0 1 .5.5v11a.5.5 0 0 1-.5.5zM1 15h10V5H1v10z"/><path d="M15.5 11h-11a.5.5 0 0 1-.5-.5V.5a.5.5 0 0 1 .5-.5h11a.5.5 0 0 1 .5.5v10a.5.5 0 0 1-.5.5zM5 10h10V1H5v9z"/><path d="M4.198 10.2l.736.677-4.066 4.425-.736-.677zM15.084 10.16l.785.62-3.978 5.03-.784-.62zM.5 4.979a.5.5 0 0 1-.353-.854l4-3.979a.5.5 0 1 1 .706.708l-4 3.979a.497.497 0 0 1-.353.146zM14.646.636l.71.703-3.452 3.491-.711-.703z"/></svg>