<?xml version="1.0" encoding="iso-8859-1"?>
<!-- Generator: Adobe Illustrator 19.1.0, SVG Export Plug-In . SVG Version: 6.00 Build 0)  -->
<!DOCTYPE svg PUBLIC "-//W3C//DTD SVG 1.1 Tiny//EN" "http://www.w3.org/Graphics/SVG/1.1/DTD/svg11-tiny.dtd">
<svg version="1.1" baseProfile="tiny" id="Layer_1" xmlns="http://www.w3.org/2000/svg" xmlns:xlink="http://www.w3.org/1999/xlink"
	 x="0px" y="0px" viewBox="0 0 16 16" xml:space="preserve">
<g>
	<path d="M11.5,16h-11C0.224,16,0,15.776,0,15.5v-11C0,4.224,0.224,4,0.5,4h11C11.776,4,12,4.224,12,4.5v11
		C12,15.776,11.776,16,11.5,16z M1,15h10V5H1V15z"/>
	<path d="M15.5,11h-11C4.224,11,4,10.776,4,10.5v-10C4,0.224,4.224,0,4.5,0h11C15.776,0,16,0.224,16,0.5v10
		C16,10.776,15.776,11,15.5,11z M5,10h10V1H5V10z"/>
	<rect x="2.033" y="9.746" transform="matrix(0.7363 0.6767 -0.6767 0.7363 9.2961 1.6487)" width="1" height="6.009"/>
	<rect x="12.988" y="9.779" transform="matrix(0.7844 0.6203 -0.6203 0.7844 10.9625 -5.5666)" width="1" height="6.412"/>
	<path d="M0.5,4.979c-0.128,0-0.257-0.049-0.354-0.147C-0.049,4.636-0.048,4.32,0.147,4.125l4-3.979
		C4.343-0.05,4.659-0.048,4.854,0.147C5.049,0.343,5.048,0.66,4.853,0.854l-4,3.979C0.755,4.931,0.627,4.979,0.5,4.979z"/>
	<rect x="12.775" y="0.278" transform="matrix(0.711 0.7032 -0.7032 0.711 5.7581 -8.5448)" width="1" height="4.91"/>
</g>
</svg>
