<?xml version="1.0" encoding="iso-8859-1"?>
<!-- Generator: Adobe Illustrator 19.2.0, SVG Export Plug-In . SVG Version: 6.00 Build 0)  -->
<svg version="1.1" baseProfile="tiny" xmlns="http://www.w3.org/2000/svg" xmlns:xlink="http://www.w3.org/1999/xlink" x="0px"
	 y="0px" viewBox="0 0 16 16" xml:space="preserve">
<g id="Layer_1">
	<g>
		<path d="M11.5,16h-11C0.224,16,0,15.776,0,15.5v-11C0,4.224,0.224,4,0.5,4h11C11.776,4,12,4.224,12,4.5v11
			C12,15.776,11.776,16,11.5,16z M1,15h10V5H1V15z"/>
		<path d="M15.5,11h-11C4.224,11,4,10.776,4,10.5v-10C4,0.224,4.224,0,4.5,0h11C15.776,0,16,0.224,16,0.5v10
			C16,10.776,15.776,11,15.5,11z M5,10h10V1H5V10z"/>
		<rect x="-0.471" y="12.25" transform="matrix(0.6767 -0.7363 0.7363 0.6767 -8.5686 5.9871)" width="6.009" height="1"/>
		<rect x="10.282" y="12.485" transform="matrix(0.6203 -0.7844 0.7844 0.6203 -5.0634 15.5104)" width="6.412" height="1"/>
		<path d="M0.5,4.979c-0.128,0-0.257-0.049-0.354-0.147C-0.049,4.636-0.048,4.32,0.147,4.125l4-3.979
			C4.343-0.05,4.659-0.048,4.854,0.147C5.049,0.343,5.048,0.66,4.853,0.854l-4,3.979C0.755,4.931,0.627,4.979,0.5,4.979z"/>
		<rect x="10.82" y="2.233" transform="matrix(0.7032 -0.711 0.711 0.7032 1.997 10.2496)" width="4.91" height="1"/>
	</g>
</g>
<g id="Layer_2">
</g>
<g id="Layer_3">
</g>
</svg>
