<?xml version="1.0" encoding="iso-8859-1"?>
<!-- Generator: Adobe Illustrator 19.2.1, SVG Export Plug-In . SVG Version: 6.00 Build 0)  -->
<!DOCTYPE svg PUBLIC "-//W3C//DTD SVG 1.1 Tiny//EN" "http://www.w3.org/Graphics/SVG/1.1/DTD/svg11-tiny.dtd">
<svg version="1.1" baseProfile="tiny" xmlns="http://www.w3.org/2000/svg" xmlns:xlink="http://www.w3.org/1999/xlink" x="0px"
	 y="0px" width="16px" height="16px" viewBox="0 0 16 16" xml:space="preserve">
<g id="Layer_1">
	<path d="M7.5,12.44c-0.28,0-0.5-0.22-0.5-0.5v-9c0-0.28,0.22-0.5,0.5-0.5S8,2.66,8,2.94v9C8,12.21,7.78,12.44,7.5,12.44z"/>
	<path d="M7.5,13c-0.15,0-0.3-0.07-0.39-0.19l-2.5-3.12c-0.17-0.22-0.14-0.53,0.08-0.7c0.22-0.17,0.53-0.14,0.7,0.08L7.5,11.7
		l2.11-2.64c0.17-0.21,0.49-0.25,0.7-0.08c0.22,0.17,0.25,0.49,0.08,0.7l-2.5,3.12C7.8,12.93,7.65,13,7.5,13z"/>
	<path d="M14.5,15.94h-14c-0.28,0-0.5-0.22-0.5-0.5v-3.5c0-0.28,0.22-0.5,0.5-0.5S1,11.66,1,11.94v3h13v-3c0-0.28,0.22-0.5,0.5-0.5
		s0.5,0.22,0.5,0.5v3.5C15,15.71,14.78,15.94,14.5,15.94z"/>
</g>
<g id="Layer_2">
</g>
<g id="Layer_3">
</g>
</svg>
