<svg baseProfile="tiny" xmlns="http://www.w3.org/2000/svg" width="16" height="16" viewBox="0 0 16 16"><path d="M7.5 12.44c-.28 0-.5-.22-.5-.5v-9c0-.28.22-.5.5-.5s.5.22.5.5v9c0 .27-.22.5-.5.5z"/><path d="M7.5 13c-.15 0-.3-.07-.39-.19l-2.5-3.12a.495.495 0 0 1 .08-.7c.22-.17.53-.14.7.08L7.5 11.7l2.11-2.64c.17-.21.49-.25.7-.08.22.17.25.49.08.7l-2.5 3.12c-.09.13-.24.2-.39.2z"/><path d="M14.5 15.94H.5c-.28 0-.5-.22-.5-.5v-3.5c0-.28.22-.5.5-.5s.5.22.5.5v3h13v-3c0-.28.22-.5.5-.5s.5.22.5.5v3.5c0 .27-.22.5-.5.5z"/></svg>