<?xml version="1.0" encoding="iso-8859-1"?>
<!-- Generator: Adobe Illustrator 19.2.0, SVG Export Plug-In . SVG Version: 6.00 Build 0)  -->
<svg version="1.1" baseProfile="tiny" xmlns="http://www.w3.org/2000/svg" xmlns:xlink="http://www.w3.org/1999/xlink" x="0px"
	 y="0px" viewBox="0 0 16 16" xml:space="preserve">
<g id="Layer_1">
	<g id="XMLID_747_">
		<path d="M15.5,14h-13C2.224,14,2,13.776,2,13.5v-13C2,0.224,2.224,0,2.5,0h13C15.776,0,16,0.224,16,0.5v13
			C16,13.776,15.776,14,15.5,14z M3,13h12V1H3V13z"/>
		<path d="M10.5,12h-3C7.224,12,7,11.776,7,11.5V9H4.5C4.224,9,4,8.776,4,8.5v-3C4,5.224,4.224,5,4.5,5H7V2.5C7,2.224,7.224,2,7.5,2
			h3C10.776,2,11,2.224,11,2.5V5h2.5C13.776,5,14,5.224,14,5.5v3C14,8.776,13.776,9,13.5,9H11v2.5C11,11.776,10.776,12,10.5,12z
			 M8,11h2V8.5C10,8.224,10.224,8,10.5,8H13V6h-2.5C10.224,6,10,5.776,10,5.5V3H8v2.5C8,5.776,7.776,6,7.5,6H5v2h2.5
			C7.776,8,8,8.224,8,8.5V11z"/>
		<path d="M12.5,16h-12C0.224,16,0,15.776,0,15.5v-12C0,3.224,0.224,3,0.5,3H1c0.276,0,0.5,0.224,0.5,0.5S1.276,4,1,4v11h11
			c0-0.276,0.224-0.5,0.5-0.5S13,14.724,13,15v0.5C13,15.776,12.776,16,12.5,16z"/>
	</g>
</g>
<g id="Layer_2">
</g>
<g id="Layer_3">
</g>
</svg>
