<?xml version="1.0" encoding="utf-8"?>
<!-- Generator: Adobe Illustrator 19.1.0, SVG Export Plug-In . SVG Version: 6.00 Build 0)  -->
<!DOCTYPE svg PUBLIC "-//W3C//DTD SVG 1.1 Tiny//EN" "http://www.w3.org/Graphics/SVG/1.1/DTD/svg11-tiny.dtd">
<svg version="1.1" baseProfile="tiny" id="Layer_1" xmlns="http://www.w3.org/2000/svg" xmlns:xlink="http://www.w3.org/1999/xlink"
	 x="0px" y="0px" viewBox="0 0 16 16" xml:space="preserve">
<g id="XMLID_747_">
	<path d="M15.5,14h-13C2.2,14,2,13.8,2,13.5v-13C2,0.2,2.2,0,2.5,0h13C15.8,0,16,0.2,16,0.5v13C16,13.8,15.8,14,15.5,14z M3,13h12V1
		H3V13z"/>
	<path d="M10.5,12h-3C7.2,12,7,11.8,7,11.5V9H4.5C4.2,9,4,8.8,4,8.5v-3C4,5.2,4.2,5,4.5,5H7V2.5C7,2.2,7.2,2,7.5,2h3
		C10.8,2,11,2.2,11,2.5V5h2.5C13.8,5,14,5.2,14,5.5v3C14,8.8,13.8,9,13.5,9H11v2.5C11,11.8,10.8,12,10.5,12z M8,11h2V8.5
		C10,8.2,10.2,8,10.5,8H13V6h-2.5C10.2,6,10,5.8,10,5.5V3H8v2.5C8,5.8,7.8,6,7.5,6H5v2h2.5C7.8,8,8,8.2,8,8.5V11z"/>
	<path d="M12.5,16h-12C0.2,16,0,15.8,0,15.5v-12C0,3.2,0.2,3,0.5,3H1c0.3,0,0.5,0.2,0.5,0.5S1.3,4,1,4v11h11c0-0.3,0.2-0.5,0.5-0.5
		S13,14.7,13,15v0.5C13,15.8,12.8,16,12.5,16z"/>
</g>
</svg>
