<svg baseProfile="tiny" xmlns="http://www.w3.org/2000/svg" viewBox="0 0 16 16"><path d="M15.5 14h-13a.5.5 0 0 1-.5-.5V.5a.5.5 0 0 1 .5-.5h13a.5.5 0 0 1 .5.5v13a.5.5 0 0 1-.5.5zM3 13h12V1H3v12z"/><path d="M10.5 12h-3a.5.5 0 0 1-.5-.5V9H4.5a.5.5 0 0 1-.5-.5v-3a.5.5 0 0 1 .5-.5H7V2.5a.5.5 0 0 1 .5-.5h3a.5.5 0 0 1 .5.5V5h2.5a.5.5 0 0 1 .5.5v3a.5.5 0 0 1-.5.5H11v2.5a.5.5 0 0 1-.5.5zM8 11h2V8.5a.5.5 0 0 1 .5-.5H13V6h-2.5a.5.5 0 0 1-.5-.5V3H8v2.5a.5.5 0 0 1-.5.5H5v2h2.5a.5.5 0 0 1 .5.5V11z"/><path d="M12.5 16H.5a.5.5 0 0 1-.5-.5v-12A.5.5 0 0 1 .5 3H1a.5.5 0 0 1 0 1v11h11a.5.5 0 0 1 1 0v.5a.5.5 0 0 1-.5.5z"/></svg>