<?xml version="1.0" encoding="iso-8859-1"?>
<!-- Generator: Adobe Illustrator 19.1.0, SVG Export Plug-In . SVG Version: 6.00 Build 0)  -->
<!DOCTYPE svg PUBLIC "-//W3C//DTD SVG 1.1 Tiny//EN" "http://www.w3.org/Graphics/SVG/1.1/DTD/svg11-tiny.dtd">
<svg version="1.1" baseProfile="tiny" xmlns="http://www.w3.org/2000/svg" xmlns:xlink="http://www.w3.org/1999/xlink" x="0px"
	 y="0px" viewBox="0 0 16 16" xml:space="preserve">
<g id="Layer_1">
	<path d="M8.5,9h-7C1.224,9,1,8.776,1,8.5v-7C1,1.224,1.224,1,1.5,1h7C8.776,1,9,1.224,9,1.5v7C9,8.776,8.776,9,8.5,9z M2,8h6V2H2V8
		z"/>
	<path d="M14.5,15h-7C7.224,15,7,14.776,7,14.5V11c0-0.276,0.224-0.5,0.5-0.5S8,10.724,8,11v3h6V8h-3c-0.276,0-0.5-0.224-0.5-0.5
		S10.724,7,11,7h3.5C14.776,7,15,7.224,15,7.5v7C15,14.776,14.776,15,14.5,15z"/>
	<path d="M4.348,15.196c-0.128,0-0.256-0.049-0.354-0.146c-0.195-0.195-0.195-0.512,0-0.707l0.864-0.864l-0.864-0.864
		c-0.195-0.195-0.195-0.512,0-0.707s0.512-0.195,0.707,0l1.218,1.217c0.094,0.094,0.146,0.221,0.146,0.354s-0.053,0.26-0.146,0.354
		l-1.218,1.218C4.604,15.147,4.476,15.196,4.348,15.196z"/>
	<path d="M5.565,13.978H4.956c-1.953,0-3.543-1.589-3.543-3.543c0-0.276,0.224-0.5,0.5-0.5s0.5,0.224,0.5,0.5
		c0,1.402,1.141,2.543,2.543,2.543h0.609c0.276,0,0.5,0.224,0.5,0.5S5.842,13.978,5.565,13.978z"/>
	<path d="M11.652,4.239c-0.128,0-0.256-0.049-0.354-0.146l-1.218-1.217C9.987,2.782,9.935,2.655,9.935,2.522s0.053-0.26,0.146-0.354
		l1.218-1.218c0.195-0.195,0.512-0.195,0.707,0s0.195,0.512,0,0.707l-0.864,0.864l0.864,0.864c0.195,0.195,0.195,0.512,0,0.707
		C11.908,4.19,11.78,4.239,11.652,4.239z"/>
	<path d="M14.087,6.065c-0.276,0-0.5-0.224-0.5-0.5c0-1.402-1.141-2.543-2.543-2.543h-0.609c-0.276,0-0.5-0.224-0.5-0.5
		s0.224-0.5,0.5-0.5h0.609c1.953,0,3.543,1.589,3.543,3.543C14.587,5.842,14.363,6.065,14.087,6.065z"/>
</g>
<g id="Layer_2">
</g>
<g id="Layer_3">
</g>
</svg>
