<svg baseProfile="tiny" xmlns="http://www.w3.org/2000/svg" viewBox="0 0 16 16"><path d="M8.5 9h-7a.5.5 0 0 1-.5-.5v-7a.5.5 0 0 1 .5-.5h7a.5.5 0 0 1 .5.5v7a.5.5 0 0 1-.5.5zM2 8h6V2H2v6z"/><path d="M14.5 15h-7a.5.5 0 0 1-.5-.5V11a.5.5 0 0 1 1 0v3h6V8h-3a.5.5 0 0 1 0-1h3.5a.5.5 0 0 1 .5.5v7a.5.5 0 0 1-.5.5zM4.348 15.196a.5.5 0 0 1-.354-.853l.864-.864-.864-.864a.5.5 0 0 1 .707-.707l1.218 1.217a.5.5 0 0 1 0 .708l-1.218 1.218a.501.501 0 0 1-.353.145z"/><path d="M5.565 13.978h-.609a3.547 3.547 0 0 1-3.543-3.543.5.5 0 0 1 1 0 2.546 2.546 0 0 0 2.543 2.543h.609a.5.5 0 0 1 0 1zM11.652 4.239a.502.502 0 0 1-.354-.146L10.08 2.876a.503.503 0 0 1 .001-.708L11.299.95a.5.5 0 0 1 .707.707l-.864.864.864.864a.5.5 0 0 1-.354.854z"/><path d="M14.087 6.065a.5.5 0 0 1-.5-.5 2.546 2.546 0 0 0-2.543-2.543h-.609a.5.5 0 0 1 0-1h.609a3.547 3.547 0 0 1 3.543 3.543.5.5 0 0 1-.5.5z"/></svg>