<?xml version="1.0" encoding="iso-8859-1"?>
<!-- Generator: Adobe Illustrator 19.1.0, SVG Export Plug-In . SVG Version: 6.00 Build 0)  -->
<!DOCTYPE svg PUBLIC "-//W3C//DTD SVG 1.1 Tiny//EN" "http://www.w3.org/Graphics/SVG/1.1/DTD/svg11-tiny.dtd">
<svg version="1.1" baseProfile="tiny" id="Layer_1" xmlns="http://www.w3.org/2000/svg" xmlns:xlink="http://www.w3.org/1999/xlink"
	 x="0px" y="0px" viewBox="0 0 16 16" xml:space="preserve">
<path d="M15.031,14H0.969C0.435,14,0,13.565,0,13.031V1.969C0,1.435,0.435,1,0.969,1h14.062C15.565,1,16,1.435,16,1.969v11.062
	C16,13.565,15.565,14,15.031,14z M15,1.969L0.969,2L1,13.031L15,13V1.969z"/>
<path d="M15,4H1C0.724,4,0.5,3.776,0.5,3.5S0.724,3,1,3h14c0.276,0,0.5,0.224,0.5,0.5S15.276,4,15,4z"/>
<path d="M10.665,12c-0.008,0-0.017,0-0.025,0c-0.202,0-0.377-0.268-0.445-0.458L8.66,7.178l-2.005,3.58
	c-0.096,0.173-0.276,0.257-0.483,0.239c-0.197-0.019-0.365-0.16-0.428-0.348L4.796,7.801L4.093,8.817C4,8.956,3.844,9,3.677,9H0V8
	h3.409l1.122-1.647c0.105-0.158,0.29-0.235,0.482-0.199C5.203,6.178,5.361,6.32,5.422,6.5l0.911,2.741l1.99-3.582
	C8.417,5.489,8.604,5.391,8.8,5.406c0.196,0.016,0.364,0.146,0.43,0.331l1.501,4.206l0.753-1.62C11.567,8.149,11.743,8,11.936,8H15
	v1h-2.749l-1.135,2.55C11.033,11.725,10.857,12,10.665,12z"/>
</svg>
