<svg baseProfile="tiny" xmlns="http://www.w3.org/2000/svg" viewBox="0 0 16 16"><path d="M15.031 14H.969A.97.97 0 0 1 0 13.031V1.969A.97.97 0 0 1 .969 1h14.062a.97.97 0 0 1 .969.969v11.062a.97.97 0 0 1-.969.969zM15 1.969L.969 2 1 13.031 15 13V1.969z"/><path d="M15 4H1a.5.5 0 0 1 0-1h14a.5.5 0 0 1 0 1zM10.665 12h-.025c-.202 0-.377-.268-.445-.458L8.66 7.178l-2.005 3.58a.48.48 0 0 1-.483.239.51.51 0 0 1-.428-.348l-.948-2.848-.703 1.016C4 8.956 3.844 9 3.677 9H0V8h3.409l1.122-1.647a.466.466 0 0 1 .482-.199.51.51 0 0 1 .409.346l.911 2.741 1.99-3.582a.5.5 0 0 1 .907.078l1.501 4.206.753-1.62c.083-.174.259-.323.452-.323H15v1h-2.749l-1.135 2.55c-.083.175-.259.45-.451.45z"/></svg>