<?xml version="1.0" encoding="iso-8859-1"?>
<!-- Generator: Adobe Illustrator 19.1.0, SVG Export Plug-In . SVG Version: 6.00 Build 0)  -->
<!DOCTYPE svg PUBLIC "-//W3C//DTD SVG 1.1 Tiny//EN" "http://www.w3.org/Graphics/SVG/1.1/DTD/svg11-tiny.dtd">
<svg version="1.1" baseProfile="tiny" id="Layer_1" xmlns="http://www.w3.org/2000/svg" xmlns:xlink="http://www.w3.org/1999/xlink"
	 x="0px" y="0px" viewBox="0 0 16 16" xml:space="preserve">
<g id="XMLID_11_">
	<path d="M15.031,14H0.969C0.435,14,0,13.565,0,13.031V1.969C0,1.435,0.435,1,0.969,1h14.062C15.565,1,16,1.435,16,1.969v11.062
		C16,13.565,15.565,14,15.031,14z M15,1.969L0.969,2L1,13.031L15,13V1.969z"/>
</g>
<g id="XMLID_9_">
	<path d="M15,4H1C0.724,4,0.5,3.776,0.5,3.5S0.724,3,1,3h14c0.276,0,0.5,0.224,0.5,0.5S15.276,4,15,4z"/>
</g>
<g id="XMLID_331_">
	<path d="M10.665,11.746c-0.008,0-0.017,0-0.025-0.001c-0.202-0.01-0.377-0.141-0.445-0.331l-1.535-4.3l-2.005,3.612
		c-0.096,0.173-0.276,0.272-0.483,0.255c-0.197-0.019-0.365-0.152-0.428-0.34L4.796,7.797L4.093,8.854
		C4,8.992,3.844,9.076,3.677,9.076H0.5v-1h2.909l1.122-1.686c0.105-0.158,0.29-0.254,0.482-0.218
		C5.203,6.197,5.361,6.329,5.422,6.51l0.911,2.736l1.99-3.584C8.417,5.491,8.604,5.393,8.8,5.407c0.196,0.016,0.364,0.146,0.43,0.33
		l1.501,4.206l0.753-1.582c0.083-0.174,0.259-0.285,0.452-0.285h3.336v1h-3.02l-1.135,2.385
		C11.033,11.636,10.857,11.746,10.665,11.746z"/>
</g>
</svg>
