<?xml version="1.0" encoding="iso-8859-1"?>
<!-- Generator: Adobe Illustrator 19.2.0, SVG Export Plug-In . SVG Version: 6.00 Build 0)  -->
<svg version="1.1" baseProfile="tiny" xmlns="http://www.w3.org/2000/svg" xmlns:xlink="http://www.w3.org/1999/xlink" x="0px"
	 y="0px" viewBox="0 0 16 16" xml:space="preserve">
<g id="Layer_1">
	<path d="M8,16c-4.411,0-8-3.589-8-8s3.589-8,8-8s8,3.589,8,8S12.411,16,8,16z M8,1C4.141,1,1,4.141,1,8s3.141,7,7,7s7-3.141,7-7
		S11.859,1,8,1z"/>
	<path d="M8,9.5C7.724,9.5,7.5,9.276,7.5,9V3c0-0.276,0.224-0.5,0.5-0.5S8.5,2.724,8.5,3v6C8.5,9.276,8.276,9.5,8,9.5z"/>
	<g>
		<g>
			<path d="M8,11c-0.553,0-1,0.447-1,1s0.447,1,1,1s1-0.447,1-1S8.553,11,8,11L8,11z"/>
		</g>
	</g>
</g>
<g id="Layer_2">
</g>
<g id="Layer_3">
</g>
</svg>
