<?xml version="1.0" encoding="iso-8859-1"?>
<!-- Generator: Adobe Illustrator 19.2.1, SVG Export Plug-In . SVG Version: 6.00 Build 0)  -->
<svg version="1.1" baseProfile="tiny" xmlns="http://www.w3.org/2000/svg" xmlns:xlink="http://www.w3.org/1999/xlink" x="0px"
	 y="0px" viewBox="0 0 16 16" xml:space="preserve">
<g id="Layer_1">
	<path d="M8.46,13.938H3.583c-0.867,0-1.572-0.705-1.572-1.572V2.51c0-0.867,0.705-1.572,1.572-1.572H8.46
		c0.867,0,1.572,0.705,1.572,1.572v1.896c0,0.276-0.224,0.5-0.5,0.5s-0.5-0.224-0.5-0.5V2.51c0-0.315-0.257-0.572-0.572-0.572H3.583
		c-0.315,0-0.572,0.257-0.572,0.572v9.855c0,0.315,0.257,0.572,0.572,0.572H8.46c0.315,0,0.572-0.257,0.572-0.572v-1.928
		c0-0.276,0.224-0.5,0.5-0.5s0.5,0.224,0.5,0.5v1.928C10.033,13.232,9.327,13.938,8.46,13.938z"/>
	<path d="M14.901,7.125l-2-2.5c-0.173-0.214-0.487-0.25-0.703-0.078c-0.215,0.173-0.25,0.487-0.078,0.703l1.35,1.688H5.979
		c-0.276,0-0.5,0.224-0.5,0.5s0.224,0.5,0.5,0.5h7.491l-1.35,1.688c-0.172,0.216-0.137,0.53,0.078,0.703
		c0.092,0.073,0.203,0.109,0.312,0.109c0.147,0,0.292-0.064,0.391-0.188l2-2.5C15.047,7.567,15.047,7.308,14.901,7.125z"/>
</g>
<g id="Layer_2">
</g>
<g id="Layer_3">
</g>
</svg>
