<svg baseProfile="tiny" xmlns="http://www.w3.org/2000/svg" viewBox="0 0 16 16"><path d="M8.46 13.938H3.583a1.574 1.574 0 0 1-1.572-1.572V2.51c0-.867.705-1.572 1.572-1.572H8.46c.867 0 1.572.705 1.572 1.572v1.896a.5.5 0 0 1-1 0V2.51a.573.573 0 0 0-.572-.572H3.583a.573.573 0 0 0-.572.572v9.855c0 .315.257.572.572.572H8.46a.573.573 0 0 0 .572-.572v-1.928a.5.5 0 0 1 1 0v1.928a1.574 1.574 0 0 1-1.572 1.573z"/><path d="M14.901 7.125l-2-2.5a.501.501 0 0 0-.781.625l1.35 1.688H5.979a.5.5 0 0 0 0 1h7.491l-1.35 1.688a.501.501 0 0 0 .39.812.498.498 0 0 0 .391-.188l2-2.5a.5.5 0 0 0 0-.625z"/></svg>