<?xml version="1.0" encoding="iso-8859-1"?>
<!-- Generator: Adobe Illustrator 19.2.0, SVG Export Plug-In . SVG Version: 6.00 Build 0)  -->
<svg version="1.1" baseProfile="tiny" xmlns="http://www.w3.org/2000/svg" xmlns:xlink="http://www.w3.org/1999/xlink" x="0px"
	 y="0px" viewBox="0 0 16 16" xml:space="preserve">
<g id="Layer_1">
	<path d="M15.5,16h-15C0.224,16,0,15.776,0,15.5V9.713c0-0.216,0.139-0.408,0.345-0.475l5.301-1.736
		c0.128-0.042,0.268-0.03,0.386,0.032l4.164,2.168l5.003-3.79c0.151-0.115,0.354-0.134,0.524-0.049C15.893,5.947,16,6.12,16,6.31
		v9.19C16,15.776,15.776,16,15.5,16z M1,15h14V7.316l-4.453,3.374c-0.154,0.118-0.362,0.135-0.532,0.045L5.757,8.518L1,10.075V15z"
		/>
	<path d="M10.269,6.093c-0.079,0-0.157-0.019-0.23-0.056L5.757,3.818l-5.102,1.67C0.392,5.574,0.11,5.432,0.024,5.169
		c-0.086-0.263,0.058-0.545,0.32-0.631l5.301-1.736c0.126-0.042,0.266-0.031,0.386,0.031l4.188,2.17l5.026-3.792
		c0.218-0.167,0.533-0.124,0.7,0.098c0.166,0.221,0.122,0.534-0.099,0.7l-5.277,3.981C10.481,6.059,10.375,6.093,10.269,6.093z"/>
</g>
<g id="Layer_2">
</g>
<g id="Layer_3">
</g>
</svg>
