<?xml version="1.0" encoding="iso-8859-1"?>
<!-- Generator: Adobe Illustrator 19.2.1, SVG Export Plug-In . SVG Version: 6.00 Build 0)  -->
<!DOCTYPE svg PUBLIC "-//W3C//DTD SVG 1.1 Tiny//EN" "http://www.w3.org/Graphics/SVG/1.1/DTD/svg11-tiny.dtd">
<svg version="1.1" baseProfile="tiny" xmlns="http://www.w3.org/2000/svg" xmlns:xlink="http://www.w3.org/1999/xlink" x="0px"
	 y="0px" viewBox="0 0 16 16" xml:space="preserve">
<g id="Layer_1">
	<g>
		<path d="M3.221,15.985c-0.607,0-1.181-0.332-1.46-0.843c-0.316-0.581-0.325-1.182-0.025-1.649l1.744-2.98L5,7.643V0.5
			c0-0.163,0.079-0.315,0.212-0.408c0.133-0.094,0.306-0.117,0.455-0.063l1.434,0.509c0.634,0.354,1.602,0.354,2.154,0.038
			l1.018-0.521c0.153-0.08,0.339-0.073,0.488,0.019C10.909,0.165,11,0.326,11,0.5v6.938l3.896,6.093
			c0.313,0.515,0.322,1.126,0.03,1.645C14.64,15.685,14.097,16,13.511,16L3.221,15.985z M13.512,15.119
			c0.229,0,0.433-0.118,0.544-0.315c0.054-0.095,0.161-0.466-0.008-0.743l-3.969-6.207C10.027,7.773,10,7.679,10,7.584V1.317
			L9.731,1.454C8.893,1.937,7.545,1.937,6.685,1.442L6,1.204v6.563c0,0.082-0.02,0.162-0.059,0.234L4.353,11l-1.765,3.016
			c-0.137,0.214-0.047,0.469,0.051,0.649c0.087,0.159,0.302,0.44,0.584,0.44L13.512,15.119z M5.5,8h0.01H5.5z"/>
	</g>
	<g>
		<polygon points="4.124,1.296 3.687,0.396 4.502,0 5.5,0 5.5,1 4.732,1 		"/>
	</g>
	<g>
		<polygon points="11.811,1.296 11.202,1 10.5,1 10.5,0 11.433,0 12.248,0.396 		"/>
	</g>
	<g>
		<ellipse transform="matrix(0.9873 -0.1587 0.1587 0.9873 -1.9361 1.7514)" cx="10" cy="13" rx="1" ry="1"/>
	</g>
	<g>
		<ellipse transform="matrix(0.9873 -0.1587 0.1587 0.9873 -0.8507 1.3454)" cx="8" cy="6" rx="1" ry="1"/>
	</g>
	<g>
		<ellipse transform="matrix(0.9874 -0.158 0.158 0.9874 -1.3816 1.6202)" cx="9.5" cy="9.5" rx="0.5" ry="0.5"/>
	</g>
</g>
<g id="Layer_2">
</g>
<g id="Layer_3">
</g>
</svg>
