<svg baseProfile="tiny" xmlns="http://www.w3.org/2000/svg" viewBox="0 0 16 16"><path d="M3.221 15.985c-.607 0-1.181-.332-1.46-.843-.316-.581-.325-1.182-.025-1.649l1.744-2.98L5 7.643V.5a.5.5 0 0 1 .667-.471l1.434.509c.634.354 1.602.354 2.154.038l1.018-.521A.5.5 0 0 1 11 .5v6.938l3.896 6.093A1.623 1.623 0 1 1 13.511 16l-10.29-.015zm10.291-.866a.617.617 0 0 0 .544-.315c.054-.095.161-.466-.008-.743l-3.969-6.207a.5.5 0 0 1-.079-.27V1.317l-.269.137c-.838.483-2.186.483-3.046-.012L6 1.204v6.563a.49.49 0 0 1-.059.234L4.353 11l-1.765 3.016c-.137.214-.047.469.051.649.087.159.302.44.584.44l10.289.014zM5.5 8h.01-.01z"/><path d="M4.124 1.296l-.437-.9L4.502 0H5.5v1h-.768zM11.811 1.296L11.202 1H10.5V0h.933l.815.396z"/><ellipse transform="rotate(-9.132 9.998 12.998)" cx="10" cy="13" rx="1" ry="1"/><ellipse transform="rotate(-9.132 7.999 6)" cx="8" cy="6" rx="1" ry="1"/><ellipse transform="rotate(-9.091 9.5 9.5)" cx="9.5" cy="9.5" rx=".5" ry=".5"/></svg>