<?xml version="1.0" encoding="utf-8"?>
<!-- Generator: Adobe Illustrator 19.1.0, SVG Export Plug-In . SVG Version: 6.00 Build 0)  -->
<!DOCTYPE svg PUBLIC "-//W3C//DTD SVG 1.1 Tiny//EN" "http://www.w3.org/Graphics/SVG/1.1/DTD/svg11-tiny.dtd">
<svg version="1.1" baseProfile="tiny" id="Layer_1" xmlns="http://www.w3.org/2000/svg" xmlns:xlink="http://www.w3.org/1999/xlink"
	 x="0px" y="0px" viewBox="0 0 16 16" xml:space="preserve">
<g>
	<path d="M15.5,16h-15C0.2,16,0,15.8,0,15.5V9.7c0-0.2,0.1-0.4,0.3-0.5l5.3-1.7c0.1,0,0.3,0,0.4,0l4.2,2.2l5-3.8
		c0.2-0.1,0.4-0.1,0.5,0C15.9,5.9,16,6.1,16,6.3v9.2C16,15.8,15.8,16,15.5,16z M1,15h14V7.3l-4.5,3.4c-0.2,0.1-0.4,0.1-0.5,0
		L5.8,8.5L1,10.1V15z"/>
</g>
<g>
	<path d="M10.3,6.1c-0.1,0-0.2,0-0.2-0.1L5.8,3.8L0.7,5.5C0.4,5.6,0.1,5.4,0,5.2c-0.1-0.3,0.1-0.5,0.3-0.6l5.3-1.7
		c0.1,0,0.3,0,0.4,0L10.2,5l5-3.8c0.2-0.2,0.5-0.1,0.7,0.1c0.2,0.2,0.1,0.5-0.1,0.7l-5.3,4C10.5,6.1,10.4,6.1,10.3,6.1z"/>
</g>
</svg>
