<?xml version="1.0" encoding="iso-8859-1"?>
<!-- Generator: Adobe Illustrator 19.2.0, SVG Export Plug-In . SVG Version: 6.00 Build 0)  -->
<svg version="1.1" baseProfile="tiny" xmlns="http://www.w3.org/2000/svg" xmlns:xlink="http://www.w3.org/1999/xlink" x="0px"
	 y="0px" viewBox="0 0 16 16" xml:space="preserve">
<g id="Layer_1">
	<g>
		<path d="M12.5,16h-12C0.224,16,0,15.776,0,15.5v-12C0,3.224,0.224,3,0.5,3H6c0.276,0,0.5,0.224,0.5,0.5S6.276,4,6,4H1v11h11v-5
			c0-0.276,0.224-0.5,0.5-0.5S13,9.724,13,10v5.5C13,15.776,12.776,16,12.5,16z"/>
		<path d="M3.5,13c-0.128,0-0.256-0.049-0.354-0.146c-0.195-0.195-0.195-0.512,0-0.707l12-12c0.195-0.195,0.512-0.195,0.707,0
			s0.195,0.512,0,0.707l-12,12C3.756,12.951,3.628,13,3.5,13z"/>
		<path d="M15.5,7.5C15.224,7.5,15,7.276,15,7V1H9C8.724,1,8.5,0.776,8.5,0.5S8.724,0,9,0h6.5C15.776,0,16,0.224,16,0.5V7
			C16,7.276,15.776,7.5,15.5,7.5z"/>
	</g>
</g>
<g id="Layer_2">
</g>
<g id="Layer_3">
</g>
</svg>
