<?xml version="1.0" encoding="iso-8859-1"?>
<!-- Generator: Adobe Illustrator 19.2.1, SVG Export Plug-In . SVG Version: 6.00 Build 0)  -->
<!DOCTYPE svg PUBLIC "-//W3C//DTD SVG 1.1 Tiny//EN" "http://www.w3.org/Graphics/SVG/1.1/DTD/svg11-tiny.dtd">
<svg version="1.1" baseProfile="tiny" xmlns="http://www.w3.org/2000/svg" xmlns:xlink="http://www.w3.org/1999/xlink" x="0px"
	 y="0px" viewBox="0 0 16 16" xml:space="preserve">
<g id="Layer_1">
	<g>
		<path d="M2,12.938H1.556C0.64,12.938,0,12.371,0,11.56V1.92c0-1.056,0.856-1.982,1.833-1.982h11.402
			c1.04,0,1.765,1.024,1.765,1.943v2.057c0,0.276-0.224,0.5-0.5,0.5S14,4.214,14,3.938V1.881c0-0.428-0.341-0.943-0.765-0.943H1.833
			C1.42,0.938,1,1.434,1,1.92v9.64c0,0.341,0.389,0.378,0.556,0.378H2c0.276,0,0.5,0.224,0.5,0.5S2.276,12.938,2,12.938z"/>
	</g>
	<g>
		<path d="M14,3.938H1c-0.276,0-0.5-0.224-0.5-0.5s0.224-0.5,0.5-0.5h13c0.276,0,0.5,0.224,0.5,0.5S14.276,3.938,14,3.938z"/>
	</g>
	<g>
		<path d="M9.498,12.643c-1.191,0-2.161-0.969-2.161-2.16s0.969-2.161,2.161-2.161s2.161,0.97,2.161,2.161
			S10.689,12.643,9.498,12.643z M9.498,9.321c-0.64,0-1.161,0.521-1.161,1.161c0,0.64,0.521,1.16,1.161,1.16s1.161-0.521,1.161-1.16
			C10.658,9.842,10.138,9.321,9.498,9.321z"/>
	</g>
	<g>
		<path d="M10.5,15.938h-2c-0.276,0-0.5-0.224-0.5-0.5v-0.841c-0.627-0.169-0.922-0.417-1.193-0.684l-0.83,0.457
			c-0.239,0.133-0.538,0.048-0.674-0.188l-1.107-1.917c-0.066-0.115-0.084-0.251-0.05-0.38c0.034-0.128,0.118-0.237,0.233-0.304
			l0.795-0.458c-0.032-0.212-0.048-0.427-0.048-0.641c0-0.213,0.017-0.426,0.051-0.644L4.391,9.383
			C4.276,9.316,4.192,9.206,4.158,9.078C4.124,8.949,4.143,8.812,4.21,8.698L5.331,6.78c0.138-0.236,0.44-0.318,0.677-0.184
			l0.803,0.452C7.081,6.783,7.375,6.537,8,6.368V5.438c0-0.276,0.224-0.5,0.5-0.5h2c0.276,0,0.5,0.224,0.5,0.5v0.931
			c0.626,0.169,0.92,0.417,1.189,0.683l0.827-0.456c0.239-0.134,0.539-0.048,0.675,0.188L14.798,8.7
			c0.138,0.239,0.056,0.545-0.183,0.683l-0.792,0.458c0.033,0.218,0.05,0.43,0.05,0.642c0,0.205-0.018,0.418-0.055,0.644
			l0.786,0.456c0.115,0.067,0.198,0.177,0.232,0.306c0.034,0.128,0.015,0.265-0.052,0.379l-1.12,1.917
			c-0.138,0.236-0.439,0.318-0.678,0.184l-0.798-0.451c-0.27,0.266-0.563,0.513-1.187,0.681v0.841
			C11,15.714,10.776,15.938,10.5,15.938z M9,14.938h1v-0.743c0-0.243,0.175-0.451,0.414-0.492c0.697-0.122,0.861-0.287,1.159-0.585
			l0.188-0.186c0.16-0.15,0.399-0.178,0.59-0.072l0.698,0.395l0.619-1.059l-0.662-0.385c-0.19-0.111-0.286-0.333-0.235-0.548
			c0.069-0.29,0.102-0.545,0.102-0.78c0-0.252-0.031-0.508-0.095-0.783c-0.05-0.215,0.046-0.437,0.237-0.546l0.667-0.386
			L13.07,7.707l-0.724,0.399c-0.19,0.106-0.427,0.075-0.586-0.074l-0.186-0.184c-0.298-0.299-0.462-0.463-1.161-0.587
			C10.174,7.22,10,7.012,10,6.77V5.938H9v0.833c0,0.243-0.174,0.45-0.414,0.492c-0.7,0.123-0.865,0.288-1.164,0.588L7.237,8.032
			c-0.159,0.149-0.398,0.18-0.589,0.072L5.946,7.709L5.326,8.77l0.662,0.384c0.191,0.111,0.287,0.335,0.235,0.55
			c-0.066,0.272-0.098,0.527-0.098,0.779c0,0.262,0.031,0.523,0.093,0.778c0.052,0.216-0.044,0.439-0.236,0.551l-0.671,0.387
			l0.612,1.06l0.728-0.401c0.191-0.103,0.428-0.074,0.585,0.075l0.185,0.182c0.3,0.301,0.465,0.466,1.165,0.589
			C8.825,13.743,9,13.951,9,14.194V14.938z"/>
	</g>
</g>
<g id="Layer_2">
</g>
<g id="Layer_3">
</g>
</svg>
