<svg baseProfile="tiny" xmlns="http://www.w3.org/2000/svg" viewBox="0 0 16 16"><path d="M2 12.938h-.444C.64 12.938 0 12.371 0 11.56V1.92C0 .864.856-.062 1.833-.062h11.402C14.275-.062 15 .962 15 1.881v2.057a.5.5 0 0 1-1 0V1.881c0-.428-.341-.943-.765-.943H1.833C1.42.938 1 1.434 1 1.92v9.64c0 .341.389.378.556.378H2a.5.5 0 0 1 0 1z"/><path d="M14 3.938H1a.5.5 0 0 1 0-1h13a.5.5 0 0 1 0 1zM9.498 12.643c-1.191 0-2.161-.969-2.161-2.16s.969-2.161 2.161-2.161 2.161.97 2.161 2.161-.97 2.16-2.161 2.16zm0-3.322a1.162 1.162 0 1 0 1.161 1.161 1.163 1.163 0 0 0-1.161-1.161z"/><path d="M10.5 15.938h-2a.5.5 0 0 1-.5-.5v-.841c-.627-.169-.922-.417-1.193-.684l-.83.457a.498.498 0 0 1-.674-.188l-1.107-1.917a.504.504 0 0 1 .183-.684l.795-.458a4.302 4.302 0 0 1 .003-1.285l-.786-.455a.503.503 0 0 1-.181-.685L5.331 6.78a.5.5 0 0 1 .677-.184l.803.452c.27-.265.564-.511 1.189-.68v-.93a.5.5 0 0 1 .5-.5h2a.5.5 0 0 1 .5.5v.931c.626.169.92.417 1.189.683l.827-.456a.498.498 0 0 1 .675.188L14.798 8.7a.5.5 0 0 1-.183.683l-.792.458a3.973 3.973 0 0 1-.005 1.286l.786.456a.501.501 0 0 1 .18.685l-1.12 1.917a.5.5 0 0 1-.678.184l-.798-.451c-.27.266-.563.513-1.187.681v.841a.501.501 0 0 1-.501.498zm-1.5-1h1v-.743a.5.5 0 0 1 .414-.492c.697-.122.861-.287 1.159-.585l.188-.186a.505.505 0 0 1 .59-.072l.698.395.619-1.059-.662-.385a.5.5 0 0 1-.235-.548c.069-.29.102-.545.102-.78 0-.252-.031-.508-.095-.783a.498.498 0 0 1 .237-.546l.667-.386-.612-1.061-.724.399a.5.5 0 0 1-.586-.074l-.186-.184c-.298-.299-.462-.463-1.161-.587A.498.498 0 0 1 10 6.77v-.832H9v.833c0 .243-.174.45-.414.492-.7.123-.865.288-1.164.588l-.185.181a.502.502 0 0 1-.589.072l-.702-.395-.62 1.061.662.384a.5.5 0 0 1 .235.55 3.272 3.272 0 0 0-.098.779c0 .262.031.523.093.778a.501.501 0 0 1-.236.551l-.671.387.612 1.06.728-.401a.504.504 0 0 1 .585.075l.185.182c.3.301.465.466 1.165.589a.495.495 0 0 1 .414.49v.744z"/></svg>