<?xml version="1.0" encoding="iso-8859-1"?>
<!-- Generator: Adobe Illustrator 19.1.0, SVG Export Plug-In . SVG Version: 6.00 Build 0)  -->
<!DOCTYPE svg PUBLIC "-//W3C//DTD SVG 1.1 Tiny//EN" "http://www.w3.org/Graphics/SVG/1.1/DTD/svg11-tiny.dtd">
<svg version="1.1" baseProfile="tiny" id="Layer_1" xmlns="http://www.w3.org/2000/svg" xmlns:xlink="http://www.w3.org/1999/xlink"
	 x="0px" y="0px" viewBox="0 0 16 16" xml:space="preserve">
<g id="XMLID_706_">
	<path d="M8,12.479c-4.334,0-7.749-4.248-7.892-4.429c-0.144-0.182-0.144-0.439,0-0.621C0.251,7.248,3.666,3,8,3
		s7.749,4.248,7.892,4.429c0.144,0.182,0.144,0.439,0,0.621C15.749,8.23,12.334,12.479,8,12.479z M1.159,7.739
		C2.011,8.688,4.791,11.479,8,11.479s5.989-2.791,6.841-3.739C13.989,6.791,11.209,4,8,4S2.011,6.791,1.159,7.739z"/>
	<path d="M8,10.848c-1.714,0-3.109-1.395-3.109-3.108S6.286,4.631,8,4.631s3.109,1.395,3.109,3.108S9.714,10.848,8,10.848z M8,5.631
		c-1.163,0-2.109,0.946-2.109,2.108S6.837,9.848,8,9.848s2.109-0.946,2.109-2.108S9.163,5.631,8,5.631z"/>
</g>
</svg>
