<?xml version="1.0" encoding="utf-8"?>
<!-- Generator: Adobe Illustrator 19.1.0, SVG Export Plug-In . SVG Version: 6.00 Build 0)  -->
<!DOCTYPE svg PUBLIC "-//W3C//DTD SVG 1.1 Tiny//EN" "http://www.w3.org/Graphics/SVG/1.1/DTD/svg11-tiny.dtd">
<svg version="1.1" baseProfile="tiny" id="Layer_1" xmlns="http://www.w3.org/2000/svg" xmlns:xlink="http://www.w3.org/1999/xlink"
	 x="0px" y="0px" viewBox="0 0 16 16" xml:space="preserve">
<g id="XMLID_700_">
	<path d="M8,12.6c-0.7,0-1.4-0.1-2.1-0.3c-0.3-0.1-0.4-0.4-0.3-0.6c0.1-0.3,0.4-0.4,0.6-0.3c0.6,0.2,1.2,0.3,1.8,0.3
		c3.2,0,6-2.8,6.8-3.7c-0.4-0.4-1.2-1.3-2.2-2c-0.2-0.2-0.3-0.5-0.1-0.7C12.7,4.9,13,4.9,13.2,5c1.6,1.2,2.7,2.5,2.7,2.5
		C16,7.7,16,8,15.9,8.2C15.7,8.3,12.3,12.6,8,12.6z"/>
	<path d="M3.1,10.8c-0.1,0-0.2,0-0.3-0.1C1.2,9.5,0.2,8.2,0.1,8.2C0,8,0,7.7,0.1,7.5C0.3,7.4,3.7,3.1,8,3.1c0.6,0,1.2,0.1,1.8,0.2
		C10,3.4,10.2,3.7,10.1,4S9.8,4.4,9.5,4.3C9,4.2,8.5,4.1,8,4.1c-3.2,0-6,2.8-6.8,3.7c0.4,0.4,1.2,1.3,2.2,2c0.2,0.2,0.3,0.5,0.1,0.7
		C3.4,10.7,3.2,10.8,3.1,10.8z"/>
	<path d="M5.4,8.4c-0.3,0-0.5-0.2-0.5-0.5c0-1.7,1.4-3.1,3.1-3.1c0.3,0,0.5,0.2,0.5,0.5S8.3,5.8,8,5.8c-1.2,0-2.1,0.9-2.1,2.1
		C5.9,8.1,5.7,8.4,5.4,8.4z"/>
	<path d="M8,11c-0.3,0-0.5-0.2-0.5-0.5S7.7,10,8,10c1.2,0,2.1-0.9,2.1-2.1c0-0.3,0.2-0.5,0.5-0.5s0.5,0.2,0.5,0.5
		C11.1,9.6,9.7,11,8,11z"/>
	<path d="M1.6,14.7c-0.1,0-0.3,0-0.4-0.1c-0.2-0.2-0.2-0.5,0-0.7L14,1.1c0.2-0.2,0.5-0.2,0.7,0s0.2,0.5,0,0.7L2,14.6
		C1.9,14.7,1.8,14.7,1.6,14.7z"/>
</g>
</svg>
