<svg baseProfile="tiny" xmlns="http://www.w3.org/2000/svg" viewBox="0 0 16 16"><path d="M8 12.598c-.69 0-1.398-.109-2.104-.324a.5.5 0 1 1 .292-.957A6.233 6.233 0 0 0 8 11.598c3.21 0 5.99-2.792 6.841-3.739a14.49 14.49 0 0 0-2.231-2.016.5.5 0 1 1 .586-.81 14.885 14.885 0 0 1 2.696 2.516.498.498 0 0 1 0 .621c-.143.18-3.558 4.428-7.892 4.428zM3.087 10.772a.5.5 0 0 1-.293-.095A14.821 14.821 0 0 1 .108 8.169a.5.5 0 0 1 0-.621C.251 7.367 3.666 3.119 8 3.119c.575 0 1.166.077 1.757.229a.499.499 0 1 1-.248.968A6.127 6.127 0 0 0 8 4.119c-3.21 0-5.99 2.792-6.841 3.739a14.457 14.457 0 0 0 2.222 2.009.5.5 0 0 1-.294.905z"/><path d="M5.391 8.358a.5.5 0 0 1-.5-.5A3.113 3.113 0 0 1 8 4.75a.5.5 0 0 1 0 1 2.111 2.111 0 0 0-2.109 2.108.5.5 0 0 1-.5.5zM8 10.968a.5.5 0 0 1 0-1 2.111 2.111 0 0 0 2.109-2.109.5.5 0 0 1 1 0A3.113 3.113 0 0 1 8 10.968zM1.641 14.718a.5.5 0 0 1-.354-.853L14.005 1.146a.5.5 0 0 1 .707.707L1.995 14.571a.5.5 0 0 1-.354.147z"/></svg>