<?xml version="1.0" encoding="iso-8859-1"?>
<!-- Generator: Adobe Illustrator 19.1.0, SVG Export Plug-In . SVG Version: 6.00 Build 0)  -->
<!DOCTYPE svg PUBLIC "-//W3C//DTD SVG 1.1 Tiny//EN" "http://www.w3.org/Graphics/SVG/1.1/DTD/svg11-tiny.dtd">
<svg version="1.1" baseProfile="tiny" id="Layer_1" xmlns="http://www.w3.org/2000/svg" xmlns:xlink="http://www.w3.org/1999/xlink"
	 x="0px" y="0px" viewBox="0 0 16 16" xml:space="preserve">
<g id="XMLID_700_">
	<g id="XMLID_705_">
		<path d="M8,12.598c-0.69,0-1.398-0.109-2.104-0.324c-0.264-0.081-0.413-0.36-0.332-0.624c0.081-0.265,0.359-0.413,0.624-0.333
			C6.799,11.503,7.409,11.598,8,11.598c3.21,0,5.99-2.792,6.841-3.739c-0.389-0.436-1.182-1.256-2.231-2.016
			c-0.224-0.162-0.274-0.475-0.112-0.698c0.162-0.225,0.475-0.273,0.698-0.112c1.628,1.179,2.653,2.462,2.696,2.516
			c0.145,0.182,0.145,0.439,0,0.621C15.749,8.35,12.334,12.598,8,12.598z"/>
	</g>
	<g id="XMLID_704_">
		<path d="M3.087,10.772c-0.102,0-0.204-0.031-0.293-0.095C1.172,9.502,0.151,8.223,0.108,8.169c-0.144-0.182-0.144-0.439,0-0.621
			C0.251,7.367,3.666,3.119,8,3.119c0.575,0,1.166,0.077,1.757,0.229c0.268,0.068,0.429,0.341,0.36,0.608s-0.343,0.428-0.608,0.36
			C8.999,4.186,8.491,4.119,8,4.119c-3.21,0-5.99,2.792-6.841,3.739C1.547,8.292,2.336,9.11,3.381,9.867
			c0.224,0.162,0.273,0.475,0.111,0.698C3.395,10.701,3.242,10.772,3.087,10.772z"/>
	</g>
	<g id="XMLID_703_">
		<path d="M5.391,8.358c-0.276,0-0.5-0.224-0.5-0.5C4.891,6.145,6.286,4.75,8,4.75c0.276,0,0.5,0.224,0.5,0.5S8.276,5.75,8,5.75
			c-1.163,0-2.109,0.946-2.109,2.108C5.891,8.135,5.667,8.358,5.391,8.358z"/>
	</g>
	<g id="XMLID_702_">
		<path d="M8,10.968c-0.276,0-0.5-0.224-0.5-0.5s0.224-0.5,0.5-0.5c1.163,0,2.109-0.946,2.109-2.109c0-0.276,0.224-0.5,0.5-0.5
			s0.5,0.224,0.5,0.5C11.109,9.573,9.714,10.968,8,10.968z"/>
	</g>
	<g id="XMLID_701_">
		<path d="M1.641,14.718c-0.128,0-0.256-0.049-0.354-0.146c-0.195-0.195-0.195-0.512,0-0.707L14.005,1.146
			c0.195-0.195,0.512-0.195,0.707,0s0.195,0.512,0,0.707L1.995,14.571C1.897,14.669,1.769,14.718,1.641,14.718z"/>
	</g>
</g>
</svg>
