<?xml version="1.0" encoding="utf-8"?>
<!-- Generator: Adobe Illustrator 19.1.0, SVG Export Plug-In . SVG Version: 6.00 Build 0)  -->
<!DOCTYPE svg PUBLIC "-//W3C//DTD SVG 1.1 Tiny//EN" "http://www.w3.org/Graphics/SVG/1.1/DTD/svg11-tiny.dtd">
<svg version="1.1" baseProfile="tiny" id="Layer_1" xmlns="http://www.w3.org/2000/svg" xmlns:xlink="http://www.w3.org/1999/xlink"
	 x="0px" y="0px" viewBox="0 0 16 16" xml:space="preserve">
<g id="XMLID_706_">
	<path d="M8,12.5c-4.3,0-7.7-4.2-7.9-4.4C0,7.9,0,7.6,0.1,7.4C0.3,7.2,3.7,3,8,3s7.7,4.2,7.9,4.4C16,7.6,16,7.9,15.9,8
		C15.7,8.2,12.3,12.5,8,12.5z M1.2,7.7C2,8.7,4.8,11.5,8,11.5s6-2.8,6.8-3.7C14,6.8,11.2,4,8,4S2,6.8,1.2,7.7z"/>
	<path d="M8,10.8c-1.7,0-3.1-1.4-3.1-3.1S6.3,4.6,8,4.6s3.1,1.4,3.1,3.1S9.7,10.8,8,10.8z M8,5.6c-1.2,0-2.1,0.9-2.1,2.1
		S6.8,9.8,8,9.8s2.1-0.9,2.1-2.1S9.2,5.6,8,5.6z"/>
</g>
</svg>
