<?xml version="1.0" encoding="iso-8859-1"?>
<!-- Generator: Adobe Illustrator 19.2.1, SVG Export Plug-In . SVG Version: 6.00 Build 0)  -->
<!DOCTYPE svg PUBLIC "-//W3C//DTD SVG 1.1 Tiny//EN" "http://www.w3.org/Graphics/SVG/1.1/DTD/svg11-tiny.dtd">
<svg version="1.1" baseProfile="tiny" xmlns="http://www.w3.org/2000/svg" xmlns:xlink="http://www.w3.org/1999/xlink" x="0px"
	 y="0px" width="16px" height="16px" viewBox="0 0 16 16" xml:space="preserve">
<g id="Layer_1">
	<g>
		<g>
			<path d="M3.5,15.438c-0.276,0-0.5-0.224-0.5-0.5v-14c0-0.276,0.224-0.5,0.5-0.5S4,0.661,4,0.938v14
				C4,15.214,3.776,15.438,3.5,15.438z"/>
		</g>
		<g>
			<path d="M3.5,9.661c-0.096,0-0.191-0.027-0.274-0.082C3.085,9.486,3,9.329,3,9.161V0.684c0-0.168,0.085-0.325,0.226-0.418
				c0.142-0.093,0.317-0.107,0.474-0.041l9.782,4.239c0.183,0.079,0.301,0.26,0.301,0.459s-0.118,0.38-0.301,0.459L3.699,9.62
				C3.635,9.647,3.567,9.661,3.5,9.661z M4,1.445v6.954l8.024-3.477L4,1.445z"/>
		</g>
	</g>
</g>
<g id="Layer_2">
</g>
<g id="Layer_3">
</g>
</svg>
