<svg baseProfile="tiny" xmlns="http://www.w3.org/2000/svg" width="16" height="16" viewBox="0 0 16 16"><path d="M12.853 5.938H3.147c-1.794 0-3.147-1.29-3.147-3s1.354-3 3.147-3h9.705c1.794 0 3.147 1.29 3.147 3s-1.353 3-3.146 3zm-9.706-5C1.923.938 1 1.797 1 2.938s.923 2 2.147 2h9.705c1.225 0 2.147-.859 2.147-2s-.923-2-2.147-2H3.147zM12.853 15.938H3.147c-1.794 0-3.147-1.29-3.147-3s1.354-3 3.147-3h9.705c1.794 0 3.147 1.29 3.147 3s-1.353 3-3.146 3zm-9.706-5c-1.225 0-2.147.859-2.147 2s.923 2 2.147 2h9.705c1.225 0 2.147-.859 2.147-2s-.923-2-2.147-2H3.147z"/><path d="M3.147 5.929C1.451 5.929.071 4.615.071 3S1.451.071 3.147.071C4.842.071 6.222 1.384 6.222 3S4.843 5.929 3.147 5.929zm0-5C1.924.929.929 1.857.929 3s.995 2.071 2.219 2.071c1.222 0 2.217-.928 2.217-2.071S4.37.929 3.147.929zM13 15.917c-1.608 0-2.917-1.309-2.917-2.917s1.309-2.917 2.917-2.917 2.917 1.309 2.917 2.917-1.309 2.917-2.917 2.917zm0-5c-1.148 0-2.083.935-2.083 2.083s.935 2.083 2.083 2.083 2.083-.935 2.083-2.083-.935-2.083-2.083-2.083z"/></svg>