<?xml version="1.0" encoding="iso-8859-1"?>
<!-- Generator: Adobe Illustrator 19.1.0, SVG Export Plug-In . SVG Version: 6.00 Build 0)  -->
<!DOCTYPE svg PUBLIC "-//W3C//DTD SVG 1.1 Tiny//EN" "http://www.w3.org/Graphics/SVG/1.1/DTD/svg11-tiny.dtd">
<svg version="1.1" baseProfile="tiny" xmlns="http://www.w3.org/2000/svg" xmlns:xlink="http://www.w3.org/1999/xlink" x="0px"
	 y="0px" viewBox="0 0 16 16" xml:space="preserve">
<g id="Layer_1">
	<path d="M6.5,14.988c-0.06,0-0.12-0.011-0.178-0.033C6.128,14.882,6,14.695,6,14.488V11H1.5C0.617,11,0,10.456,0,9.677V1.5
		C0,0.673,0.673,0,1.5,0h13.009C15.331,0,16,0.673,16,1.5v8.177C16,10.468,15.401,11,14.509,11h-4.28
		c-0.424,0.542-1.364,1.594-3.356,3.821C6.776,14.93,6.64,14.988,6.5,14.988z M1.5,1C1.224,1,1,1.225,1,1.5v8.177
		C1,9.944,1.272,10,1.5,10h5C6.776,10,7,10.224,7,10.5v2.679c1.213-1.358,2.537-2.842,2.66-2.986C9.754,10.071,9.899,10,10.054,10
		h4.455C14.835,10,15,9.892,15,9.677V1.5C15,1.22,14.784,1,14.509,1H1.5z"/>
	<path d="M11,4H4C3.724,4,3.5,3.776,3.5,3.5S3.724,3,4,3h7c0.276,0,0.5,0.224,0.5,0.5S11.276,4,11,4z"/>
	<path d="M9,6H4C3.724,6,3.5,5.776,3.5,5.5S3.724,5,4,5h5c0.276,0,0.5,0.224,0.5,0.5S9.276,6,9,6z"/>
	<path d="M11,8H4C3.724,8,3.5,7.776,3.5,7.5S3.724,7,4,7h7c0.276,0,0.5,0.224,0.5,0.5S11.276,8,11,8z"/>
</g>
<g id="Layer_2">
</g>
<g id="Layer_3">
</g>
</svg>
