<svg baseProfile="tiny" xmlns="http://www.w3.org/2000/svg" viewBox="0 0 16 16"><path d="M6.5 14.988a.5.5 0 0 1-.5-.5V11H1.5C.617 11 0 10.456 0 9.677V1.5C0 .673.673 0 1.5 0h13.009C15.331 0 16 .673 16 1.5v8.177c0 .791-.599 1.323-1.491 1.323h-4.28c-.424.542-1.364 1.594-3.356 3.821a.498.498 0 0 1-.373.167zM1.5 1a.5.5 0 0 0-.5.5v8.177c0 .267.272.323.5.323h5a.5.5 0 0 1 .5.5v2.679a757.69 757.69 0 0 0 2.66-2.986.496.496 0 0 1 .394-.193h4.455c.326 0 .491-.108.491-.323V1.5a.49.49 0 0 0-.491-.5H1.5z"/><path d="M11 4H4a.5.5 0 0 1 0-1h7a.5.5 0 0 1 0 1zM9 6H4a.5.5 0 0 1 0-1h5a.5.5 0 0 1 0 1zM11 8H4a.5.5 0 0 1 0-1h7a.5.5 0 0 1 0 1z"/></svg>