<svg baseProfile="tiny" xmlns="http://www.w3.org/2000/svg" viewBox="0 0 16 16"><path d="M13.5 11H5.54a.5.5 0 0 1-.5-.5c0-.574.463-1.088 1.028-1.5H3.5a.5.5 0 0 1-.5-.5v-7a.5.5 0 0 1 .5-.5h5a.5.5 0 0 1 .5.5V2h4.5a.5.5 0 0 1 .5.5v8a.5.5 0 0 1-.5.5zm-7.086-1H13V3H8.5a.5.5 0 0 1-.5-.5V2H4v6h4.061a.5.5 0 0 1 .185.965c-.733.291-1.425.693-1.832 1.035z"/><path d="M8.5 9a.5.5 0 0 1-.5-.5v-7a.5.5 0 0 1 1 0v7a.5.5 0 0 1-.5.5zM3.5 15.5A.5.5 0 0 1 3 15V1a.5.5 0 0 1 1 0v14a.5.5 0 0 1-.5.5zM5.5 11a.5.5 0 0 1-.5-.5V9a.5.5 0 0 1 1 0v1.5a.5.5 0 0 1-.5.5z"/></svg>