<?xml version="1.0" encoding="utf-8"?>
<!-- Generator: Adobe Illustrator 19.1.0, SVG Export Plug-In . SVG Version: 6.00 Build 0)  -->
<!DOCTYPE svg PUBLIC "-//W3C//DTD SVG 1.1 Tiny//EN" "http://www.w3.org/Graphics/SVG/1.1/DTD/svg11-tiny.dtd">
<svg version="1.1" baseProfile="tiny" id="Layer_1" xmlns="http://www.w3.org/2000/svg" xmlns:xlink="http://www.w3.org/1999/xlink"
	 x="0px" y="0px" viewBox="0 0 16 16" xml:space="preserve">
<path d="M13.5,2H9V1.5C9,1.2,8.8,1,8.5,1H4c0-0.3-0.2-0.5-0.5-0.5S3,0.7,3,1v0.5v7V15c0,0.3,0.2,0.5,0.5,0.5S4,15.3,4,15V9h1v1.5
	c0,0,0,0,0,0c0,0,0,0,0,0v0h0c0,0.3,0.2,0.5,0.5,0.5h8c0.3,0,0.5-0.2,0.5-0.5v-8C14,2.2,13.8,2,13.5,2z M4,8V2h4v1v1.6V8H4z M13,10
	H6.4c0.4-0.3,1.8-1.4,2.5-1.7C9,8.3,9,8.2,9,8h0V3h4V10z"/>
</svg>
