<?xml version="1.0" encoding="utf-8"?>
<!-- Generator: Adobe Illustrator 19.1.0, SVG Export Plug-In . SVG Version: 6.00 Build 0)  -->
<!DOCTYPE svg PUBLIC "-//W3C//DTD SVG 1.1 Tiny//EN" "http://www.w3.org/Graphics/SVG/1.1/DTD/svg11-tiny.dtd">
<svg version="1.1" baseProfile="tiny" id="Layer_1" xmlns="http://www.w3.org/2000/svg" xmlns:xlink="http://www.w3.org/1999/xlink"
	 x="0px" y="0px" viewBox="0 0 16 16" xml:space="preserve">
<path d="M13.5,11h-8C5.3,11,5,10.8,5,10.5c0-0.6,0.5-1.1,1-1.5H3.5C3.2,9,3,8.8,3,8.5v-7C3,1.2,3.2,1,3.5,1h5C8.8,1,9,1.2,9,1.5V2
	h4.5C13.8,2,14,2.2,14,2.5v8C14,10.8,13.8,11,13.5,11z M6.4,10H13V3H8.5C8.2,3,8,2.8,8,2.5V2H4v6h4.1c0.2,0,0.4,0.2,0.5,0.4
	c0,0.2-0.1,0.5-0.3,0.6C7.5,9.3,6.8,9.7,6.4,10z"/>
<path d="M8.5,9C8.2,9,8,8.8,8,8.5v-7C8,1.2,8.2,1,8.5,1S9,1.2,9,1.5v7C9,8.8,8.8,9,8.5,9z"/>
<path d="M3.5,15.5C3.2,15.5,3,15.3,3,15V1c0-0.3,0.2-0.5,0.5-0.5S4,0.7,4,1v14C4,15.3,3.8,15.5,3.5,15.5z"/>
<path d="M5.5,11C5.2,11,5,10.8,5,10.5V9c0-0.3,0.2-0.5,0.5-0.5S6,8.7,6,9v1.5C6,10.8,5.8,11,5.5,11z"/>
</svg>
