<?xml version="1.0" encoding="iso-8859-1"?>
<!-- Generator: Adobe Illustrator 19.1.0, SVG Export Plug-In . SVG Version: 6.00 Build 0)  -->
<!DOCTYPE svg PUBLIC "-//W3C//DTD SVG 1.1 Tiny//EN" "http://www.w3.org/Graphics/SVG/1.1/DTD/svg11-tiny.dtd">
<svg version="1.1" baseProfile="tiny" xmlns="http://www.w3.org/2000/svg" xmlns:xlink="http://www.w3.org/1999/xlink" x="0px"
	 y="0px" viewBox="0 0 16 16" xml:space="preserve">
<g id="Layer_1">
	<g>
		<path d="M14.428,5H1.572C0.705,5,0,4.295,0,3.428V2.572C0,1.705,0.705,1,1.572,1h12.855C15.295,1,16,1.705,16,2.572v0.855
			C16,4.295,15.295,5,14.428,5z M1.572,2C1.257,2,1,2.257,1,2.572v0.855C1,3.743,1.257,4,1.572,4h12.855C14.743,4,15,3.743,15,3.428
			V2.572C15,2.257,14.743,2,14.428,2H1.572z"/>
		<path d="M14.428,10H1.572C0.705,10,0,9.295,0,8.428V7.572C0,6.705,0.705,6,1.572,6h12.855C15.295,6,16,6.705,16,7.572v0.855
			C16,9.295,15.295,10,14.428,10z M1.572,7C1.257,7,1,7.257,1,7.572v0.855C1,8.743,1.257,9,1.572,9h12.855
			C14.743,9,15,8.743,15,8.428V7.572C15,7.257,14.743,7,14.428,7H1.572z"/>
		<path d="M14.428,15H1.572C0.705,15,0,14.295,0,13.428v-0.855C0,11.705,0.705,11,1.572,11h12.855C15.295,11,16,11.705,16,12.572
			v0.855C16,14.295,15.295,15,14.428,15z M1.572,12C1.257,12,1,12.257,1,12.572v0.855C1,13.743,1.257,14,1.572,14h12.855
			C14.743,14,15,13.743,15,13.428v-0.855C15,12.257,14.743,12,14.428,12H1.572z"/>
	</g>
</g>
<g id="Layer_2">
</g>
<g id="Layer_3">
</g>
</svg>
