<?xml version="1.0" encoding="iso-8859-1"?>
<!-- Generator: Adobe Illustrator 19.2.0, SVG Export Plug-In . SVG Version: 6.00 Build 0)  -->
<svg version="1.1" baseProfile="tiny" xmlns="http://www.w3.org/2000/svg" xmlns:xlink="http://www.w3.org/1999/xlink" x="0px"
	 y="0px" viewBox="0 0 16 16" xml:space="preserve">
<g id="Layer_1">
	<g>
		<path d="M14,3H2C1.724,3,1.5,2.776,1.5,2.5S1.724,2,2,2h12c0.276,0,0.5,0.224,0.5,0.5S14.276,3,14,3z"/>
		<path d="M14,8H2C1.724,8,1.5,7.776,1.5,7.5S1.724,7,2,7h12c0.276,0,0.5,0.224,0.5,0.5S14.276,8,14,8z"/>
		<path d="M14,13H2c-0.276,0-0.5-0.224-0.5-0.5S1.724,12,2,12h12c0.276,0,0.5,0.224,0.5,0.5S14.276,13,14,13z"/>
	</g>
</g>
<g id="Layer_2">
</g>
<g id="Layer_3">
</g>
</svg>
