<?xml version="1.0" encoding="iso-8859-1"?>
<!-- Generator: Adobe Illustrator 19.2.1, SVG Export Plug-In . SVG Version: 6.00 Build 0)  -->
<!DOCTYPE svg PUBLIC "-//W3C//DTD SVG 1.1 Tiny//EN" "http://www.w3.org/Graphics/SVG/1.1/DTD/svg11-tiny.dtd">
<svg version="1.1" baseProfile="tiny" xmlns="http://www.w3.org/2000/svg" xmlns:xlink="http://www.w3.org/1999/xlink" x="0px" y="0px" viewBox="0 0 16 16" xml:space="preserve">
    <path d="M7.97,14C4.678,14,2,11.312,2,8.01C2,4.696,4.678,2,7.97,2C11.295,2,14,4.691,14,8S11.295,14,7.97,14z M7.97,3 C5.229,3,3,5.247,3,8.01C3,10.808,5.183,13,7.97,13C10.743,13,13,10.757,13,8S10.743,3,7.97,3z"/>
    <path d="M7.251,8.187c0-1.195,1.576-1.312,1.576-2.144c0-0.382-0.303-0.705-0.93-0.705c-0.608,0-1.038,0.264-1.361,0.685 L5.87,5.288c0.5-0.616,1.253-0.969,2.136-0.969c1.234,0,1.988,0.656,1.988,1.537c0,1.449-1.744,1.567-1.744,2.439
c0,0.156,0.079,0.343,0.216,0.44L7.594,9.03C7.359,8.804,7.251,8.51,7.251,8.187z M7.016,11.002c0-0.519,0.449-0.969,0.983-0.969 c0.533,0,0.983,0.45,0.983,0.969C8.982,11.536,8.532,12,7.999,12C7.464,12,7.016,11.536,7.016,11.002z"/>
</svg>
