<?xml version="1.0" encoding="iso-8859-1"?>
<!-- Generator: Adobe Illustrator 19.2.0, SVG Export Plug-In . SVG Version: 6.00 Build 0)  -->
<svg version="1.1" baseProfile="tiny" xmlns="http://www.w3.org/2000/svg" xmlns:xlink="http://www.w3.org/1999/xlink" x="0px"
	 y="0px" viewBox="0 0 16 16" xml:space="preserve">
<g id="Layer_1">
	<path d="M7.958,16C3.57,16,0,12.417,0,8.013C0,3.595,3.57,0,7.958,0C12.393,0,16,3.589,16,8S12.393,16,7.958,16z M7.958,1
		C4.121,1,1,4.146,1,8.013C1,11.931,4.057,15,7.958,15C11.841,15,15,11.859,15,8S11.841,1,7.958,1z"/>
	<path id="XMLID_754_" d="M6.995,8.871c0-1.602,2.113-1.76,2.113-2.876c0-0.513-0.406-0.946-1.247-0.946
		c-0.815,0-1.392,0.354-1.826,0.919L5.142,4.984c0.67-0.827,1.681-1.3,2.864-1.3c1.655,0,2.666,0.88,2.666,2.062
		c0,1.944-2.338,2.101-2.338,3.27c0,0.21,0.106,0.46,0.289,0.591l-1.168,0.395C7.139,9.699,6.995,9.305,6.995,8.871z M7.007,11.787
		c0-0.485,0.419-0.905,0.919-0.905c0.498,0,0.919,0.42,0.919,0.905c0,0.499-0.421,0.933-0.919,0.933
		C7.427,12.719,7.007,12.285,7.007,11.787z"/>
</g>
<g id="Layer_2">
</g>
<g id="Layer_3">
</g>
</svg>
