<svg baseProfile="tiny" xmlns="http://www.w3.org/2000/svg" viewBox="0 0 16 16"><path d="M7.958 16C3.57 16 0 12.417 0 8.013 0 3.595 3.57 0 7.958 0 12.393 0 16 3.589 16 8s-3.607 8-8.042 8zm0-15C4.121 1 1 4.146 1 8.013 1 11.931 4.057 15 7.958 15 11.841 15 15 11.859 15 8s-3.159-7-7.042-7z"/><path d="M6.995 8.871c0-1.602 2.113-1.76 2.113-2.876 0-.513-.406-.946-1.247-.946-.815 0-1.392.354-1.826.919l-.893-.984c.67-.827 1.681-1.3 2.864-1.3 1.655 0 2.666.88 2.666 2.062 0 1.944-2.338 2.101-2.338 3.27 0 .21.106.46.289.591l-1.168.395c-.316-.303-.46-.697-.46-1.131zm.012 2.916c0-.485.419-.905.919-.905.498 0 .919.42.919.905 0 .499-.421.933-.919.933-.499-.001-.919-.435-.919-.933z"/></svg>