<?xml version="1.0" encoding="iso-8859-1"?>
<!-- Generator: Adobe Illustrator 19.1.0, SVG Export Plug-In . SVG Version: 6.00 Build 0)  -->
<!DOCTYPE svg PUBLIC "-//W3C//DTD SVG 1.1 Tiny//EN" "http://www.w3.org/Graphics/SVG/1.1/DTD/svg11-tiny.dtd">
<svg version="1.1" baseProfile="tiny" id="Layer_1" xmlns="http://www.w3.org/2000/svg" xmlns:xlink="http://www.w3.org/1999/xlink"
	 x="0px" y="0px" viewBox="0 0 16 16" xml:space="preserve">
<g id="XMLID_583_">
	<path d="M2.961,9.19c-0.011,0-0.021,0-0.032-0.001c-0.155-0.01-0.298-0.092-0.384-0.222L0.584,6.026
		c-0.153-0.229-0.091-0.54,0.139-0.693C0.949,5.18,1.262,5.241,1.416,5.472l1.599,2.397l1.857-2.123
		c0.183-0.209,0.499-0.228,0.705-0.047c0.208,0.182,0.229,0.498,0.047,0.706L3.337,9.019C3.242,9.128,3.104,9.19,2.961,9.19z"/>
</g>
<g id="XMLID_582_">
	<path d="M9.398,14.415c-0.268,0-0.49-0.212-0.5-0.481c-0.01-0.276,0.206-0.508,0.481-0.518c1.524-0.056,2.936-0.702,3.974-1.82
		c1.038-1.117,1.579-2.572,1.521-4.096c-0.114-3.146-2.737-5.587-5.915-5.496C7.373,2.062,5.856,2.81,4.798,4.053
		c-1.072,1.26-1.547,2.885-1.337,4.575c0.034,0.274-0.16,0.523-0.435,0.558c-0.271,0.038-0.523-0.16-0.558-0.435
		C2.224,6.78,2.78,4.881,4.037,3.405c1.239-1.457,3.021-2.331,4.886-2.4c3.722-0.162,6.816,2.76,6.952,6.458
		c0.066,1.791-0.568,3.5-1.789,4.813c-1.22,1.313-2.878,2.072-4.669,2.138C9.41,14.415,9.404,14.415,9.398,14.415z"/>
</g>
<g id="XMLID_581_">
	<path d="M12,8H9.5C9.224,8,9,7.776,9,7.5V4c0-0.276,0.224-0.5,0.5-0.5S10,3.724,10,4v3h2c0.276,0,0.5,0.224,0.5,0.5S12.276,8,12,8z
		"/>
</g>
</svg>
