<?xml version="1.0" encoding="utf-8"?>
<!-- Generator: Adobe Illustrator 19.1.0, SVG Export Plug-In . SVG Version: 6.00 Build 0)  -->
<!DOCTYPE svg PUBLIC "-//W3C//DTD SVG 1.1 Tiny//EN" "http://www.w3.org/Graphics/SVG/1.1/DTD/svg11-tiny.dtd">
<svg version="1.1" baseProfile="tiny" id="Layer_1" xmlns="http://www.w3.org/2000/svg" xmlns:xlink="http://www.w3.org/1999/xlink"
	 x="0px" y="0px" viewBox="0 0 16 16" xml:space="preserve">
<g id="XMLID_583_">
	<path d="M3,9.7C3,9.7,2.9,9.7,3,9.7c-0.2,0-0.3-0.1-0.4-0.2l-2-2.9C0.4,6.3,0.5,6,0.7,5.8C0.9,5.7,1.3,5.7,1.4,6L3,8.4l1.9-2.1
		C5.1,6,5.4,6,5.6,6.2c0.2,0.2,0.2,0.5,0,0.7L3.3,9.5C3.2,9.6,3.1,9.7,3,9.7z"/>
</g>
<g id="XMLID_582_">
	<path d="M9.4,14.9c-0.3,0-0.5-0.2-0.5-0.5c0-0.3,0.2-0.5,0.5-0.5c1.5-0.1,2.9-0.7,4-1.8c1-1.1,1.6-2.6,1.5-4.1
		C14.8,4.9,12.1,2.4,9,2.5c-1.6,0.1-3.1,0.8-4.2,2C3.7,5.8,3.3,7.4,3.5,9.1c0,0.3-0.2,0.5-0.4,0.6c-0.3,0-0.5-0.2-0.6-0.4
		C2.2,7.3,2.8,5.4,4,3.9c1.2-1.5,3-2.3,4.9-2.4c3.7-0.1,6.8,2.8,7,6.5c0.1,1.8-0.6,3.5-1.8,4.8C12.9,14.1,11.2,14.8,9.4,14.9
		C9.4,14.9,9.4,14.9,9.4,14.9z"/>
</g>
<g id="XMLID_581_">
	<path d="M11,9H8.5C8.2,9,8,8.8,8,8.5V5c0-0.3,0.2-0.5,0.5-0.5S9,4.7,9,5v3h2c0.3,0,0.5,0.2,0.5,0.5S11.3,9,11,9z"/>
</g>
</svg>
