<?xml version="1.0" encoding="iso-8859-1"?>
<!-- Generator: Adobe Illustrator 19.1.0, SVG Export Plug-In . SVG Version: 6.00 Build 0)  -->
<!DOCTYPE svg PUBLIC "-//W3C//DTD SVG 1.1 Tiny//EN" "http://www.w3.org/Graphics/SVG/1.1/DTD/svg11-tiny.dtd">
<svg version="1.1" baseProfile="tiny" id="Layer_1" xmlns="http://www.w3.org/2000/svg" xmlns:xlink="http://www.w3.org/1999/xlink"
	 x="0px" y="0px" viewBox="0 0 16 16" xml:space="preserve">
<path d="M2.961,9C2.95,9,2.939,9,2.929,9C2.773,9,2.631,9.002,2.545,8.873L0.584,5.979C0.431,5.75,0.493,5.463,0.723,5.309
	c0.227-0.153,0.539-0.08,0.693,0.15l1.599,2.403l1.857-2.12c0.183-0.209,0.499-0.227,0.705-0.046
	C5.785,5.88,5.807,6.197,5.624,6.404l-2.287,2.52C3.242,9.033,3.104,9,2.961,9z"/>
<path d="M9.398,14c-0.268,0-0.49-0.005-0.5-0.274c-0.01-0.276,0.206-0.405,0.481-0.414c1.524-0.056,2.936-0.65,3.974-1.768
	c1.038-1.117,1.579-2.546,1.521-4.07c-0.114-3.146-2.737-5.574-5.915-5.483C7.373,2.05,5.856,2.803,4.798,4.047
	c-1.072,1.26-1.547,2.888-1.337,4.578c0.034,0.274-0.16,0.525-0.435,0.559C2.756,9.223,2.503,9.025,2.469,8.751
	C2.224,6.779,2.78,4.88,4.037,3.404c1.239-1.457,3.021-2.331,4.886-2.4c3.722-0.162,6.816,2.76,6.952,6.458
	c0.066,1.791-0.568,3.294-1.789,4.606C12.866,13.382,11.208,14,9.417,14C9.41,14,9.404,14,9.398,14z"/>
<path d="M12,8H9.5C9.224,8,9,7.776,9,7.5V4c0-0.276,0.224-0.5,0.5-0.5S10,3.724,10,4v3h2c0.276,0,0.5,0.224,0.5,0.5S12.276,8,12,8z"
	/>
</svg>
