<svg baseProfile="tiny" xmlns="http://www.w3.org/2000/svg" viewBox="0 0 16 16"><path d="M2.961 9.19l-.032-.001a.5.5 0 0 1-.384-.222L.584 6.026a.5.5 0 1 1 .832-.554l1.599 2.397 1.857-2.123a.5.5 0 1 1 .752.659L3.337 9.019a.5.5 0 0 1-.376.171z"/><path d="M9.398 14.415a.5.5 0 0 1-.019-.999 5.672 5.672 0 0 0 3.974-1.82A5.662 5.662 0 0 0 14.874 7.5c-.114-3.146-2.737-5.587-5.915-5.496-1.586.058-3.103.806-4.161 2.049-1.072 1.26-1.547 2.885-1.337 4.575a.5.5 0 0 1-.993.123c-.244-1.971.312-3.87 1.569-5.346 1.239-1.457 3.021-2.331 4.886-2.4 3.722-.162 6.816 2.76 6.952 6.458a6.659 6.659 0 0 1-1.789 4.813 6.666 6.666 0 0 1-4.669 2.138l-.019.001z"/><path d="M12 8H9.5a.5.5 0 0 1-.5-.5V4a.5.5 0 0 1 1 0v3h2a.5.5 0 0 1 0 1z"/></svg>