<?xml version="1.0" encoding="utf-8"?>
<!-- Generator: Adobe Illustrator 19.1.0, SVG Export Plug-In . SVG Version: 6.00 Build 0)  -->
<!DOCTYPE svg PUBLIC "-//W3C//DTD SVG 1.1 Tiny//EN" "http://www.w3.org/Graphics/SVG/1.1/DTD/svg11-tiny.dtd">
<svg version="1.1" baseProfile="tiny" id="Layer_1" xmlns="http://www.w3.org/2000/svg" xmlns:xlink="http://www.w3.org/1999/xlink"
	 x="0px" y="0px" viewBox="0 0 16 16" xml:space="preserve">
<path d="M3,9.2C3,9.2,2.9,9.2,3,9.2C2.8,9.2,2.6,9.1,2.5,9L0.6,6C0.4,5.8,0.5,5.5,0.7,5.3c0.2-0.2,0.5-0.1,0.7,0.1L3,7.9l1.9-2.1
	c0.2-0.2,0.5-0.2,0.7,0c0.2,0.2,0.2,0.5,0,0.7L3.3,9C3.2,9.1,3.1,9.2,3,9.2z"/>
<path d="M9.4,14.4c-0.3,0-0.5-0.2-0.5-0.5c0-0.3,0.2-0.5,0.5-0.5c1.5-0.1,2.9-0.7,4-1.8c1-1.1,1.6-2.6,1.5-4.1
	C14.8,4.4,12.1,1.9,9,2c-1.6,0.1-3.1,0.8-4.2,2C3.7,5.3,3.3,6.9,3.5,8.6c0,0.3-0.2,0.5-0.4,0.6C2.8,9.2,2.5,9,2.5,8.8
	C2.2,6.8,2.8,4.9,4,3.4c1.2-1.5,3-2.3,4.9-2.4c3.7-0.2,6.8,2.8,7,6.5c0.1,1.8-0.6,3.5-1.8,4.8C12.9,13.6,11.2,14.3,9.4,14.4
	C9.4,14.4,9.4,14.4,9.4,14.4z"/>
<path d="M12,8H9.5C9.2,8,9,7.8,9,7.5V4h1v3h2V8z"/>
</svg>
