<?xml version="1.0" encoding="utf-8"?>
<!-- Generator: Adobe Illustrator 19.1.0, SVG Export Plug-In . SVG Version: 6.00 Build 0)  -->
<!DOCTYPE svg PUBLIC "-//W3C//DTD SVG 1.1 Tiny//EN" "http://www.w3.org/Graphics/SVG/1.1/DTD/svg11-tiny.dtd">
<svg version="1.1" baseProfile="tiny" id="Layer_1" xmlns="http://www.w3.org/2000/svg" xmlns:xlink="http://www.w3.org/1999/xlink"
	 x="0px" y="0px" viewBox="0 0 16 16" xml:space="preserve">
<g>
	<path d="M3.4,13.8l-0.8-0.5l3.1-4.9C5.7,8.2,5.9,8.1,6,8.1c0.2,0,0.3,0.1,0.4,0.2l1.7,2.1l1.9-4.2c0.1-0.2,0.3-0.3,0.5-0.3
		c0.2,0,0.4,0.1,0.5,0.3l2.9,7.2L13,13.7l-2.5-6.1l-1.8,3.9c-0.1,0.2-0.2,0.3-0.4,0.3c-0.2,0-0.3,0-0.5-0.2L6.1,9.5L3.4,13.8z"/>
	<path d="M15.5,16h-15C0.2,16,0,15.8,0,15.5v-15C0,0.2,0.2,0,0.5,0h15C15.8,0,16,0.2,16,0.5v15C16,15.8,15.8,16,15.5,16z M1,15h14V1
		H1V15z"/>
	<rect x="1" y="13" width="14" height="1"/>
	<path d="M4.7,6.4c-1,0-1.9-0.8-1.9-1.9s0.8-1.9,1.9-1.9c1,0,1.9,0.8,1.9,1.9S5.7,6.4,4.7,6.4z M4.7,3.7c-0.5,0-0.9,0.4-0.9,0.9
		s0.4,0.9,0.9,0.9c0.5,0,0.9-0.4,0.9-0.9S5.2,3.7,4.7,3.7z"/>
</g>
</svg>
