<svg baseProfile="tiny" xmlns="http://www.w3.org/2000/svg" viewBox="0 0 16 16"><path d="M3.354 13.804l-.846-.535L5.62 8.352a.504.504 0 0 1 .808-.053l1.746 2.095L10.1 6.156a.493.493 0 0 1 .465-.293.5.5 0 0 1 .453.311l2.932 7.177-.926.379-2.494-6.104-1.775 3.906a.498.498 0 0 1-.839.113L6.1 9.467l-2.746 4.337z"/><path d="M15.5 16H.5a.5.5 0 0 1-.5-.5V.5A.5.5 0 0 1 .5 0h15a.5.5 0 0 1 .5.5v15a.5.5 0 0 1-.5.5zM1 15h14V1H1v14z"/><path d="M0 13h16v1H0zM4.691 6.413a1.855 1.855 0 0 1 0-3.708 1.855 1.855 0 0 1 0 3.708zm0-2.707a.855.855 0 0 0 0 1.708.855.855 0 0 0 0-1.708z"/></svg>