<?xml version="1.0" encoding="iso-8859-1"?>
<!-- Generator: Adobe Illustrator 19.2.0, SVG Export Plug-In . SVG Version: 6.00 Build 0)  -->
<svg version="1.1" baseProfile="tiny" xmlns="http://www.w3.org/2000/svg" xmlns:xlink="http://www.w3.org/1999/xlink" x="0px"
	 y="0px" viewBox="0 0 16 16" xml:space="preserve">
<g id="Layer_1">
	<path d="M8,16c-4.411,0-8-3.589-8-8s3.589-8,8-8s8,3.589,8,8S12.411,16,8,16z M8,1C4.141,1,1,4.14,1,8s3.141,7,7,7s7-3.14,7-7
		S11.859,1,8,1z"/>
	<path d="M11,11.5c-0.128,0-0.256-0.049-0.354-0.146l-1.811-1.81c-0.195-0.195-0.195-0.512,0-0.707s0.512-0.195,0.707,0l1.811,1.81
		c0.195,0.195,0.195,0.512,0,0.707C11.256,11.451,11.128,11.5,11,11.5z"/>
	<path d="M8.5,9.5C8.224,9.5,8,9.276,8,9V4.413c0-0.276,0.224-0.5,0.5-0.5S9,4.137,9,4.413V9C9,9.276,8.776,9.5,8.5,9.5z"/>
</g>
<g id="Layer_2">
</g>
<g id="Layer_3">
</g>
</svg>
