<?xml version="1.0" encoding="utf-8"?>
<!-- Generator: Adobe Illustrator 19.1.0, SVG Export Plug-In . SVG Version: 6.00 Build 0)  -->
<!DOCTYPE svg PUBLIC "-//W3C//DTD SVG 1.1 Tiny//EN" "http://www.w3.org/Graphics/SVG/1.1/DTD/svg11-tiny.dtd">
<svg version="1.1" baseProfile="tiny" id="Layer_1" xmlns="http://www.w3.org/2000/svg" xmlns:xlink="http://www.w3.org/1999/xlink"
	 x="0px" y="0px" viewBox="0 0 16 16" xml:space="preserve">
<g id="XMLID_43_">
	<path d="M8,16c-4.4,0-8-3.6-8-8s3.6-8,8-8s8,3.6,8,8S12.4,16,8,16z M8,1C4.1,1,1,4.1,1,8s3.1,7,7,7s7-3.1,7-7S11.9,1,8,1z"/>
</g>
<g id="XMLID_42_">
	<path d="M11,11.5c-0.1,0-0.2,0-0.3-0.1l-2.6-2C7.9,9.3,7.9,9,8,8.7c0.2-0.2,0.5-0.3,0.7-0.1l2.6,2c0.2,0.2,0.3,0.5,0.1,0.7
		C11.3,11.4,11.2,11.5,11,11.5z"/>
</g>
<g id="XMLID_40_">
	<path d="M8.5,9.5C8.2,9.5,8,9.3,8,9V4.4c0-0.3,0.2-0.5,0.5-0.5S9,4.1,9,4.4V9C9,9.3,8.8,9.5,8.5,9.5z"/>
</g>
</svg>
