<?xml version="1.0" encoding="iso-8859-1"?>
<!-- Generator: Adobe Illustrator 19.2.0, SVG Export Plug-In . SVG Version: 6.00 Build 0)  -->
<svg version="1.1" baseProfile="tiny" xmlns="http://www.w3.org/2000/svg" xmlns:xlink="http://www.w3.org/1999/xlink" x="0px"
	 y="0px" viewBox="0 0 16 16" xml:space="preserve">
<g id="Layer_1">
	<path d="M10.976,5.024C10.733,2.214,8.372,0,5.5,0C2.468,0,0,2.467,0,5.5c0,2.872,2.214,5.233,5.024,5.476
		C5.267,13.786,7.628,16,10.5,16c3.032,0,5.5-2.467,5.5-5.5C16,7.628,13.786,5.267,10.976,5.024z M1,5.5C1,3.019,3.019,1,5.5,1
		c2.32,0,4.212,1.771,4.452,4.028C7.356,5.286,5.286,7.356,5.028,9.952C2.771,9.712,1,7.82,1,5.5z M9.944,6.056
		C9.689,8.089,8.089,9.689,6.056,9.944C6.311,7.911,7.911,6.311,9.944,6.056z M10.5,15c-2.32,0-4.212-1.771-4.452-4.028
		c2.596-0.258,4.667-2.328,4.924-4.924C13.229,6.288,15,8.18,15,10.5C15,12.981,12.981,15,10.5,15z"/>
</g>
<g id="Layer_2">
</g>
<g id="Layer_3">
</g>
</svg>
