<?xml version="1.0" encoding="utf-8"?>
<!-- Generator: Adobe Illustrator 19.1.0, SVG Export Plug-In . SVG Version: 6.00 Build 0)  -->
<!DOCTYPE svg PUBLIC "-//W3C//DTD SVG 1.1 Tiny//EN" "http://www.w3.org/Graphics/SVG/1.1/DTD/svg11-tiny.dtd">
<svg version="1.1" baseProfile="tiny" id="Layer_1" xmlns="http://www.w3.org/2000/svg" xmlns:xlink="http://www.w3.org/1999/xlink"
	 x="0px" y="0px" viewBox="0 0 16 16" xml:space="preserve">
<g>
	<path fill="#231F20" d="M5.5,11C2.5,11,0,8.5,0,5.5S2.5,0,5.5,0S11,2.5,11,5.5S8.5,11,5.5,11z M5.5,1C3,1,1,3,1,5.5S3,10,5.5,10
		S10,8,10,5.5S8,1,5.5,1z"/>
</g>
<g>
	<path fill="#231F20" d="M10.5,16c-3,0-5.5-2.5-5.5-5.5S7.5,5,10.5,5S16,7.5,16,10.5S13.5,16,10.5,16z M10.5,6C8,6,6,8,6,10.5
		S8,15,10.5,15s4.5-2,4.5-4.5S13,6,10.5,6z"/>
</g>
</svg>
