<svg baseProfile="tiny" xmlns="http://www.w3.org/2000/svg" viewBox="0 0 16 16"><path d="M10.976 5.024A5.506 5.506 0 0 0 5.5 0 5.506 5.506 0 0 0 0 5.5a5.506 5.506 0 0 0 5.024 5.476A5.506 5.506 0 0 0 10.5 16c3.032 0 5.5-2.467 5.5-5.5a5.506 5.506 0 0 0-5.024-5.476zM1 5.5C1 3.019 3.019 1 5.5 1c2.32 0 4.212 1.771 4.452 4.028a5.509 5.509 0 0 0-4.924 4.924C2.771 9.712 1 7.82 1 5.5zm8.944.556a4.48 4.48 0 0 1-3.888 3.888 4.48 4.48 0 0 1 3.888-3.888zM10.5 15c-2.32 0-4.212-1.771-4.452-4.028a5.508 5.508 0 0 0 4.924-4.924C13.229 6.288 15 8.18 15 10.5c0 2.481-2.019 4.5-4.5 4.5z"/></svg>