<?xml version="1.0" encoding="iso-8859-1"?>
<!-- Generator: Adobe Illustrator 19.1.0, SVG Export Plug-In . SVG Version: 6.00 Build 0)  -->
<!DOCTYPE svg PUBLIC "-//W3C//DTD SVG 1.1 Tiny//EN" "http://www.w3.org/Graphics/SVG/1.1/DTD/svg11-tiny.dtd">
<svg version="1.1" baseProfile="tiny" xmlns="http://www.w3.org/2000/svg" xmlns:xlink="http://www.w3.org/1999/xlink" x="0px"
	 y="0px" viewBox="0 0 16 16" xml:space="preserve">
<g id="Layer_1">
	<path fill="#231F20" d="M5.5,11C2.468,11,0,8.533,0,5.5S2.468,0,5.5,0S11,2.467,11,5.5S8.532,11,5.5,11z M5.5,1
		C3.019,1,1,3.019,1,5.5S3.019,10,5.5,10S10,7.981,10,5.5S7.981,1,5.5,1z"/>
	<path fill="#231F20" d="M10.5,16C7.468,16,5,13.533,5,10.5S7.468,5,10.5,5S16,7.467,16,10.5S13.532,16,10.5,16z M10.5,6
		C8.019,6,6,8.019,6,10.5S8.019,15,10.5,15s4.5-2.019,4.5-4.5S12.981,6,10.5,6z"/>
</g>
<g id="Layer_2">
</g>
<g id="Layer_3">
</g>
</svg>
