<?xml version="1.0" encoding="utf-8"?>
<!-- Generator: Adobe Illustrator 19.1.0, SVG Export Plug-In . SVG Version: 6.00 Build 0)  -->
<!DOCTYPE svg PUBLIC "-//W3C//DTD SVG 1.1 Tiny//EN" "http://www.w3.org/Graphics/SVG/1.1/DTD/svg11-tiny.dtd">
<svg version="1.1" baseProfile="tiny" id="Layer_1" xmlns="http://www.w3.org/2000/svg" xmlns:xlink="http://www.w3.org/1999/xlink"
	 x="0px" y="0px" viewBox="0 0 16 16" xml:space="preserve">
<g>
	<path d="M3.7,16c-0.8,0-1.6-0.3-2.2-0.9l-0.6-0.6c-1.2-1.2-1.2-3.2,0-4.4l4-4c1.2-1.2,3.2-1.2,4.4,0l0.6,0.6c0.2,0.2,0.2,0.5,0,0.7
		s-0.5,0.2-0.7,0L8.6,6.8C7.8,6,6.4,6,5.6,6.8l-4,4c-0.8,0.8-0.8,2.1,0,3l0.6,0.6c0.8,0.8,2.2,0.8,3,0L8,11.6c0.2-0.2,0.5-0.2,0.7,0
		s0.2,0.5,0,0.7l-2.8,2.8C5.3,15.7,4.5,16,3.7,16z"/>
	<path d="M8.9,10.8c-0.8,0-1.6-0.3-2.2-0.9c-0.2-0.2-0.2-0.5,0-0.7C6.9,9,7.2,9,7.4,9.2c0.8,0.8,2.2,0.8,3,0l4-4
		C14.8,4.8,15,4.3,15,3.7s-0.2-1.1-0.6-1.5l-0.6-0.6c-0.8-0.8-2.1-0.8-3,0L8,4.4c-0.2,0.2-0.5,0.2-0.7,0s-0.2-0.5,0-0.7l2.8-2.8
		c1.2-1.2,3.2-1.2,4.4,0l0.6,0.6C15.7,2.1,16,2.9,16,3.7c0,0.8-0.3,1.6-0.9,2.2l-4,4C10.5,10.5,9.7,10.8,8.9,10.8z"/>
</g>
</svg>
