<?xml version="1.0" encoding="iso-8859-1"?>
<!-- Generator: Adobe Illustrator 19.2.0, SVG Export Plug-In . SVG Version: 6.00 Build 0)  -->
<svg version="1.1" baseProfile="tiny" xmlns="http://www.w3.org/2000/svg" xmlns:xlink="http://www.w3.org/1999/xlink" x="0px"
	 y="0px" viewBox="0 0 16 16" xml:space="preserve">
<g id="Layer_1">
	<g>
		<path d="M3.712,16c-0.828,0-1.606-0.322-2.192-0.908l-0.612-0.612c-1.208-1.208-1.208-3.174,0-4.382L4.89,6.115
			c1.173-1.172,3.213-1.172,4.383,0l0.613,0.613c0.195,0.195,0.195,0.512,0,0.707s-0.512,0.195-0.707,0L8.565,6.822
			c-0.793-0.793-2.176-0.793-2.969,0l-3.982,3.982c-0.818,0.818-0.818,2.149,0,2.968l0.612,0.612c0.792,0.792,2.176,0.794,2.97,0
			l2.757-2.756c0.195-0.195,0.512-0.195,0.707,0s0.195,0.512,0,0.707l-2.757,2.756C5.318,15.678,4.54,16,3.712,16z"/>
		<path d="M8.919,10.793c-0.828,0-1.606-0.322-2.19-0.908c-0.195-0.195-0.195-0.513,0-0.707c0.195-0.195,0.512-0.195,0.707,0
			c0.793,0.793,2.175,0.793,2.968,0l3.981-3.981C14.781,4.8,15,4.272,15,3.712s-0.219-1.088-0.615-1.484l-0.612-0.613
			c-0.818-0.818-2.149-0.818-2.968,0L8.048,4.371c-0.195,0.195-0.512,0.195-0.707,0s-0.195-0.512,0-0.707l2.757-2.757
			c1.208-1.208,3.174-1.206,4.382,0l0.612,0.613C15.678,2.105,16,2.884,16,3.712c0,0.827-0.322,1.605-0.908,2.191L11.11,9.885
			C10.524,10.471,9.746,10.793,8.919,10.793z"/>
	</g>
</g>
<g id="Layer_2">
</g>
<g id="Layer_3">
</g>
</svg>
