<?xml version="1.0" encoding="iso-8859-1"?>
<!-- Generator: Adobe Illustrator 19.1.0, SVG Export Plug-In . SVG Version: 6.00 Build 0)  -->
<!DOCTYPE svg PUBLIC "-//W3C//DTD SVG 1.1 Tiny//EN" "http://www.w3.org/Graphics/SVG/1.1/DTD/svg11-tiny.dtd">
<svg version="1.1" baseProfile="tiny" id="Layer_1" xmlns="http://www.w3.org/2000/svg" xmlns:xlink="http://www.w3.org/1999/xlink"
	 x="0px" y="0px" viewBox="0 0 16 16" xml:space="preserve">
<path fill="#231F20" d="M13.828,16H11c-0.276,0-0.5-0.224-0.5-0.5S10.724,15,11,15h2.828C14.474,15,15,14.474,15,13.827V2.173
	C15,1.526,14.474,1,13.828,1H11c-0.276,0-0.5-0.224-0.5-0.5S10.724,0,11,0h2.828C15.025,0,16,0.975,16,2.173v11.654
	C16,15.025,15.025,16,13.828,16z"/>
<path fill="#231F20" d="M5,16H2.172C0.975,16,0,15.025,0,13.827V2.173C0,0.975,0.975,0,2.172,0H5c0.276,0,0.5,0.224,0.5,0.5
	S5.276,1,5,1H2.172C1.526,1,1,1.526,1,2.173v11.654C1,14.474,1.526,15,2.172,15H5c0.276,0,0.5,0.224,0.5,0.5S5.276,16,5,16z"/>
<path d="M4.188,10.158c0.125-0.086,0.253-0.129,0.384-0.129c0.062,0,0.125,0.009,0.188,0.027c0.063,0.018,0.13,0.048,0.204,0.09
	l0.274,0.148c0.036,0.021,0.071,0.035,0.105,0.043c0.034,0.008,0.072,0.012,0.114,0.012c0.13,0,0.231-0.032,0.301-0.098
	S6.01,9.958,6.302,9.566c0.193-0.255,0.632-0.879,1.315-1.871c0-0.036-0.06-0.316-0.18-0.842c-0.12-0.524-0.229-0.969-0.329-1.335
	C7.009,5.148,6.92,4.904,6.842,4.787C6.764,4.669,6.618,4.61,6.404,4.61c-0.073,0-0.217,0.026-0.431,0.079
	C5.837,4.721,5.691,4.757,5.535,4.799l-0.07-0.243l0.869-0.297C6.558,4.18,6.765,4.117,6.956,4.07S7.309,4,7.445,4
	c0.219,0,0.384,0.065,0.494,0.195c0.167,0.209,0.308,0.622,0.423,1.237l0.164,0.893c0.47-0.72,0.835-1.227,1.096-1.519
	c0.235-0.267,0.457-0.465,0.666-0.596c0.209-0.13,0.407-0.195,0.595-0.195c0.177,0,0.321,0.026,0.431,0.078
	c0.198,0.094,0.297,0.271,0.297,0.532c0,0.178-0.05,0.316-0.148,0.415c-0.1,0.1-0.227,0.149-0.384,0.149
	c-0.058,0-0.112-0.007-0.165-0.02c-0.052-0.014-0.107-0.033-0.165-0.06l-0.204-0.086C10.488,5,10.433,4.978,10.381,4.959
	c-0.052-0.019-0.091-0.027-0.118-0.027c-0.235,0-0.561,0.305-0.979,0.912C8.868,6.452,8.659,6.803,8.659,6.896
	c0,0.079,0.048,0.333,0.145,0.764s0.202,0.887,0.317,1.366C9.225,9.48,9.314,9.794,9.387,9.966c0.12,0.282,0.256,0.423,0.407,0.423
	c0.141,0,0.285-0.078,0.431-0.234c0.146-0.157,0.365-0.438,0.658-0.846l0.219,0.133c-0.225,0.407-0.457,0.755-0.697,1.042
	c-0.454,0.543-0.888,0.813-1.3,0.813c-0.261,0-0.467-0.125-0.619-0.375c-0.089-0.146-0.175-0.387-0.258-0.721L7.743,8.268
	l-1.605,2.105c-0.313,0.366-0.555,0.611-0.725,0.736c-0.169,0.125-0.379,0.188-0.63,0.188c-0.334,0-0.562-0.104-0.682-0.312
	C4.034,10.874,4,10.744,4,10.593C4,10.389,4.062,10.244,4.188,10.158z"/>
</svg>
