<svg baseProfile="tiny" xmlns="http://www.w3.org/2000/svg" viewBox="0 0 16 16"><path d="M13.828 16H11a.5.5 0 0 1 0-1h2.828c.646 0 1.172-.526 1.172-1.173V2.173C15 1.526 14.474 1 13.828 1H11a.5.5 0 0 1 0-1h2.828C15.025 0 16 .975 16 2.173v11.654A2.176 2.176 0 0 1 13.828 16zM5 16H2.172A2.176 2.176 0 0 1 0 13.827V2.173C0 .975.975 0 2.172 0H5a.5.5 0 0 1 0 1H2.172C1.526 1 1 1.526 1 2.173v11.654C1 14.474 1.526 15 2.172 15H5a.5.5 0 0 1 0 1z"/><path d="M4.188 10.158a.67.67 0 0 1 .384-.129c.062 0 .125.009.188.027.063.018.13.048.204.09l.274.148a.382.382 0 0 0 .219.055c.13 0 .231-.032.301-.098s.252-.293.544-.685c.193-.255.632-.879 1.315-1.871 0-.036-.06-.316-.18-.842-.12-.524-.229-.969-.329-1.335-.099-.37-.188-.614-.266-.731-.078-.118-.224-.177-.438-.177-.073 0-.217.026-.431.079-.136.032-.282.068-.438.11l-.07-.243.869-.297c.224-.079.431-.142.622-.189S7.309 4 7.445 4c.219 0 .384.065.494.195.167.209.308.622.423 1.237l.164.893c.47-.72.835-1.227 1.096-1.519.235-.267.457-.465.666-.596.209-.13.407-.195.595-.195.177 0 .321.026.431.078.198.094.297.271.297.532 0 .178-.05.316-.148.415-.1.1-.227.149-.384.149a.684.684 0 0 1-.165-.02 1.01 1.01 0 0 1-.165-.06l-.204-.086a5.41 5.41 0 0 0-.164-.064.368.368 0 0 0-.118-.027c-.235 0-.561.305-.979.912-.416.608-.625.959-.625 1.052 0 .079.048.333.145.764s.202.887.317 1.366c.104.454.193.768.266.94.12.282.256.423.407.423.141 0 .285-.078.431-.234.146-.157.365-.438.658-.846l.219.133a6.61 6.61 0 0 1-.697 1.042c-.454.543-.888.813-1.3.813-.261 0-.467-.125-.619-.375-.089-.146-.175-.387-.258-.721l-.485-1.933-1.605 2.105c-.313.366-.555.611-.725.736a1.03 1.03 0 0 1-.63.188c-.334 0-.562-.104-.682-.312A.743.743 0 0 1 4 10.593c0-.204.062-.349.188-.435z"/></svg>