<?xml version="1.0" encoding="utf-8"?>
<!-- Generator: Adobe Illustrator 19.1.0, SVG Export Plug-In . SVG Version: 6.00 Build 0)  -->
<!DOCTYPE svg PUBLIC "-//W3C//DTD SVG 1.1 Tiny//EN" "http://www.w3.org/Graphics/SVG/1.1/DTD/svg11-tiny.dtd">
<svg version="1.1" baseProfile="tiny" id="Layer_1" xmlns="http://www.w3.org/2000/svg" xmlns:xlink="http://www.w3.org/1999/xlink"
	 x="0px" y="0px" viewBox="0 0 16 16" xml:space="preserve">
<g>
	<path fill="#231F20" d="M13.8,16H11v-1h2.8c0.6,0,1.2-0.5,1.2-1.2V2.2C15,1.5,14.5,1,13.8,1H11V0h2.8C15,0,16,1,16,2.2v11.7
		C16,15,15,16,13.8,16z"/>
</g>
<g>
	<path fill="#231F20" d="M5,16H2.2C1,16,0,15,0,13.8V2.2C0,1,1,0,2.2,0H5v1H2.2C1.5,1,1,1.5,1,2.2v11.7C1,14.5,1.5,15,2.2,15H5V16z"
		/>
</g>
<path d="M4.2,10.2C4.3,10.1,4.4,10,4.6,10c0.1,0,0.1,0,0.2,0c0.1,0,0.1,0,0.2,0.1l0.3,0.1c0,0,0.1,0,0.1,0c0,0,0.1,0,0.1,0
	c0.1,0,0.2,0,0.3-0.1S6,10,6.3,9.6c0.2-0.3,0.6-0.9,1.3-1.9c0,0-0.1-0.3-0.2-0.8c-0.1-0.5-0.2-1-0.3-1.3C7,5.1,6.9,4.9,6.8,4.8
	C6.8,4.7,6.6,4.6,6.4,4.6c-0.1,0-0.2,0-0.4,0.1c-0.1,0-0.3,0.1-0.4,0.1L5.5,4.6l0.9-0.3C6.6,4.2,6.8,4.1,7,4.1S7.3,4,7.4,4
	c0.2,0,0.4,0.1,0.5,0.2c0.2,0.2,0.3,0.6,0.4,1.2l0.2,0.9C9,5.6,9.4,5.1,9.6,4.8c0.2-0.3,0.5-0.5,0.7-0.6C10.5,4.1,10.7,4,10.9,4
	c0.2,0,0.3,0,0.4,0.1c0.2,0.1,0.3,0.3,0.3,0.5c0,0.2,0,0.3-0.1,0.4c-0.1,0.1-0.2,0.1-0.4,0.1c-0.1,0-0.1,0-0.2,0
	c-0.1,0-0.1,0-0.2-0.1L10.5,5c-0.1,0-0.1,0-0.2-0.1c-0.1,0-0.1,0-0.1,0c-0.2,0-0.6,0.3-1,0.9c-0.4,0.6-0.6,1-0.6,1.1
	c0,0.1,0,0.3,0.1,0.8S9,8.5,9.1,9C9.2,9.5,9.3,9.8,9.4,10c0.1,0.3,0.3,0.4,0.4,0.4c0.1,0,0.3-0.1,0.4-0.2c0.1-0.2,0.4-0.4,0.7-0.8
	l0.2,0.1c-0.2,0.4-0.5,0.8-0.7,1C10,11,9.5,11.3,9.1,11.3c-0.3,0-0.5-0.1-0.6-0.4c-0.1-0.1-0.2-0.4-0.3-0.7L7.7,8.3l-1.6,2.1
	c-0.3,0.4-0.6,0.6-0.7,0.7c-0.2,0.1-0.4,0.2-0.6,0.2c-0.3,0-0.6-0.1-0.7-0.3C4,10.9,4,10.7,4,10.6C4,10.4,4.1,10.2,4.2,10.2z"/>
</svg>
