<svg baseProfile="tiny" xmlns="http://www.w3.org/2000/svg" viewBox="0 0 16 16"><path d="M14.5 16h-12a.5.5 0 0 1-.5-.5v-10a.5.5 0 0 1 .5-.5h12a.5.5 0 0 1 .5.5v10a.5.5 0 0 1-.5.5zM3 15h11V6H3v9z"/><path d="M12.5 5.5A.5.5 0 0 1 12 5v-.563c0-1.669-1.668-3.188-3.5-3.188S5 2.768 5 4.437V5a.5.5 0 0 1-1 0v-.563C4 2.206 6.103.249 8.5.249S13 2.205 13 4.437V5a.5.5 0 0 1-.5.5zM8.5 12.5A.5.5 0 0 1 8 12v-2a.5.5 0 0 1 1 0v2a.5.5 0 0 1-.5.5z"/><circle cx="8.488" cy="9.195" r=".774"/><path d="M8.488 10.468c-.703 0-1.274-.571-1.274-1.273a1.275 1.275 0 0 1 2.547 0c0 .702-.571 1.273-1.273 1.273zm0-1.547a.274.274 0 0 0-.274.273c0 .301.547.301.547 0a.273.273 0 0 0-.273-.273z"/></svg>