<?xml version="1.0" encoding="utf-8"?>
<!-- Generator: Adobe Illustrator 19.1.0, SVG Export Plug-In . SVG Version: 6.00 Build 0)  -->
<!DOCTYPE svg PUBLIC "-//W3C//DTD SVG 1.1 Tiny//EN" "http://www.w3.org/Graphics/SVG/1.1/DTD/svg11-tiny.dtd">
<svg version="1.1" baseProfile="tiny" id="Layer_1" xmlns="http://www.w3.org/2000/svg" xmlns:xlink="http://www.w3.org/1999/xlink"
	 x="0px" y="0px" viewBox="0 0 16 16" xml:space="preserve">
<g>
	<path d="M14.5,16h-12C2.2,16,2,15.8,2,15.5v-10C2,5.2,2.2,5,2.5,5h12C14.8,5,15,5.2,15,5.5v10C15,15.8,14.8,16,14.5,16z M3,15h11V6
		H3V15z"/>
</g>
<g>
	<path d="M12.5,5.5C12.2,5.5,12,5.3,12,5V4.4c0-1.7-1.7-3.2-3.5-3.2S5,2.8,5,4.4V5c0,0.3-0.2,0.5-0.5,0.5S4,5.3,4,5V4.4
		c0-2.2,2.1-4.2,4.5-4.2s4.5,2,4.5,4.2V5C13,5.3,12.8,5.5,12.5,5.5z"/>
</g>
<g>
	<path d="M8.5,12.5C8.2,12.5,8,12.3,8,12v-2c0-0.3,0.2-0.5,0.5-0.5S9,9.7,9,10v2C9,12.3,8.8,12.5,8.5,12.5z"/>
</g>
<g>
	<circle cx="8.5" cy="9.2" r="0.8"/>
	<path d="M8.5,10.5c-0.7,0-1.3-0.6-1.3-1.3s0.6-1.3,1.3-1.3c0.7,0,1.3,0.6,1.3,1.3S9.2,10.5,8.5,10.5z M8.5,8.9
		C8.3,8.9,8.2,9,8.2,9.2c0,0.3,0.5,0.3,0.5,0C8.8,9,8.6,8.9,8.5,8.9z"/>
</g>
</svg>
