<?xml version="1.0" encoding="iso-8859-1"?>
<!-- Generator: Adobe Illustrator 19.1.0, SVG Export Plug-In . SVG Version: 6.00 Build 0)  -->
<!DOCTYPE svg PUBLIC "-//W3C//DTD SVG 1.1 Tiny//EN" "http://www.w3.org/Graphics/SVG/1.1/DTD/svg11-tiny.dtd">
<svg version="1.1" baseProfile="tiny" xmlns="http://www.w3.org/2000/svg" xmlns:xlink="http://www.w3.org/1999/xlink" x="0px"
	 y="0px" viewBox="0 0 16 16" xml:space="preserve">
<g id="Layer_1">
	<path d="M14.5,16h-12C2.224,16,2,15.776,2,15.5v-10C2,5.224,2.224,5,2.5,5h12C14.776,5,15,5.224,15,5.5v10
		C15,15.776,14.776,16,14.5,16z M3,15h11V6H3V15z"/>
	<path d="M12.5,5.5C12.224,5.5,12,5.276,12,5V4.437c0-1.669-1.668-3.188-3.5-3.188S5,2.768,5,4.437V5c0,0.276-0.224,0.5-0.5,0.5
		S4,5.276,4,5V4.437c0-2.231,2.103-4.188,4.5-4.188S13,2.205,13,4.437V5C13,5.276,12.776,5.5,12.5,5.5z"/>
	<path d="M8.5,12.5C8.224,12.5,8,12.276,8,12v-2c0-0.276,0.224-0.5,0.5-0.5S9,9.724,9,10v2C9,12.276,8.776,12.5,8.5,12.5z"/>
	<g>
		<circle cx="8.488" cy="9.195" r="0.774"/>
		<path d="M8.488,10.468c-0.703,0-1.274-0.571-1.274-1.273s0.571-1.273,1.274-1.273c0.702,0,1.273,0.571,1.273,1.273
			S9.19,10.468,8.488,10.468z M8.488,8.921c-0.151,0-0.274,0.123-0.274,0.273c0,0.301,0.547,0.301,0.547,0
			C8.761,9.044,8.639,8.921,8.488,8.921z"/>
	</g>
</g>
<g id="Layer_2">
</g>
<g id="Layer_3">
</g>
</svg>
