<?xml version="1.0" encoding="iso-8859-1"?>
<!-- Generator: Adobe Illustrator 19.1.0, SVG Export Plug-In . SVG Version: 6.00 Build 0)  -->
<!DOCTYPE svg PUBLIC "-//W3C//DTD SVG 1.1 Tiny//EN" "http://www.w3.org/Graphics/SVG/1.1/DTD/svg11-tiny.dtd">
<svg version="1.1" baseProfile="tiny" xmlns="http://www.w3.org/2000/svg" xmlns:xlink="http://www.w3.org/1999/xlink" x="0px"
	 y="0px" viewBox="0 0 16 16" xml:space="preserve">
<g id="Layer_1">
	<path d="M8,16c-4.411,0-8-3.589-8-8s3.589-8,8-8c4.411,0,8,3.589,8,8S12.411,16,8,16z M8,0.667c-4.044,0-7.333,3.29-7.333,7.333
		S3.956,15.333,8,15.333s7.333-3.29,7.333-7.333S12.044,0.667,8,0.667z"/>
	<path d="M13.117,6.421c0-0.215-0.165-0.388-0.368-0.388s-0.368,0.174-0.368,0.388V9.64L9.215,5.734
		c-0.129-0.16-0.357-0.18-0.511-0.049L5.826,8.146L1.863,3.571c-0.138-0.158-0.371-0.168-0.52-0.025
		c-0.15,0.145-0.16,0.391-0.023,0.549L5.516,8.94C5.649,9.091,5.868,9.109,6.02,8.98l2.869-2.454l3.061,3.778H9.438
		c-0.203,0-0.368,0.174-0.368,0.388s0.165,0.388,0.368,0.388h3.311c0.046,0,0.091-0.011,0.134-0.028
		c0.018-0.007,0.032-0.02,0.048-0.03c0.019-0.012,0.04-0.019,0.057-0.035c0.004-0.003,0.005-0.008,0.009-0.012
		c0.019-0.019,0.033-0.042,0.048-0.065c0.013-0.019,0.027-0.036,0.037-0.057c0.009-0.02,0.011-0.042,0.017-0.064
		c0.007-0.028,0.015-0.055,0.016-0.083c0-0.005,0.003-0.009,0.003-0.014V6.421z"/>
</g>
<g id="Layer_2">
</g>
<g id="Layer_3">
</g>
</svg>
