<?xml version="1.0" encoding="iso-8859-1"?>
<!-- Generator: Adobe Illustrator 19.1.0, SVG Export Plug-In . SVG Version: 6.00 Build 0)  -->
<!DOCTYPE svg PUBLIC "-//W3C//DTD SVG 1.1 Tiny//EN" "http://www.w3.org/Graphics/SVG/1.1/DTD/svg11-tiny.dtd">
<svg version="1.1" baseProfile="tiny" id="Layer_1" xmlns="http://www.w3.org/2000/svg" xmlns:xlink="http://www.w3.org/1999/xlink"
	 x="0px" y="0px" viewBox="0 0 16 16" xml:space="preserve">
<g id="XMLID_45_">
	<path d="M15.521,13c-0.139,0-0.276-0.058-0.375-0.169l-4.918-5.574l-3.818,3.182c-0.209,0.173-0.515,0.15-0.694-0.052L0.126,4.099
		c-0.184-0.206-0.164-0.522,0.042-0.706C0.373,3.211,0.69,3.228,0.874,3.435L6.141,9.36l3.82-3.183
		c0.208-0.175,0.516-0.149,0.695,0.053l5.239,5.938c0.183,0.207,0.163,0.523-0.044,0.706C15.756,12.959,15.639,13,15.521,13z"/>
	<path d="M15.521,13h-4.847c-0.276,0-0.5-0.224-0.5-0.5s0.224-0.5,0.5-0.5H15V8.322c0-0.276,0.224-0.5,0.5-0.5s0.5,0.224,0.5,0.5
		V12.5C16,12.776,15.797,13,15.521,13z"/>
</g>
</svg>
