<?xml version="1.0" encoding="iso-8859-1"?>
<!-- Generator: Adobe Illustrator 19.1.0, SVG Export Plug-In . SVG Version: 6.00 Build 0)  -->
<!DOCTYPE svg PUBLIC "-//W3C//DTD SVG 1.1 Tiny//EN" "http://www.w3.org/Graphics/SVG/1.1/DTD/svg11-tiny.dtd">
<svg version="1.1" baseProfile="tiny" xmlns="http://www.w3.org/2000/svg" xmlns:xlink="http://www.w3.org/1999/xlink" x="0px"
	 y="0px" viewBox="0 0 16 16" xml:space="preserve">
<g id="Layer_1">
	<path d="M10.5,16h-6C3.673,16,3,15.258,3,14.346V1.654C3,0.742,3.673,0,4.5,0h6C11.327,0,12,0.742,12,1.654v12.691
		C12,15.258,11.327,16,10.5,16z M4.5,1C4.229,1,4,1.3,4,1.654v12.691C4,14.7,4.229,15,4.5,15h6c0.271,0,0.5-0.3,0.5-0.654V1.654
		C11,1.3,10.771,1,10.5,1H4.5z"/>
	<path d="M11.5,13h-8C3.224,13,3,12.776,3,12.5S3.224,12,3.5,12h8c0.276,0,0.5,0.224,0.5,0.5S11.776,13,11.5,13z"/>
	<path d="M11.5,3h-8C3.224,3,3,2.776,3,2.5S3.224,2,3.5,2h8C11.776,2,12,2.224,12,2.5S11.776,3,11.5,3z"/>
	<path d="M7.5,13.5C7.224,13.5,7,13.724,7,14s0.224,0.5,0.5,0.5S8,14.276,8,14S7.776,13.5,7.5,13.5L7.5,13.5z"/>
</g>
<g id="Layer_2">
</g>
<g id="Layer_3">
</g>
</svg>
