<svg baseProfile="tiny" xmlns="http://www.w3.org/2000/svg" viewBox="0 0 16 16"><path d="M12.03 11H.97a.97.97 0 0 1-.97-.969V.969A.97.97 0 0 1 .97 0h11.06a.97.97 0 0 1 .97.969v9.062a.97.97 0 0 1-.97.969zM12 .969L.971 1l.032 9.031L12 10V.969z"/><path d="M15.045 14H2.969C2.435 14 2 13.68 2 13.146v-.567a.5.5 0 0 1 1 0v.567l12.045-.031-.031-9.146c-.276 0-.484-.208-.484-.484S14.762 3 15.038 3c.534 0 .962.435.962.969v9.177c0 .534-.421.854-.955.854zM11.979 3H1a.5.5 0 0 1 0-1h10.979a.5.5 0 0 1 0 1z"/><path d="M15.01 6a.47.47 0 0 1-.35-.15c-.091-.09-.15-.22-.15-.35s.06-.26.15-.351a.526.526 0 0 1 .71-.01c.09.101.14.23.14.36a.5.5 0 0 1-.5.501z"/></svg>