<?xml version="1.0" encoding="iso-8859-1"?>
<!-- Generator: Adobe Illustrator 19.1.0, SVG Export Plug-In . SVG Version: 6.00 Build 0)  -->
<!DOCTYPE svg PUBLIC "-//W3C//DTD SVG 1.1 Tiny//EN" "http://www.w3.org/Graphics/SVG/1.1/DTD/svg11-tiny.dtd">
<svg version="1.1" baseProfile="tiny" xmlns="http://www.w3.org/2000/svg" xmlns:xlink="http://www.w3.org/1999/xlink" x="0px"
	 y="0px" viewBox="0 0 16 16" xml:space="preserve">
<g id="Layer_1">
	<path d="M12.03,11H0.97C0.435,11,0,10.565,0,10.031V0.969C0,0.435,0.435,0,0.97,0H12.03C12.565,0,13,0.435,13,0.969v9.062
		C13,10.565,12.565,11,12.03,11z M12,0.969L0.971,1l0.032,9.031L12,10V0.969z"/>
	<path d="M15.045,14H2.969C2.435,14,2,13.68,2,13.146v-0.567c0-0.276,0.224-0.5,0.5-0.5s0.5,0.224,0.5,0.5v0.567l12.045-0.031
		l-0.031-9.146c-0.276,0-0.484-0.208-0.484-0.484S14.762,3,15.038,3C15.572,3,16,3.435,16,3.969v9.177C16,13.68,15.579,14,15.045,14
		z"/>
	<path d="M11.979,3H1C0.724,3,0.5,2.776,0.5,2.5S0.724,2,1,2h10.979c0.276,0,0.5,0.224,0.5,0.5S12.256,3,11.979,3z"/>
	<path d="M15.01,6c-0.13,0-0.26-0.05-0.35-0.15c-0.091-0.09-0.15-0.22-0.15-0.35s0.06-0.26,0.15-0.351
		c0.189-0.189,0.52-0.189,0.71-0.01c0.09,0.101,0.14,0.23,0.14,0.36s-0.05,0.26-0.14,0.35C15.27,5.95,15.149,6,15.01,6z"/>
</g>
<g id="Layer_2">
</g>
<g id="Layer_3">
</g>
</svg>
