<?xml version="1.0" encoding="iso-8859-1"?>
<!-- Generator: Adobe Illustrator 19.1.0, SVG Export Plug-In . SVG Version: 6.00 Build 0)  -->
<!DOCTYPE svg PUBLIC "-//W3C//DTD SVG 1.1 Tiny//EN" "http://www.w3.org/Graphics/SVG/1.1/DTD/svg11-tiny.dtd">
<svg version="1.1" baseProfile="tiny" id="Layer_1" xmlns="http://www.w3.org/2000/svg" xmlns:xlink="http://www.w3.org/1999/xlink"
	 x="0px" y="0px" viewBox="0 0 16 16" xml:space="preserve">
<g id="XMLID_404_">
	<path d="M12.011,11H0.969C0.435,11,0,10.565,0,10.031V0.969C0,0.435,0.435,0,0.969,0h11.042c0.534,0,0.969,0.435,0.969,0.969v9.062
		C12.979,10.565,12.545,11,12.011,11z M11.979,0.969L0.969,1L1,10.031L11.979,10V0.969z"/>
</g>
<g id="XMLID_8_">
	<path d="M15.045,14.114H2.969C2.435,14.114,2,13.68,2,13.146v-0.567c0-0.276,0.224-0.5,0.5-0.5s0.5,0.224,0.5,0.5v0.567
		l12.045-0.031l-0.031-9.146c-0.276,0-0.484-0.208-0.484-0.484S14.769,3,15.045,3c0.534,0,0.969,0.435,0.969,0.969v9.177
		C16.014,13.68,15.579,14.114,15.045,14.114z"/>
</g>
<g id="XMLID_364_">
	<path d="M11.979,3H1C0.724,3,0.5,2.776,0.5,2.5S0.724,2,1,2h10.979c0.276,0,0.5,0.224,0.5,0.5S12.256,3,11.979,3z"/>
</g>
<g id="XMLID_371_">
	<path d="M15.01,6c-0.13,0-0.26-0.05-0.35-0.15c-0.091-0.09-0.15-0.22-0.15-0.35s0.06-0.26,0.15-0.351
		c0.189-0.189,0.52-0.189,0.71-0.01c0.09,0.101,0.14,0.23,0.14,0.36s-0.05,0.26-0.14,0.35C15.27,5.95,15.149,6,15.01,6z"/>
</g>
</svg>
