<?xml version="1.0" encoding="utf-8"?>
<!-- Generator: Adobe Illustrator 19.1.0, SVG Export Plug-In . SVG Version: 6.00 Build 0)  -->
<!DOCTYPE svg PUBLIC "-//W3C//DTD SVG 1.1 Tiny//EN" "http://www.w3.org/Graphics/SVG/1.1/DTD/svg11-tiny.dtd">
<svg version="1.1" baseProfile="tiny" id="Layer_1" xmlns="http://www.w3.org/2000/svg" xmlns:xlink="http://www.w3.org/1999/xlink"
	 x="0px" y="0px" viewBox="0 0 16 16" xml:space="preserve">
<g>
	<g>
		<path d="M6.5,15.6c-1.1,0-2.4-0.5-2.4-3.2V4.7c0-2.5,1.3-4.1,3.4-4.1s3.4,1.6,3.4,4.1V10h-0.8V4.7c0-0.8-0.2-3.3-2.6-3.3
			S4.9,3.9,4.9,4.7v7.7c0,2.2,0.9,2.4,1.6,2.4s1.6-0.2,1.6-2.4V6.6c0-0.5,0-0.9-0.1-1.2C8,5.2,7.9,5.1,7.5,5.1S7,5.2,7,5.4
			C6.9,5.6,6.9,6.1,6.9,6.5V11H6.1V6.6c0-0.6,0-1.1,0.1-1.5c0.2-0.5,0.6-0.8,1.2-0.8s1,0.3,1.2,0.8C8.9,5.5,8.9,6,8.9,6.5v6
			C8.9,15.1,7.6,15.6,6.5,15.6z"/>
	</g>
</g>
</svg>
