<?xml version="1.0" encoding="iso-8859-1"?>
<!-- Generator: Adobe Illustrator 19.1.0, SVG Export Plug-In . SVG Version: 6.00 Build 0)  -->
<!DOCTYPE svg PUBLIC "-//W3C//DTD SVG 1.1 Tiny//EN" "http://www.w3.org/Graphics/SVG/1.1/DTD/svg11-tiny.dtd">
<svg version="1.1" baseProfile="tiny" id="Layer_1" xmlns="http://www.w3.org/2000/svg" xmlns:xlink="http://www.w3.org/1999/xlink"
	 x="0px" y="0px" viewBox="0 0 16 16" xml:space="preserve">
<g>
	<g>
		<path d="M7.5,15.759c-0.934,0-2.5-0.428-2.5-3.29V4.72C5,2.117,6.341,0.5,8.5,0.5S12,2.117,12,4.72V10c0,0.276-0.224,0.5-0.5,0.5
			S11,10.276,11,10V4.72c0-0.755-0.181-3.22-2.5-3.22S6,3.965,6,4.72v7.749c0,2.029,0.802,2.29,1.5,2.29S9,14.498,9,12.469v-5.89
			C9,6.065,9.001,5.654,8.91,5.42c-0.037-0.094-0.078-0.2-0.41-0.2s-0.373,0.106-0.41,0.2C7.999,5.654,8,6.065,8,6.501V11
			c0,0.276-0.224,0.5-0.5,0.5S7,11.276,7,11V6.579C7,5.97,6.999,5.467,7.158,5.058C7.307,4.676,7.66,4.22,8.5,4.22
			s1.193,0.456,1.342,0.838C10.001,5.467,10,5.97,10,6.502v5.967C10,15.331,8.434,15.759,7.5,15.759z"/>
	</g>
</g>
</svg>
