<?xml version="1.0" encoding="utf-8"?>
<!-- Generator: Adobe Illustrator 19.1.0, SVG Export Plug-In . SVG Version: 6.00 Build 0)  -->
<!DOCTYPE svg PUBLIC "-//W3C//DTD SVG 1.1 Tiny//EN" "http://www.w3.org/Graphics/SVG/1.1/DTD/svg11-tiny.dtd">
<svg version="1.1" baseProfile="tiny" id="Layer_1" xmlns="http://www.w3.org/2000/svg" xmlns:xlink="http://www.w3.org/1999/xlink"
	 x="0px" y="0px" viewBox="0 0 16 16" xml:space="preserve">
<g>
	<path d="M7.5,15.8c-0.9,0-2.5-0.4-2.5-3.3V4.7c0-2.6,1.3-4.2,3.5-4.2S12,2.1,12,4.7V10c0,0.3-0.2,0.5-0.5,0.5S11,10.3,11,10V4.7
		c0-0.8-0.2-3.2-2.5-3.2S6,4,6,4.7v7.7c0,2,0.8,2.3,1.5,2.3S9,14.5,9,12.5V6.6c0-0.5,0-0.9-0.1-1.2c0-0.1-0.1-0.2-0.4-0.2
		S8.1,5.3,8.1,5.4C8,5.7,8,6.1,8,6.5V11c0,0.3-0.2,0.5-0.5,0.5S7,11.3,7,11V6.6C7,6,7,5.5,7.2,5.1c0.1-0.4,0.5-0.8,1.3-0.8
		s1.2,0.5,1.3,0.8C10,5.5,10,6,10,6.5v6C10,15.3,8.4,15.8,7.5,15.8z"/>
</g>
</svg>
