<svg baseProfile="tiny" xmlns="http://www.w3.org/2000/svg" viewBox="0 0 16 16"><path d="M7.5 15.759c-.934 0-2.5-.428-2.5-3.29V4.72C5 2.117 6.341.5 8.5.5S12 2.117 12 4.72V10a.5.5 0 0 1-1 0V4.72c0-.755-.181-3.22-2.5-3.22S6 3.965 6 4.72v7.749c0 2.029.802 2.29 1.5 2.29s1.5-.261 1.5-2.29v-5.89c0-.514.001-.925-.09-1.159-.037-.094-.078-.2-.41-.2s-.373.106-.41.2c-.091.234-.09.645-.09 1.081V11a.5.5 0 0 1-1 0V6.579c0-.609-.001-1.112.158-1.521.149-.382.502-.838 1.342-.838s1.193.456 1.342.838c.159.409.158.912.158 1.444v5.967c0 2.862-1.566 3.29-2.5 3.29z"/></svg>