<?xml version="1.0" encoding="iso-8859-1"?>
<!-- Generator: Adobe Illustrator 19.1.0, SVG Export Plug-In . SVG Version: 6.00 Build 0)  -->
<!DOCTYPE svg PUBLIC "-//W3C//DTD SVG 1.1 Tiny//EN" "http://www.w3.org/Graphics/SVG/1.1/DTD/svg11-tiny.dtd">
<svg version="1.1" baseProfile="tiny" xmlns="http://www.w3.org/2000/svg" xmlns:xlink="http://www.w3.org/1999/xlink" x="0px"
	 y="0px" viewBox="0 0 16 16" xml:space="preserve">
<g id="Layer_1">
	<path d="M15,13H8.161C6.094,13,4,11.854,4,9.661V3c0-0.276,0.224-0.5,0.5-0.5S5,2.724,5,3v6.661C5,11.196,6.59,12,8.161,12H15
		c0.276,0,0.5,0.224,0.5,0.5S15.276,13,15,13z"/>
	<path d="M8,7C7.872,7,7.744,6.951,7.646,6.854L4.5,3.707L1.354,6.854c-0.195,0.195-0.512,0.195-0.707,0s-0.195-0.512,0-0.707
		l3.5-3.5c0.195-0.195,0.512-0.195,0.707,0l3.5,3.5c0.195,0.195,0.195,0.512,0,0.707C8.256,6.951,8.128,7,8,7z"/>
</g>
<g id="Layer_2">
</g>
<g id="Layer_3">
</g>
</svg>
