<?xml version="1.0" encoding="utf-8"?>
<!-- Generator: Adobe Illustrator 19.1.0, SVG Export Plug-In . SVG Version: 6.00 Build 0)  -->
<!DOCTYPE svg PUBLIC "-//W3C//DTD SVG 1.1 Tiny//EN" "http://www.w3.org/Graphics/SVG/1.1/DTD/svg11-tiny.dtd">
<svg version="1.1" baseProfile="tiny" id="Layer_1" xmlns="http://www.w3.org/2000/svg" xmlns:xlink="http://www.w3.org/1999/xlink"
	 x="0px" y="0px" viewBox="0 0 16 16" xml:space="preserve">
<path d="M15,13H8.2C6.1,13,4,11.9,4,9.7V3c0-0.3,0.2-0.5,0.5-0.5S5,2.7,5,3v6.7C5,11.2,6.6,12,8.2,12H15c0.3,0,0.5,0.2,0.5,0.5
	S15.3,13,15,13z"/>
<path d="M8,7C7.9,7,7.7,7,7.6,6.9L4.5,3.7L1.4,6.9C1.2,7,0.8,7,0.6,6.9s-0.2-0.5,0-0.7l3.5-3.5c0.2-0.2,0.5-0.2,0.7,0l3.5,3.5
	c0.2,0.2,0.2,0.5,0,0.7C8.3,7,8.1,7,8,7z"/>
</svg>
