<svg baseProfile="tiny" xmlns="http://www.w3.org/2000/svg" viewBox="0 0 16 16"><path fill="#231F20" d="M1.825 15.7c-.396 0-.767-.155-1.045-.437a1.492 1.492 0 0 1 0-2.096l4.633-4.669L7.498 10.6 2.87 15.263a1.452 1.452 0 0 1-1.045.437zm3.589-5.781L1.49 13.873a.489.489 0 0 0 0 .687c.09.09.209.14.335.14a.468.468 0 0 0 .336-.14l3.929-3.959-.676-.682z"/><path fill="#231F20" d="M4.368 8.865l.711-.705 2.762 2.783-.711.705z"/><path fill="#231F20" d="M5.742 9.558l6.962-7.01.71.705-6.962 7.01z"/><path fill="#231F20" d="M13.884 4.438l-2.44-2.456 3.138-2.196 1.576 1.589-2.274 3.063zm-.893-2.317l.783.788 1.068-1.44-.377-.38-1.474 1.032zM6.204 8.3L3.99 6.072a3.057 3.057 0 0 1-3.083-.774 3.106 3.106 0 0 1-.662-3.401l.283-.65 1.725 1.69H3v-.703L1.299.473 1.952.19c1.167-.498 2.45-.241 3.354.667a3.124 3.124 0 0 1 .775 3.104l2.215 2.233-.71.706-2.675-2.694.129-.309a2.131 2.131 0 0 0-.45-2.335A2.106 2.106 0 0 0 3.129.943L4 1.834v2.104H1.849l-.848-.843a2.08 2.08 0 0 0 .616 1.51c.603.61 1.508.775 2.306.435l.312-.136 2.678 2.692-.709.704zM12.773 15.939a3.077 3.077 0 0 1-2.192-.916 3.126 3.126 0 0 1-.778-3.104L7.585 9.684l.71-.705 2.675 2.698-.129.308a2.13 2.13 0 0 0 .45 2.334c.415.418.984.608 1.547.62L12 14.046v-2.108h1.969l.912.896a2.063 2.063 0 0 0-.618-1.546 2.075 2.075 0 0 0-2.307-.441l-.312.14-2.677-2.698.71-.704 2.214 2.234a3.071 3.071 0 0 1 3.083.787 3.125 3.125 0 0 1 .662 3.425l-.277.612-1.782-1.706H13v.708l1.671 1.762-.673.283a3.142 3.142 0 0 1-1.225.249z"/></svg>