<?xml version="1.0" encoding="iso-8859-1"?>
<!-- Generator: Adobe Illustrator 19.2.1, SVG Export Plug-In . SVG Version: 6.00 Build 0)  -->
<!DOCTYPE svg PUBLIC "-//W3C//DTD SVG 1.1 Tiny//EN" "http://www.w3.org/Graphics/SVG/1.1/DTD/svg11-tiny.dtd">
<svg version="1.1" baseProfile="tiny" xmlns="http://www.w3.org/2000/svg" xmlns:xlink="http://www.w3.org/1999/xlink" x="0px"
	 y="0px" viewBox="0 0 16 16" xml:space="preserve">
<g id="Layer_1">
	<g>
		<g>
			<path fill="#231F20" d="M1.825,15.7C1.825,15.7,1.825,15.7,1.825,15.7c-0.396,0-0.767-0.155-1.045-0.437
				c-0.573-0.576-0.574-1.517,0-2.096l4.633-4.669l2.085,2.102l-4.628,4.663C2.592,15.546,2.221,15.7,1.825,15.7z M5.414,9.919
				L1.49,13.873c-0.188,0.189-0.188,0.497,0,0.687C1.58,14.65,1.699,14.7,1.825,14.7l0,0c0.127,0.001,0.246-0.05,0.336-0.14V14.56
				l3.929-3.959L5.414,9.919z"/>
		</g>
		<g>
			
				<rect x="5.604" y="7.944" transform="matrix(0.7099 -0.7043 0.7043 0.7099 -5.2048 7.1724)" fill="#231F20" width="1.001" height="3.921"/>
		</g>
		<g>
			
				<rect x="4.638" y="5.904" transform="matrix(0.7047 -0.7095 0.7095 0.7047 -1.7157 8.6877)" fill="#231F20" width="9.88" height="1.001"/>
		</g>
		<g>
			<path fill="#231F20" d="M13.884,4.438l-2.44-2.456l3.138-2.196l1.576,1.589L13.884,4.438z M12.991,2.121l0.783,0.788l1.068-1.44
				l-0.377-0.38L12.991,2.121z"/>
		</g>
		<g>
			<path fill="#231F20" d="M6.204,8.3L3.99,6.072C2.896,6.407,1.718,6.117,0.907,5.298C0.015,4.4-0.245,3.065,0.245,1.897
				l0.283-0.65l1.725,1.69H3V2.234L1.299,0.473L1.952,0.19c1.167-0.498,2.45-0.241,3.354,0.667c0.816,0.822,1.102,2.01,0.775,3.104
				l2.215,2.233L7.586,6.9L4.911,4.206l0.129-0.309c0.337-0.804,0.161-1.72-0.45-2.335C4.178,1.147,3.645,0.953,3.129,0.943L4,1.834
				v2.104H1.849L1.001,3.095c-0.009,0.559,0.205,1.097,0.616,1.51C2.22,5.215,3.125,5.38,3.923,5.04l0.312-0.136l2.678,2.692
				L6.204,8.3z"/>
		</g>
		<g>
			<path fill="#231F20" d="M12.773,15.939c-0.807,0.001-1.596-0.316-2.192-0.916c-0.816-0.822-1.105-2.01-0.778-3.104L7.585,9.684
				l0.71-0.705l2.675,2.698l-0.129,0.308c-0.337,0.803-0.161,1.719,0.45,2.334c0.415,0.418,0.984,0.608,1.547,0.62L12,14.046v-2.108
				h1.969l0.912,0.896c0.02-0.576-0.195-1.122-0.618-1.546c-0.609-0.614-1.513-0.781-2.307-0.441l-0.312,0.14L8.967,8.289
				l0.71-0.704l2.214,2.234c1.088-0.33,2.267-0.036,3.083,0.787c0.897,0.903,1.157,2.248,0.662,3.425l-0.277,0.612l-1.782-1.706H13
				v0.708l1.671,1.762l-0.673,0.283C13.603,15.858,13.182,15.939,12.773,15.939z"/>
		</g>
	</g>
</g>
</svg>
