<?xml version="1.0" encoding="utf-8"?>
<!-- Generator: Adobe Illustrator 19.1.0, SVG Export Plug-In . SVG Version: 6.00 Build 0)  -->
<!DOCTYPE svg PUBLIC "-//W3C//DTD SVG 1.1 Tiny//EN" "http://www.w3.org/Graphics/SVG/1.1/DTD/svg11-tiny.dtd">
<svg version="1.1" baseProfile="tiny" id="Layer_1" xmlns="http://www.w3.org/2000/svg" xmlns:xlink="http://www.w3.org/1999/xlink"
	 x="0px" y="0px" viewBox="0 0 16 16" xml:space="preserve">
<g>
	<path d="M2.4,5H1.6C0.7,5,0,4.3,0,3.4V2.6C0,1.7,0.7,1,1.6,1h0.9C3.3,1,4,1.7,4,2.6v0.9C4,4.3,3.3,5,2.4,5z M1.6,2
		C1.3,2,1,2.3,1,2.6v0.9C1,3.7,1.3,4,1.6,4h0.9C2.7,4,3,3.7,3,3.4V2.6C3,2.3,2.7,2,2.4,2H1.6z"/>
	<path d="M2.4,10H1.6C0.7,10,0,9.3,0,8.4V7.6C0,6.7,0.7,6,1.6,6h0.9C3.3,6,4,6.7,4,7.6v0.9C4,9.3,3.3,10,2.4,10z M1.6,7
		C1.3,7,1,7.3,1,7.6v0.9C1,8.7,1.3,9,1.6,9h0.9C2.7,9,3,8.7,3,8.4V7.6C3,7.3,2.7,7,2.4,7H1.6z"/>
	<path d="M2.4,15H1.6C0.7,15,0,14.3,0,13.4v-0.9C0,11.7,0.7,11,1.6,11h0.9C3.3,11,4,11.7,4,12.6v0.9C4,14.3,3.3,15,2.4,15z M1.6,12
		C1.3,12,1,12.3,1,12.6v0.9C1,13.7,1.3,14,1.6,14h0.9C2.7,14,3,13.7,3,13.4v-0.9C3,12.3,2.7,12,2.4,12H1.6z"/>
</g>
<path d="M14.4,5H6.6C5.7,5,5,4.3,5,3.4V2.6C5,1.7,5.7,1,6.6,1h7.9C15.3,1,16,1.7,16,2.6v0.9C16,4.3,15.3,5,14.4,5z M6.6,2
	C6.3,2,6,2.3,6,2.6v0.9C6,3.7,6.3,4,6.6,4h7.9C14.7,4,15,3.7,15,3.4V2.6C15,2.3,14.7,2,14.4,2H6.6z"/>
<path d="M14.4,10H6.6C5.7,10,5,9.3,5,8.4V7.6C5,6.7,5.7,6,6.6,6h7.9C15.3,6,16,6.7,16,7.6v0.9C16,9.3,15.3,10,14.4,10z M6.6,7
	C6.3,7,6,7.3,6,7.6v0.9C6,8.7,6.3,9,6.6,9h7.9C14.7,9,15,8.7,15,8.4V7.6C15,7.3,14.7,7,14.4,7H6.6z"/>
<path d="M14.4,15H6.6C5.7,15,5,14.3,5,13.4v-0.9C5,11.7,5.7,11,6.6,11h7.9c0.9,0,1.6,0.7,1.6,1.6v0.9C16,14.3,15.3,15,14.4,15z
	 M6.6,12C6.3,12,6,12.3,6,12.6v0.9C6,13.7,6.3,14,6.6,14h7.9c0.3,0,0.6-0.3,0.6-0.6v-0.9c0-0.3-0.3-0.6-0.6-0.6H6.6z"/>
</svg>
