<svg baseProfile="tiny" xmlns="http://www.w3.org/2000/svg" viewBox="0 0 16 16"><path d="M2.428 5h-.856A1.574 1.574 0 0 1 0 3.428v-.856C0 1.705.705 1 1.572 1h.855C3.295 1 4 1.705 4 2.572v.855C4 4.295 3.295 5 2.428 5zm-.856-3A.573.573 0 0 0 1 2.572v.855c0 .316.257.573.572.573h.855A.573.573 0 0 0 3 3.428v-.856A.573.573 0 0 0 2.428 2h-.856zM2.428 10h-.856A1.574 1.574 0 0 1 0 8.428v-.856C0 6.705.705 6 1.572 6h.855C3.295 6 4 6.705 4 7.572v.855C4 9.295 3.295 10 2.428 10zm-.856-3A.573.573 0 0 0 1 7.572v.855c0 .316.257.573.572.573h.855A.573.573 0 0 0 3 8.428v-.856A.573.573 0 0 0 2.428 7h-.856zM2.428 15h-.856A1.574 1.574 0 0 1 0 13.428v-.855C0 11.705.705 11 1.572 11h.855C3.295 11 4 11.705 4 12.572v.855C4 14.295 3.295 15 2.428 15zm-.856-3a.573.573 0 0 0-.572.572v.855c0 .316.257.573.572.573h.855A.573.573 0 0 0 3 13.428v-.855A.573.573 0 0 0 2.428 12h-.856zM14.428 5H6.572A1.574 1.574 0 0 1 5 3.428v-.856C5 1.705 5.705 1 6.572 1h7.855C15.295 1 16 1.705 16 2.572v.855C16 4.295 15.295 5 14.428 5zM6.572 2A.573.573 0 0 0 6 2.572v.855c0 .316.257.573.572.573h7.855A.573.573 0 0 0 15 3.428v-.856A.573.573 0 0 0 14.428 2H6.572zM14.428 10H6.572A1.574 1.574 0 0 1 5 8.428v-.856C5 6.705 5.705 6 6.572 6h7.855C15.295 6 16 6.705 16 7.572v.855C16 9.295 15.295 10 14.428 10zM6.572 7A.573.573 0 0 0 6 7.572v.855c0 .316.257.573.572.573h7.855A.573.573 0 0 0 15 8.428v-.856A.573.573 0 0 0 14.428 7H6.572zM14.428 15H6.572A1.574 1.574 0 0 1 5 13.428v-.855C5 11.705 5.705 11 6.572 11h7.855c.868 0 1.573.705 1.573 1.572v.855c0 .868-.705 1.573-1.572 1.573zm-7.856-3a.573.573 0 0 0-.572.572v.855c0 .316.257.573.572.573h7.855a.573.573 0 0 0 .573-.572v-.855a.573.573 0 0 0-.572-.573H6.572z"/></svg>