<?xml version="1.0" encoding="iso-8859-1"?>
<!-- Generator: Adobe Illustrator 19.1.0, SVG Export Plug-In . SVG Version: 6.00 Build 0)  -->
<!DOCTYPE svg PUBLIC "-//W3C//DTD SVG 1.1 Tiny//EN" "http://www.w3.org/Graphics/SVG/1.1/DTD/svg11-tiny.dtd">
<svg version="1.1" baseProfile="tiny" id="Layer_1" xmlns="http://www.w3.org/2000/svg" xmlns:xlink="http://www.w3.org/1999/xlink"
	 x="0px" y="0px" viewBox="0 0 16 16" xml:space="preserve">
<g>
	<g>
		<path d="M2.428,5H1.572C0.705,5,0,4.295,0,3.428V2.572C0,1.705,0.705,1,1.572,1h0.855C3.295,1,4,1.705,4,2.572v0.855
			C4,4.295,3.295,5,2.428,5z M1.572,2C1.257,2,1,2.257,1,2.572v0.855C1,3.743,1.257,4,1.572,4h0.855C2.743,4,3,3.743,3,3.428V2.572
			C3,2.257,2.743,2,2.428,2H1.572z"/>
	</g>
	<g>
		<path d="M2.428,10H1.572C0.705,10,0,9.295,0,8.428V7.572C0,6.705,0.705,6,1.572,6h0.855C3.295,6,4,6.705,4,7.572v0.855
			C4,9.295,3.295,10,2.428,10z M1.572,7C1.257,7,1,7.257,1,7.572v0.855C1,8.743,1.257,9,1.572,9h0.855C2.743,9,3,8.743,3,8.428
			V7.572C3,7.257,2.743,7,2.428,7H1.572z"/>
	</g>
	<g>
		<path d="M2.428,15H1.572C0.705,15,0,14.295,0,13.428v-0.855C0,11.705,0.705,11,1.572,11h0.855C3.295,11,4,11.705,4,12.572v0.855
			C4,14.295,3.295,15,2.428,15z M1.572,12C1.257,12,1,12.257,1,12.572v0.855C1,13.743,1.257,14,1.572,14h0.855
			C2.743,14,3,13.743,3,13.428v-0.855C3,12.257,2.743,12,2.428,12H1.572z"/>
	</g>
</g>
<g>
	<path d="M14.428,5H6.572C5.705,5,5,4.295,5,3.428V2.572C5,1.705,5.705,1,6.572,1h7.855C15.295,1,16,1.705,16,2.572v0.855
		C16,4.295,15.295,5,14.428,5z M6.572,2C6.257,2,6,2.257,6,2.572v0.855C6,3.743,6.257,4,6.572,4h7.855C14.743,4,15,3.743,15,3.428
		V2.572C15,2.257,14.743,2,14.428,2H6.572z"/>
</g>
<g>
	<path d="M14.428,10H6.572C5.705,10,5,9.295,5,8.428V7.572C5,6.705,5.705,6,6.572,6h7.855C15.295,6,16,6.705,16,7.572v0.855
		C16,9.295,15.295,10,14.428,10z M6.572,7C6.257,7,6,7.257,6,7.572v0.855C6,8.743,6.257,9,6.572,9h7.855C14.743,9,15,8.743,15,8.428
		V7.572C15,7.257,14.743,7,14.428,7H6.572z"/>
</g>
<g>
	<path d="M14.428,15H6.572C5.705,15,5,14.295,5,13.428v-0.855C5,11.705,5.705,11,6.572,11h7.855C15.295,11,16,11.705,16,12.572
		v0.855C16,14.295,15.295,15,14.428,15z M6.572,12C6.257,12,6,12.257,6,12.572v0.855C6,13.743,6.257,14,6.572,14h7.855
		C14.743,14,15,13.743,15,13.428v-0.855C15,12.257,14.743,12,14.428,12H6.572z"/>
</g>
</svg>
