<?xml version="1.0" encoding="utf-8"?>
<!-- Generator: Adobe Illustrator 19.1.0, SVG Export Plug-In . SVG Version: 6.00 Build 0)  -->
<!DOCTYPE svg PUBLIC "-//W3C//DTD SVG 1.1 Tiny//EN" "http://www.w3.org/Graphics/SVG/1.1/DTD/svg11-tiny.dtd">
<svg version="1.1" baseProfile="tiny" id="Layer_1" xmlns="http://www.w3.org/2000/svg" xmlns:xlink="http://www.w3.org/1999/xlink"
	 x="0px" y="0px" viewBox="0 0 16 16" xml:space="preserve">
<g>
	<path d="M6.8,7.3c-0.2,0-0.4-0.1-0.5-0.3c0,0-0.6-1.9-2.2-1.9H1C0.7,5,0.5,4.8,0.5,4.5S0.7,4,1,4h3.1c2.3,0,3.1,2.5,3.2,2.6
		c0.1,0.3-0.1,0.5-0.3,0.6C6.9,7.3,6.8,7.3,6.8,7.3z"/>
	<path d="M4.1,12H1c-0.3,0-0.5-0.2-0.5-0.5S0.7,11,1,11h3.1c1.4,0,2.4-1.6,3.5-3.3C8.8,5.9,10,4,11.9,4H15c0.3,0,0.5,0.2,0.5,0.5
		S15.3,5,15,5h-3.1c-1.4,0-2.4,1.6-3.5,3.3C7.2,10.1,6,12,4.1,12z"/>
	<path d="M15,12h-3.1C9.7,12,8.1,9.9,8,9.9C7.8,9.6,7.9,9.3,8.1,9.2C8.3,9,8.6,9,8.8,9.2c0,0,1.4,1.8,3.1,1.8H15
		c0.3,0,0.5,0.2,0.5,0.5S15.3,12,15,12z"/>
	<path d="M14.2,6.9c-0.1,0-0.2,0-0.3-0.1c-0.2-0.2-0.3-0.5-0.1-0.7l1.1-1.7l-1.1-1.7c-0.2-0.2-0.1-0.5,0.1-0.7
		c0.2-0.2,0.5-0.1,0.7,0.1l1.3,2c0.1,0.2,0.1,0.4,0,0.6l-1.3,2C14.5,6.8,14.4,6.9,14.2,6.9z"/>
	<path d="M14.2,14.1c-0.1,0-0.2,0-0.3-0.1c-0.2-0.2-0.3-0.5-0.1-0.7l1.1-1.7L13.8,10c-0.2-0.2-0.1-0.5,0.1-0.7
		c0.2-0.2,0.5-0.1,0.7,0.1l1.3,2c0.1,0.2,0.1,0.4,0,0.6l-1.3,2C14.5,14,14.4,14.1,14.2,14.1z"/>
</g>
</svg>
