<svg baseProfile="tiny" xmlns="http://www.w3.org/2000/svg" viewBox="0 0 16 16"><path d="M6.772 7.281a.502.502 0 0 1-.476-.346C6.29 6.916 5.648 5 4.087 5H1a.5.5 0 0 1 0-1h3.087c2.295 0 3.127 2.522 3.162 2.63a.501.501 0 0 1-.477.651z"/><path d="M4.087 12H1a.5.5 0 0 1 0-1h3.087c1.359 0 2.396-1.59 3.494-3.273C8.776 5.895 10.012 4 11.913 4H15a.5.5 0 0 1 0 1h-3.087c-1.359 0-2.396 1.59-3.494 3.273C7.224 10.105 5.988 12 4.087 12z"/><path d="M15 12h-3.087C9.74 12 8.081 9.942 8.011 9.855a.5.5 0 0 1 .783-.623C8.808 9.25 10.227 11 11.913 11H15a.5.5 0 0 1 0 1zM14.195 6.913a.5.5 0 0 1-.416-.777l1.119-1.68-1.118-1.679a.5.5 0 1 1 .832-.554l1.304 1.956a.5.5 0 0 1 0 .555L14.612 6.69a.499.499 0 0 1-.417.223z"/><path d="M14.195 14.087a.5.5 0 0 1-.416-.777l1.119-1.679-1.119-1.68a.5.5 0 1 1 .832-.554l1.304 1.957a.5.5 0 0 1 0 .555l-1.304 1.956a.497.497 0 0 1-.416.222z"/></svg>