<?xml version="1.0" encoding="iso-8859-1"?>
<!-- Generator: Adobe Illustrator 19.1.0, SVG Export Plug-In . SVG Version: 6.00 Build 0)  -->
<!DOCTYPE svg PUBLIC "-//W3C//DTD SVG 1.1 Tiny//EN" "http://www.w3.org/Graphics/SVG/1.1/DTD/svg11-tiny.dtd">
<svg version="1.1" baseProfile="tiny" xmlns="http://www.w3.org/2000/svg" xmlns:xlink="http://www.w3.org/1999/xlink" x="0px"
	 y="0px" viewBox="0 0 16 16" xml:space="preserve">
<g id="Layer_1">
	<g>
		<path d="M6.772,7.281c-0.211,0-0.407-0.135-0.476-0.346C6.29,6.916,5.648,5,4.087,5H1C0.724,5,0.5,4.776,0.5,4.5S0.724,4,1,4
			h3.087c2.295,0,3.127,2.522,3.162,2.63c0.083,0.263-0.061,0.543-0.323,0.628C6.875,7.273,6.823,7.281,6.772,7.281z"/>
		<path d="M4.087,12H1c-0.276,0-0.5-0.224-0.5-0.5S0.724,11,1,11h3.087c1.359,0,2.396-1.59,3.494-3.273
			C8.776,5.895,10.012,4,11.913,4H15c0.276,0,0.5,0.224,0.5,0.5S15.276,5,15,5h-3.087c-1.359,0-2.396,1.59-3.494,3.273
			C7.224,10.105,5.988,12,4.087,12z"/>
		<path d="M15,12h-3.087C9.74,12,8.081,9.942,8.011,9.855c-0.171-0.217-0.136-0.53,0.08-0.702c0.216-0.173,0.53-0.138,0.703,0.079
			C8.808,9.25,10.227,11,11.913,11H15c0.276,0,0.5,0.224,0.5,0.5S15.276,12,15,12z"/>
		<path d="M14.195,6.913c-0.095,0-0.191-0.027-0.277-0.084c-0.229-0.153-0.292-0.464-0.139-0.693l1.119-1.68L13.78,2.777
			c-0.153-0.229-0.091-0.54,0.139-0.693c0.229-0.153,0.541-0.092,0.693,0.139l1.304,1.956c0.112,0.168,0.112,0.387,0,0.555
			L14.612,6.69C14.516,6.835,14.357,6.913,14.195,6.913z"/>
		<path d="M14.195,14.087c-0.095,0-0.191-0.027-0.277-0.084c-0.23-0.153-0.292-0.464-0.139-0.693l1.119-1.679l-1.119-1.68
			c-0.153-0.229-0.091-0.54,0.139-0.693c0.229-0.153,0.541-0.092,0.693,0.139l1.304,1.957c0.112,0.168,0.112,0.387,0,0.555
			l-1.304,1.956C14.516,14.009,14.357,14.087,14.195,14.087z"/>
	</g>
</g>
<g id="Layer_2">
</g>
<g id="Layer_3">
</g>
</svg>
