<?xml version="1.0" encoding="utf-8"?>
<!-- Generator: Adobe Illustrator 19.1.0, SVG Export Plug-In . SVG Version: 6.00 Build 0)  -->
<!DOCTYPE svg PUBLIC "-//W3C//DTD SVG 1.1 Tiny//EN" "http://www.w3.org/Graphics/SVG/1.1/DTD/svg11-tiny.dtd">
<svg version="1.1" baseProfile="tiny" id="Layer_1" xmlns="http://www.w3.org/2000/svg" xmlns:xlink="http://www.w3.org/1999/xlink"
	 x="0px" y="0px" viewBox="0 0 16 16" xml:space="preserve">
<path d="M7,15H4.7C2.2,15,0,12.7,0,10s2.2-5,4.7-5H15c0.3,0,0.5,0.2,0.5,0.5S15.3,6,15,6H4.7C2.7,6,1,7.9,1,10s1.7,4,3.7,4H7
	c0.3,0,0.5,0.2,0.5,0.5S7.3,15,7,15z"/>
<path d="M12.3,9.3c-0.1,0-0.3,0-0.4-0.1c-0.2-0.2-0.2-0.5,0-0.7l2.9-2.9l-2.9-2.9c-0.2-0.2-0.2-0.5,0-0.7s0.5-0.2,0.7,0l3.2,3.2
	c0.2,0.2,0.2,0.5,0,0.7l-3.2,3.2C12.5,9.2,12.4,9.3,12.3,9.3z"/>
</svg>
