<?xml version="1.0" encoding="iso-8859-1"?>
<!-- Generator: Adobe Illustrator 19.2.0, SVG Export Plug-In . SVG Version: 6.00 Build 0)  -->
<svg version="1.1" baseProfile="tiny" xmlns="http://www.w3.org/2000/svg" xmlns:xlink="http://www.w3.org/1999/xlink" x="0px"
	 y="0px" viewBox="0 0 16 16" xml:space="preserve">
<g id="Layer_1">
	<path d="M7,15H4.678C2.186,15,0,12.663,0,10s2.186-5,4.678-5H15c0.276,0,0.5,0.224,0.5,0.5S15.276,6,15,6H4.678
		C2.719,6,1,7.869,1,10s1.719,4,3.678,4H7c0.276,0,0.5,0.224,0.5,0.5S7.276,15,7,15z"/>
	<path d="M12.287,9.257c-0.128,0-0.256-0.049-0.354-0.146c-0.195-0.195-0.195-0.512,0-0.707l2.859-2.86l-2.859-2.859
		c-0.195-0.195-0.195-0.512,0-0.707s0.512-0.195,0.707,0l3.213,3.213c0.195,0.195,0.195,0.512,0,0.707L12.641,9.11
		C12.543,9.208,12.415,9.257,12.287,9.257z"/>
</g>
<g id="Layer_2">
</g>
<g id="Layer_3">
</g>
</svg>
