<?xml version="1.0" encoding="iso-8859-1"?>
<!-- Generator: Adobe Illustrator 19.1.0, SVG Export Plug-In . SVG Version: 6.00 Build 0)  -->
<!DOCTYPE svg PUBLIC "-//W3C//DTD SVG 1.1 Tiny//EN" "http://www.w3.org/Graphics/SVG/1.1/DTD/svg11-tiny.dtd">
<svg version="1.1" baseProfile="tiny" xmlns="http://www.w3.org/2000/svg" xmlns:xlink="http://www.w3.org/1999/xlink" x="0px"
	 y="0px" viewBox="0 0 16 16" xml:space="preserve">
<g id="Layer_1">
	<path d="M9.013,14.955c-2.36,0-4.524-1.167-5.83-3.156c-0.151-0.231-0.087-0.541,0.144-0.692c0.229-0.151,0.54-0.089,0.692,0.144
		c1.161,1.77,3.119,2.777,5.223,2.7c1.596-0.058,3.073-0.734,4.16-1.904s1.653-2.692,1.594-4.288
		c-0.121-3.293-2.922-5.88-6.193-5.753C7.121,2.066,5.53,2.834,4.438,4.112C3.585,5.111,3.1,6.354,3.023,7.696l1.532-1.752
		c0.183-0.21,0.499-0.228,0.705-0.047C5.469,6.079,5.49,6.395,5.308,6.603L2.922,9.33C2.82,9.447,2.669,9.514,2.514,9.5
		C2.358,9.49,2.216,9.408,2.13,9.278L0.084,6.21C-0.069,5.98-0.007,5.67,0.223,5.517C0.45,5.364,0.762,5.425,0.916,5.655l1.13,1.695
		C2.185,5.901,2.741,4.56,3.678,3.463c1.273-1.49,3.128-2.386,5.087-2.458c3.812-0.124,7.089,2.87,7.23,6.716
		c0.068,1.862-0.593,3.641-1.861,5.006s-2.993,2.155-4.855,2.224C9.189,14.953,9.101,14.955,9.013,14.955z"/>
</g>
<g id="Layer_2">
</g>
<g id="Layer_3">
</g>
</svg>
