<svg baseProfile="tiny" xmlns="http://www.w3.org/2000/svg" viewBox="0 0 16 16"><path d="M6.987 14.955a6.93 6.93 0 0 0 5.83-3.156.5.5 0 0 0-.836-.548 5.945 5.945 0 0 1-5.223 2.7c-1.596-.058-3.073-.734-4.16-1.904S.945 9.354 1.005 7.758c.121-3.293 2.922-5.88 6.193-5.753a6.045 6.045 0 0 1 4.363 2.107c.854.999 1.339 2.242 1.415 3.584l-1.532-1.752a.499.499 0 1 0-.752.658l2.386 2.728a.5.5 0 0 0 .792-.052l2.046-3.068a.5.5 0 1 0-.832-.554l-1.13 1.695a6.96 6.96 0 0 0-1.632-3.888 7.05 7.05 0 0 0-5.087-2.458C3.423.881.146 3.875.005 7.721c-.068 1.862.593 3.641 1.861 5.006s2.993 2.155 4.855 2.224c.089.002.178.004.266.004z"/></svg>