<?xml version="1.0" encoding="utf-8"?>
<!-- Generator: Adobe Illustrator 19.1.0, SVG Export Plug-In . SVG Version: 6.00 Build 0)  -->
<!DOCTYPE svg PUBLIC "-//W3C//DTD SVG 1.1 Tiny//EN" "http://www.w3.org/Graphics/SVG/1.1/DTD/svg11-tiny.dtd">
<svg version="1.1" baseProfile="tiny" id="Layer_1" xmlns="http://www.w3.org/2000/svg" xmlns:xlink="http://www.w3.org/1999/xlink"
	 x="0px" y="0px" viewBox="0 0 16 16" xml:space="preserve">
<g id="XMLID_237_">
	<path d="M9,14.5c-2,0-3.9-0.8-5.2-2.3c-0.2-0.2-0.2-0.5,0-0.7c0.2-0.2,0.5-0.2,0.7,0c1.2,1.3,2.9,2,4.7,2c1.6-0.1,3.1-0.7,4.2-1.9
		s1.7-2.7,1.6-4.3C14.9,4,12.1,1.4,8.8,1.5C7.1,1.6,5.5,2.3,4.4,3.6C3.6,4.6,3.1,5.9,3,7.2l1.5-1.8c0.2-0.2,0.5-0.2,0.7,0
		c0.2,0.2,0.2,0.5,0,0.7L2.9,8.8C2.8,8.9,2.7,9,2.5,9C2.4,9,2.2,8.9,2.1,8.8l-2-3.1C-0.1,5.5,0,5.2,0.2,5c0.2-0.2,0.5-0.1,0.7,0.1
		L2,6.9C2.2,5.4,2.7,4.1,3.7,3C5,1.5,6.8,0.6,8.8,0.5c1.9-0.1,3.6,0.6,5,1.9c1.4,1.3,2.2,3,2.2,4.9c0.1,1.9-0.6,3.6-1.9,5
		s-3,2.2-4.9,2.2C9.2,14.5,9.1,14.5,9,14.5z"/>
</g>
</svg>
