<?xml version="1.0" encoding="utf-8"?>
<!-- Generator: Adobe Illustrator 19.1.0, SVG Export Plug-In . SVG Version: 6.00 Build 0)  -->
<!DOCTYPE svg PUBLIC "-//W3C//DTD SVG 1.1 Tiny//EN" "http://www.w3.org/Graphics/SVG/1.1/DTD/svg11-tiny.dtd">
<svg version="1.1" baseProfile="tiny" id="Layer_1" xmlns="http://www.w3.org/2000/svg" xmlns:xlink="http://www.w3.org/1999/xlink"
	 x="0px" y="0px" viewBox="0 0 16 16" xml:space="preserve">
<path d="M9,15c-2.4,0-4.5-1.2-5.8-3.2c-0.2-0.2-0.1-0.5,0.1-0.7C3.6,11,3.9,11,4,11.2C5.2,13,7.1,14,9.2,14c1.6-0.1,3.1-0.7,4.2-1.9
	s1.7-2.7,1.6-4.3C14.9,4.5,12.1,1.9,8.8,2C7.1,2.1,5.5,2.8,4.4,4.1C3.6,5.1,3.1,6.4,3,7.7l1.5-1.8c0.2-0.2,0.5-0.2,0.7,0
	c0.2,0.2,0.2,0.5,0,0.7L2.9,9.3C2.8,9.4,2.7,9.5,2.5,9.5c-0.2,0-0.3-0.1-0.4-0.2l-2-3.1C-0.1,6,0,5.7,0.2,5.5
	c0.2-0.2,0.5-0.1,0.7,0.1L2,7.4c0.1-1.4,0.7-2.8,1.6-3.9C5,2,6.8,1.1,8.8,1c3.8-0.1,7.1,2.9,7.2,6.7c0.1,1.9-0.6,3.6-1.9,5
	s-3,2.2-4.9,2.2C9.2,15,9.1,15,9,15z"/>
</svg>
