<?xml version="1.0" encoding="utf-8"?>
<!-- Generator: Adobe Illustrator 19.1.0, SVG Export Plug-In . SVG Version: 6.00 Build 0)  -->
<!DOCTYPE svg PUBLIC "-//W3C//DTD SVG 1.1 Tiny//EN" "http://www.w3.org/Graphics/SVG/1.1/DTD/svg11-tiny.dtd">
<svg version="1.1" baseProfile="tiny" id="Layer_1" xmlns="http://www.w3.org/2000/svg" xmlns:xlink="http://www.w3.org/1999/xlink"
	 x="0px" y="0px" viewBox="0 0 16 16" xml:space="preserve">
<g id="XMLID_61_">
	<g id="XMLID_62_">
		<g>
			<path d="M8,15.9c-4.3,0-7.9-3.5-7.9-7.9S3.7,0.1,8,0.1s7.9,3.5,7.9,7.9S12.3,15.9,8,15.9z M8,0.9C4.1,0.9,0.9,4.1,0.9,8
				s3.2,7.1,7.1,7.1s7.1-3.2,7.1-7.1S11.9,0.9,8,0.9z"/>
		</g>
	</g>
	<g id="XMLID_21_">
		<path d="M6.4,10.8c-0.1,0-0.3,0-0.4-0.1L4.4,9c-0.2-0.2-0.2-0.5,0-0.7s0.5-0.2,0.7,0l1.3,1.3l4.5-4.2c0.2-0.2,0.5-0.2,0.7,0
			c0.2,0.2,0.2,0.5,0,0.7l-4.9,4.6C6.6,10.7,6.5,10.8,6.4,10.8z"/>
	</g>
</g>
</svg>
