<?xml version="1.0" encoding="iso-8859-1"?>
<!-- Generator: Adobe Illustrator 19.1.0, SVG Export Plug-In . SVG Version: 6.00 Build 0)  -->
<!DOCTYPE svg PUBLIC "-//W3C//DTD SVG 1.1 Tiny//EN" "http://www.w3.org/Graphics/SVG/1.1/DTD/svg11-tiny.dtd">
<svg version="1.1" baseProfile="tiny" xmlns="http://www.w3.org/2000/svg" xmlns:xlink="http://www.w3.org/1999/xlink" x="0px"
	 y="0px" viewBox="0 0 16 16" xml:space="preserve">
<g id="Layer_1">
	<g id="XMLID_309_">
		<path d="M6.37,10.782c-0.128,0-0.256-0.049-0.354-0.146l-1.63-1.63c-0.195-0.195-0.195-0.512,0-0.707s0.512-0.195,0.707,0
			l1.289,1.288l4.538-4.234c0.202-0.188,0.519-0.178,0.707,0.024c0.188,0.201,0.177,0.518-0.024,0.706l-4.891,4.564
			C6.615,10.737,6.492,10.782,6.37,10.782z"/>
		<path d="M8,16c-4.411,0-8-3.589-8-8s3.589-8,8-8s8,3.589,8,8S12.411,16,8,16z M8,1C4.14,1,1,4.141,1,8s3.14,7,7,7s7-3.141,7-7
			S11.86,1,8,1z"/>
	</g>
</g>
<g id="Layer_2">
</g>
<g id="Layer_3">
</g>
</svg>
