<?xml version="1.0" encoding="utf-8"?>
<!-- Generator: Adobe Illustrator 19.1.0, SVG Export Plug-In . SVG Version: 6.00 Build 0)  -->
<!DOCTYPE svg PUBLIC "-//W3C//DTD SVG 1.1 Tiny//EN" "http://www.w3.org/Graphics/SVG/1.1/DTD/svg11-tiny.dtd">
<svg version="1.1" baseProfile="tiny" id="Layer_1" xmlns="http://www.w3.org/2000/svg" xmlns:xlink="http://www.w3.org/1999/xlink"
	 x="0px" y="0px" viewBox="0 0 16 16" xml:space="preserve">
<g>
	<g>
		<path d="M6.2,12.4C2.8,12.4,0,9.6,0,6.2C0,2.8,2.8,0,6.2,0c3.4,0,6.2,2.8,6.2,6.2C12.4,9.6,9.6,12.4,6.2,12.4z M6.2,1
			C3.3,1,1,3.3,1,6.2s2.3,5.2,5.2,5.2c2.9,0,5.2-2.3,5.2-5.2S9.1,1,6.2,1z"/>
		<path d="M15.5,16c-0.1,0-0.3,0-0.4-0.1l-5.2-5.2c-0.2-0.2-0.2-0.5,0-0.7s0.5-0.2,0.7,0l5.2,5.2c0.2,0.2,0.2,0.5,0,0.7
			C15.8,16,15.6,16,15.5,16z"/>
	</g>
</g>
</svg>
