<?xml version="1.0" encoding="iso-8859-1"?>
<!-- Generator: Adobe Illustrator 19.2.0, SVG Export Plug-In . SVG Version: 6.00 Build 0)  -->
<svg version="1.1" baseProfile="tiny" xmlns="http://www.w3.org/2000/svg" xmlns:xlink="http://www.w3.org/1999/xlink" x="0px"
	 y="0px" viewBox="0 0 16 16" xml:space="preserve">
<g id="Layer_1">
	<g>
		<g>
			<path d="M6.21,12.417C2.786,12.417,0,9.632,0,6.209C0,2.785,2.786,0,6.21,0c3.422,0,6.206,2.785,6.206,6.209
				C12.416,9.632,9.632,12.417,6.21,12.417z M6.21,1C3.337,1,1,3.337,1,6.209s2.337,5.208,5.21,5.208
				c2.87,0,5.206-2.336,5.206-5.208S9.08,1,6.21,1z"/>
			<path d="M15.5,16c-0.128,0-0.256-0.049-0.354-0.146l-5.25-5.25c-0.195-0.195-0.195-0.512,0-0.707s0.512-0.195,0.707,0l5.25,5.25
				c0.195,0.195,0.195,0.512,0,0.707C15.756,15.951,15.628,16,15.5,16z"/>
		</g>
	</g>
</g>
<g id="Layer_2">
</g>
<g id="Layer_3">
</g>
</svg>
