<?xml version="1.0" encoding="utf-8"?>
<!-- Generator: Adobe Illustrator 19.1.0, SVG Export Plug-In . SVG Version: 6.00 Build 0)  -->
<!DOCTYPE svg PUBLIC "-//W3C//DTD SVG 1.1 Tiny//EN" "http://www.w3.org/Graphics/SVG/1.1/DTD/svg11-tiny.dtd">
<svg version="1.1" baseProfile="tiny" id="Layer_1" xmlns="http://www.w3.org/2000/svg" xmlns:xlink="http://www.w3.org/1999/xlink"
	 x="0px" y="0px" viewBox="0 0 16 16" xml:space="preserve">
<g id="XMLID_67_">
	<path d="M8.5,14.9h-2c-0.2,0-0.4-0.2-0.4-0.4v-1.7c-0.1,0-0.3-0.1-0.4-0.1c-0.3-0.1-0.6-0.2-0.9-0.3l-1.2,1.2
		c-0.1,0.1-0.2,0.1-0.3,0.1c-0.1,0-0.2,0-0.3-0.1l-1.7-1.7c-0.1-0.1-0.1-0.2-0.1-0.3c0-0.1,0-0.2,0.1-0.3l1.2-1.2
		C2.5,9.9,2.4,9.6,2.4,9.2c0-0.1-0.1-0.3-0.1-0.4H0.5c-0.2,0-0.4-0.2-0.4-0.4v-2c0-0.2,0.2-0.4,0.4-0.4h1.7c0-0.1,0.1-0.2,0.1-0.4
		c0.1-0.3,0.2-0.6,0.3-0.9L1.4,3.7C1.3,3.6,1.3,3.5,1.3,3.4s0-0.2,0.1-0.3l1.7-1.7c0.1-0.1,0.2-0.1,0.3-0.1c0.1,0,0.2,0,0.3,0.1
		l1.2,1.2c0.3-0.1,0.6-0.2,0.9-0.3c0.1,0,0.3-0.1,0.4-0.1V0.5c0-0.2,0.2-0.4,0.4-0.4h2c0.2,0,0.4,0.2,0.4,0.4v1.7
		c0.1,0,0.2,0.1,0.4,0.1c0.3,0.1,0.6,0.2,0.9,0.3l1.2-1.2c0.1-0.1,0.2-0.1,0.3-0.1c0.1,0,0.2,0,0.3,0.1l1.7,1.7
		c0.1,0.1,0.1,0.2,0.1,0.3c0,0.1,0,0.2-0.1,0.3l-1.2,1.2c0.1,0.3,0.2,0.6,0.3,0.9c0,0.1,0.1,0.3,0.1,0.4h1.7c0.2,0,0.4,0.2,0.4,0.4
		v2c0,0.2-0.2,0.4-0.4,0.4h-1.7c0,0.1-0.1,0.2-0.1,0.4c-0.1,0.3-0.2,0.6-0.3,0.9l1.2,1.2c0.1,0.1,0.1,0.2,0.1,0.3s0,0.2-0.1,0.3
		l-1.7,1.7c-0.1,0.1-0.2,0.1-0.3,0.1c0,0,0,0,0,0c-0.1,0-0.2,0-0.3-0.1l-1.2-1.2c-0.3,0.1-0.6,0.2-0.9,0.3c-0.1,0-0.3,0.1-0.4,0.1
		v1.7C8.9,14.7,8.7,14.9,8.5,14.9z M6.9,14.1h1.2v-1.6c0-0.3,0.3-0.4,0.9-0.6c0.3-0.1,0.8-0.2,1-0.3c0.1-0.1,0.3-0.1,0.5,0.1
		l1.1,1.1l1.2-1.2l-1.1-1.1c-0.1-0.1-0.2-0.3-0.1-0.5c0.1-0.2,0.2-0.7,0.3-1c0.2-0.6,0.2-0.9,0.6-0.9h1.6V6.9h-1.6
		c-0.3,0-0.4-0.3-0.6-0.9c-0.1-0.3-0.2-0.8-0.3-1c-0.1-0.1-0.1-0.3,0.1-0.5l1.1-1.1l-1.2-1.2l-1.1,1.1c-0.1,0.1-0.3,0.2-0.5,0.1
		C9.8,3.3,9.4,3.2,9,3.1C8.4,2.9,8.1,2.8,8.1,2.5V0.9H6.9v1.6c0,0.3-0.3,0.4-0.9,0.6C5.6,3.2,5.2,3.3,5,3.4C4.8,3.5,4.6,3.5,4.5,3.3
		L3.4,2.2L2.2,3.4l1.1,1.1C3.5,4.6,3.5,4.8,3.4,5C3.3,5.2,3.2,5.6,3.1,6C2.9,6.6,2.8,6.9,2.5,6.9H0.9v1.2h1.6c0.3,0,0.4,0.3,0.6,0.9
		c0.1,0.3,0.2,0.8,0.3,1c0.1,0.1,0.1,0.3-0.1,0.5l-1.1,1.1l1.2,1.2l1.1-1.1c0.1-0.1,0.3-0.2,0.5-0.1c0.2,0.1,0.7,0.2,1,0.3
		c0.6,0.2,0.9,0.2,0.9,0.6V14.1z"/>
</g>
<g id="XMLID_66_">
	<path d="M7.5,10.6c-1.7,0-3.1-1.4-3.1-3.1s1.4-3.1,3.1-3.1s3.1,1.4,3.1,3.1S9.2,10.6,7.5,10.6z M7.5,5.1c-1.3,0-2.4,1.1-2.4,2.4
		s1.1,2.4,2.4,2.4s2.4-1.1,2.4-2.4S8.8,5.1,7.5,5.1z"/>
</g>
</svg>
