<?xml version="1.0" encoding="iso-8859-1"?>
<!-- Generator: Adobe Illustrator 19.1.0, SVG Export Plug-In . SVG Version: 6.00 Build 0)  -->
<!DOCTYPE svg PUBLIC "-//W3C//DTD SVG 1.1 Tiny//EN" "http://www.w3.org/Graphics/SVG/1.1/DTD/svg11-tiny.dtd">
<svg version="1.1" baseProfile="tiny" id="Layer_1" xmlns="http://www.w3.org/2000/svg" xmlns:xlink="http://www.w3.org/1999/xlink"
	 x="0px" y="0px" viewBox="0 0 16 16" xml:space="preserve">
<g id="XMLID_64_">
	<path d="M8.413,15H6.587C6.311,15,6,14.776,6,14.5v-1.586c0-0.105-0.783-0.234-1.138-0.392l-1.119,1.142
		c-0.188,0.188-0.509,0.188-0.696,0L1.33,11.942c-0.094-0.094-0.144-0.221-0.144-0.354s0.054-0.26,0.148-0.354l1.142-1.097
		C2.319,9.783,2.191,9,2.086,9H0.5C0.224,9,0,8.689,0,8.413V6.587C0,6.311,0.224,6,0.5,6h1.586C2.191,6,2.32,5.217,2.477,4.862
		L1.335,3.743C1.242,3.649,1.189,3.533,1.189,3.4s0.053-0.254,0.146-0.348l1.722-1.719c0.195-0.195,0.512-0.194,0.707,0.001
		l1.098,1.141C5.218,2.319,6,2.191,6,2.086V0.5C6,0.224,6.311,0,6.587,0h1.826C8.689,0,9,0.224,9,0.5v1.586
		c0,0.105,0.781,0.233,1.137,0.391l1.119-1.141c0.195-0.195,0.501-0.195,0.696,0l1.717,1.722c0.094,0.094,0.144,0.221,0.144,0.354
		s-0.054,0.26-0.148,0.354l-1.141,1.097C12.681,5.218,12.809,6,12.914,6H14.5C14.776,6,15,6.311,15,6.587v1.826
		C15,8.689,14.776,9,14.5,9h-1.586c-0.105,0-0.234,0.783-0.391,1.138l1.141,1.119c0.195,0.195,0.195,0.501,0,0.696l-1.722,1.716
		c-0.195,0.195-0.512,0.193-0.707-0.003l-1.098-1.142C9.783,12.681,9,12.809,9,12.914V14.5C9,14.776,8.689,15,8.413,15z M7,14h1
		v-1.476c0-0.23,0.114-0.432,0.339-0.486c0.332-0.08,1.191-0.293,1.613-0.552c0.195-0.119,0.439-0.092,0.603,0.073l1.039,1.044
		l1.012-1.015l-1.045-1.044c-0.164-0.163-0.194-0.417-0.074-0.614c0.259-0.423,0.471-1.26,0.551-1.591
		C12.093,8.115,12.293,8,12.524,8H14V7h-1.477c-0.231,0-0.432-0.115-0.486-0.339c-0.072-0.299-0.291-1.187-0.551-1.613
		c-0.12-0.197-0.09-0.44,0.073-0.603l1.044-1.039l-1.015-1.012l-1.044,1.045C10.38,3.602,10.125,3.632,9.93,3.513
		c-0.426-0.261-1.292-0.479-1.59-0.55C8.115,2.908,8,2.708,8,2.477V1H7v1.477c0,0.231-0.115,0.432-0.34,0.486
		c-0.298,0.071-1.186,0.29-1.612,0.551c-0.197,0.119-0.44,0.09-0.603-0.073L3.406,2.396L2.393,3.411l1.046,1.044
		c0.163,0.163,0.194,0.417,0.074,0.614C3.254,5.493,3.042,6.33,2.962,6.661C2.907,6.885,2.707,7,2.476,7H1v1h1.476
		c0.231,0,0.432,0.115,0.486,0.339c0.08,0.331,0.293,1.19,0.552,1.613c0.12,0.197,0.09,0.44-0.073,0.603l-1.044,1.039l1.015,1.012
		l1.044-1.046c0.163-0.164,0.417-0.193,0.615-0.074c0.423,0.26,1.26,0.472,1.591,0.552C6.886,12.093,7,12.294,7,12.524V14z"/>
	<path d="M7.5,10.739c-1.786,0-3.239-1.453-3.239-3.239S5.714,4.261,7.5,4.261s3.239,1.453,3.239,3.239S9.286,10.739,7.5,10.739z
		 M7.5,5.261c-1.235,0-2.239,1.005-2.239,2.239S6.265,9.739,7.5,9.739S9.739,8.734,9.739,7.5S8.735,5.261,7.5,5.261z"/>
</g>
</svg>
