<?xml version="1.0" encoding="iso-8859-1"?>
<!-- Generator: Adobe Illustrator 19.1.0, SVG Export Plug-In . SVG Version: 6.00 Build 0)  -->
<!DOCTYPE svg PUBLIC "-//W3C//DTD SVG 1.1 Tiny//EN" "http://www.w3.org/Graphics/SVG/1.1/DTD/svg11-tiny.dtd">
<svg version="1.1" baseProfile="tiny" xmlns="http://www.w3.org/2000/svg" xmlns:xlink="http://www.w3.org/1999/xlink" x="0px"
	 y="0px" viewBox="0 0 16 16" xml:space="preserve">
<g id="Layer_1">
	<g id="XMLID_64_">
		<path d="M8.413,15H6.587c-0.276,0-0.5-0.224-0.5-0.5v-1.586c-0.401-0.105-0.826-0.234-1.182-0.392l-1.141,1.142
			c-0.188,0.188-0.52,0.188-0.707,0l-1.722-1.722c-0.094-0.094-0.146-0.221-0.146-0.354s0.053-0.26,0.146-0.354l1.141-1.141
			C2.32,9.739,2.191,9.314,2.086,8.913H0.5c-0.276,0-0.5-0.224-0.5-0.5V6.587c0-0.276,0.224-0.5,0.5-0.5h1.586
			C2.191,5.686,2.32,5.261,2.477,4.905L1.335,3.765C1.242,3.671,1.189,3.544,1.189,3.411s0.053-0.26,0.146-0.354l1.722-1.722
			c0.195-0.195,0.512-0.195,0.707,0l1.141,1.141c0.356-0.157,0.781-0.285,1.181-0.391V0.5c0-0.276,0.224-0.5,0.5-0.5h1.826
			c0.276,0,0.5,0.224,0.5,0.5v1.586c0.4,0.105,0.825,0.233,1.181,0.391l1.141-1.141c0.195-0.195,0.512-0.195,0.707,0l1.722,1.722
			c0.094,0.094,0.146,0.221,0.146,0.354s-0.053,0.26-0.146,0.354l-1.141,1.141c0.157,0.356,0.286,0.781,0.39,1.182H14.5
			c0.276,0,0.5,0.224,0.5,0.5v1.826c0,0.276-0.224,0.5-0.5,0.5h-1.586c-0.105,0.401-0.234,0.826-0.391,1.182l1.141,1.141
			c0.195,0.195,0.195,0.512,0,0.707l-1.722,1.722c-0.195,0.195-0.512,0.195-0.707,0l-1.142-1.141
			c-0.354,0.156-0.78,0.285-1.181,0.391V14.5C8.913,14.776,8.689,15,8.413,15z M7.087,14h0.826v-1.476
			c0-0.23,0.158-0.432,0.382-0.486c0.332-0.08,1.212-0.293,1.634-0.552c0.195-0.119,0.45-0.092,0.614,0.073l1.045,1.044l1.015-1.015
			l-1.044-1.044c-0.164-0.163-0.193-0.417-0.073-0.614c0.259-0.423,0.472-1.304,0.552-1.635c0.054-0.225,0.255-0.383,0.486-0.383H14
			V7.087h-1.477c-0.231,0-0.432-0.158-0.486-0.383c-0.072-0.299-0.291-1.209-0.551-1.635c-0.12-0.197-0.09-0.451,0.073-0.614
			l1.044-1.044l-1.015-1.015L10.544,3.44C10.38,3.604,10.125,3.633,9.93,3.514C9.503,3.253,8.595,3.034,8.296,2.963
			C8.071,2.908,7.913,2.708,7.913,2.477V1H7.087v1.477c0,0.231-0.158,0.432-0.383,0.486C6.405,3.034,5.496,3.253,5.07,3.514
			C4.873,3.633,4.619,3.604,4.456,3.44L3.411,2.396L2.396,3.411L3.44,4.455c0.163,0.163,0.193,0.417,0.073,0.614
			C3.255,5.493,3.042,6.373,2.962,6.704C2.908,6.929,2.707,7.087,2.476,7.087H1v0.826h1.476c0.231,0,0.432,0.158,0.486,0.383
			c0.08,0.331,0.293,1.212,0.552,1.635c0.12,0.197,0.09,0.451-0.073,0.614l-1.044,1.044l1.015,1.015l1.044-1.045
			c0.163-0.164,0.417-0.192,0.615-0.073c0.423,0.26,1.303,0.473,1.635,0.553c0.225,0.055,0.382,0.256,0.382,0.486V14z"/>
		<path d="M7.5,10.739c-1.786,0-3.239-1.453-3.239-3.239S5.714,4.261,7.5,4.261s3.239,1.453,3.239,3.239S9.286,10.739,7.5,10.739z
			 M7.5,5.261c-1.235,0-2.239,1.005-2.239,2.239S6.265,9.739,7.5,9.739S9.739,8.734,9.739,7.5S8.735,5.261,7.5,5.261z"/>
	</g>
</g>
<g id="Layer_2">
</g>
<g id="Layer_3">
</g>
</svg>
