<svg baseProfile="tiny" xmlns="http://www.w3.org/2000/svg" viewBox="0 0 16 16"><path d="M8.413 15H6.587a.5.5 0 0 1-.5-.5v-1.586a8.028 8.028 0 0 1-1.182-.392l-1.141 1.142a.514.514 0 0 1-.707 0l-1.722-1.722a.5.5 0 0 1 0-.708l1.141-1.141a8.159 8.159 0 0 1-.39-1.18H.5a.5.5 0 0 1-.5-.5V6.587a.5.5 0 0 1 .5-.5h1.586c.105-.401.234-.826.391-1.182l-1.142-1.14a.504.504 0 0 1 0-.708l1.722-1.722a.5.5 0 0 1 .707 0l1.141 1.141a8.298 8.298 0 0 1 1.181-.391V.5a.5.5 0 0 1 .5-.5h1.826a.5.5 0 0 1 .5.5v1.586c.4.105.825.233 1.181.391l1.141-1.141a.5.5 0 0 1 .707 0l1.722 1.722a.5.5 0 0 1 0 .708l-1.141 1.141c.157.356.286.781.39 1.182H14.5a.5.5 0 0 1 .5.5v1.826a.5.5 0 0 1-.5.5h-1.586a8.146 8.146 0 0 1-.391 1.182l1.141 1.141a.5.5 0 0 1 0 .707l-1.722 1.722a.5.5 0 0 1-.707 0l-1.142-1.141c-.354.156-.78.285-1.181.391V14.5a.499.499 0 0 1-.499.5zm-1.326-1h.826v-1.476a.5.5 0 0 1 .382-.486c.332-.08 1.212-.293 1.634-.552a.5.5 0 0 1 .614.073l1.045 1.044 1.015-1.015-1.044-1.044a.5.5 0 0 1-.073-.614c.259-.423.472-1.304.552-1.635a.5.5 0 0 1 .486-.383H14v-.825h-1.477a.5.5 0 0 1-.486-.383c-.072-.299-.291-1.209-.551-1.635a.5.5 0 0 1 .073-.614l1.044-1.044-1.015-1.015-1.044 1.044a.501.501 0 0 1-.614.074c-.427-.261-1.335-.48-1.634-.551a.5.5 0 0 1-.383-.486V1h-.826v1.477a.5.5 0 0 1-.383.486c-.299.071-1.208.29-1.634.551a.5.5 0 0 1-.614-.074L3.411 2.396 2.396 3.411 3.44 4.455a.5.5 0 0 1 .073.614c-.258.424-.471 1.304-.551 1.635a.5.5 0 0 1-.486.383H1v.826h1.476a.5.5 0 0 1 .486.383c.08.331.293 1.212.552 1.635a.5.5 0 0 1-.073.614l-1.044 1.044 1.015 1.015 1.044-1.045a.502.502 0 0 1 .615-.073c.423.26 1.303.473 1.635.553a.5.5 0 0 1 .382.486V14z"/><path d="M7.5 10.739c-1.786 0-3.239-1.453-3.239-3.239S5.714 4.261 7.5 4.261s3.239 1.453 3.239 3.239-1.453 3.239-3.239 3.239zm0-5.478c-1.235 0-2.239 1.005-2.239 2.239S6.265 9.739 7.5 9.739 9.739 8.734 9.739 7.5 8.735 5.261 7.5 5.261z"/></svg>