<?xml version="1.0" encoding="utf-8"?>
<!-- Generator: Adobe Illustrator 19.1.0, SVG Export Plug-In . SVG Version: 6.00 Build 0)  -->
<!DOCTYPE svg PUBLIC "-//W3C//DTD SVG 1.1 Tiny//EN" "http://www.w3.org/Graphics/SVG/1.1/DTD/svg11-tiny.dtd">
<svg version="1.1" baseProfile="tiny" id="Layer_1" xmlns="http://www.w3.org/2000/svg" xmlns:xlink="http://www.w3.org/1999/xlink"
	 x="0px" y="0px" viewBox="0 0 16 16" xml:space="preserve">
<g id="XMLID_64_">
	<path d="M8.4,15H6.6c-0.3,0-0.5-0.2-0.5-0.5v-1.6c-0.4-0.1-0.8-0.2-1.2-0.4l-1.1,1.1c-0.2,0.2-0.5,0.2-0.7,0l-1.7-1.7
		c-0.1-0.1-0.1-0.2-0.1-0.4s0.1-0.3,0.1-0.4l1.1-1.1C2.3,9.7,2.2,9.3,2.1,8.9H0.5C0.2,8.9,0,8.7,0,8.4V6.6c0-0.3,0.2-0.5,0.5-0.5
		h1.6c0.1-0.4,0.2-0.8,0.4-1.2L1.3,3.8C1.2,3.7,1.2,3.5,1.2,3.4s0.1-0.3,0.1-0.4l1.7-1.7c0.2-0.2,0.5-0.2,0.7,0l1.1,1.1
		c0.4-0.2,0.8-0.3,1.2-0.4V0.5C6.1,0.2,6.3,0,6.6,0h1.8c0.3,0,0.5,0.2,0.5,0.5v1.6c0.4,0.1,0.8,0.2,1.2,0.4l1.1-1.1
		c0.2-0.2,0.5-0.2,0.7,0l1.7,1.7c0.1,0.1,0.1,0.2,0.1,0.4s-0.1,0.3-0.1,0.4l-1.1,1.1c0.2,0.4,0.3,0.8,0.4,1.2h1.6
		c0.3,0,0.5,0.2,0.5,0.5v1.8c0,0.3-0.2,0.5-0.5,0.5h-1.6c-0.1,0.4-0.2,0.8-0.4,1.2l1.1,1.1c0.2,0.2,0.2,0.5,0,0.7l-1.7,1.7
		c-0.2,0.2-0.5,0.2-0.7,0l-1.1-1.1c-0.4,0.2-0.8,0.3-1.2,0.4v1.6C8.9,14.8,8.7,15,8.4,15z M7.1,14h0.8v-1.5c0-0.2,0.2-0.4,0.4-0.5
		c0.3-0.1,1.2-0.3,1.6-0.6c0.2-0.1,0.5-0.1,0.6,0.1l1,1l1-1l-1-1c-0.2-0.2-0.2-0.4-0.1-0.6C11.7,9.5,12,8.6,12,8.3
		c0.1-0.2,0.3-0.4,0.5-0.4H14V7.1h-1.5c-0.2,0-0.4-0.2-0.5-0.4c-0.1-0.3-0.3-1.2-0.6-1.6c-0.1-0.2-0.1-0.5,0.1-0.6l1-1l-1-1l-1,1
		c-0.2,0.2-0.4,0.2-0.6,0.1C9.5,3.3,8.6,3,8.3,3C8.1,2.9,7.9,2.7,7.9,2.5V1H7.1v1.5c0,0.2-0.2,0.4-0.4,0.5C6.4,3,5.5,3.3,5.1,3.5
		C4.9,3.6,4.6,3.6,4.5,3.4l-1-1l-1,1l1,1c0.2,0.2,0.2,0.4,0.1,0.6C3.3,5.5,3,6.4,3,6.7C2.9,6.9,2.7,7.1,2.5,7.1H1v0.8h1.5
		c0.2,0,0.4,0.2,0.5,0.4C3,8.6,3.3,9.5,3.5,9.9c0.1,0.2,0.1,0.5-0.1,0.6l-1,1l1,1l1-1c0.2-0.2,0.4-0.2,0.6-0.1
		C5.5,11.7,6.4,12,6.7,12c0.2,0.1,0.4,0.3,0.4,0.5V14z"/>
	<path d="M7.5,10.7c-1.8,0-3.2-1.5-3.2-3.2s1.5-3.2,3.2-3.2s3.2,1.5,3.2,3.2S9.3,10.7,7.5,10.7z M7.5,5.3c-1.2,0-2.2,1-2.2,2.2
		s1,2.2,2.2,2.2s2.2-1,2.2-2.2S8.7,5.3,7.5,5.3z"/>
</g>
</svg>
