<?xml version="1.0" encoding="iso-8859-1"?>
<!-- Generator: Adobe Illustrator 19.1.0, SVG Export Plug-In . SVG Version: 6.00 Build 0)  -->
<!DOCTYPE svg PUBLIC "-//W3C//DTD SVG 1.1 Tiny//EN" "http://www.w3.org/Graphics/SVG/1.1/DTD/svg11-tiny.dtd">
<svg version="1.1" baseProfile="tiny" id="Layer_1" xmlns="http://www.w3.org/2000/svg" xmlns:xlink="http://www.w3.org/1999/xlink"
	 x="0px" y="0px" viewBox="0 0 16 16" xml:space="preserve">
<g>
	<g>
		<path d="M3.349,15.096c-0.104,0-0.207-0.032-0.295-0.096c-0.153-0.112-0.23-0.302-0.198-0.489L3.69,9.672L0.152,6.243
			C0.016,6.11-0.034,5.911,0.024,5.729C0.083,5.549,0.24,5.416,0.429,5.389l4.893-0.706l2.186-4.405
			c0.169-0.339,0.726-0.341,0.896,0l2.188,4.405l4.892,0.706c0.188,0.027,0.346,0.16,0.404,0.341
			c0.059,0.182,0.01,0.381-0.128,0.514l-3.537,3.428l0.835,4.84c0.032,0.188-0.045,0.377-0.198,0.489
			c-0.154,0.112-0.357,0.127-0.526,0.039l-4.377-2.286L3.58,15.039C3.508,15.077,3.428,15.096,3.349,15.096z M7.955,11.688
			c0.079,0,0.159,0.019,0.231,0.057l3.712,1.939L11.19,9.581c-0.027-0.163,0.026-0.329,0.146-0.444l2.996-2.903l-4.144-0.599
			c-0.163-0.023-0.304-0.126-0.377-0.272L7.955,1.624L6.101,5.362C6.027,5.509,5.887,5.611,5.724,5.635L1.579,6.233l2.997,2.903
			c0.119,0.115,0.173,0.281,0.146,0.444l-0.708,4.104l3.71-1.939C7.796,11.707,7.876,11.688,7.955,11.688z"/>
	</g>
</g>
</svg>
