<svg baseProfile="tiny" xmlns="http://www.w3.org/2000/svg" viewBox="0 0 16 16"><path d="M3.349 15.096a.5.5 0 0 1-.493-.585l.834-4.839L.152 6.243a.505.505 0 0 1-.128-.514.502.502 0 0 1 .405-.34l4.893-.706L7.508.278c.169-.339.726-.341.896 0l2.188 4.405 4.892.706a.5.5 0 0 1 .276.855l-3.537 3.428.835 4.84a.501.501 0 0 1-.724.528l-4.377-2.286-4.377 2.285a.496.496 0 0 1-.231.057zm4.606-3.408c.079 0 .159.019.231.057l3.712 1.939-.708-4.103a.5.5 0 0 1 .146-.444l2.996-2.903-4.144-.599a.501.501 0 0 1-.377-.272L7.955 1.624 6.101 5.362a.504.504 0 0 1-.377.273l-4.145.598 2.997 2.903a.503.503 0 0 1 .146.444l-.708 4.104 3.71-1.939a.496.496 0 0 1 .231-.057z"/></svg>