<?xml version="1.0" encoding="utf-8"?>
<!-- Generator: Adobe Illustrator 19.1.0, SVG Export Plug-In . SVG Version: 6.00 Build 0)  -->
<!DOCTYPE svg PUBLIC "-//W3C//DTD SVG 1.1 Tiny//EN" "http://www.w3.org/Graphics/SVG/1.1/DTD/svg11-tiny.dtd">
<svg version="1.1" baseProfile="tiny" id="Layer_1" xmlns="http://www.w3.org/2000/svg" xmlns:xlink="http://www.w3.org/1999/xlink"
	 x="0px" y="0px" viewBox="0 0 16 16" xml:space="preserve">
<g>
	<path d="M3.3,15.1c-0.1,0-0.2,0-0.3-0.1c-0.2-0.1-0.2-0.3-0.2-0.5l0.8-4.8L0.2,6.2C0,6.1,0,5.9,0,5.7c0.1-0.2,0.2-0.3,0.4-0.3
		l4.9-0.7l2.2-4.4c0.2-0.3,0.7-0.3,0.9,0l2.2,4.4l4.9,0.7c0.2,0,0.3,0.2,0.4,0.3c0.1,0.2,0,0.4-0.1,0.5l-3.5,3.4l0.8,4.8
		c0,0.2,0,0.4-0.2,0.5c-0.2,0.1-0.4,0.1-0.5,0L8,12.8L3.6,15C3.5,15.1,3.4,15.1,3.3,15.1z M8,11.7c0.1,0,0.2,0,0.2,0.1l3.7,1.9
		l-0.7-4.1c0-0.2,0-0.3,0.1-0.4l3-2.9l-4.1-0.6c-0.2,0-0.3-0.1-0.4-0.3L8,1.6L6.1,5.4C6,5.5,5.9,5.6,5.7,5.6L1.6,6.2l3,2.9
		c0.1,0.1,0.2,0.3,0.1,0.4L4,13.7l3.7-1.9C7.8,11.7,7.9,11.7,8,11.7z"/>
</g>
</svg>
