<?xml version="1.0" encoding="utf-8"?>
<!-- Generator: Adobe Illustrator 19.1.0, SVG Export Plug-In . SVG Version: 6.00 Build 0)  -->
<!DOCTYPE svg PUBLIC "-//W3C//DTD SVG 1.1 Tiny//EN" "http://www.w3.org/Graphics/SVG/1.1/DTD/svg11-tiny.dtd">
<svg version="1.1" baseProfile="tiny" id="Layer_1" xmlns="http://www.w3.org/2000/svg" xmlns:xlink="http://www.w3.org/1999/xlink"
	 x="0px" y="0px" viewBox="0 0 16 16" xml:space="preserve">
<g>
	<g>
		<path d="M12.6,15c-0.1,0-0.1,0-0.2,0L8,12.6l-4.4,2.3c-0.1,0.1-0.3,0.1-0.4,0C3,14.8,3,14.7,3,14.5l0.8-4.9L0.2,6.2
			C0.1,6.1,0.1,5.9,0.1,5.8c0-0.1,0.2-0.2,0.3-0.3l5-0.7l2.2-4.5c0.1-0.3,0.5-0.3,0.7,0l2.2,4.5l5,0.7c0.1,0,0.3,0.1,0.3,0.3
			c0,0.1,0,0.3-0.1,0.4l-3.6,3.5l0.8,4.9c0,0.1,0,0.3-0.1,0.4C12.7,14.9,12.6,15,12.6,15z M8,11.8c0.1,0,0.1,0,0.2,0l3.9,2.1
			l-0.8-4.4c0-0.1,0-0.2,0.1-0.3l3.2-3.1l-4.4-0.6c-0.1,0-0.2-0.1-0.3-0.2l-2-4l-2,4C5.9,5.4,5.8,5.5,5.7,5.5L1.3,6.1l3.2,3.1
			c0.1,0.1,0.1,0.2,0.1,0.3l-0.8,4.4l3.9-2.1C7.8,11.8,7.9,11.8,8,11.8z"/>
	</g>
</g>
</svg>
