<?xml version="1.0" encoding="iso-8859-1"?>
<!-- Generator: Adobe Illustrator 19.1.0, SVG Export Plug-In . SVG Version: 6.00 Build 0)  -->
<!DOCTYPE svg PUBLIC "-//W3C//DTD SVG 1.1 Tiny//EN" "http://www.w3.org/Graphics/SVG/1.1/DTD/svg11-tiny.dtd">
<svg version="1.1" baseProfile="tiny" id="Layer_1" xmlns="http://www.w3.org/2000/svg" xmlns:xlink="http://www.w3.org/1999/xlink"
	 x="0px" y="0px" viewBox="0 0 16 16" xml:space="preserve">
<g id="XMLID_72_">
	<path d="M7.72,13.843c-1.558,0-3.024-0.593-4.15-1.683c-0.198-0.192-0.204-0.509-0.012-0.707c0.193-0.198,0.51-0.203,0.707-0.012
		c0.982,0.951,2.283,1.457,3.644,1.397c1.4-0.051,2.726-0.691,3.635-1.756c0.661-0.774,1.058-1.725,1.16-2.753l-1.143,1.306
		c-0.182,0.21-0.498,0.229-0.705,0.047c-0.208-0.182-0.229-0.497-0.047-0.705l2.018-2.307c0.102-0.117,0.253-0.185,0.408-0.17
		c0.156,0.011,0.298,0.092,0.384,0.222l1.729,2.595c0.153,0.229,0.091,0.54-0.139,0.693c-0.229,0.151-0.539,0.092-0.693-0.139
		l-0.838-1.257c-0.15,1.159-0.618,2.231-1.374,3.117c-1.091,1.276-2.68,2.044-4.358,2.106C7.87,13.841,7.795,13.843,7.72,13.843z"/>
</g>
<g id="XMLID_70_">
	<path d="M2.729,9C2.719,9,2.708,9,2.696,8.999C2.541,8.988,2.399,8.907,2.313,8.777L0.584,6.183
		c-0.153-0.229-0.091-0.54,0.139-0.693C0.95,5.336,1.261,5.397,1.416,5.628l0.839,1.258c0.149-1.159,0.617-2.232,1.373-3.117
		c1.09-1.277,2.679-2.045,4.358-2.107c1.713-0.047,3.349,0.605,4.528,1.83c0.191,0.199,0.186,0.516-0.014,0.707
		c-0.197,0.19-0.514,0.188-0.707-0.014C10.812,3.164,9.44,2.594,8.023,2.661C6.622,2.712,5.298,3.353,4.389,4.418
		C3.728,5.191,3.332,6.142,3.229,7.17l1.143-1.306c0.182-0.209,0.499-0.228,0.705-0.047c0.208,0.182,0.229,0.497,0.047,0.705
		L3.105,8.829C3.011,8.938,2.873,9,2.729,9z"/>
</g>
</svg>
