<svg baseProfile="tiny" xmlns="http://www.w3.org/2000/svg" viewBox="0 0 16 16"><path d="M8.212 13.843a5.922 5.922 0 0 0 4.15-1.683.5.5 0 0 0-.695-.719 4.905 4.905 0 0 1-3.644 1.397 5.033 5.033 0 0 1-3.635-1.756 4.962 4.962 0 0 1-1.16-2.753l1.143 1.306a.499.499 0 1 0 .752-.658L3.105 6.671a.5.5 0 0 0-.792.052L.584 9.317a.5.5 0 1 0 .832.554l.838-1.257a5.944 5.944 0 0 0 1.374 3.117 6.044 6.044 0 0 0 4.584 2.112zM13.202 9l.033-.001a.5.5 0 0 0 .383-.222l1.729-2.595a.5.5 0 1 0-.832-.554l-.839 1.258a5.932 5.932 0 0 0-1.373-3.117 6.038 6.038 0 0 0-4.358-2.107c-1.713-.047-3.349.605-4.528 1.83a.499.499 0 1 0 .721.692 4.926 4.926 0 0 1 3.77-1.523 5.029 5.029 0 0 1 3.635 1.757 4.955 4.955 0 0 1 1.159 2.752L11.56 5.864a.5.5 0 1 0-.752.658l2.019 2.307a.496.496 0 0 0 .375.171z"/></svg>