<?xml version="1.0" encoding="iso-8859-1"?>
<!-- Generator: Adobe Illustrator 19.2.0, SVG Export Plug-In . SVG Version: 6.00 Build 0)  -->
<svg version="1.1" baseProfile="tiny" xmlns="http://www.w3.org/2000/svg" xmlns:xlink="http://www.w3.org/1999/xlink" x="0px"
	 y="0px" viewBox="0 0 16 16" xml:space="preserve">
<g id="Layer_1">
	<path d="M12.397,16H3.603C2.719,16,2,15.258,2,14.346V1.654C2,0.742,2.719,0,3.603,0h8.795C13.281,0,14,0.742,14,1.654v12.691
		C14,15.258,13.281,16,12.397,16z M3.603,1C3.271,1,3,1.294,3,1.654v12.691C3,14.706,3.271,15,3.603,15h8.795
		C12.729,15,13,14.706,13,14.346V1.654C13,1.294,12.729,1,12.397,1H3.603z"/>
	<path d="M10.858,14h-5.65C4.542,14,4,13.396,4,12.654V3.346C4,2.604,4.542,2,5.208,2h5.65C11.524,2,12,2.604,12,3.346v9.309
		C12,13.396,11.524,14,10.858,14z M5.208,3C5.111,3,5,3.151,5,3.346v9.309C5,12.849,5.111,13,5.208,13h5.65
		C10.955,13,11,12.849,11,12.654V3.346C11,3.151,10.955,3,10.858,3H5.208z"/>
	<path d="M8,13.5c-0.553,0-1,0.447-1,1s0.447,1,1,1s1-0.447,1-1S8.553,13.5,8,13.5L8,13.5z"/>
</g>
<g id="Layer_2">
</g>
<g id="Layer_3">
</g>
</svg>
