<?xml version="1.0" encoding="iso-8859-1"?>
<!-- Generator: Adobe Illustrator 19.1.0, SVG Export Plug-In . SVG Version: 6.00 Build 0)  -->
<!DOCTYPE svg PUBLIC "-//W3C//DTD SVG 1.1 Tiny//EN" "http://www.w3.org/Graphics/SVG/1.1/DTD/svg11-tiny.dtd">
<svg version="1.1" baseProfile="tiny" xmlns="http://www.w3.org/2000/svg" xmlns:xlink="http://www.w3.org/1999/xlink" x="0px"
	 y="0px" viewBox="0 0 16 16" xml:space="preserve">
<g id="Layer_1">
	<g id="XMLID_426_">
		<path d="M9.63,16c-0.133,0-0.26-0.053-0.354-0.146l-9.13-9.131C0.053,6.629,0,6.502,0,6.369V1.805c0-0.276,0.224-0.5,0.5-0.5
			h4.565c0.133,0,0.26,0.053,0.354,0.146l9.13,9.13c0.094,0.094,0.146,0.221,0.146,0.354s-0.053,0.26-0.146,0.354l-4.565,4.565
			C9.89,15.947,9.763,16,9.63,16z M1,6.162l8.63,8.631l3.858-3.858l-8.63-8.63H1V6.162z"/>
		<path d="M3.435,6.218c-0.815,0-1.478-0.663-1.478-1.479S2.62,3.261,3.435,3.261c0.815,0,1.479,0.663,1.479,1.479
			S4.25,6.218,3.435,6.218z M3.435,4.261c-0.264,0-0.478,0.215-0.478,0.479s0.214,0.479,0.478,0.479s0.479-0.215,0.479-0.479
			S3.698,4.261,3.435,4.261z"/>
	</g>
</g>
<g id="Layer_2">
</g>
<g id="Layer_3">
</g>
</svg>
