<?xml version="1.0" encoding="utf-8"?>
<!-- Generator: Adobe Illustrator 19.1.0, SVG Export Plug-In . SVG Version: 6.00 Build 0)  -->
<!DOCTYPE svg PUBLIC "-//W3C//DTD SVG 1.1 Tiny//EN" "http://www.w3.org/Graphics/SVG/1.1/DTD/svg11-tiny.dtd">
<svg version="1.1" baseProfile="tiny" id="Layer_1" xmlns="http://www.w3.org/2000/svg" xmlns:xlink="http://www.w3.org/1999/xlink"
	 x="0px" y="0px" viewBox="0 0 16 16" xml:space="preserve">
<g id="XMLID_83_">
	<path d="M13,15.9H4c-0.2,0-0.4-0.2-0.4-0.4l-0.5-12c0-0.1,0-0.2,0.1-0.3s0.2-0.1,0.3-0.1h10c0.1,0,0.2,0,0.3,0.1s0.1,0.2,0.1,0.3
		l-0.5,12C13.4,15.7,13.3,15.9,13,15.9z M4.3,15.1h8.3l0.4-11.2H3.9L4.3,15.1z"/>
</g>
<g id="XMLID_82_">
	<path d="M10.5,3.9h-4c-0.2,0-0.4-0.2-0.4-0.4v-2c0-0.2,0.2-0.4,0.4-0.4h4c0.2,0,0.4,0.2,0.4,0.4v2C10.9,3.7,10.7,3.9,10.5,3.9z
		 M6.9,3.1h3.2V1.9H6.9V3.1z"/>
</g>
<g id="XMLID_81_">
	<path d="M15,3.9H2c-0.2,0-0.4-0.2-0.4-0.4S1.8,3.1,2,3.1h13c0.2,0,0.4,0.2,0.4,0.4S15.2,3.9,15,3.9z"/>
</g>
<g id="XMLID_80_">
	<path d="M6.5,13.4c-0.2,0-0.4-0.2-0.4-0.4V6c0-0.2,0.2-0.4,0.4-0.4S6.9,5.8,6.9,6v7C6.9,13.2,6.7,13.4,6.5,13.4z"/>
</g>
<g id="XMLID_78_">
	<path d="M8.5,13.4c-0.2,0-0.4-0.2-0.4-0.4V6c0-0.2,0.2-0.4,0.4-0.4S8.9,5.8,8.9,6v7C8.9,13.2,8.7,13.4,8.5,13.4z"/>
</g>
<g id="XMLID_77_">
	<path d="M10.5,13.4c-0.2,0-0.4-0.2-0.4-0.4V6c0-0.2,0.2-0.4,0.4-0.4s0.4,0.2,0.4,0.4v7C10.9,13.2,10.7,13.4,10.5,13.4z"/>
</g>
</svg>
