<?xml version="1.0" encoding="utf-8"?>
<!-- Generator: Adobe Illustrator 19.1.0, SVG Export Plug-In . SVG Version: 6.00 Build 0)  -->
<!DOCTYPE svg PUBLIC "-//W3C//DTD SVG 1.1 Tiny//EN" "http://www.w3.org/Graphics/SVG/1.1/DTD/svg11-tiny.dtd">
<svg version="1.1" baseProfile="tiny" id="Layer_1" xmlns="http://www.w3.org/2000/svg" xmlns:xlink="http://www.w3.org/1999/xlink"
	 x="0px" y="0px" viewBox="0 0 16 16" xml:space="preserve">
<path d="M13,16H4c-0.3,0-0.5-0.2-0.5-0.5L3,3.5c0-0.1,0-0.3,0.1-0.4C3.2,3.1,3.4,3,3.5,3h10c0.1,0,0.3,0.1,0.4,0.2
	C14,3.3,14,3.4,14,3.5l-0.5,12C13.5,15.8,13.3,16,13,16z M4.4,15h8.1L13,4H4L4.4,15z"/>
<path d="M10.5,4h-4C6.2,4,6,3.8,6,3.5v-2C6,1.2,6.2,1,6.5,1h4C10.8,1,11,1.2,11,1.5v2C11,3.8,10.8,4,10.5,4z M7,3h3V2H7V3z"/>
<path d="M15,4H2C1.7,4,1.5,3.8,1.5,3.5S1.7,3,2,3h13c0.3,0,0.5,0.2,0.5,0.5S15.3,4,15,4z"/>
<path d="M6.5,13.5C6.2,13.5,6,13.3,6,13V6c0-0.3,0.2-0.5,0.5-0.5S7,5.7,7,6v7C7,13.3,6.8,13.5,6.5,13.5z"/>
<path d="M8.5,13.5C8.2,13.5,8,13.3,8,13V6c0-0.3,0.2-0.5,0.5-0.5S9,5.7,9,6v7C9,13.3,8.8,13.5,8.5,13.5z"/>
<path d="M10.5,13.5c-0.3,0-0.5-0.2-0.5-0.5V6c0-0.3,0.2-0.5,0.5-0.5S11,5.7,11,6v7C11,13.3,10.8,13.5,10.5,13.5z"/>
</svg>
