<svg baseProfile="tiny" xmlns="http://www.w3.org/2000/svg" viewBox="0 0 16 16"><path d="M13.046 16H3.954a.501.501 0 0 1-.5-.481L3 3.519A.503.503 0 0 1 3.5 3h10a.502.502 0 0 1 .5.518l-.454 12a.502.502 0 0 1-.5.482zm-8.61-1h8.129l.415-11H4.02l.416 11z"/><path d="M10.5 4h-4a.5.5 0 0 1-.5-.5v-2a.5.5 0 0 1 .5-.5h4a.5.5 0 0 1 .5.5v2a.5.5 0 0 1-.5.5zM7 3h3V2H7v1z"/><path d="M15 4H2a.5.5 0 0 1 0-1h13a.5.5 0 0 1 0 1zM6.5 13.5A.5.5 0 0 1 6 13V6a.5.5 0 0 1 1 0v7a.5.5 0 0 1-.5.5zM8.5 13.5A.5.5 0 0 1 8 13V6a.5.5 0 0 1 1 0v7a.5.5 0 0 1-.5.5zM10.5 13.5a.5.5 0 0 1-.5-.5V6a.5.5 0 0 1 1 0v7a.5.5 0 0 1-.5.5z"/></svg>