<?xml version="1.0" encoding="utf-8"?>
<!-- Generator: Adobe Illustrator 19.1.0, SVG Export Plug-In . SVG Version: 6.00 Build 0)  -->
<!DOCTYPE svg PUBLIC "-//W3C//DTD SVG 1.1 Tiny//EN" "http://www.w3.org/Graphics/SVG/1.1/DTD/svg11-tiny.dtd">
<svg version="1.1" baseProfile="tiny" id="Layer_1" xmlns="http://www.w3.org/2000/svg" xmlns:xlink="http://www.w3.org/1999/xlink"
	 x="0px" y="0px" viewBox="0 0 16 16" xml:space="preserve">
<path d="M11.3,15H9c-0.3,0-0.5-0.2-0.5-0.5S8.7,14,9,14h2.3c2,0,3.7-1.9,3.7-4s-1.7-4-3.7-4H1C0.7,6,0.5,5.8,0.5,5.5S0.7,5,1,5h10.3
	c2.5,0,4.7,2.3,4.7,5S13.8,15,11.3,15z"/>
<path d="M3.7,9.3c-0.1,0-0.3,0-0.4-0.1L0.1,5.9C0,5.7,0,5.4,0.1,5.2L3.4,2c0.2-0.2,0.5-0.2,0.7,0s0.2,0.5,0,0.7L1.2,5.5l2.9,2.9
	c0.2,0.2,0.2,0.5,0,0.7C4,9.2,3.8,9.3,3.7,9.3z"/>
</svg>
