<?xml version="1.0" encoding="iso-8859-1"?>
<!-- Generator: Adobe Illustrator 19.1.0, SVG Export Plug-In . SVG Version: 6.00 Build 0)  -->
<!DOCTYPE svg PUBLIC "-//W3C//DTD SVG 1.1 Tiny//EN" "http://www.w3.org/Graphics/SVG/1.1/DTD/svg11-tiny.dtd">
<svg version="1.1" baseProfile="tiny" xmlns="http://www.w3.org/2000/svg" xmlns:xlink="http://www.w3.org/1999/xlink" x="0px"
	 y="0px" viewBox="0 0 16 16" xml:space="preserve">
<g id="Layer_1">
	<path d="M11.322,15H9c-0.276,0-0.5-0.224-0.5-0.5S8.724,14,9,14h2.322C13.281,14,15,12.131,15,10s-1.719-4-3.678-4H1
		C0.724,6,0.5,5.776,0.5,5.5S0.724,5,1,5h10.322C13.814,5,16,7.337,16,10S13.814,15,11.322,15z"/>
	<path d="M3.713,9.257c-0.128,0-0.256-0.049-0.354-0.146L0.146,5.896c-0.195-0.195-0.195-0.512,0-0.707l3.213-3.213
		c0.195-0.195,0.512-0.195,0.707,0s0.195,0.512,0,0.707L1.207,5.543l2.859,2.86c0.195,0.195,0.195,0.512,0,0.707
		C3.969,9.208,3.841,9.257,3.713,9.257z"/>
</g>
<g id="Layer_2">
</g>
<g id="Layer_3">
</g>
</svg>
