<?xml version="1.0" encoding="utf-8"?>
<!-- Generator: Adobe Illustrator 19.1.0, SVG Export Plug-In . SVG Version: 6.00 Build 0)  -->
<!DOCTYPE svg PUBLIC "-//W3C//DTD SVG 1.1 Tiny//EN" "http://www.w3.org/Graphics/SVG/1.1/DTD/svg11-tiny.dtd">
<svg version="1.1" baseProfile="tiny" id="Layer_1" xmlns="http://www.w3.org/2000/svg" xmlns:xlink="http://www.w3.org/1999/xlink"
	 x="0px" y="0px" viewBox="0 0 16 16" xml:space="preserve">
<path d="M7.5,14.5C7.2,14.5,7,14.3,7,14V4c0-0.3,0.2-0.5,0.5-0.5S8,3.7,8,4v10C8,14.3,7.8,14.5,7.5,14.5z"/>
<path d="M10,7.6c-0.1,0-0.3-0.1-0.4-0.2L7.5,4.8L5.4,7.4C5.2,7.7,4.9,7.7,4.7,7.5C4.5,7.3,4.4,7,4.6,6.8l2.5-3.1
	c0.2-0.2,0.6-0.2,0.8,0l2.5,3.1c0.2,0.2,0.1,0.5-0.1,0.7C10.2,7.6,10.1,7.6,10,7.6z"/>
<path d="M12.5,11H10c-0.3,0-0.5-0.2-0.5-0.5S9.7,10,10,10h2V1H3v9h2c0.3,0,0.5,0.2,0.5,0.5S5.3,11,5,11H2.5C2.2,11,2,10.8,2,10.5
	v-10C2,0.2,2.2,0,2.5,0h10C12.8,0,13,0.2,13,0.5v10C13,10.8,12.8,11,12.5,11z"/>
</svg>
