<?xml version="1.0" encoding="iso-8859-1"?>
<!-- Generator: Adobe Illustrator 19.2.0, SVG Export Plug-In . SVG Version: 6.00 Build 0)  -->
<svg version="1.1" baseProfile="tiny" xmlns="http://www.w3.org/2000/svg" xmlns:xlink="http://www.w3.org/1999/xlink" x="0px"
	 y="0px" viewBox="0 0 16 16" xml:space="preserve">
<g id="Layer_1">
	<path d="M7.5,14.5C7.224,14.5,7,14.276,7,14V4c0-0.276,0.224-0.5,0.5-0.5S8,3.724,8,4v10C8,14.276,7.776,14.5,7.5,14.5z"/>
	<path d="M10,7.625c-0.146,0-0.292-0.064-0.391-0.188L7.5,4.801L5.391,7.438C5.219,7.653,4.903,7.687,4.687,7.516
		c-0.216-0.173-0.25-0.487-0.078-0.703l2.5-3.125c0.189-0.236,0.592-0.236,0.781,0l2.5,3.125c0.172,0.216,0.138,0.53-0.078,0.703
		C10.22,7.589,10.109,7.625,10,7.625z"/>
	<path d="M12.5,11H10c-0.276,0-0.5-0.224-0.5-0.5S9.724,10,10,10h2V1H3v9h2c0.276,0,0.5,0.224,0.5,0.5S5.276,11,5,11H2.5
		C2.224,11,2,10.776,2,10.5v-10C2,0.224,2.224,0,2.5,0h10C12.776,0,13,0.224,13,0.5v10C13,10.776,12.776,11,12.5,11z"/>
</g>
<g id="Layer_2">
</g>
<g id="Layer_3">
</g>
</svg>
