<?xml version="1.0" encoding="utf-8"?>
<!-- Generator: Adobe Illustrator 19.1.0, SVG Export Plug-In . SVG Version: 6.00 Build 0)  -->
<!DOCTYPE svg PUBLIC "-//W3C//DTD SVG 1.1 Tiny//EN" "http://www.w3.org/Graphics/SVG/1.1/DTD/svg11-tiny.dtd">
<svg version="1.1" baseProfile="tiny" id="Layer_1" xmlns="http://www.w3.org/2000/svg" xmlns:xlink="http://www.w3.org/1999/xlink"
	 x="0px" y="0px" viewBox="0 0 16 16" xml:space="preserve">
<path d="M1.1,14.1c-0.1,0-0.1,0-0.2,0c-0.7-0.3-0.3-1.9-0.3-1.9C0.7,11.8,1,11.7,2,11.4c0.4-0.1,1.1-0.3,1.2-0.5
	c0.1-0.1,0.2-0.6,0.2-1c0-0.3,0.3-0.5,0.5-0.5c0.3,0,0.5,0.2,0.5,0.5c0,0.3-0.1,1.2-0.5,1.6c-0.2,0.2-0.7,0.4-1.6,0.7
	c-0.2,0.1-0.6,0.2-0.8,0.3c0,0.1,0,0.3,0,0.5l7.2,0c0-0.1,0-0.3,0-0.4c-0.2-0.1-0.5-0.2-0.8-0.3c-1-0.3-1.5-0.5-1.7-0.7
	c-0.4-0.5-0.4-1.4-0.4-1.6c0-0.3,0.3-0.5,0.5-0.5c0.3,0,0.5,0.3,0.5,0.5c0,0.3,0,0.8,0.1,0.9c0.1,0.1,0.9,0.3,1.3,0.5
	c0.9,0.3,1.2,0.4,1.3,0.6c0.2,0.3,0.3,1.6-0.1,1.9c-0.1,0.1-0.2,0.2-0.4,0.2L1.1,14.1C1.1,14.1,1.1,14.1,1.1,14.1z"/>
<path d="M5.1,10.8c-1.1,0-2-0.9-2.7-2.6C2.1,7.8,2,6.8,2,5.5C2,3.6,3.4,2,5.1,2c1.7,0,3,1.5,3,3.5c0,0.6,0,2.2-0.3,2.8
	C7.1,9.9,6.1,10.8,5.1,10.8z M5.1,3C3.9,3,3,4.1,3,5.5c0,1.4,0.2,2.2,0.2,2.4c0.6,1.4,1.3,1.9,1.8,1.9c0.4,0,1.2-0.5,1.8-2
	C7,7.6,7.1,6.7,7.1,5.5C7.1,4.1,6.2,3,5.1,3z"/>
<path d="M15.5,3H10C9.7,3,9.5,2.8,9.5,2.5S9.7,2,10,2h5.5C15.8,2,16,2.2,16,2.5S15.8,3,15.5,3z"/>
<path d="M15.5,5H10C9.7,5,9.5,4.8,9.5,4.5S9.7,4,10,4h5.5C15.8,4,16,4.2,16,4.5S15.8,5,15.5,5z"/>
<path d="M15.5,7H10C9.7,7,9.5,6.8,9.5,6.5S9.7,6,10,6h5.5C15.8,6,16,6.2,16,6.5S15.8,7,15.5,7z"/>
<path d="M15.5,9h-4C11.2,9,11,8.8,11,8.5S11.2,8,11.5,8h4C15.8,8,16,8.2,16,8.5S15.8,9,15.5,9z"/>
</svg>
