<svg baseProfile="tiny" xmlns="http://www.w3.org/2000/svg" viewBox="0 0 16 16"><path d="M1.089 14.087a.496.496 0 0 1-.19-.038c-.683-.28-.311-1.852-.307-1.867.101-.367.455-.479 1.399-.781.397-.126 1.062-.339 1.204-.45.088-.092.202-.571.221-.975.013-.276.27-.506.523-.475a.5.5 0 0 1 .476.523c-.013.271-.089 1.193-.514 1.633-.231.239-.689.403-1.606.696-.241.077-.577.185-.765.26a5.293 5.293 0 0 0-.029.473l7.249-.014a4.58 4.58 0 0 0-.01-.447c-.19-.072-.524-.178-.785-.259-.995-.311-1.489-.484-1.721-.728-.432-.455-.385-1.362-.36-1.63a.5.5 0 0 1 .995.092c-.03.335.015.757.091.853.132.097.859.324 1.292.46.893.278 1.183.378 1.338.602.188.271.265 1.562-.066 1.905a.5.5 0 0 1-.359.152l-8.076.015z"/><path d="M5.067 10.837c-1.056 0-2.048-.935-2.723-2.563-.197-.478-.315-1.511-.315-2.764C2.029 3.574 3.392 2 5.067 2c1.704 0 3.039 1.519 3.039 3.457 0 .626-.031 2.153-.319 2.817-.707 1.629-1.698 2.563-2.72 2.563zm0-7.837C3.943 3 3.029 4.126 3.029 5.51c0 1.423.151 2.166.24 2.381.595 1.437 1.341 1.946 1.799 1.946.439 0 1.174-.514 1.802-1.961.114-.263.236-1.131.236-2.419C7.106 4.079 6.21 3 5.067 3zM15.5 3H10a.5.5 0 0 1 0-1h5.5a.5.5 0 0 1 0 1zM15.5 5H10a.5.5 0 0 1 0-1h5.5a.5.5 0 0 1 0 1zM15.5 7H10a.5.5 0 0 1 0-1h5.5a.5.5 0 0 1 0 1zM15.5 9h-4a.5.5 0 0 1 0-1h4a.5.5 0 0 1 0 1z"/></svg>