<?xml version="1.0" encoding="iso-8859-1"?>
<!-- Generator: Adobe Illustrator 19.1.0, SVG Export Plug-In . SVG Version: 6.00 Build 0)  -->
<!DOCTYPE svg PUBLIC "-//W3C//DTD SVG 1.1 Tiny//EN" "http://www.w3.org/Graphics/SVG/1.1/DTD/svg11-tiny.dtd">
<svg version="1.1" baseProfile="tiny" id="Layer_1" xmlns="http://www.w3.org/2000/svg" xmlns:xlink="http://www.w3.org/1999/xlink"
	 x="0px" y="0px" viewBox="0 0 16 16" xml:space="preserve">
<g id="XMLID_3_">
	<path d="M1.089,14.087c-0.065,0-0.13-0.013-0.19-0.038c-0.683-0.28-0.311-1.852-0.307-1.867c0.101-0.367,0.455-0.479,1.399-0.781
		c0.397-0.126,1.062-0.339,1.204-0.45c0.088-0.092,0.202-0.571,0.221-0.975C3.429,9.7,3.686,9.47,3.939,9.501
		c0.276,0.013,0.489,0.247,0.476,0.523c-0.013,0.271-0.089,1.193-0.514,1.633c-0.231,0.239-0.689,0.403-1.606,0.696
		c-0.241,0.077-0.577,0.185-0.765,0.26c-0.015,0.136-0.027,0.318-0.029,0.473l7.249-0.014c0.004-0.149,0-0.322-0.01-0.447
		c-0.19-0.072-0.524-0.178-0.785-0.259c-0.995-0.311-1.489-0.484-1.721-0.728c-0.432-0.455-0.385-1.362-0.36-1.63
		c0.025-0.274,0.279-0.481,0.543-0.451C6.691,9.582,6.894,9.825,6.869,10.1c-0.03,0.335,0.015,0.757,0.091,0.853
		c0.132,0.097,0.859,0.324,1.292,0.46c0.893,0.278,1.183,0.378,1.338,0.602c0.188,0.271,0.265,1.562-0.066,1.905
		c-0.094,0.097-0.224,0.152-0.359,0.152L1.089,14.087C1.089,14.087,1.089,14.087,1.089,14.087z"/>
</g>
<g id="XMLID_93_">
	<path d="M5.067,10.837c-1.056,0-2.048-0.935-2.723-2.563C2.147,7.796,2.029,6.763,2.029,5.51C2.029,3.574,3.392,2,5.067,2
		c1.704,0,3.039,1.519,3.039,3.457c0,0.626-0.031,2.153-0.319,2.817C7.08,9.903,6.089,10.837,5.067,10.837z M5.067,3
		C3.943,3,3.029,4.126,3.029,5.51c0,1.423,0.151,2.166,0.24,2.381c0.595,1.437,1.341,1.946,1.799,1.946
		c0.439,0,1.174-0.514,1.802-1.961c0.114-0.263,0.236-1.131,0.236-2.419C7.106,4.079,6.21,3,5.067,3z"/>
</g>
<g>
	<path d="M15.5,3H10C9.724,3,9.5,2.776,9.5,2.5S9.724,2,10,2h5.5C15.776,2,16,2.224,16,2.5S15.776,3,15.5,3z"/>
</g>
<g>
	<path d="M15.5,5H10C9.724,5,9.5,4.776,9.5,4.5S9.724,4,10,4h5.5C15.776,4,16,4.224,16,4.5S15.776,5,15.5,5z"/>
</g>
<g>
	<path d="M15.5,7H10C9.724,7,9.5,6.776,9.5,6.5S9.724,6,10,6h5.5C15.776,6,16,6.224,16,6.5S15.776,7,15.5,7z"/>
</g>
<g>
	<path d="M15.5,9h-4C11.224,9,11,8.776,11,8.5S11.224,8,11.5,8h4C15.776,8,16,8.224,16,8.5S15.776,9,15.5,9z"/>
</g>
</svg>
