<?xml version="1.0" encoding="utf-8"?>
<!-- Generator: Adobe Illustrator 19.1.0, SVG Export Plug-In . SVG Version: 6.00 Build 0)  -->
<!DOCTYPE svg PUBLIC "-//W3C//DTD SVG 1.1 Tiny//EN" "http://www.w3.org/Graphics/SVG/1.1/DTD/svg11-tiny.dtd">
<svg version="1.1" baseProfile="tiny" id="Layer_1" xmlns="http://www.w3.org/2000/svg" xmlns:xlink="http://www.w3.org/1999/xlink"
	 x="0px" y="0px" viewBox="0 0 16 16" xml:space="preserve">
<g id="XMLID_86_">
	<g id="XMLID_97_">
		<path d="M8.7,14.2c-0.3,0-0.6,0-1,0c-0.6,0-1.4,0-2.4,0l-2.1,0c-1.9,0-2.2,0-2.4-0.1c-0.7-0.3-0.3-1.9-0.3-1.9
			c0.1-0.4,0.5-0.5,1.4-0.8c0.4-0.1,1.1-0.4,1.3-0.5c0.1-0.1,0.3-0.7,0.3-1.1c0-0.3,0.3-0.5,0.6-0.4c0.3,0,0.5,0.3,0.4,0.6
			c0,0.3-0.2,1.2-0.6,1.7c-0.3,0.3-0.8,0.4-1.7,0.7c-0.3,0.1-0.6,0.2-0.8,0.3c0,0.2,0,0.4,0,0.6c0.3,0,1,0,1.8,0l2.1,0
			c1,0,1.8,0,2.4,0c0.6,0,1.1,0,1.4,0c0-0.2,0-0.4,0-0.6c-0.2-0.1-0.6-0.2-0.8-0.3c-1-0.3-1.6-0.5-1.8-0.8C6.1,11.1,6,10.1,6,9.8
			c0-0.3,0.2-0.5,0.5-0.5C6.8,9.3,7,9.5,7,9.8c0,0.5,0.1,1,0.2,1.1c0.1,0.1,0.9,0.3,1.4,0.5c0.9,0.3,1.2,0.4,1.4,0.6
			c0.2,0.3,0.2,1.6-0.1,2C9.7,14.1,9.6,14.2,8.7,14.2z"/>
	</g>
	<g id="XMLID_96_">
		<path d="M5.3,10.7c-1.1,0-2.2-1-2.9-2.7C2.2,7.5,2.1,6.5,2.1,5.2c0-2,1.4-3.7,3.2-3.7c1.8,0,3.2,1.6,3.2,3.6c0,0.7,0,2.3-0.3,2.9
			C7.4,9.7,6.4,10.7,5.3,10.7z M5.3,2.5c-1.2,0-2.2,1.2-2.2,2.7c0,1.3,0.1,2.2,0.3,2.5c0.6,1.5,1.4,2.1,2,2.1c0.5,0,1.3-0.5,2-2.1
			c0.1-0.3,0.3-1.2,0.3-2.5C7.5,3.6,6.6,2.5,5.3,2.5z"/>
	</g>
</g>
<g>
	<path d="M14.5,3h-4C10.2,3,10,2.8,10,2.5S10.2,2,10.5,2h4C14.8,2,15,2.2,15,2.5S14.8,3,14.5,3z"/>
</g>
<g>
	<path d="M14.5,5h-4C10.2,5,10,4.8,10,4.5S10.2,4,10.5,4h4C14.8,4,15,4.2,15,4.5S14.8,5,14.5,5z"/>
</g>
<g>
	<path d="M14.5,7h-4C10.2,7,10,6.8,10,6.5S10.2,6,10.5,6h4C14.8,6,15,6.2,15,6.5S14.8,7,14.5,7z"/>
</g>
<g>
	<path d="M14.5,9H12c-0.3,0-0.5-0.2-0.5-0.5S11.7,8,12,8h2.5C14.8,8,15,8.2,15,8.5S14.8,9,14.5,9z"/>
</g>
</svg>
