<?xml version="1.0" encoding="iso-8859-1"?>
<!-- Generator: Adobe Illustrator 19.1.0, SVG Export Plug-In . SVG Version: 6.00 Build 0)  -->
<!DOCTYPE svg PUBLIC "-//W3C//DTD SVG 1.1 Tiny//EN" "http://www.w3.org/Graphics/SVG/1.1/DTD/svg11-tiny.dtd">
<svg version="1.1" baseProfile="tiny" id="Layer_1" xmlns="http://www.w3.org/2000/svg" xmlns:xlink="http://www.w3.org/1999/xlink"
	 x="0px" y="0px" viewBox="0 0 16 16" xml:space="preserve">
<path d="M14.848,15H1.152C0.517,15,0,14.47,0,13.818V1.182C0,0.53,0.517,0,1.152,0h13.695C15.483,0,16,0.53,16,1.182v12.637
	C16,14.47,15.483,15,14.848,15z M1.152,1C1.068,1,1,1.081,1,1.182v12.637C1,13.919,1.068,14,1.152,14h13.695
	C14.932,14,15,13.919,15,13.818V1.182C15,1.081,14.932,1,14.848,1H1.152z"/>
<path d="M13,5h-1.5C11.224,5,11,4.776,11,4.5S11.224,4,11.5,4H13c0.276,0,0.5,0.224,0.5,0.5S13.276,5,13,5z"/>
<path d="M8,5H3C2.724,5,2.5,4.776,2.5,4.5S2.724,4,3,4h5c0.276,0,0.5,0.224,0.5,0.5S8.276,5,8,5z"/>
<path d="M13,11H8c-0.276,0-0.5-0.224-0.5-0.5S7.724,10,8,10h5c0.276,0,0.5,0.224,0.5,0.5S13.276,11,13,11z"/>
<path d="M5,11H3c-0.276,0-0.5-0.224-0.5-0.5S2.724,10,3,10h2c0.276,0,0.5,0.224,0.5,0.5S5.276,11,5,11z"/>
<path d="M9.5,6.25c-0.965,0-1.75-0.785-1.75-1.75S8.535,2.75,9.5,2.75s1.75,0.785,1.75,1.75S10.465,6.25,9.5,6.25z M9.5,3.75
	c-0.414,0-0.75,0.337-0.75,0.75S9.086,5.25,9.5,5.25s0.75-0.337,0.75-0.75S9.914,3.75,9.5,3.75z"/>
<path d="M6.508,12.25c-0.965,0-1.75-0.785-1.75-1.75s0.785-1.75,1.75-1.75s1.75,0.785,1.75,1.75S7.473,12.25,6.508,12.25z
	 M6.508,9.75c-0.414,0-0.75,0.337-0.75,0.75s0.336,0.75,0.75,0.75s0.75-0.337,0.75-0.75S6.921,9.75,6.508,9.75z"/>
</svg>
