<?xml version="1.0" encoding="utf-8"?>
<!-- Generator: Adobe Illustrator 19.1.0, SVG Export Plug-In . SVG Version: 6.00 Build 0)  -->
<!DOCTYPE svg PUBLIC "-//W3C//DTD SVG 1.1 Tiny//EN" "http://www.w3.org/Graphics/SVG/1.1/DTD/svg11-tiny.dtd">
<svg version="1.1" baseProfile="tiny" id="Layer_1" xmlns="http://www.w3.org/2000/svg" xmlns:xlink="http://www.w3.org/1999/xlink"
	 x="0px" y="0px" viewBox="0 0 16 16" xml:space="preserve">
<g>
	<path d="M14.8,15H1.2C0.5,15,0,14.5,0,13.8V1.2C0,0.5,0.5,0,1.2,0h13.7C15.5,0,16,0.5,16,1.2v12.6C16,14.5,15.5,15,14.8,15z M1.2,1
		C1.1,1,1,1.1,1,1.2v12.6C1,13.9,1.1,14,1.2,14h13.7c0.1,0,0.2-0.1,0.2-0.2V1.2C15,1.1,14.9,1,14.8,1H1.2z"/>
</g>
<g>
	<path d="M13,5h-2c-0.3,0-0.5-0.2-0.5-0.5S10.7,4,11,4h2c0.3,0,0.5,0.2,0.5,0.5S13.3,5,13,5z"/>
</g>
<g>
	<path d="M8,5H3C2.7,5,2.5,4.8,2.5,4.5S2.7,4,3,4h5c0.3,0,0.5,0.2,0.5,0.5S8.3,5,8,5z"/>
</g>
<g>
	<path d="M13,11H8c-0.3,0-0.5-0.2-0.5-0.5S7.7,10,8,10h5c0.3,0,0.5,0.2,0.5,0.5S13.3,11,13,11z"/>
</g>
<g>
	<path d="M5,11H3c-0.3,0-0.5-0.2-0.5-0.5S2.7,10,3,10h2c0.3,0,0.5,0.2,0.5,0.5S5.3,11,5,11z"/>
</g>
<g>
	<path d="M9.5,6.2c-1,0-1.8-0.8-1.8-1.8s0.8-1.8,1.8-1.8s1.8,0.8,1.8,1.8S10.5,6.2,9.5,6.2z M9.5,3.8c-0.4,0-0.8,0.3-0.8,0.8
		s0.3,0.8,0.8,0.8s0.8-0.3,0.8-0.8S9.9,3.8,9.5,3.8z"/>
</g>
<g>
	<path d="M6.5,12.2c-1,0-1.8-0.8-1.8-1.8s0.8-1.8,1.8-1.8s1.8,0.8,1.8,1.8S7.5,12.2,6.5,12.2z M6.5,9.8c-0.4,0-0.8,0.3-0.8,0.8
		s0.3,0.8,0.8,0.8s0.8-0.3,0.8-0.8S6.9,9.8,6.5,9.8z"/>
</g>
</svg>
