<svg baseProfile="tiny" xmlns="http://www.w3.org/2000/svg" viewBox="0 0 16 16"><path d="M14.848 15H1.152C.517 15 0 14.47 0 13.818V1.182C0 .53.517 0 1.152 0h13.695C15.483 0 16 .53 16 1.182v12.637C16 14.47 15.483 15 14.848 15zM1.152 1C1.068 1 1 1.081 1 1.182v12.637c0 .1.068.181.152.181h13.695c.085 0 .153-.081.153-.182V1.182c0-.101-.068-.182-.152-.182H1.152z"/><path d="M13 5h-1.5a.5.5 0 0 1 0-1H13a.5.5 0 0 1 0 1zM8 5H3a.5.5 0 0 1 0-1h5a.5.5 0 0 1 0 1zM13 11H8a.5.5 0 0 1 0-1h5a.5.5 0 0 1 0 1zM5 11H3a.5.5 0 0 1 0-1h2a.5.5 0 0 1 0 1z"/><path d="M9.5 6.25c-.965 0-1.75-.785-1.75-1.75s.785-1.75 1.75-1.75 1.75.785 1.75 1.75-.785 1.75-1.75 1.75zm0-2.5a.75.75 0 0 0 0 1.5.75.75 0 0 0 0-1.5zM6.508 12.25c-.965 0-1.75-.785-1.75-1.75s.785-1.75 1.75-1.75 1.75.785 1.75 1.75-.785 1.75-1.75 1.75zm0-2.5a.75.75 0 0 0 0 1.5.75.75 0 0 0 0-1.5z"/></svg>