<?xml version="1.0" encoding="iso-8859-1"?>
<!-- Generator: Adobe Illustrator 19.2.1, SVG Export Plug-In . SVG Version: 6.00 Build 0)  -->
<!DOCTYPE svg PUBLIC "-//W3C//DTD SVG 1.1 Tiny//EN" "http://www.w3.org/Graphics/SVG/1.1/DTD/svg11-tiny.dtd">
<svg version="1.1" baseProfile="tiny" xmlns="http://www.w3.org/2000/svg" xmlns:xlink="http://www.w3.org/1999/xlink" x="0px"
	 y="0px" width="16px" height="16px" viewBox="0 0 16 16" xml:space="preserve">
<g id="Layer_1">
	<g>
		<g id="XMLID_13_">
			<path d="M5.35,12.73c-0.13,0-0.25-0.05-0.35-0.15L0.7,8.31C0.6,8.22,0.55,8.09,0.55,7.96c0-0.13,0.05-0.26,0.15-0.35l4.28-4.3
				c0.2-0.2,0.51-0.2,0.71,0c0.2,0.19,0.2,0.51,0,0.71L1.76,7.95l3.95,3.92c0.2,0.19,0.2,0.51,0,0.71
				C5.61,12.68,5.48,12.73,5.35,12.73z"/>
		</g>
		<g id="XMLID_7_">
			<path d="M10.82,12.73c-0.13,0-0.26-0.05-0.35-0.15c-0.19-0.2-0.19-0.51,0-0.71l3.95-3.92l-3.93-3.95c-0.19-0.2-0.19-0.51,0-0.71
				S11,3.1,11.2,3.3l4.28,4.3c0.09,0.09,0.15,0.22,0.15,0.35c0,0.13-0.05,0.26-0.15,0.35l-4.3,4.28
				C11.07,12.68,10.95,12.73,10.82,12.73z"/>
		</g>
	</g>
</g>
<g id="Layer_2">
</g>
<g id="Layer_3">
</g>
</svg>
