<?xml version="1.0" encoding="iso-8859-1"?>
<!-- Generator: Adobe Illustrator 19.2.1, SVG Export Plug-In . SVG Version: 6.00 Build 0)  -->
<!DOCTYPE svg PUBLIC "-//W3C//DTD SVG 1.1 Tiny//EN" "http://www.w3.org/Graphics/SVG/1.1/DTD/svg11-tiny.dtd">
<svg version="1.1" baseProfile="tiny" xmlns="http://www.w3.org/2000/svg" xmlns:xlink="http://www.w3.org/1999/xlink" x="0px"
	 y="0px" viewBox="0 0 16 16" xml:space="preserve">
<g id="Layer_1">
	<g>
		<g>
			<path d="M7.488,15.438c-0.444,0-0.875-0.195-1.179-0.536c-0.234-0.261-0.514-0.782-0.514-1.584c0-0.981,0.331-2.379,0.537-3.379
				H1.522C0.697,9.938,0,9.287,0,8.468c0-0.58,0.35-1.075,0.847-1.327C0.741,6.938,0.682,6.718,0.682,6.478
				c0-0.58,0.35-1.091,0.847-1.343c-0.105-0.204-0.165-0.43-0.165-0.67c0-0.58,0.351-1.094,0.848-1.346
				C2.105,2.915,2.046,2.687,2.046,2.447c0-0.818,0.697-1.509,1.522-1.509H8c1.227,0,1.845,0.249,2.5,0.513
				c0.892,0.359,1.902,0.767,5,0.767c0.276,0,0.5,0.224,0.5,0.5v6.129c0,0.276-0.224,0.092-0.5,0.092h-2.046
				c-2.182,0-4.613,2.184-4.613,5.024C8.841,14.687,8.26,15.438,7.488,15.438z M1.522,7.938C1.254,7.938,1,8.176,1,8.438
				s0.254,0.5,0.522,0.5h5.455c0.156,0,0.303,0.113,0.397,0.237S7.501,9.48,7.46,9.63c-0.007,0.024-0.664,2.453-0.664,3.717
				c0,0.385,0.089,0.694,0.258,0.882c0.158,0.177,0.34,0.206,0.435,0.206c0.015,0,0.353-0.206,0.353-0.474
				c0-3.43,2.958-6.023,5.613-6.023H15V3.213c-2.912-0.045-3.995-0.48-4.874-0.835C9.516,2.132,9.033,1.938,8,1.938H3.568
				c-0.269,0-0.522,0.248-0.522,0.51c0,0.263,0.254,0.511,0.522,0.511c0.276,0,0.5,0.213,0.5,0.49s-0.224,0.49-0.5,0.49H2.887
				c-0.27,0-0.523,0.258-0.523,0.52c0,0.263,0.254,0.516,0.523,0.516c0.276,0,0.5,0.206,0.5,0.482s-0.224,0.482-0.5,0.482H2.204
				c-0.269,0-0.522,0.269-0.522,0.53c0,0.263,0.254,0.521,0.522,0.521c0.276,0,0.5,0.198,0.5,0.474s-0.224,0.474-0.5,0.474H1.522z"
				/>
		</g>
	</g>
</g>
</svg>
