<?xml version="1.0" encoding="iso-8859-1"?>
<!-- Generator: Adobe Illustrator 19.2.1, SVG Export Plug-In . SVG Version: 6.00 Build 0)  -->
<!DOCTYPE svg PUBLIC "-//W3C//DTD SVG 1.1 Tiny//EN" "http://www.w3.org/Graphics/SVG/1.1/DTD/svg11-tiny.dtd">
<svg version="1.1" baseProfile="tiny" xmlns="http://www.w3.org/2000/svg" xmlns:xlink="http://www.w3.org/1999/xlink" x="0px"
	 y="0px" viewBox="0 0 16 16" xml:space="preserve">
<g id="Layer_1">
	<g>
		<g>
			<path d="M12.432,14.938H8c-1.231,0-1.851-0.262-2.508-0.539c-0.89-0.375-1.898-0.801-4.992-0.801c-0.276,0-0.5-0.224-0.5-0.5
				V7.066C0,6.79,0.224,6.938,0.5,6.938h2.046c2.182,0,4.613-2.182,4.613-5.047c0-0.723,0.581-1.36,1.353-1.36
				c0.444,0,0.874,0.148,1.179,0.487c0.234,0.261,0.514,0.737,0.514,1.536c0,0.981-0.334,2.384-0.541,3.384h4.814
				C15.303,5.938,16,6.606,16,7.422c0,0.577-0.349,1.081-0.846,1.332c0.104,0.203,0.164,0.425,0.164,0.663
				c0,0.577-0.349,1.089-0.846,1.34c0.104,0.203,0.164,0.428,0.164,0.667c0,0.577-0.35,1.091-0.847,1.342
				c0.104,0.202,0.164,0.429,0.164,0.668C13.954,14.248,13.257,14.938,12.432,14.938z M1,12.602
				c2.916,0.047,4.001,0.505,4.882,0.876c0.608,0.257,1.09,0.46,2.118,0.46h4.432c0.269,0,0.522-0.245,0.522-0.505
				s-0.254-0.506-0.522-0.506c-0.276,0-0.5-0.218-0.5-0.495s0.224-0.495,0.5-0.495h0.682c0.27,0,0.523-0.25,0.523-0.51
				s-0.254-0.508-0.523-0.508c-0.276,0-0.5-0.215-0.5-0.491s0.224-0.491,0.5-0.491h0.683c0.269,0,0.522-0.256,0.522-0.516
				s-0.254-0.51-0.522-0.51c-0.276,0-0.5-0.211-0.5-0.487s0.224-0.487,0.5-0.487h0.682c0.269,0,0.522-0.24,0.522-0.5
				s-0.254-0.5-0.522-0.5H9.022c-0.155,0-0.302-0.093-0.396-0.216S8.499,6.427,8.539,6.278c0.007-0.025,0.665-2.505,0.665-3.763
				c0-0.383-0.089-0.686-0.258-0.874c-0.157-0.175-0.34-0.202-0.435-0.202c-0.015,0-0.353,0.188-0.353,0.452
				c0,3.454-2.958,6.046-5.613,6.046H1V12.602z"/>
		</g>
	</g>
</g>
</svg>
