<svg baseProfile="tiny" xmlns="http://www.w3.org/2000/svg" viewBox="0 0 16 16"><path d="M12.432 14.938H8c-1.231 0-1.851-.262-2.508-.539-.89-.375-1.898-.801-4.992-.801a.5.5 0 0 1-.5-.5V7.066c0-.276.224-.128.5-.128h2.046c2.182 0 4.613-2.182 4.613-5.047 0-.723.581-1.36 1.353-1.36.444 0 .874.148 1.179.487.234.261.514.737.514 1.536 0 .981-.334 2.384-.541 3.384h4.814c.825 0 1.522.668 1.522 1.484 0 .577-.349 1.081-.846 1.332.104.203.164.425.164.663a1.52 1.52 0 0 1-.846 1.34c.104.203.164.428.164.667 0 .577-.35 1.091-.847 1.342.104.202.164.429.164.668.001.814-.696 1.504-1.521 1.504zM1 12.602c2.916.047 4.001.505 4.882.876.608.257 1.09.46 2.118.46h4.432c.269 0 .522-.245.522-.505s-.254-.506-.522-.506a.495.495 0 1 1 0-.99h.682c.27 0 .523-.25.523-.51s-.254-.508-.523-.508c-.276 0-.5-.215-.5-.491s.224-.491.5-.491h.683c.269 0 .522-.256.522-.516s-.254-.51-.522-.51c-.276 0-.5-.211-.5-.487s.224-.487.5-.487h.682c.269 0 .522-.24.522-.5s-.254-.5-.522-.5H9.022c-.155 0-.302-.093-.396-.216s-.127-.294-.087-.443c.007-.025.665-2.505.665-3.763 0-.383-.089-.686-.258-.874a.581.581 0 0 0-.435-.202c-.015 0-.353.188-.353.452 0 3.454-2.958 6.046-5.613 6.046H1v4.665z"/></svg>