<svg baseProfile="tiny" xmlns="http://www.w3.org/2000/svg" viewBox="0 0 16 16"><path d="M7.488 15.438c-.444 0-.875-.195-1.179-.536-.234-.261-.514-.782-.514-1.584 0-.981.331-2.379.537-3.379h-4.81C.697 9.938 0 9.287 0 8.468c0-.58.35-1.075.847-1.327a1.413 1.413 0 0 1-.165-.663c0-.58.35-1.091.847-1.343a1.456 1.456 0 0 1-.165-.67c0-.58.351-1.094.848-1.346a1.44 1.44 0 0 1-.166-.672c0-.818.697-1.509 1.522-1.509H8c1.227 0 1.845.249 2.5.513.892.359 1.902.767 5 .767a.5.5 0 0 1 .5.5v6.129c0 .276-.224.092-.5.092h-2.046c-2.182 0-4.613 2.184-4.613 5.024 0 .724-.581 1.475-1.353 1.475zm-5.966-7.5c-.268 0-.522.238-.522.5s.254.5.522.5h5.455c.156 0 .303.113.397.237s.127.305.086.455c-.007.024-.664 2.453-.664 3.717 0 .385.089.694.258.882.158.177.34.206.435.206.015 0 .353-.206.353-.474 0-3.43 2.958-6.023 5.613-6.023H15V3.213c-2.912-.045-3.995-.48-4.874-.835-.61-.246-1.093-.44-2.126-.44H3.568c-.269 0-.522.248-.522.51 0 .263.254.511.522.511.276 0 .5.213.5.49s-.224.49-.5.49h-.681a.553.553 0 0 0-.523.52c0 .263.254.516.523.516.276 0 .5.206.5.482s-.224.482-.5.482h-.683c-.269 0-.522.269-.522.53 0 .263.254.521.522.521.276 0 .5.198.5.474s-.224.474-.5.474h-.682z"/></svg>