<svg baseProfile="tiny" xmlns="http://www.w3.org/2000/svg" viewBox="0 0 16 16"><path d="M8 16c-4.411 0-8-3.589-8-8s3.589-8 8-8 8 3.589 8 8-3.589 8-8 8zM8 .667C3.956.667.667 3.957.667 8S3.956 15.333 8 15.333s7.333-3.29 7.333-7.333S12.044.667 8 .667z"/><path d="M12.667 4h-3c-.185 0-.334.163-.334.364s.149.364.333.364h2.372L9.169 8.395l-2.6-2.302a.317.317 0 0 0-.456.037L2.31 10.675a.389.389 0 0 0 .021.515.317.317 0 0 0 .225.095c.09 0 .18-.04.246-.118l3.591-4.292 2.608 2.309a.314.314 0 0 0 .463-.046l2.868-3.665v2.898c0 .201.149.364.333.364.186 0 .335-.162.335-.364V4.364c0-.201-.149-.364-.333-.364z"/></svg>