<?xml version="1.0" encoding="iso-8859-1"?>
<!-- Generator: Adobe Illustrator 19.1.0, SVG Export Plug-In . SVG Version: 6.00 Build 0)  -->
<!DOCTYPE svg PUBLIC "-//W3C//DTD SVG 1.1 Tiny//EN" "http://www.w3.org/Graphics/SVG/1.1/DTD/svg11-tiny.dtd">
<svg version="1.1" baseProfile="tiny" id="Layer_1" xmlns="http://www.w3.org/2000/svg" xmlns:xlink="http://www.w3.org/1999/xlink"
	 x="0px" y="0px" viewBox="0 0 16 16" xml:space="preserve">
<g id="XMLID_101_">
	<path d="M3.316,6.994c-0.831,0-1.525-0.276-2.064-0.821C-0.04,4.865-0.012,2.384-0.001,1.45L0,1.278c0-0.276,0.224-0.5,0.5-0.5
		h2.047c0.276,0,0.5,0.224,0.5,0.5s-0.224,0.5-0.5,0.5H0.996c0,0.969,0.078,2.792,0.968,3.691c0.349,0.353,0.791,0.524,1.353,0.524
		c0.276,0,0.5,0.224,0.5,0.5S3.593,6.994,3.316,6.994z"/>
</g>
<g id="XMLID_100_">
	<path d="M12.666,6.994c-0.276,0-0.5-0.224-0.5-0.5s0.224-0.5,0.5-0.5c0.562,0,1.008-0.173,1.358-0.527
		c0.886-0.895,0.975-2.75,0.979-3.688h-1.566c-0.276,0-0.5-0.224-0.5-0.5s0.224-0.5,0.5-0.5H15.5c0.276,0,0.5,0.224,0.5,0.5
		l0.001,0.161c0.01,0.935,0.034,3.418-1.266,4.731C14.194,6.717,13.498,6.994,12.666,6.994z"/>
</g>
<g id="XMLID_99_">
	<path d="M11.5,16h-7C4.224,16,4,15.776,4,15.5v-1.834c0-0.276,0.224-0.5,0.5-0.5c1.493,0,1.493,0,1.528-2.128
		c0.001-1.142-0.41-1.465-1.09-2.001C3.709,8.069,2.025,6.744,2.025,0.5c0-0.276,0.224-0.5,0.5-0.5h10.953
		c0.276,0,0.5,0.224,0.5,0.5c0,6.247-1.734,7.571-3.001,8.539c-0.701,0.536-1.125,0.86-1.125,1.956c0,2.171,0.062,2.171,1.647,2.171
		c0.276,0,0.5,0.224,0.5,0.5V15.5C12,15.776,11.776,16,11.5,16z M5,15h6v-0.848c-1.961-0.115-2.147-0.98-2.147-3.157
		c0-1.591,0.771-2.181,1.519-2.751C11.498,7.383,12.893,6.317,12.975,1H3.029c0.079,5.323,1.434,6.39,2.527,7.252
		c0.724,0.57,1.473,1.159,1.473,2.743C6.994,13.092,6.979,14.027,5,14.151V15z"/>
</g>
<g>
	<path d="M9.049,6.002c-0.104,0-0.206-0.032-0.294-0.096L8.003,5.359L7.251,5.906c-0.176,0.127-0.412,0.127-0.588,0
		C6.488,5.779,6.415,5.554,6.481,5.348l0.287-0.885L6.016,3.916C5.841,3.789,5.768,3.563,5.834,3.357
		C5.901,3.151,6.093,3.012,6.31,3.012H7.24l0.287-0.885c0.135-0.412,0.816-0.412,0.951,0l0.287,0.885h0.931
		c0.217,0,0.408,0.14,0.476,0.346c0.066,0.206-0.007,0.432-0.182,0.559L9.237,4.463l0.287,0.885
		c0.066,0.206-0.007,0.432-0.182,0.559C9.255,5.97,9.152,6.002,9.049,6.002z M8.003,4.241c0.05,0,0.099,0.007,0.146,0.021
		c0.002-0.1,0.033-0.196,0.091-0.278C8.146,3.952,8.062,3.893,8.003,3.812c-0.06,0.08-0.143,0.14-0.237,0.172
		c0.058,0.082,0.089,0.179,0.091,0.278C7.904,4.248,7.953,4.241,8.003,4.241z"/>
</g>
<g>
	<circle cx="7.986" cy="4.073" r="0.907"/>
</g>
</svg>
