<?xml version="1.0" encoding="iso-8859-1"?>
<!-- Generator: Adobe Illustrator 19.1.0, SVG Export Plug-In . SVG Version: 6.00 Build 0)  -->
<!DOCTYPE svg PUBLIC "-//W3C//DTD SVG 1.1 Tiny//EN" "http://www.w3.org/Graphics/SVG/1.1/DTD/svg11-tiny.dtd">
<svg version="1.1" baseProfile="tiny" xmlns="http://www.w3.org/2000/svg" xmlns:xlink="http://www.w3.org/1999/xlink" x="0px"
	 y="0px" viewBox="0 0 16 16" xml:space="preserve">
<g id="Layer_1">
</g>
<g id="Layer_2">
</g>
<g id="Layer_3">
	<path d="M8,16c-4.411,0-8-3.589-8-8s3.589-8,8-8c4.411,0,8,3.589,8,8S12.411,16,8,16z M8,0.667c-4.044,0-7.333,3.29-7.333,7.333
		S3.956,15.333,8,15.333s7.333-3.29,7.333-7.333S12.044,0.667,8,0.667z"/>
	<path d="M12.667,4h-3C9.482,4,9.333,4.163,9.333,4.364s0.149,0.364,0.333,0.364h2.372L9.169,8.395l-2.6-2.302
		C6.432,5.974,6.233,5.989,6.113,6.13l-3.803,4.545c-0.124,0.149-0.115,0.379,0.021,0.515c0.064,0.064,0.145,0.095,0.225,0.095
		c0.09,0,0.18-0.04,0.246-0.118l3.591-4.292l2.608,2.309c0.139,0.124,0.345,0.104,0.463-0.046l2.868-3.665v2.898
		c0,0.201,0.149,0.364,0.333,0.364C12.851,8.735,13,8.573,13,8.371V4.364C13,4.163,12.851,4,12.667,4z"/>
</g>
</svg>
