<?xml version="1.0" encoding="iso-8859-1"?>
<!-- Generator: Adobe Illustrator 19.1.0, SVG Export Plug-In . SVG Version: 6.00 Build 0)  -->
<!DOCTYPE svg PUBLIC "-//W3C//DTD SVG 1.1 Tiny//EN" "http://www.w3.org/Graphics/SVG/1.1/DTD/svg11-tiny.dtd">
<svg version="1.1" baseProfile="tiny" id="Layer_1" xmlns="http://www.w3.org/2000/svg" xmlns:xlink="http://www.w3.org/1999/xlink"
	 x="0px" y="0px" viewBox="0 0 24 24" xml:space="preserve">
<path d="M16.759,16H1c-0.276,0-0.5-0.224-0.5-0.5S0.724,15,1,15h15.759C20.434,15,23,12.738,23,9.5S20.434,4,16.759,4H12
	c-0.276,0-0.5-0.224-0.5-0.5S11.724,3,12,3h4.759C21.022,3,24,5.673,24,9.5S21.022,16,16.759,16z"/>
<path d="M5.5,21c-0.128,0-0.256-0.049-0.354-0.146l-5-5c-0.195-0.195-0.195-0.512,0-0.707l5-5c0.195-0.195,0.512-0.195,0.707,0
	s0.195,0.512,0,0.707L1.207,15.5l4.646,4.646c0.195,0.195,0.195,0.512,0,0.707C5.756,20.951,5.628,21,5.5,21z"/>
</svg>
