<?xml version="1.0" encoding="utf-8"?>
<!-- Generator: Adobe Illustrator 19.1.0, SVG Export Plug-In . SVG Version: 6.00 Build 0)  -->
<!DOCTYPE svg PUBLIC "-//W3C//DTD SVG 1.1 Tiny//EN" "http://www.w3.org/Graphics/SVG/1.1/DTD/svg11-tiny.dtd">
<svg version="1.1" baseProfile="tiny" id="Layer_1" xmlns="http://www.w3.org/2000/svg" xmlns:xlink="http://www.w3.org/1999/xlink"
	 x="0px" y="0px" viewBox="0 0 24 24" xml:space="preserve">
<g>
	<path d="M23.5,23h-23C0.2,23,0,22.8,0,22.5S0.2,22,0.5,22h23c0.3,0,0.5,0.2,0.5,0.5S23.8,23,23.5,23z"/>
	<path d="M20.5,2h-20C0.2,2,0,1.8,0,1.5S0.2,1,0.5,1h20C20.8,1,21,1.2,21,1.5S20.8,2,20.5,2z"/>
	<path d="M16.5,5h-16C0.2,5,0,4.8,0,4.5S0.2,4,0.5,4h16C16.8,4,17,4.2,17,4.5S16.8,5,16.5,5z"/>
	<path d="M18.5,8h-18C0.2,8,0,7.8,0,7.5S0.2,7,0.5,7h18C18.8,7,19,7.2,19,7.5S18.8,8,18.5,8z"/>
	<path d="M23.5,11h-23C0.2,11,0,10.8,0,10.5S0.2,10,0.5,10h23c0.3,0,0.5,0.2,0.5,0.5S23.8,11,23.5,11z"/>
	<path d="M19.5,14h-19C0.2,14,0,13.8,0,13.5S0.2,13,0.5,13h19c0.3,0,0.5,0.2,0.5,0.5S19.8,14,19.5,14z"/>
	<path d="M16.5,17h-16C0.2,17,0,16.8,0,16.5S0.2,16,0.5,16h16c0.3,0,0.5,0.2,0.5,0.5S16.8,17,16.5,17z"/>
	<path d="M19.5,20h-19C0.2,20,0,19.8,0,19.5S0.2,19,0.5,19h19c0.3,0,0.5,0.2,0.5,0.5S19.8,20,19.5,20z"/>
</g>
</svg>
