<?xml version="1.0" encoding="iso-8859-1"?>
<!-- Generator: Adobe Illustrator 19.1.0, SVG Export Plug-In . SVG Version: 6.00 Build 0)  -->
<!DOCTYPE svg PUBLIC "-//W3C//DTD SVG 1.1 Tiny//EN" "http://www.w3.org/Graphics/SVG/1.1/DTD/svg11-tiny.dtd">
<svg version="1.1" baseProfile="tiny" id="Layer_1" xmlns="http://www.w3.org/2000/svg" xmlns:xlink="http://www.w3.org/1999/xlink"
	 x="0px" y="0px" viewBox="0 0 24 24" xml:space="preserve">
<g>
	<path d="M23,23H1c-0.276,0-0.5-0.224-0.5-0.5S0.724,22,1,22h22c0.276,0,0.5,0.224,0.5,0.5S23.276,23,23,23z"/>
	<path d="M21,2H2C1.724,2,1.5,1.776,1.5,1.5S1.724,1,2,1h19c0.276,0,0.5,0.224,0.5,0.5S21.276,2,21,2z"/>
	<path d="M18,5H6C5.724,5,5.5,4.776,5.5,4.5S5.724,4,6,4h12c0.276,0,0.5,0.224,0.5,0.5S18.276,5,18,5z"/>
	<path d="M20,8H3C2.724,8,2.5,7.776,2.5,7.5S2.724,7,3,7h17c0.276,0,0.5,0.224,0.5,0.5S20.276,8,20,8z"/>
	<path d="M23,11H1c-0.276,0-0.5-0.224-0.5-0.5S0.724,10,1,10h22c0.276,0,0.5,0.224,0.5,0.5S23.276,11,23,11z"/>
	<path d="M19,14H4c-0.276,0-0.5-0.224-0.5-0.5S3.724,13,4,13h15c0.276,0,0.5,0.224,0.5,0.5S19.276,14,19,14z"/>
	<path d="M17,17H7c-0.276,0-0.5-0.224-0.5-0.5S6.724,16,7,16h10c0.276,0,0.5,0.224,0.5,0.5S17.276,17,17,17z"/>
	<path d="M19,20H4c-0.276,0-0.5-0.224-0.5-0.5S3.724,19,4,19h15c0.276,0,0.5,0.224,0.5,0.5S19.276,20,19,20z"/>
</g>
</svg>
