<?xml version="1.0" encoding="iso-8859-1"?>
<!-- Generator: Adobe Illustrator 19.1.0, SVG Export Plug-In . SVG Version: 6.00 Build 0)  -->
<!DOCTYPE svg PUBLIC "-//W3C//DTD SVG 1.1 Tiny//EN" "http://www.w3.org/Graphics/SVG/1.1/DTD/svg11-tiny.dtd">
<svg version="1.1" baseProfile="tiny" id="Layer_1" xmlns="http://www.w3.org/2000/svg" xmlns:xlink="http://www.w3.org/1999/xlink"
	 x="0px" y="0px" viewBox="0 0 24 24" xml:space="preserve">
<g>
	<path d="M23.5,23h-23C0.224,23,0,22.776,0,22.5S0.224,22,0.5,22h23c0.276,0,0.5,0.224,0.5,0.5S23.776,23,23.5,23z"/>
	<path d="M23.5,2h-19C4.224,2,4,1.776,4,1.5S4.224,1,4.5,1h19C23.776,1,24,1.224,24,1.5S23.776,2,23.5,2z"/>
	<path d="M23.5,5h-16C7.224,5,7,4.776,7,4.5S7.224,4,7.5,4h16C23.776,4,24,4.224,24,4.5S23.776,5,23.5,5z"/>
	<path d="M23.5,8h-19C4.224,8,4,7.776,4,7.5S4.224,7,4.5,7h19C23.776,7,24,7.224,24,7.5S23.776,8,23.5,8z"/>
	<path d="M23.5,11h-23C0.224,11,0,10.776,0,10.5S0.224,10,0.5,10h23c0.276,0,0.5,0.224,0.5,0.5S23.776,11,23.5,11z"/>
	<path d="M23.5,14h-19C4.224,14,4,13.776,4,13.5S4.224,13,4.5,13h19c0.276,0,0.5,0.224,0.5,0.5S23.776,14,23.5,14z"/>
	<path d="M23.5,17h-16C7.224,17,7,16.776,7,16.5S7.224,16,7.5,16h16c0.276,0,0.5,0.224,0.5,0.5S23.776,17,23.5,17z"/>
	<path d="M23.5,20h-19C4.224,20,4,19.776,4,19.5S4.224,19,4.5,19h19c0.276,0,0.5,0.224,0.5,0.5S23.776,20,23.5,20z"/>
</g>
</svg>
