<?xml version="1.0" encoding="iso-8859-1"?>
<!-- Generator: Adobe Illustrator 19.1.0, SVG Export Plug-In . SVG Version: 6.00 Build 0)  -->
<!DOCTYPE svg PUBLIC "-//W3C//DTD SVG 1.1 Tiny//EN" "http://www.w3.org/Graphics/SVG/1.1/DTD/svg11-tiny.dtd">
<svg version="1.1" baseProfile="tiny" id="Layer_1" xmlns="http://www.w3.org/2000/svg" xmlns:xlink="http://www.w3.org/1999/xlink"
	 x="0px" y="0px" viewBox="0 0 24 24" xml:space="preserve">
<g>
	<path d="M23.5,23h-23C0.224,23,0,22.776,0,22.5S0.224,22,0.5,22h23c0.276,0,0.5,0.224,0.5,0.5S23.776,23,23.5,23z"/>
	<path d="M20.5,2h-20C0.224,2,0,1.776,0,1.5S0.224,1,0.5,1h20C20.776,1,21,1.224,21,1.5S20.776,2,20.5,2z"/>
	<path d="M16.5,5h-16C0.224,5,0,4.776,0,4.5S0.224,4,0.5,4h16C16.776,4,17,4.224,17,4.5S16.776,5,16.5,5z"/>
	<path d="M18.5,8h-18C0.224,8,0,7.776,0,7.5S0.224,7,0.5,7h18C18.776,7,19,7.224,19,7.5S18.776,8,18.5,8z"/>
	<path d="M23.5,11h-23C0.224,11,0,10.776,0,10.5S0.224,10,0.5,10h23c0.276,0,0.5,0.224,0.5,0.5S23.776,11,23.5,11z"/>
	<path d="M19.5,14h-19C0.224,14,0,13.776,0,13.5S0.224,13,0.5,13h19c0.276,0,0.5,0.224,0.5,0.5S19.776,14,19.5,14z"/>
	<path d="M16.5,17h-16C0.224,17,0,16.776,0,16.5S0.224,16,0.5,16h16c0.276,0,0.5,0.224,0.5,0.5S16.776,17,16.5,17z"/>
	<path d="M19.5,20h-19C0.224,20,0,19.776,0,19.5S0.224,19,0.5,19h19c0.276,0,0.5,0.224,0.5,0.5S19.776,20,19.5,20z"/>
</g>
</svg>
