<?xml version="1.0" encoding="utf-8"?>
<!-- Generator: Adobe Illustrator 19.1.0, SVG Export Plug-In . SVG Version: 6.00 Build 0)  -->
<!DOCTYPE svg PUBLIC "-//W3C//DTD SVG 1.1 Tiny//EN" "http://www.w3.org/Graphics/SVG/1.1/DTD/svg11-tiny.dtd">
<svg version="1.1" baseProfile="tiny" id="Layer_1" xmlns="http://www.w3.org/2000/svg" xmlns:xlink="http://www.w3.org/1999/xlink"
	 x="0px" y="0px" viewBox="0 0 24 24" xml:space="preserve">
<g>
	<path d="M23,23H1c-0.3,0-0.5-0.2-0.5-0.5S0.7,22,1,22h22c0.3,0,0.5,0.2,0.5,0.5S23.3,23,23,23z"/>
	<path d="M21,2H2C1.7,2,1.5,1.8,1.5,1.5S1.7,1,2,1h19c0.3,0,0.5,0.2,0.5,0.5S21.3,2,21,2z"/>
	<path d="M18,5H6C5.7,5,5.5,4.8,5.5,4.5S5.7,4,6,4h12c0.3,0,0.5,0.2,0.5,0.5S18.3,5,18,5z"/>
	<path d="M20,8H3C2.7,8,2.5,7.8,2.5,7.5S2.7,7,3,7h17c0.3,0,0.5,0.2,0.5,0.5S20.3,8,20,8z"/>
	<path d="M23,11H1c-0.3,0-0.5-0.2-0.5-0.5S0.7,10,1,10h22c0.3,0,0.5,0.2,0.5,0.5S23.3,11,23,11z"/>
	<path d="M19,14H4c-0.3,0-0.5-0.2-0.5-0.5S3.7,13,4,13h15c0.3,0,0.5,0.2,0.5,0.5S19.3,14,19,14z"/>
	<path d="M17,17H7c-0.3,0-0.5-0.2-0.5-0.5S6.7,16,7,16h10c0.3,0,0.5,0.2,0.5,0.5S17.3,17,17,17z"/>
	<path d="M19,20H4c-0.3,0-0.5-0.2-0.5-0.5S3.7,19,4,19h15c0.3,0,0.5,0.2,0.5,0.5S19.3,20,19,20z"/>
</g>
</svg>
