<?xml version="1.0" encoding="utf-8"?>
<!-- Generator: Adobe Illustrator 19.1.0, SVG Export Plug-In . SVG Version: 6.00 Build 0)  -->
<!DOCTYPE svg PUBLIC "-//W3C//DTD SVG 1.1 Tiny//EN" "http://www.w3.org/Graphics/SVG/1.1/DTD/svg11-tiny.dtd">
<svg version="1.1" baseProfile="tiny" id="Layer_1" xmlns="http://www.w3.org/2000/svg" xmlns:xlink="http://www.w3.org/1999/xlink"
	 x="0px" y="0px" viewBox="0 0 24 24" xml:space="preserve">
<g>
	<path d="M23.5,23h-23C0.2,23,0,22.8,0,22.5S0.2,22,0.5,22h23c0.3,0,0.5,0.2,0.5,0.5S23.8,23,23.5,23z"/>
	<path d="M23.5,2h-19C4.2,2,4,1.8,4,1.5S4.2,1,4.5,1h19C23.8,1,24,1.2,24,1.5S23.8,2,23.5,2z"/>
	<path d="M23.5,5h-16C7.2,5,7,4.8,7,4.5S7.2,4,7.5,4h16C23.8,4,24,4.2,24,4.5S23.8,5,23.5,5z"/>
	<path d="M23.5,8h-19C4.2,8,4,7.8,4,7.5S4.2,7,4.5,7h19C23.8,7,24,7.2,24,7.5S23.8,8,23.5,8z"/>
	<path d="M23.5,11h-23C0.2,11,0,10.8,0,10.5S0.2,10,0.5,10h23c0.3,0,0.5,0.2,0.5,0.5S23.8,11,23.5,11z"/>
	<path d="M23.5,14h-19C4.2,14,4,13.8,4,13.5S4.2,13,4.5,13h19c0.3,0,0.5,0.2,0.5,0.5S23.8,14,23.5,14z"/>
	<path d="M23.5,17h-16C7.2,17,7,16.8,7,16.5S7.2,16,7.5,16h16c0.3,0,0.5,0.2,0.5,0.5S23.8,17,23.5,17z"/>
	<path d="M23.5,20h-19C4.2,20,4,19.8,4,19.5S4.2,19,4.5,19h19c0.3,0,0.5,0.2,0.5,0.5S23.8,20,23.5,20z"/>
</g>
</svg>
