<?xml version="1.0" encoding="utf-8"?>
<!-- Generator: Adobe Illustrator 19.1.0, SVG Export Plug-In . SVG Version: 6.00 Build 0)  -->
<!DOCTYPE svg PUBLIC "-//W3C//DTD SVG 1.1 Tiny//EN" "http://www.w3.org/Graphics/SVG/1.1/DTD/svg11-tiny.dtd">
<svg version="1.1" baseProfile="tiny" id="Layer_1" xmlns="http://www.w3.org/2000/svg" xmlns:xlink="http://www.w3.org/1999/xlink"
	 x="0px" y="0px" viewBox="0 0 24 24" xml:space="preserve">
<g>
	<path d="M23.5,9h-23C0.2,9,0,8.8,0,8.5v-5C0,3.2,0.2,3,0.5,3h23C23.8,3,24,3.2,24,3.5v5C24,8.8,23.8,9,23.5,9z M1,8h22V4H1V8z"/>
	<path d="M22.5,22h-21C1.2,22,1,21.8,1,21.5v-13C1,8.2,1.2,8,1.5,8h21C22.8,8,23,8.2,23,8.5v13C23,21.8,22.8,22,22.5,22z M2,21h20V9
		H2V21z"/>
	<path d="M15.5,14h-7C8.2,14,8,13.8,8,13.5v-2C8,11.2,8.2,11,8.5,11h7c0.3,0,0.5,0.2,0.5,0.5v2C16,13.8,15.8,14,15.5,14z M9,13h6v-1
		H9V13z"/>
</g>
</svg>
