<?xml version="1.0" encoding="iso-8859-1"?>
<!-- Generator: Adobe Illustrator 19.1.0, SVG Export Plug-In . SVG Version: 6.00 Build 0)  -->
<!DOCTYPE svg PUBLIC "-//W3C//DTD SVG 1.1 Tiny//EN" "http://www.w3.org/Graphics/SVG/1.1/DTD/svg11-tiny.dtd">
<svg version="1.1" baseProfile="tiny" id="Layer_1" xmlns="http://www.w3.org/2000/svg" xmlns:xlink="http://www.w3.org/1999/xlink"
	 x="0px" y="0px" viewBox="0 0 24 24" xml:space="preserve">
<path d="M22,12H0c-0.276,0-0.5-0.224-0.5-0.5S-0.276,11,0,11h22c0.276,0,0.5,0.224,0.5,0.5S22.276,12,22,12z"/>
<path d="M15.575,18.946c-0.139,0-0.277-0.058-0.376-0.171c-0.182-0.208-0.161-0.523,0.047-0.705l7.57-6.624l-7.57-6.624
	c-0.208-0.182-0.229-0.497-0.047-0.705c0.183-0.208,0.498-0.229,0.706-0.047l8,7c0.109,0.095,0.171,0.231,0.171,0.376
	s-0.062,0.281-0.171,0.376l-8,7C15.809,18.905,15.692,18.946,15.575,18.946z"/>
</svg>
