<svg baseProfile="tiny" xmlns="http://www.w3.org/2000/svg" viewBox="0 0 24 24"><path d="M12.173 21.9c-4.373 0-6.812-.191-7.292-.381-.846-.335-.33-2.724-.323-2.748.122-.42.596-.582 2.219-1.078.764-.233 2.042-.623 2.26-.834.266-.263.538-1.562.627-2.612a.5.5 0 0 1 .996.084c-.05.596-.264 2.591-.92 3.24-.36.356-1.249.646-2.671 1.08-.559.17-1.3.397-1.579.532-.062.359-.106 1.096-.067 1.444.581.097 2.501.274 6.751.274 4.971 0 6.354-.164 6.737-.251.059-.341.048-1.13-.007-1.448-.282-.129-1.044-.357-1.618-.529-1.546-.462-2.51-.769-2.87-1.129-.636-.641-.724-2.667-.735-3.273a.5.5 0 0 1 .49-.51c.262 0 .504.214.51.49.022 1.163.23 2.372.444 2.587.231.215 1.618.629 2.447.877 1.551.464 1.966.61 2.158.876.271.372.337 2.382-.079 2.793-.222.218-.524.516-7.478.516z"/><path d="M12.173 15.624c-1.7 0-3.393-1.532-4.527-4.099-.34-.769-.543-2.465-.543-4.538 0-3.073 2.274-5.573 5.07-5.573 2.843 0 5.069 2.409 5.069 5.485 0 2.157-.204 3.885-.547 4.623-1.207 2.607-2.855 4.102-4.522 4.102zm0-13.21c-2.244 0-4.07 2.052-4.07 4.573 0 2.288.246 3.657.457 4.134 1.143 2.583 2.616 3.503 3.613 3.503 1.242 0 2.594-1.317 3.615-3.522.227-.487.454-1.976.454-4.203 0-2.515-1.787-4.485-4.069-4.485zM3.478 18.789c-.747 0-2.536-.221-2.916-.27a.559.559 0 0 1-.114-.028c-.773-.292-.328-2.215-.322-2.234.115-.379.476-.498 1.836-.893.587-.17 1.569-.456 1.757-.61.163-.155.382-1.057.455-1.889a.501.501 0 0 1 .996.088c-.041.462-.217 2.012-.77 2.532-.303.286-1.018.507-2.159.839-.408.119-.943.274-1.188.375a5.618 5.618 0 0 0-.051.868c.936.113 2.243.25 2.574.22a.51.51 0 0 1 .542.454.5.5 0 0 1-.454.542 2.471 2.471 0 0 1-.186.006z"/><path d="M6.268 14.039c-1.388 0-2.765-1.183-3.685-3.164-.277-.596-.443-1.9-.443-3.488 0-2.391 1.852-4.335 4.128-4.335a.5.5 0 0 1 0 1c-1.725 0-3.128 1.496-3.128 3.335 0 1.599.176 2.693.35 3.067.886 1.906 2.016 2.585 2.778 2.585a.5.5 0 0 1 0 1z"/><g><path d="M21.237 18.789c-.065 0-.124-.002-.176-.007a.5.5 0 1 1 .088-.996c.307.025 1.196-.097 1.849-.205a5.492 5.492 0 0 0-.05-.883c-.245-.101-.78-.256-1.188-.375-1.142-.332-1.856-.554-2.159-.839-.553-.521-.729-2.07-.77-2.533a.5.5 0 0 1 .454-.542.506.506 0 0 1 .542.454c.074.833.293 1.735.459 1.893.184.15 1.166.436 1.753.606 1.36.396 1.721.514 1.836.893.006.019.451 1.942-.322 2.234-.353.073-1.646.3-2.316.3z"/><path d="M17.732 14.039a.5.5 0 0 1 0-1c.763 0 1.893-.679 2.778-2.584.174-.375.35-1.469.35-3.068 0-1.839-1.403-3.335-3.128-3.335a.5.5 0 0 1 0-1c2.276 0 4.128 1.945 4.128 4.335 0 1.588-.166 2.892-.443 3.489-.92 1.98-2.297 3.163-3.685 3.163z"/></g></svg>