<?xml version="1.0" encoding="iso-8859-1"?>
<!-- Generator: Adobe Illustrator 19.1.0, SVG Export Plug-In . SVG Version: 6.00 Build 0)  -->
<!DOCTYPE svg PUBLIC "-//W3C//DTD SVG 1.1 Tiny//EN" "http://www.w3.org/Graphics/SVG/1.1/DTD/svg11-tiny.dtd">
<svg version="1.1" baseProfile="tiny" id="Layer_1" xmlns="http://www.w3.org/2000/svg" xmlns:xlink="http://www.w3.org/1999/xlink"
	 x="0px" y="0px" viewBox="0 0 24 24" xml:space="preserve">
<g id="XMLID_810_">
	<path d="M12.173,21.9c-4.373,0-6.812-0.191-7.292-0.381c-0.846-0.335-0.33-2.724-0.323-2.748c0.122-0.42,0.596-0.582,2.219-1.078
		c0.764-0.233,2.042-0.623,2.26-0.834c0.266-0.263,0.538-1.562,0.627-2.612c0.022-0.275,0.271-0.478,0.54-0.456
		c0.275,0.023,0.479,0.265,0.456,0.54c-0.05,0.596-0.264,2.591-0.92,3.24c-0.36,0.356-1.249,0.646-2.671,1.08
		c-0.559,0.17-1.3,0.397-1.579,0.532c-0.062,0.359-0.106,1.096-0.067,1.444c0.581,0.097,2.501,0.274,6.751,0.274
		c4.971,0,6.354-0.164,6.737-0.251c0.059-0.341,0.048-1.13-0.007-1.448c-0.282-0.129-1.044-0.357-1.618-0.529
		c-1.546-0.462-2.51-0.769-2.87-1.129c-0.636-0.641-0.724-2.667-0.735-3.273c-0.005-0.276,0.214-0.504,0.49-0.51
		c0.262,0,0.504,0.214,0.51,0.49c0.022,1.163,0.23,2.372,0.444,2.587c0.231,0.215,1.618,0.629,2.447,0.877
		c1.551,0.464,1.966,0.61,2.158,0.876c0.271,0.372,0.337,2.382-0.079,2.793C19.429,21.602,19.127,21.9,12.173,21.9z"/>
	<path d="M12.173,15.624c-1.7,0-3.393-1.532-4.527-4.099c-0.34-0.769-0.543-2.465-0.543-4.538c0-3.073,2.274-5.573,5.07-5.573
		c2.843,0,5.069,2.409,5.069,5.485c0,2.157-0.204,3.885-0.547,4.623C15.488,14.129,13.84,15.624,12.173,15.624z M12.173,2.414
		c-2.244,0-4.07,2.052-4.07,4.573c0,2.288,0.246,3.657,0.457,4.134c1.143,2.583,2.616,3.503,3.613,3.503
		c1.242,0,2.594-1.317,3.615-3.522c0.227-0.487,0.454-1.976,0.454-4.203C16.242,4.384,14.455,2.414,12.173,2.414z"/>
	<g id="XMLID_844_">
		<path d="M3.478,18.789c-0.747,0-2.536-0.221-2.916-0.27c-0.039-0.005-0.077-0.015-0.114-0.028
			c-0.773-0.292-0.328-2.215-0.322-2.234c0.115-0.379,0.476-0.498,1.836-0.893c0.587-0.17,1.569-0.456,1.757-0.61
			c0.163-0.155,0.382-1.057,0.455-1.889c0.023-0.276,0.282-0.487,0.542-0.454c0.275,0.024,0.479,0.267,0.454,0.542
			c-0.041,0.462-0.217,2.012-0.77,2.532c-0.303,0.286-1.018,0.507-2.159,0.839c-0.408,0.119-0.943,0.274-1.188,0.375
			c-0.034,0.232-0.061,0.619-0.051,0.868c0.936,0.113,2.243,0.25,2.574,0.22c0.254-0.028,0.517,0.178,0.542,0.454
			c0.024,0.275-0.179,0.518-0.454,0.542C3.612,18.787,3.55,18.789,3.478,18.789z"/>
		<path d="M6.268,14.039c-1.388,0-2.765-1.183-3.685-3.164C2.306,10.279,2.14,8.975,2.14,7.387c0-2.391,1.852-4.335,4.128-4.335
			c0.276,0,0.5,0.224,0.5,0.5s-0.224,0.5-0.5,0.5c-1.725,0-3.128,1.496-3.128,3.335c0,1.599,0.176,2.693,0.35,3.067
			c0.886,1.906,2.016,2.585,2.778,2.585c0.276,0,0.5,0.224,0.5,0.5S6.544,14.039,6.268,14.039z"/>
	</g>
	<g id="XMLID_811_">
		<path d="M21.237,18.789c-0.065,0-0.124-0.002-0.176-0.007c-0.275-0.024-0.479-0.267-0.454-0.542
			c0.024-0.276,0.28-0.484,0.542-0.454c0.307,0.025,1.196-0.097,1.849-0.205c0.012-0.248-0.015-0.646-0.05-0.883
			c-0.245-0.101-0.78-0.256-1.188-0.375c-1.142-0.332-1.856-0.554-2.159-0.839c-0.553-0.521-0.729-2.07-0.77-2.533
			c-0.024-0.275,0.179-0.518,0.454-0.542c0.256-0.031,0.517,0.178,0.542,0.454c0.074,0.833,0.293,1.735,0.459,1.893
			c0.184,0.15,1.166,0.436,1.753,0.606c1.36,0.396,1.721,0.514,1.836,0.893c0.006,0.019,0.451,1.942-0.322,2.234
			C23.2,18.562,21.907,18.789,21.237,18.789z"/>
		<path d="M17.732,14.039c-0.276,0-0.5-0.224-0.5-0.5s0.224-0.5,0.5-0.5c0.763,0,1.893-0.679,2.778-2.584
			c0.174-0.375,0.35-1.469,0.35-3.068c0-1.839-1.403-3.335-3.128-3.335c-0.276,0-0.5-0.224-0.5-0.5s0.224-0.5,0.5-0.5
			c2.276,0,4.128,1.945,4.128,4.335c0,1.588-0.166,2.892-0.443,3.489C20.497,12.856,19.12,14.039,17.732,14.039z"/>
	</g>
</g>
</svg>
