<svg baseProfile="tiny" xmlns="http://www.w3.org/2000/svg" viewBox="0 0 24 24"><path d="M12 24C5.383 24 0 18.617 0 12S5.383 0 12 0s12 5.383 12 12-5.383 12-12 12zm0-23C5.935 1 1 5.935 1 12s4.935 11 11 11 11-4.935 11-11S18.065 1 12 1z"/><path d="M5.659 16.808l-.047-.002a.501.501 0 0 1-.366-.217A8.11 8.11 0 0 1 3.833 12c0-4.503 3.664-8.166 8.167-8.166 1.646 0 3.232.488 4.59 1.412a.497.497 0 0 1 .072.766L6.013 16.661a.498.498 0 0 1-.354.147zM12 4.834c-3.952 0-7.167 3.215-7.167 7.166 0 1.24.315 2.441.918 3.509l9.759-9.758A7.134 7.134 0 0 0 12 4.834zM12 20.166a8.124 8.124 0 0 1-4.59-1.412.497.497 0 0 1-.072-.766l10.649-10.65a.521.521 0 0 1 .4-.145.504.504 0 0 1 .366.217A8.12 8.12 0 0 1 20.166 12c.001 4.503-3.663 8.166-8.166 8.166zm-3.51-1.917a7.132 7.132 0 0 0 3.51.917c3.952 0 7.167-3.215 7.167-7.166 0-1.238-.315-2.44-.918-3.51L8.49 18.249z"/></svg>