<?xml version="1.0" encoding="iso-8859-1"?>
<!-- Generator: Adobe Illustrator 19.1.0, SVG Export Plug-In . SVG Version: 6.00 Build 0)  -->
<!DOCTYPE svg PUBLIC "-//W3C//DTD SVG 1.1 Tiny//EN" "http://www.w3.org/Graphics/SVG/1.1/DTD/svg11-tiny.dtd">
<svg version="1.1" baseProfile="tiny" id="Layer_1" xmlns="http://www.w3.org/2000/svg" xmlns:xlink="http://www.w3.org/1999/xlink"
	 x="0px" y="0px" viewBox="0 0 24 24" xml:space="preserve">
<g>
	<path d="M12,24C5.383,24,0,18.617,0,12S5.383,0,12,0s12,5.383,12,12S18.617,24,12,24z M12,1C5.935,1,1,5.935,1,12s4.935,11,11,11
		s11-4.935,11-11S18.065,1,12,1z"/>
	<path d="M5.659,16.808c-0.016,0-0.031-0.001-0.047-0.002c-0.148-0.014-0.282-0.094-0.366-0.217C4.321,15.233,3.833,13.646,3.833,12
		c0-4.503,3.664-8.166,8.167-8.166c1.646,0,3.232,0.488,4.59,1.412c0.123,0.084,0.202,0.218,0.217,0.366
		c0.014,0.148-0.039,0.295-0.145,0.4L6.013,16.661C5.919,16.756,5.791,16.808,5.659,16.808z M12,4.834
		c-3.952,0-7.167,3.215-7.167,7.166c0,1.24,0.315,2.441,0.918,3.509l9.759-9.758C14.44,5.149,13.239,4.834,12,4.834z"/>
	<path d="M12,20.166c-1.646,0-3.232-0.488-4.59-1.412c-0.123-0.084-0.202-0.218-0.217-0.366c-0.014-0.148,0.039-0.295,0.145-0.4
		L17.987,7.338c0.104-0.104,0.25-0.153,0.4-0.145c0.148,0.015,0.282,0.094,0.366,0.217c0.925,1.358,1.413,2.945,1.413,4.59
		C20.167,16.503,16.503,20.166,12,20.166z M8.49,18.249c1.069,0.602,2.271,0.917,3.51,0.917c3.952,0,7.167-3.215,7.167-7.166
		c0-1.238-0.315-2.44-0.918-3.51L8.49,18.249z"/>
</g>
</svg>
