<?xml version="1.0" encoding="iso-8859-1"?>
<!-- Generator: Adobe Illustrator 19.1.0, SVG Export Plug-In . SVG Version: 6.00 Build 0)  -->
<!DOCTYPE svg PUBLIC "-//W3C//DTD SVG 1.1 Tiny//EN" "http://www.w3.org/Graphics/SVG/1.1/DTD/svg11-tiny.dtd">
<svg version="1.1" baseProfile="tiny" id="Layer_1" xmlns="http://www.w3.org/2000/svg" xmlns:xlink="http://www.w3.org/1999/xlink"
	 x="0px" y="0px" viewBox="0 0 24 24" xml:space="preserve">
<path d="M23.5,20h-23C0.224,20,0,19.776,0,19.5S0.224,19,0.5,19C1.521,19,3,15.668,3,14.255v-3.788c0-3.815,2.083-5.556,5.24-6.92
	C8.393,1.502,9.926,0,11.926,0c2.024,0,3.633,1.532,3.795,3.546C18.902,4.921,21,6.665,21,10.467v3.788C21,15.706,22.453,19,23.5,19
	c0.276,0,0.5,0.224,0.5,0.5S23.776,20,23.5,20z M2.17,19h19.66C20.736,17.674,20,15.37,20,14.255v-3.788
	c0-3.376-1.897-4.846-4.957-6.122c-0.187-0.078-0.308-0.26-0.308-0.462C14.735,2.267,13.501,1,11.926,1
	c-1.538,0-2.698,1.239-2.698,2.883c0,0.202-0.122,0.384-0.308,0.462C5.883,5.61,4,7.076,4,10.467v3.788
	C4,15.37,3.264,17.674,2.17,19z"/>
<path d="M12,23.64c-2.19,0-3.973-1.782-3.973-3.973c0-0.276,0.224-0.5,0.5-0.5s0.5,0.224,0.5,0.5c0,1.639,1.333,2.973,2.973,2.973
	s2.973-1.334,2.973-2.973c0-0.276,0.224-0.5,0.5-0.5s0.5,0.224,0.5,0.5C15.973,21.857,14.19,23.64,12,23.64z"/>
</svg>
