<svg baseProfile="tiny" xmlns="http://www.w3.org/2000/svg" viewBox="0 0 24 24"><path d="M23.5 20H.5a.5.5 0 0 1 0-1C1.521 19 3 15.668 3 14.255v-3.788c0-3.815 2.083-5.556 5.24-6.92C8.393 1.502 9.926 0 11.926 0c2.024 0 3.633 1.532 3.795 3.546C18.902 4.921 21 6.665 21 10.467v3.788C21 15.706 22.453 19 23.5 19a.5.5 0 0 1 0 1zM2.17 19h19.66C20.736 17.674 20 15.37 20 14.255v-3.788c0-3.376-1.897-4.846-4.957-6.122a.5.5 0 0 1-.308-.462C14.735 2.267 13.501 1 11.926 1c-1.538 0-2.698 1.239-2.698 2.883a.502.502 0 0 1-.308.462C5.883 5.61 4 7.076 4 10.467v3.788C4 15.37 3.264 17.674 2.17 19z"/><path d="M12 23.64a3.978 3.978 0 0 1-3.973-3.973.5.5 0 0 1 1 0c0 1.639 1.333 2.973 2.973 2.973s2.973-1.334 2.973-2.973a.5.5 0 0 1 1 0A3.978 3.978 0 0 1 12 23.64z"/></svg>