<?xml version="1.0" encoding="iso-8859-1"?>
<!-- Generator: Adobe Illustrator 19.1.0, SVG Export Plug-In . SVG Version: 6.00 Build 0)  -->
<!DOCTYPE svg PUBLIC "-//W3C//DTD SVG 1.1 Tiny//EN" "http://www.w3.org/Graphics/SVG/1.1/DTD/svg11-tiny.dtd">
<svg version="1.1" baseProfile="tiny" id="Layer_1" xmlns="http://www.w3.org/2000/svg" xmlns:xlink="http://www.w3.org/1999/xlink"
	 x="0px" y="0px" viewBox="0 0 24 24" xml:space="preserve">
<path d="M23.5,19.5c-0.994,0-2.5-3.725-2.5-5.245v-3.788c0-3.802-2.098-5.546-5.278-6.921C15.56,1.532,13.951,0,11.926,0
	c-2,0-3.534,1.502-3.686,3.547C5.083,4.911,3,6.651,3,10.467v3.788c0,1.521-1.506,5.37-2.5,5.37c-0.276,0-0.5,0.349-0.5,0.625
	S0.224,21,0.5,21h7.58c0.257,1.673,1.907,2.973,3.92,2.973s3.664-1.3,3.92-2.973h7.58c0.276,0,0.5-0.474,0.5-0.75
	S23.776,19.5,23.5,19.5z M12,23.112c-1.462,0-2.674-0.915-2.92-2.112h5.841C14.674,22.198,13.462,23.112,12,23.112z M2.086,20
	C3.245,18,4,15.296,4,14.255v-3.788C4,7.076,5.883,5.61,8.92,4.345c0.186-0.078,0.308-0.26,0.308-0.462
	C9.228,2.239,10.388,1,11.926,1c1.575,0,2.809,1.267,2.809,2.883c0,0.202,0.121,0.384,0.308,0.462C18.103,5.621,20,7.091,20,10.467
	v3.788C20,15.296,20.755,18,21.914,20H2.086z"/>
</svg>
