<?xml version="1.0" encoding="utf-8"?>
<!-- Generator: Adobe Illustrator 19.1.0, SVG Export Plug-In . SVG Version: 6.00 Build 0)  -->
<!DOCTYPE svg PUBLIC "-//W3C//DTD SVG 1.1 Tiny//EN" "http://www.w3.org/Graphics/SVG/1.1/DTD/svg11-tiny.dtd">
<svg version="1.1" baseProfile="tiny" id="Layer_1" xmlns="http://www.w3.org/2000/svg" xmlns:xlink="http://www.w3.org/1999/xlink"
	 x="0px" y="0px" viewBox="0 0 24 24" xml:space="preserve">
<path d="M22,24H2c-1.1,0-2-0.9-2-2V2.5C0,2.2,0.2,2,0.5,2H5c0.3,0,0.5,0.2,0.5,0.5S5.3,3,5,3H1v19c0,0.6,0.5,1,1,1H22
	c0.6,0,1-0.5,1-1V3h-2c-0.3,0-0.5-0.2-0.5-0.5S20.7,2,21,2h2.5C23.8,2,24,2.2,24,2.5V22C24,23.1,23.1,24,22,24z"/>
<path d="M8.5,4h-3C5.2,4,5,3.8,5,3.5v-3C5,0.2,5.2,0,5.5,0h3C8.8,0,9,0.2,9,0.5v3C9,3.8,8.8,4,8.5,4z M6,3h2V1H6V3z"/>
<path d="M20.5,4h-3C17.2,4,17,3.8,17,3.5v-3C17,0.2,17.2,0,17.5,0h3C20.8,0,21,0.2,21,0.5v3C21,3.8,20.8,4,20.5,4z M18,3h2V1h-2V3z"
	/>
<path d="M17,3H9C8.7,3,8.5,2.8,8.5,2.5S8.7,2,9,2h8c0.3,0,0.5,0.2,0.5,0.5S17.3,3,17,3z"/>
<rect y="6" width="23" height="1"/>
<g>
	<path d="M8.5,19.5C8.2,19.5,8,19.3,8,19v-6.6l-1.2,1c-0.2,0.2-0.5,0.2-0.7-0.1c-0.2-0.2-0.2-0.5,0.1-0.7l2-1.7
		c0.1-0.1,0.4-0.2,0.5-0.1C8.9,11,9,11.1,9,11.3V19C9,19.3,8.8,19.5,8.5,19.5z"/>
	<path d="M11,20H6c-0.3,0-0.5-0.2-0.5-0.5S5.7,19,6,19h5c0.3,0,0.5,0.2,0.5,0.5S11.3,20,11,20z"/>
</g>
<g>
	<path d="M14.4,19.8c-0.1,0-0.1,0-0.2,0c-0.3-0.1-0.4-0.4-0.3-0.6l2.6-7.2H13c0,0.3-0.2,0.5-0.5,0.5S12,12.3,12,12v-0.5
		c0-0.3,0.2-0.5,0.5-0.5h4.7c0.2,0,0.3,0.1,0.4,0.2c0.1,0.1,0.1,0.3,0.1,0.5l-2.9,7.8C14.7,19.7,14.6,19.8,14.4,19.8z"/>
</g>
</svg>
