<?xml version="1.0" encoding="iso-8859-1"?>
<!-- Generator: Adobe Illustrator 19.1.0, SVG Export Plug-In . SVG Version: 6.00 Build 0)  -->
<!DOCTYPE svg PUBLIC "-//W3C//DTD SVG 1.1 Tiny//EN" "http://www.w3.org/Graphics/SVG/1.1/DTD/svg11-tiny.dtd">
<svg version="1.1" baseProfile="tiny" id="Layer_1" xmlns="http://www.w3.org/2000/svg" xmlns:xlink="http://www.w3.org/1999/xlink"
	 x="0px" y="0px" viewBox="0 0 24 24" xml:space="preserve">
<path d="M21.952,24H2.048C0.919,24,0,23.082,0,21.953V2.5C0,2.224,0.224,2,0.5,2H5c0.276,0,0.5,0.224,0.5,0.5S5.276,3,5,3H1v18.953
	C1,22.53,1.47,23,2.048,23h19.904C22.53,23,23,22.53,23,21.953V3h-2c-0.276,0-0.5-0.224-0.5-0.5S20.724,2,21,2h2.5
	C23.776,2,24,2.224,24,2.5v19.453C24,23.082,23.081,24,21.952,24z"/>
<path d="M8.5,4h-3C5.224,4,5,3.776,5,3.5v-3C5,0.224,5.224,0,5.5,0h3C8.776,0,9,0.224,9,0.5v3C9,3.776,8.776,4,8.5,4z M6,3h2V1H6V3z
	"/>
<path d="M20.5,4h-3C17.224,4,17,3.776,17,3.5v-3C17,0.224,17.224,0,17.5,0h3C20.776,0,21,0.224,21,0.5v3C21,3.776,20.776,4,20.5,4z
	 M18,3h2V1h-2V3z"/>
<path d="M17,3H9C8.724,3,8.5,2.776,8.5,2.5S8.724,2,9,2h8c0.276,0,0.5,0.224,0.5,0.5S17.276,3,17,3z"/>
<rect y="6" width="23" height="1"/>
<g>
	<path d="M8.5,19.5C8.224,19.5,8,19.276,8,19v-6.571l-1.201,1.027c-0.21,0.179-0.525,0.156-0.705-0.055
		c-0.18-0.209-0.155-0.525,0.055-0.705l2.026-1.732c0.148-0.127,0.358-0.156,0.534-0.074C8.887,10.971,9,11.148,9,11.344V19
		C9,19.276,8.776,19.5,8.5,19.5z"/>
	<path d="M11,20H6c-0.276,0-0.5-0.224-0.5-0.5S5.724,19,6,19h5c0.276,0,0.5,0.224,0.5,0.5S11.276,20,11,20z"/>
</g>
<g>
	<path d="M14.351,19.848c-0.057,0-0.115-0.01-0.172-0.03c-0.259-0.095-0.393-0.382-0.298-0.641L16.5,12H13
		c0,0.276-0.224,0.5-0.5,0.5S12,12.276,12,12v-0.5c0-0.276,0.224-0.5,0.5-0.5h4.715c0.163,0,0.316,0.08,0.41,0.213
		c0.093,0.134,0.115,0.305,0.06,0.458l-2.864,7.848C14.746,19.722,14.555,19.848,14.351,19.848z"/>
</g>
</svg>
