<svg baseProfile="tiny" xmlns="http://www.w3.org/2000/svg" viewBox="0 0 24 24"><path d="M21.952 24H2.048A2.05 2.05 0 0 1 0 21.953V2.5A.5.5 0 0 1 .5 2H5a.5.5 0 0 1 0 1H1v18.953C1 22.53 1.47 23 2.048 23h19.904C22.53 23 23 22.53 23 21.953V3h-2a.5.5 0 0 1 0-1h2.5a.5.5 0 0 1 .5.5v19.453A2.05 2.05 0 0 1 21.952 24z"/><path d="M8.5 4h-3a.5.5 0 0 1-.5-.5v-3a.5.5 0 0 1 .5-.5h3a.5.5 0 0 1 .5.5v3a.5.5 0 0 1-.5.5zM6 3h2V1H6v2zM20.5 4h-3a.5.5 0 0 1-.5-.5v-3a.5.5 0 0 1 .5-.5h3a.5.5 0 0 1 .5.5v3a.5.5 0 0 1-.5.5zM18 3h2V1h-2v2z"/><path d="M17 3H9a.5.5 0 0 1 0-1h8a.5.5 0 0 1 0 1zM0 6h23v1H0zM8.5 19.5A.5.5 0 0 1 8 19v-6.571l-1.201 1.027a.5.5 0 1 1-.65-.76l2.026-1.732a.499.499 0 0 1 .825.38V19a.5.5 0 0 1-.5.5z"/><path d="M11 20H6a.5.5 0 0 1 0-1h5a.5.5 0 0 1 0 1z"/><g><path d="M14.351 19.848a.5.5 0 0 1-.47-.671L16.5 12H13a.5.5 0 0 1-1 0v-.5a.5.5 0 0 1 .5-.5h4.715c.163 0 .316.08.41.213a.505.505 0 0 1 .06.458l-2.864 7.848a.502.502 0 0 1-.47.329z"/></g></svg>