<svg baseProfile="tiny" xmlns="http://www.w3.org/2000/svg" viewBox="0 0 24 24"><path d="M.5 15.5A.5.5 0 0 1 0 15v-5a.5.5 0 0 1 1 0v5a.5.5 0 0 1-.5.5zM23.5 22.5a.5.5 0 0 1-.5-.5V2a.5.5 0 0 1 1 0v20a.5.5 0 0 1-.5.5z"/><path d="M23.5 21.806a.517.517 0 0 1-.151-.023l-23-7.319A.503.503 0 0 1 0 13.986v-3.138c0-.218.141-.41.348-.477l23-7.319a.5.5 0 0 1 .652.477v17.776c0 .159-.076.31-.205.403a.5.5 0 0 1-.295.098zM1 13.621l22 7.001V4.213L1 11.214v2.407z"/><path d="M9.677 21.434C6.638 21.434 6 19.722 6 18.285V16a.5.5 0 0 1 1 0v2.285c0 1 .304 2.148 2.677 2.148 1.776 0 2.677-.776 2.677-2.309a.5.5 0 0 1 1 0c0 2.104-1.341 3.31-3.677 3.31z"/></svg>