<?xml version="1.0" encoding="iso-8859-1"?>
<!-- Generator: Adobe Illustrator 19.1.0, SVG Export Plug-In . SVG Version: 6.00 Build 0)  -->
<!DOCTYPE svg PUBLIC "-//W3C//DTD SVG 1.1 Tiny//EN" "http://www.w3.org/Graphics/SVG/1.1/DTD/svg11-tiny.dtd">
<svg version="1.1" baseProfile="tiny" id="Layer_1" xmlns="http://www.w3.org/2000/svg" xmlns:xlink="http://www.w3.org/1999/xlink"
	 x="0px" y="0px" viewBox="0 0 24 24" xml:space="preserve">
<path d="M0.5,15.5C0.224,15.5,0,15.276,0,15v-5c0-0.276,0.224-0.5,0.5-0.5S1,9.724,1,10v5C1,15.276,0.776,15.5,0.5,15.5z"/>
<path d="M23.5,22.5c-0.276,0-0.5-0.224-0.5-0.5V2c0-0.276,0.224-0.5,0.5-0.5S24,1.724,24,2v20C24,22.276,23.776,22.5,23.5,22.5z"/>
<path d="M23.5,21.806c-0.051,0-0.102-0.008-0.151-0.023l-23-7.319C0.141,14.396,0,14.204,0,13.986v-3.138
	c0-0.218,0.141-0.41,0.348-0.477l23-7.319c0.151-0.048,0.317-0.021,0.446,0.073C23.924,3.22,24,3.37,24,3.529v17.776
	c0,0.159-0.076,0.31-0.205,0.403C23.708,21.772,23.604,21.806,23.5,21.806z M1,13.621l22,7.001V4.213L1,11.214V13.621z"/>
<path d="M9.677,21.434C6.638,21.434,6,19.722,6,18.285V16c0-0.276,0.224-0.5,0.5-0.5S7,15.724,7,16v2.285
	c0,1,0.304,2.148,2.677,2.148c1.776,0,2.677-0.776,2.677-2.309c0-0.276,0.224-0.5,0.5-0.5s0.5,0.224,0.5,0.5
	C13.354,20.228,12.013,21.434,9.677,21.434z"/>
</svg>
