<?xml version="1.0" encoding="utf-8"?>
<!-- Generator: Adobe Illustrator 19.1.0, SVG Export Plug-In . SVG Version: 6.00 Build 0)  -->
<!DOCTYPE svg PUBLIC "-//W3C//DTD SVG 1.1 Tiny//EN" "http://www.w3.org/Graphics/SVG/1.1/DTD/svg11-tiny.dtd">
<svg version="1.1" baseProfile="tiny" id="Layer_1" xmlns="http://www.w3.org/2000/svg" xmlns:xlink="http://www.w3.org/1999/xlink"
	 x="0px" y="0px" viewBox="0 0 24 24" xml:space="preserve">
<g>
	<path d="M20.5,24h-16C4.2,24,4,23.8,4,23.5v-20C4,3.2,4.2,3,4.5,3H8c0.3,0,0.5,0.2,0.5,0.5S8.3,4,8,4H5v19h15V4h-3
		c-0.3,0-0.5-0.2-0.5-0.5S16.7,3,17,3h3.5C20.8,3,21,3.2,21,3.5v20C21,23.8,20.8,24,20.5,24z"/>
	<path d="M16.5,7h-8C8.2,7,8,6.8,8,6.5v-4C8,2.2,8.2,2,8.5,2H10c0.2-2,1.4-2,2.5-2s2.3,0,2.5,2h1.5C16.8,2,17,2.2,17,2.5v4
		C17,6.8,16.8,7,16.5,7z M9,6h7V3h-1.5C14.2,3,14,2.8,14,2.5C14,1,13.6,1,12.5,1S11,1,11,2.5C11,2.8,10.8,3,10.5,3H9V6z"/>
	<path d="M18.5,21h-12C6.2,21,6,20.8,6,20.5v-15C6,5.2,6.2,5,6.5,5H8c0.3,0,0.5,0.2,0.5,0.5S8.3,6,8,6H7v14h11V6h-1
		c-0.3,0-0.5-0.2-0.5-0.5S16.7,5,17,5h1.5C18.8,5,19,5.2,19,5.5v15C19,20.8,18.8,21,18.5,21z"/>
</g>
</svg>
