<svg baseProfile="tiny" xmlns="http://www.w3.org/2000/svg" viewBox="0 0 24 24"><path d="M20.5 24h-16a.5.5 0 0 1-.5-.5v-20a.5.5 0 0 1 .5-.5H8a.5.5 0 0 1 0 1H5v19h15V4h-3a.5.5 0 0 1 0-1h3.5a.5.5 0 0 1 .5.5v20a.5.5 0 0 1-.5.5z"/><path d="M16.5 7h-8a.5.5 0 0 1-.5-.5v-4a.5.5 0 0 1 .5-.5h1.521c.176-2 1.445-2 2.479-2s2.303 0 2.479 2H16.5a.5.5 0 0 1 .5.5v4a.5.5 0 0 1-.5.5zM9 6h7V3h-1.5a.5.5 0 0 1-.5-.5C14 1 13.592 1 12.5 1S11 1 11 2.5a.5.5 0 0 1-.5.5H9v3z"/><path d="M18.5 21h-12a.5.5 0 0 1-.5-.5v-15a.5.5 0 0 1 .5-.5H8a.5.5 0 0 1 0 1H7v14h11V6h-1a.5.5 0 0 1 0-1h1.5a.5.5 0 0 1 .5.5v15a.5.5 0 0 1-.5.5z"/></svg>