<?xml version="1.0" encoding="iso-8859-1"?>
<!-- Generator: Adobe Illustrator 19.1.0, SVG Export Plug-In . SVG Version: 6.00 Build 0)  -->
<!DOCTYPE svg PUBLIC "-//W3C//DTD SVG 1.1 Tiny//EN" "http://www.w3.org/Graphics/SVG/1.1/DTD/svg11-tiny.dtd">
<svg version="1.1" baseProfile="tiny" id="Layer_1" xmlns="http://www.w3.org/2000/svg" xmlns:xlink="http://www.w3.org/1999/xlink"
	 x="0px" y="0px" viewBox="0 0 24 24" xml:space="preserve">
<g id="XMLID_555_">
	<path d="M20.667,21.167c-0.128,0-0.256-0.049-0.354-0.146L2.98,3.687c-0.195-0.195-0.195-0.512,0-0.707s0.512-0.195,0.707,0
		l17.333,17.333c0.195,0.195,0.195,0.512,0,0.707C20.923,21.118,20.795,21.167,20.667,21.167z"/>
	<path d="M3.333,21.167c-0.128,0-0.256-0.049-0.354-0.146c-0.195-0.195-0.195-0.512,0-0.707L20.313,2.98
		c0.195-0.195,0.512-0.195,0.707,0s0.195,0.512,0,0.707L3.687,21.02C3.589,21.118,3.461,21.167,3.333,21.167z"/>
</g>
</svg>
