<?xml version="1.0" encoding="utf-8"?>
<!-- Generator: Adobe Illustrator 19.1.0, SVG Export Plug-In . SVG Version: 6.00 Build 0)  -->
<!DOCTYPE svg PUBLIC "-//W3C//DTD SVG 1.1 Tiny//EN" "http://www.w3.org/Graphics/SVG/1.1/DTD/svg11-tiny.dtd">
<svg version="1.1" baseProfile="tiny" id="Layer_1" xmlns="http://www.w3.org/2000/svg" xmlns:xlink="http://www.w3.org/1999/xlink"
	 x="0px" y="0px" viewBox="0 0 24 24" xml:space="preserve">
<g id="XMLID_555_">
	<path d="M20.7,21.2c-0.1,0-0.3,0-0.4-0.1L3,3.7C2.8,3.5,2.8,3.2,3,3s0.5-0.2,0.7,0L21,20.3c0.2,0.2,0.2,0.5,0,0.7
		C20.9,21.1,20.8,21.2,20.7,21.2z"/>
	<path d="M3.3,21.2c-0.1,0-0.3,0-0.4-0.1c-0.2-0.2-0.2-0.5,0-0.7L20.3,3c0.2-0.2,0.5-0.2,0.7,0s0.2,0.5,0,0.7L3.7,21
		C3.6,21.1,3.5,21.2,3.3,21.2z"/>
</g>
</svg>
