<svg baseProfile="tiny" xmlns="http://www.w3.org/2000/svg" viewBox="0 0 24 24"><path d="M6.622 12.669a.5.5 0 0 1-.354-.853l2.19-2.19-2.19-2.19a.5.5 0 0 1 .707-.707L9.52 9.272a.5.5 0 0 1 0 .707l-2.544 2.543a.5.5 0 0 1-.354.147zM17 11h-5a.5.5 0 0 1 0-1h5a.5.5 0 0 1 0 1z"/><path d="M23.5 22H.5a.5.5 0 0 1-.5-.5v-20A.5.5 0 0 1 .5 1h23a.5.5 0 0 1 .5.5v20a.5.5 0 0 1-.5.5zM1 21h22V2H1v19z"/><path d="M20.5 19h-17a.5.5 0 0 1-.5-.5v-14a.5.5 0 0 1 .5-.5h17a.5.5 0 0 1 .5.5v14a.5.5 0 0 1-.5.5zM4 18h16V5H4v13z"/></svg>