<?xml version="1.0" encoding="utf-8"?>
<!-- Generator: Adobe Illustrator 19.1.0, SVG Export Plug-In . SVG Version: 6.00 Build 0)  -->
<!DOCTYPE svg PUBLIC "-//W3C//DTD SVG 1.1 Tiny//EN" "http://www.w3.org/Graphics/SVG/1.1/DTD/svg11-tiny.dtd">
<svg version="1.1" baseProfile="tiny" id="Layer_1" xmlns="http://www.w3.org/2000/svg" xmlns:xlink="http://www.w3.org/1999/xlink"
	 x="0px" y="0px" viewBox="0 0 24 24" xml:space="preserve">
<path d="M6.6,12.7c-0.1,0-0.3,0-0.4-0.1c-0.2-0.2-0.2-0.5,0-0.7l2.2-2.2L6.3,7.4c-0.2-0.2-0.2-0.5,0-0.7s0.5-0.2,0.7,0l2.5,2.5
	c0.1,0.1,0.1,0.2,0.1,0.4S9.6,9.9,9.5,10L7,12.5C6.9,12.6,6.8,12.7,6.6,12.7z"/>
<path d="M17,11h-5c-0.3,0-0.5-0.2-0.5-0.5S11.7,10,12,10h5c0.3,0,0.5,0.2,0.5,0.5S17.3,11,17,11z"/>
<path d="M23.5,22h-23C0.2,22,0,21.8,0,21.5v-20C0,1.2,0.2,1,0.5,1h23C23.8,1,24,1.2,24,1.5v20C24,21.8,23.8,22,23.5,22z M1,21h22V2
	H1V21z"/>
<path d="M20.5,19h-17C3.2,19,3,18.8,3,18.5v-14C3,4.2,3.2,4,3.5,4h17C20.8,4,21,4.2,21,4.5v14C21,18.8,20.8,19,20.5,19z M4,18h16V5
	H4V18z"/>
</svg>
