<svg baseProfile="tiny" xmlns="http://www.w3.org/2000/svg" viewBox="0 0 24 24"><path d="M5.444 9.5a3.332 3.332 0 0 1-3.328-3.328c0-1.835 1.493-3.329 3.328-3.329s3.328 1.493 3.328 3.329A3.332 3.332 0 0 1 5.444 9.5zm0-5.657a2.33 2.33 0 0 0-2.328 2.329C3.116 7.456 4.16 8.5 5.444 8.5s2.328-1.044 2.328-2.328a2.33 2.33 0 0 0-2.328-2.329zM7.5 22h-4a.5.5 0 0 1-.5-.5v-4.603C2.046 15.976.5 13.675.5 10.5A.5.5 0 0 1 1 10h8.889a.5.5 0 0 1 .5.5c0 2.858-1.207 5.265-2.389 6.398V21.5a.5.5 0 0 1-.5.5zM4 21h3v-4.323a.5.5 0 0 1 .175-.38c.838-.715 2.06-2.68 2.2-5.296h-7.86c.151 2.557 1.432 4.546 2.311 5.296.11.095.174.234.174.38V21z"/><g><path d="M18.556 9.5a3.332 3.332 0 0 1-3.328-3.328c0-1.835 1.493-3.329 3.328-3.329s3.328 1.493 3.328 3.329A3.332 3.332 0 0 1 18.556 9.5zm0-5.657a2.33 2.33 0 0 0-2.328 2.329c0 1.284 1.044 2.328 2.328 2.328s2.328-1.044 2.328-2.328a2.331 2.331 0 0 0-2.328-2.329zM20.5 22h-4a.5.5 0 0 1-.5-.5v-4.602c-1.182-1.133-2.389-3.54-2.389-6.398a.5.5 0 0 1 .5-.5H23a.5.5 0 0 1 .5.5c0 3.175-1.546 5.476-2.5 6.397V21.5a.5.5 0 0 1-.5.5zM17 21h3v-4.323a.5.5 0 0 1 .175-.38c.879-.75 2.159-2.74 2.311-5.296h-7.86c.141 2.617 1.362 4.581 2.2 5.296.11.095.175.234.175.38V21z"/></g></svg>