<?xml version="1.0" encoding="iso-8859-1"?>
<!-- Generator: Adobe Illustrator 19.1.0, SVG Export Plug-In . SVG Version: 6.00 Build 0)  -->
<!DOCTYPE svg PUBLIC "-//W3C//DTD SVG 1.1 Tiny//EN" "http://www.w3.org/Graphics/SVG/1.1/DTD/svg11-tiny.dtd">
<svg version="1.1" baseProfile="tiny" id="Layer_1" xmlns="http://www.w3.org/2000/svg" xmlns:xlink="http://www.w3.org/1999/xlink"
	 x="0px" y="0px" viewBox="0 0 24 24" xml:space="preserve">
<path d="M15,9.5c-0.128,0-0.256-0.049-0.354-0.146c-0.195-0.195-0.195-0.512,0-0.707l8-8c0.195-0.195,0.512-0.195,0.707,0
	s0.195,0.512,0,0.707l-8,8C15.256,9.451,15.128,9.5,15,9.5z"/>
<path d="M19.5,10h-5C14.224,10,14,9.776,14,9.5v-5C14,4.224,14.224,4,14.5,4S15,4.224,15,4.5V9h4.5C19.776,9,20,9.224,20,9.5
	S19.776,10,19.5,10z"/>
<path d="M1,23.5c-0.128,0-0.256-0.049-0.354-0.146c-0.195-0.195-0.195-0.512,0-0.707l8-8c0.195-0.195,0.512-0.195,0.707,0
	s0.195,0.512,0,0.707l-8,8C1.256,23.451,1.128,23.5,1,23.5z"/>
<path d="M9.5,20C9.224,20,9,19.776,9,19.5V15H4.5C4.224,15,4,14.776,4,14.5S4.224,14,4.5,14h5c0.276,0,0.5,0.224,0.5,0.5v5
	C10,19.776,9.776,20,9.5,20z"/>
<path d="M23,23.5c-0.128,0-0.256-0.049-0.354-0.146l-8-8c-0.195-0.195-0.195-0.512,0-0.707s0.512-0.195,0.707,0l8,8
	c0.195,0.195,0.195,0.512,0,0.707C23.256,23.451,23.128,23.5,23,23.5z"/>
<path d="M14.5,20c-0.276,0-0.5-0.224-0.5-0.5v-5c0-0.276,0.224-0.5,0.5-0.5h5c0.276,0,0.5,0.224,0.5,0.5S19.776,15,19.5,15H15v4.5
	C15,19.776,14.776,20,14.5,20z"/>
<path d="M9,9.5c-0.128,0-0.256-0.049-0.354-0.146l-8-8c-0.195-0.195-0.195-0.512,0-0.707s0.512-0.195,0.707,0l8,8
	c0.195,0.195,0.195,0.512,0,0.707C9.256,9.451,9.128,9.5,9,9.5z"/>
<path d="M9.5,10h-5C4.224,10,4,9.776,4,9.5S4.224,9,4.5,9H9V4.5C9,4.224,9.224,4,9.5,4S10,4.224,10,4.5v5C10,9.776,9.776,10,9.5,10z
	"/>
</svg>
