<svg baseProfile="tiny" xmlns="http://www.w3.org/2000/svg" viewBox="0 0 24 24"><path d="M15 9.5a.5.5 0 0 1-.354-.853l8-8a.5.5 0 0 1 .707.707l-8 8A.498.498 0 0 1 15 9.5z"/><path d="M19.5 10h-5a.5.5 0 0 1-.5-.5v-5a.5.5 0 0 1 1 0V9h4.5a.5.5 0 0 1 0 1zM1 23.5a.5.5 0 0 1-.354-.853l8-8a.5.5 0 0 1 .707.707l-8 8A.498.498 0 0 1 1 23.5z"/><path d="M9.5 20a.5.5 0 0 1-.5-.5V15H4.5a.5.5 0 0 1 0-1h5a.5.5 0 0 1 .5.5v5a.5.5 0 0 1-.5.5zM23 23.5a.502.502 0 0 1-.354-.146l-8-8a.5.5 0 0 1 .707-.707l8 8A.5.5 0 0 1 23 23.5z"/><path d="M14.5 20a.5.5 0 0 1-.5-.5v-5a.5.5 0 0 1 .5-.5h5a.5.5 0 0 1 0 1H15v4.5a.5.5 0 0 1-.5.5zM9 9.5a.502.502 0 0 1-.354-.146l-8-8a.5.5 0 0 1 .707-.707l8 8A.5.5 0 0 1 9 9.5z"/><path d="M9.5 10h-5a.5.5 0 0 1 0-1H9V4.5a.5.5 0 0 1 1 0v5a.5.5 0 0 1-.5.5z"/></svg>