<?xml version="1.0" encoding="iso-8859-1"?>
<!-- Generator: Adobe Illustrator 19.1.0, SVG Export Plug-In . SVG Version: 6.00 Build 0)  -->
<!DOCTYPE svg PUBLIC "-//W3C//DTD SVG 1.1 Tiny//EN" "http://www.w3.org/Graphics/SVG/1.1/DTD/svg11-tiny.dtd">
<svg version="1.1" baseProfile="tiny" id="Layer_1" xmlns="http://www.w3.org/2000/svg" xmlns:xlink="http://www.w3.org/1999/xlink"
	 x="0px" y="0px" viewBox="0 0 24 24" xml:space="preserve">
<g>
	<path d="M5.444,9.5c-1.835,0-3.328-1.493-3.328-3.328c0-1.835,1.493-3.329,3.328-3.329s3.328,1.493,3.328,3.329
		C8.772,8.007,7.279,9.5,5.444,9.5z M5.444,3.843c-1.284,0-2.328,1.044-2.328,2.329C3.116,7.456,4.16,8.5,5.444,8.5
		s2.328-1.044,2.328-2.328C7.772,4.888,6.729,3.843,5.444,3.843z"/>
	<path d="M7.5,22h-4C3.224,22,3,21.776,3,21.5v-4.603c-0.954-0.921-2.5-3.222-2.5-6.397C0.5,10.224,0.724,10,1,10h8.889
		c0.276,0,0.5,0.224,0.5,0.5c0,2.858-1.207,5.265-2.389,6.398V21.5C8,21.776,7.776,22,7.5,22z M4,21h3v-4.323
		c0-0.146,0.064-0.285,0.175-0.38c0.838-0.715,2.06-2.68,2.2-5.296h-7.86c0.151,2.557,1.432,4.546,2.311,5.296
		C3.936,16.392,4,16.531,4,16.677V21z"/>
</g>
<g>
	<path d="M18.556,9.5c-1.835,0-3.328-1.493-3.328-3.328c0-1.835,1.493-3.329,3.328-3.329s3.328,1.493,3.328,3.329
		C21.884,8.007,20.391,9.5,18.556,9.5z M18.556,3.843c-1.284,0-2.328,1.044-2.328,2.329c0,1.284,1.044,2.328,2.328,2.328
		s2.328-1.044,2.328-2.328C20.884,4.888,19.84,3.843,18.556,3.843z"/>
	<path d="M20.5,22h-4c-0.276,0-0.5-0.224-0.5-0.5v-4.602c-1.182-1.133-2.389-3.54-2.389-6.398c0-0.276,0.224-0.5,0.5-0.5H23
		c0.276,0,0.5,0.224,0.5,0.5c0,3.175-1.546,5.476-2.5,6.397V21.5C21,21.776,20.776,22,20.5,22z M17,21h3v-4.323
		c0-0.146,0.064-0.285,0.175-0.38c0.879-0.75,2.159-2.74,2.311-5.296h-7.86c0.141,2.617,1.362,4.581,2.2,5.296
		c0.11,0.095,0.175,0.234,0.175,0.38V21z"/>
</g>
</svg>
