<?xml version="1.0" encoding="utf-8"?>
<!-- Generator: Adobe Illustrator 19.1.0, SVG Export Plug-In . SVG Version: 6.00 Build 0)  -->
<!DOCTYPE svg PUBLIC "-//W3C//DTD SVG 1.1 Tiny//EN" "http://www.w3.org/Graphics/SVG/1.1/DTD/svg11-tiny.dtd">
<svg version="1.1" baseProfile="tiny" id="Layer_1" xmlns="http://www.w3.org/2000/svg" xmlns:xlink="http://www.w3.org/1999/xlink"
	 x="0px" y="0px" viewBox="0 0 24 24" xml:space="preserve">
<g>
	<path d="M5.4,9.5C3.6,9.5,2.1,8,2.1,6.2c0-1.8,1.5-3.3,3.3-3.3s3.3,1.5,3.3,3.3C8.8,8,7.3,9.5,5.4,9.5z M5.4,3.8
		c-1.3,0-2.3,1-2.3,2.3c0,1.3,1,2.3,2.3,2.3s2.3-1,2.3-2.3C7.8,4.9,6.7,3.8,5.4,3.8z"/>
	<path d="M7.5,22h-4C3.2,22,3,21.8,3,21.5v-4.6c-1-0.9-2.5-3.2-2.5-6.4C0.5,10.2,0.7,10,1,10h8.9c0.3,0,0.5,0.2,0.5,0.5
		c0,2.9-1.2,5.3-2.4,6.4v4.6C8,21.8,7.8,22,7.5,22z M4,21h3v-4.3c0-0.1,0.1-0.3,0.2-0.4C8,15.6,9.2,13.6,9.4,11H1.5
		c0.2,2.6,1.4,4.5,2.3,5.3C3.9,16.4,4,16.5,4,16.7V21z"/>
</g>
<g>
	<path d="M18.6,9.5c-1.8,0-3.3-1.5-3.3-3.3c0-1.8,1.5-3.3,3.3-3.3s3.3,1.5,3.3,3.3C21.9,8,20.4,9.5,18.6,9.5z M18.6,3.8
		c-1.3,0-2.3,1-2.3,2.3c0,1.3,1,2.3,2.3,2.3s2.3-1,2.3-2.3C20.9,4.9,19.8,3.8,18.6,3.8z"/>
	<path d="M20.5,22h-4c-0.3,0-0.5-0.2-0.5-0.5v-4.6c-1.2-1.1-2.4-3.5-2.4-6.4c0-0.3,0.2-0.5,0.5-0.5H23c0.3,0,0.5,0.2,0.5,0.5
		c0,3.2-1.5,5.5-2.5,6.4v4.6C21,21.8,20.8,22,20.5,22z M17,21h3v-4.3c0-0.1,0.1-0.3,0.2-0.4c0.9-0.8,2.2-2.7,2.3-5.3h-7.9
		c0.1,2.6,1.4,4.6,2.2,5.3c0.1,0.1,0.2,0.2,0.2,0.4V21z"/>
</g>
</svg>
