<?xml version="1.0" encoding="utf-8"?>
<!-- Generator: Adobe Illustrator 19.2.1, SVG Export Plug-In . SVG Version: 6.00 Build 0)  -->
<!DOCTYPE svg PUBLIC "-//W3C//DTD SVG 1.1 Tiny//EN" "http://www.w3.org/Graphics/SVG/1.1/DTD/svg11-tiny.dtd">
<svg version="1.1" baseProfile="tiny" id="Layer_1" xmlns="http://www.w3.org/2000/svg" xmlns:xlink="http://www.w3.org/1999/xlink"
	 x="0px" y="0px" viewBox="0 0 24 24" xml:space="preserve">
<g>
	<path d="M20.9,24h-17c-0.3,0-0.5-0.2-0.5-0.5v-23C3.4,0.2,3.7,0,3.9,0h10.6c0.1,0,0.3,0.1,0.4,0.1l6.4,6.3c0.1,0.1,0.1,0.2,0.1,0.4
		v16.7C21.4,23.8,21.2,24,20.9,24z M4.4,23h16V7l-6.1-6H4.4V23z"/>
</g>
<g>
	<path d="M20.4,7h-5.5c-0.3,0-0.5-0.2-0.5-0.5V1c0-0.3,0.2-0.5,0.5-0.5s0.5,0.2,0.5,0.5v5h5c0.3,0,0.5,0.2,0.5,0.5S20.7,7,20.4,7z"
		/>
</g>
<g>
	<circle cx="7.9" cy="16.6" r="0.5"/>
	<path d="M7.9,17.6c-0.5,0-1-0.4-1-1c0-0.5,0.4-1,1-1c0.5,0,1,0.4,1,1C8.9,17.2,8.5,17.6,7.9,17.6z M7.9,16.5
		C7.9,16.5,7.9,16.6,7.9,16.5C7.9,16.7,8,16.7,7.9,16.5C8,16.6,8,16.5,7.9,16.5z"/>
</g>
<g>
	<circle cx="11.1" cy="14" r="0.5"/>
	<path d="M11.1,15c-0.5,0-1-0.4-1-1c0-0.5,0.4-1,1-1c0.5,0,1,0.4,1,1C12,14.5,11.6,15,11.1,15z M11.1,13.9C11,13.9,11,14,11.1,13.9
		C11,14.1,11.2,14.1,11.1,13.9C11.2,14,11.1,13.9,11.1,13.9z"/>
</g>
<g>
	<circle cx="14.2" cy="15.1" r="0.5"/>
	<path d="M14.2,16c-0.5,0-1-0.4-1-1c0-0.5,0.4-1,1-1c0.5,0,1,0.4,1,1C15.2,15.6,14.7,16,14.2,16z M14.2,15C14.2,15,14.1,15,14.2,15
		C14.1,15.2,14.3,15.2,14.2,15C14.3,15,14.3,15,14.2,15z"/>
</g>
<g>
	<circle cx="17.3" cy="11.4" r="0.5"/>
	<path d="M17.3,12.4c-0.5,0-1-0.4-1-1c0-0.5,0.4-1,1-1c0.5,0,1,0.4,1,1C18.3,11.9,17.9,12.4,17.3,12.4z M17.3,11.3
		C17.3,11.3,17.3,11.4,17.3,11.3C17.3,11.5,17.4,11.5,17.3,11.3C17.4,11.4,17.4,11.3,17.3,11.3z"/>
</g>
<g>
	<path d="M8.3,16.7c-0.1,0-0.3-0.1-0.3-0.2c-0.2-0.2-0.1-0.5,0.1-0.6l2.3-1.9c0.2-0.2,0.5-0.1,0.6,0.1c0.2,0.2,0.1,0.5-0.1,0.6
		l-2.3,1.9C8.5,16.7,8.4,16.7,8.3,16.7z"/>
</g>
<g>
	<path d="M13.7,15.3c0,0-0.1,0-0.1,0l-2.2-0.7c-0.2-0.1-0.4-0.3-0.3-0.6c0.1-0.2,0.3-0.4,0.6-0.3l2.2,0.7c0.2,0.1,0.4,0.3,0.3,0.6
		C14.1,15.2,13.9,15.3,13.7,15.3z"/>
</g>
<g>
	<path d="M14.5,15.1c-0.1,0-0.2,0-0.3-0.1c-0.2-0.2-0.2-0.4,0-0.6l2.5-2.9c0.2-0.2,0.4-0.2,0.6,0c0.2,0.2,0.2,0.4,0,0.6L14.9,15
		C14.8,15.1,14.7,15.1,14.5,15.1z"/>
</g>
</svg>
