<?xml version="1.0" encoding="utf-8"?>
<!-- Generator: Adobe Illustrator 19.2.1, SVG Export Plug-In . SVG Version: 6.00 Build 0)  -->
<!DOCTYPE svg PUBLIC "-//W3C//DTD SVG 1.1 Tiny//EN" "http://www.w3.org/Graphics/SVG/1.1/DTD/svg11-tiny.dtd">
<svg version="1.1" baseProfile="tiny" id="Layer_1" xmlns="http://www.w3.org/2000/svg" xmlns:xlink="http://www.w3.org/1999/xlink"
	 x="0px" y="0px" viewBox="0 0 24 24" xml:space="preserve">
<g>
	<path d="M0.9,17.3c-0.3,0-0.5-0.2-0.5-0.5V2.3c0-0.3,0.2-0.5,0.5-0.5h5c0.1,0,0.3,0.1,0.4,0.1l1.9,1.9h10.8c0.3,0,0.5,0.2,0.5,0.5
		v0.5c0,0.3-0.2,0.5-0.5,0.5s-0.5-0.2-0.5-0.5H7.9c-0.1,0-0.3-0.1-0.4-0.1L5.7,2.8H1.4v14C1.4,17.1,1.2,17.3,0.9,17.3z"/>
</g>
<g>
	<path d="M2.9,19.3c-0.3,0-0.5-0.2-0.5-0.5V6.3c0-0.3,0.2-0.5,0.5-0.5h18c0.3,0,0.5,0.2,0.5,0.5v0.5c0,0.3-0.2,0.5-0.5,0.5
		s-0.5-0.2-0.5-0.5h-17v12C3.4,19.1,3.2,19.3,2.9,19.3z"/>
</g>
<g>
	<path d="M22.9,20.8h-18c-0.3,0-0.5-0.2-0.5-0.5v-12c0-0.3,0.2-0.5,0.5-0.5h18c0.3,0,0.5,0.2,0.5,0.5v12
		C23.4,20.6,23.2,20.8,22.9,20.8z M5.4,19.8h17v-11h-17V19.8z"/>
</g>
<g>
	<circle cx="8.9" cy="17.2" r="0.6"/>
	<path d="M8.9,18.3c-0.6,0-1.1-0.5-1.1-1.1s0.5-1.1,1.1-1.1s1.1,0.5,1.1,1.1S9.5,18.3,8.9,18.3z M8.9,17.1
		C8.9,17.1,8.8,17.2,8.9,17.1C8.8,17.3,9,17.3,8.9,17.1C9,17.2,9,17.1,8.9,17.1z"/>
</g>
<g>
	<circle cx="12.5" cy="14.2" r="0.6"/>
	<path d="M12.5,15.3c-0.6,0-1.1-0.5-1.1-1.1s0.5-1.1,1.1-1.1s1.1,0.5,1.1,1.1S13.1,15.3,12.5,15.3z M12.5,14.1
		C12.4,14.1,12.4,14.2,12.5,14.1C12.4,14.3,12.6,14.3,12.5,14.1C12.6,14.2,12.5,14.1,12.5,14.1z"/>
</g>
<g>
	<circle cx="16.1" cy="15.4" r="0.6"/>
	<path d="M16.1,16.5c-0.6,0-1.1-0.5-1.1-1.1s0.5-1.1,1.1-1.1s1.1,0.5,1.1,1.1S16.7,16.5,16.1,16.5z M16.1,15.3
		C16,15.3,16,15.4,16.1,15.3C16,15.5,16.2,15.5,16.1,15.3C16.2,15.4,16.1,15.3,16.1,15.3z"/>
</g>
<g>
	<circle cx="19.7" cy="11.2" r="0.6"/>
	<path d="M19.7,12.3c-0.6,0-1.1-0.5-1.1-1.1s0.5-1.1,1.1-1.1s1.1,0.5,1.1,1.1S20.3,12.3,19.7,12.3z M19.7,11.1
		C19.6,11.1,19.6,11.2,19.7,11.1C19.6,11.3,19.7,11.3,19.7,11.1C19.7,11.2,19.7,11.1,19.7,11.1z"/>
</g>
<g>
	<path d="M9.4,17.3c-0.1,0-0.3-0.1-0.4-0.2c-0.2-0.2-0.1-0.5,0.1-0.7l2.7-2.2c0.2-0.2,0.5-0.1,0.7,0.1c0.2,0.2,0.1,0.5-0.1,0.7
		l-2.7,2.2C9.6,17.3,9.5,17.3,9.4,17.3z"/>
</g>
<g>
	<path d="M15.5,15.7c-0.1,0-0.1,0-0.2,0l-2.5-0.8c-0.3-0.1-0.4-0.4-0.3-0.6c0.1-0.3,0.4-0.4,0.6-0.3l2.5,0.8
		c0.3,0.1,0.4,0.4,0.3,0.6C15.9,15.6,15.7,15.7,15.5,15.7z"/>
</g>
<g>
	<path d="M16.5,15.5c-0.1,0-0.2,0-0.3-0.1c-0.2-0.2-0.2-0.5-0.1-0.7l2.8-3.3c0.2-0.2,0.5-0.2,0.7-0.1c0.2,0.2,0.2,0.5,0.1,0.7
		l-2.8,3.3C16.7,15.4,16.6,15.5,16.5,15.5z"/>
</g>
</svg>
