<svg baseProfile="tiny" xmlns="http://www.w3.org/2000/svg" viewBox="0 0 24 24"><path d="M.9 17.3c-.3 0-.5-.2-.5-.5V2.3c0-.3.2-.5.5-.5h5c.1 0 .3.1.4.1l1.9 1.9H19c.3 0 .5.2.5.5v.5c0 .3-.2.5-.5.5s-.5-.2-.5-.5H7.9c-.1 0-.3-.1-.4-.1L5.7 2.8H1.4v14c0 .3-.2.5-.5.5z"/><path d="M2.9 19.3c-.3 0-.5-.2-.5-.5V6.3c0-.3.2-.5.5-.5h18c.3 0 .5.2.5.5v.5c0 .3-.2.5-.5.5s-.5-.2-.5-.5h-17v12c0 .3-.2.5-.5.5z"/><path d="M22.9 20.8h-18c-.3 0-.5-.2-.5-.5v-12c0-.3.2-.5.5-.5h18c.3 0 .5.2.5.5v12c0 .3-.2.5-.5.5zm-17.5-1h17v-11h-17v11z"/><circle cx="8.9" cy="17.2" r=".6"/><path d="M8.9 18.3c-.6 0-1.1-.5-1.1-1.1s.5-1.1 1.1-1.1 1.1.5 1.1 1.1-.5 1.1-1.1 1.1zm0-1.2s-.1.1 0 0c-.1.2.1.2 0 0 .1.1.1 0 0 0z"/><circle cx="12.5" cy="14.2" r=".6"/><path d="M12.5 15.3c-.6 0-1.1-.5-1.1-1.1s.5-1.1 1.1-1.1 1.1.5 1.1 1.1-.5 1.1-1.1 1.1zm0-1.2c-.1 0-.1.1 0 0-.1.2.1.2 0 0 .1.1 0 0 0 0z"/><circle cx="16.1" cy="15.4" r=".6"/><path d="M16.1 16.5c-.6 0-1.1-.5-1.1-1.1s.5-1.1 1.1-1.1 1.1.5 1.1 1.1-.5 1.1-1.1 1.1zm0-1.2c-.1 0-.1.1 0 0-.1.2.1.2 0 0 .1.1 0 0 0 0z"/><circle cx="19.7" cy="11.2" r=".6"/><path d="M19.7 12.3c-.6 0-1.1-.5-1.1-1.1s.5-1.1 1.1-1.1 1.1.5 1.1 1.1-.5 1.1-1.1 1.1zm0-1.2c-.1 0-.1.1 0 0-.1.2 0 .2 0 0 0 .1 0 0 0 0z"/><g><path d="M9.4 17.3c-.1 0-.3-.1-.4-.2-.2-.2-.1-.5.1-.7l2.7-2.2c.2-.2.5-.1.7.1.2.2.1.5-.1.7l-2.7 2.2c-.1.1-.2.1-.3.1z"/></g><g><path d="M15.5 15.7h-.2l-2.5-.8c-.3-.1-.4-.4-.3-.6.1-.3.4-.4.6-.3l2.5.8c.3.1.4.4.3.6 0 .2-.2.3-.4.3z"/></g><g><path d="M16.5 15.5c-.1 0-.2 0-.3-.1-.2-.2-.2-.5-.1-.7l2.8-3.3c.2-.2.5-.2.7-.1.2.2.2.5.1.7l-2.8 3.3c-.2.1-.3.2-.4.2z"/></g></svg>