<svg baseProfile="tiny" xmlns="http://www.w3.org/2000/svg" viewBox="0 0 24 24"><path d="M20.9 24h-17c-.3 0-.5-.2-.5-.5V.5c0-.3.3-.5.5-.5h10.6c.1 0 .3.1.4.1l6.4 6.3c.1.1.1.2.1.4v16.7c0 .3-.2.5-.5.5zM4.4 23h16V7l-6.1-6H4.4v22z"/><path d="M20.4 7h-5.5c-.3 0-.5-.2-.5-.5V1c0-.3.2-.5.5-.5s.5.2.5.5v5h5c.3 0 .5.2.5.5s-.2.5-.5.5z"/><circle cx="7.9" cy="16.6" r=".5"/><path d="M7.9 17.6c-.5 0-1-.4-1-1 0-.5.4-1 1-1 .5 0 1 .4 1 1s-.4 1-1 1zm0-1.1s0 .1 0 0c0 .2.1.2 0 0 .1.1.1 0 0 0z"/><circle cx="11.1" cy="14" r=".5"/><path d="M11.1 15c-.5 0-1-.4-1-1 0-.5.4-1 1-1 .5 0 1 .4 1 1-.1.5-.5 1-1 1zm0-1.1c-.1 0-.1.1 0 0-.1.2.1.2 0 0 .1.1 0 0 0 0z"/><circle cx="14.2" cy="15.1" r=".5"/><path d="M14.2 16c-.5 0-1-.4-1-1 0-.5.4-1 1-1 .5 0 1 .4 1 1s-.5 1-1 1zm0-1s-.1 0 0 0c-.1.2.1.2 0 0 .1 0 .1 0 0 0z"/><circle cx="17.3" cy="11.4" r=".5"/><path d="M17.3 12.4c-.5 0-1-.4-1-1 0-.5.4-1 1-1 .5 0 1 .4 1 1 0 .5-.4 1-1 1zm0-1.1s0 .1 0 0c0 .2.1.2 0 0 .1.1.1 0 0 0z"/><g><path d="M8.3 16.7c-.1 0-.3-.1-.3-.2-.2-.2-.1-.5.1-.6l2.3-1.9c.2-.2.5-.1.6.1.2.2.1.5-.1.6l-2.3 1.9c-.1.1-.2.1-.3.1z"/></g><g><path d="M13.7 15.3h-.1l-2.2-.7c-.2-.1-.4-.3-.3-.6.1-.2.3-.4.6-.3l2.2.7c.2.1.4.3.3.6-.1.2-.3.3-.5.3z"/></g><g><path d="M14.5 15.1c-.1 0-.2 0-.3-.1-.2-.2-.2-.4 0-.6l2.5-2.9c.2-.2.4-.2.6 0 .2.2.2.4 0 .6L14.9 15c-.1.1-.2.1-.4.1z"/></g></svg>