<svg baseProfile="tiny" xmlns="http://www.w3.org/2000/svg" viewBox="0 0 24 24"><path d="M21.5 11.4h-8c-.3 0-.1-.6-.1-.8V.6c0-.3-.2-.2.1-.2H19c.1 0 .2-.1.3-.1l2.7 2c.1.1.4.2.4.3v7.9c0 .4-.6.9-.9.9zm-7.1-1h7V2.9l-2.6-1.5h-4.4v9z"/><path d="M21 4.4h-2.5c-.3 0-.1-.6-.1-.8V1.1c0-.3.2-.5.5-.5s.5.2.5.5v2.3H21c.3 0 .5.2.5.5s-.2.5-.5.5zM10.5 11.4h-8c-.3 0-.1-.6-.1-.8V.6c0-.3-.2-.2.1-.2H8c.1 0 .2-.1.3-.1l2.7 2c.1.1.4.2.4.3v7.9c0 .4-.6.9-.9.9zm-7.1-1h7V2.9L7.8 1.4H3.4v9z"/><path d="M10 4.4H7.5c-.3 0-.1-.6-.1-.8V1.1c0-.3.2-.5.5-.5s.5.2.5.5v2.3H10c.3 0 .5.2.5.5s-.2.5-.5.5zM21.5 24.4h-8c-.3 0-.1-.6-.1-.8v-10c0-.3-.2-.2.1-.2H19c.1 0 .2-.1.3-.1l2.7 2c.1.1.4.2.4.3v7.9c0 .4-.6.9-.9.9zm-7.1-1h7v-7.5l-2.6-1.5h-4.4v9z"/><path d="M21 17.4h-2.5c-.3 0-.1-.6-.1-.8v-2.5c0-.3.2-.5.5-.5s.5.2.5.5v2.3H21c.3 0 .5.2.5.5s-.2.5-.5.5zM10.5 24.4h-8c-.3 0-.1-.6-.1-.8v-10c0-.3-.2-.2.1-.2H8c.1 0 .2-.1.3-.1l2.7 2c.1.1.4.2.4.3v7.9c0 .4-.6.9-.9.9zm-7.1-1h7v-7.5l-2.6-1.5H3.4v9z"/><path d="M10 17.4H7.5c-.3 0-.1-.6-.1-.8v-2.5c0-.3.2-.5.5-.5s.5.2.5.5v2.3H10c.3 0 .5.2.5.5s-.2.5-.5.5z"/></svg>