<?xml version="1.0" encoding="utf-8"?>
<!-- Generator: Adobe Illustrator 19.2.1, SVG Export Plug-In . SVG Version: 6.00 Build 0)  -->
<!DOCTYPE svg PUBLIC "-//W3C//DTD SVG 1.1 Tiny//EN" "http://www.w3.org/Graphics/SVG/1.1/DTD/svg11-tiny.dtd">
<svg version="1.1" baseProfile="tiny" id="Layer_1" xmlns="http://www.w3.org/2000/svg" xmlns:xlink="http://www.w3.org/1999/xlink"
	 x="0px" y="0px" viewBox="0 0 24 24" xml:space="preserve">
<path d="M21.5,11.4h-8c-0.3,0-0.1-0.6-0.1-0.8v-10c0-0.3-0.2-0.2,0.1-0.2H19c0.1,0,0.2-0.1,0.3-0.1l2.7,2c0.1,0.1,0.4,0.2,0.4,0.3
	v7.9C22.4,10.9,21.8,11.4,21.5,11.4z M14.4,10.4h7V2.9l-2.6-1.5h-4.4V10.4z"/>
<path d="M21,4.4h-2.5c-0.3,0-0.1-0.6-0.1-0.8V1.1c0-0.3,0.2-0.5,0.5-0.5s0.5,0.2,0.5,0.5v2.3H21c0.3,0,0.5,0.2,0.5,0.5
	S21.3,4.4,21,4.4z"/>
<path d="M10.5,11.4h-8c-0.3,0-0.1-0.6-0.1-0.8v-10c0-0.3-0.2-0.2,0.1-0.2H8c0.1,0,0.2-0.1,0.3-0.1l2.7,2c0.1,0.1,0.4,0.2,0.4,0.3
	v7.9C11.4,10.9,10.8,11.4,10.5,11.4z M3.4,10.4h7V2.9L7.8,1.4H3.4V10.4z"/>
<path d="M10,4.4H7.5c-0.3,0-0.1-0.6-0.1-0.8V1.1c0-0.3,0.2-0.5,0.5-0.5c0.3,0,0.5,0.2,0.5,0.5v2.3H10c0.3,0,0.5,0.2,0.5,0.5
	S10.3,4.4,10,4.4z"/>
<path d="M21.5,24.4h-8c-0.3,0-0.1-0.6-0.1-0.8v-10c0-0.3-0.2-0.2,0.1-0.2H19c0.1,0,0.2-0.1,0.3-0.1l2.7,2c0.1,0.1,0.4,0.2,0.4,0.3
	v7.9C22.4,23.9,21.8,24.4,21.5,24.4z M14.4,23.4h7v-7.5l-2.6-1.5h-4.4V23.4z"/>
<path d="M21,17.4h-2.5c-0.3,0-0.1-0.6-0.1-0.8v-2.5c0-0.3,0.2-0.5,0.5-0.5s0.5,0.2,0.5,0.5v2.3H21c0.3,0,0.5,0.2,0.5,0.5
	S21.3,17.4,21,17.4z"/>
<path d="M10.5,24.4h-8c-0.3,0-0.1-0.6-0.1-0.8v-10c0-0.3-0.2-0.2,0.1-0.2H8c0.1,0,0.2-0.1,0.3-0.1l2.7,2c0.1,0.1,0.4,0.2,0.4,0.3
	v7.9C11.4,23.9,10.8,24.4,10.5,24.4z M3.4,23.4h7v-7.5l-2.6-1.5H3.4V23.4z"/>
<path d="M10,17.4H7.5c-0.3,0-0.1-0.6-0.1-0.8v-2.5c0-0.3,0.2-0.5,0.5-0.5c0.3,0,0.5,0.2,0.5,0.5v2.3H10c0.3,0,0.5,0.2,0.5,0.5
	S10.3,17.4,10,17.4z"/>
</svg>
