<svg baseProfile="tiny" xmlns="http://www.w3.org/2000/svg" viewBox="0 0 24 24"><path d="M22 21H2c-1.103 0-2-.937-2-2.088V4.088C0 2.937.897 2 2 2h20c1.103 0 2 .937 2 2.088v14.824C24 20.063 23.103 21 22 21zM2 3c-.552 0-1 .488-1 1.088v14.824c0 .6.448 1.088 1 1.088h20c.552 0 1-.488 1-1.088V4.088C23 3.488 22.552 3 22 3H2zM19 23H5a.5.5 0 0 1 0-1h14a.5.5 0 0 1 0 1z"/><path d="M12 23a.5.5 0 0 1-.5-.5v-2a.5.5 0 0 1 1 0v2a.5.5 0 0 1-.5.5z"/><circle cx="12" cy="18.5" r="1"/><path d="M.5 16h23v1H.5z"/></svg>