<?xml version="1.0" encoding="iso-8859-1"?>
<!-- Generator: Adobe Illustrator 19.1.0, SVG Export Plug-In . SVG Version: 6.00 Build 0)  -->
<!DOCTYPE svg PUBLIC "-//W3C//DTD SVG 1.1 Tiny//EN" "http://www.w3.org/Graphics/SVG/1.1/DTD/svg11-tiny.dtd">
<svg version="1.1" baseProfile="tiny" id="Layer_1" xmlns="http://www.w3.org/2000/svg" xmlns:xlink="http://www.w3.org/1999/xlink"
	 x="0px" y="0px" viewBox="0 0 24 24" xml:space="preserve">
<g>
	<path d="M22,21H2c-1.103,0-2-0.937-2-2.088V4.088C0,2.937,0.897,2,2,2h20c1.103,0,2,0.937,2,2.088v14.824
		C24,20.063,23.103,21,22,21z M2,3C1.448,3,1,3.488,1,4.088v14.824C1,19.512,1.448,20,2,20h20c0.552,0,1-0.488,1-1.088V4.088
		C23,3.488,22.552,3,22,3H2z"/>
	<path d="M19,23H5c-0.276,0-0.5-0.224-0.5-0.5S4.724,22,5,22h14c0.276,0,0.5,0.224,0.5,0.5S19.276,23,19,23z"/>
	<path d="M12,23c-0.276,0-0.5-0.224-0.5-0.5v-2c0-0.276,0.224-0.5,0.5-0.5s0.5,0.224,0.5,0.5v2C12.5,22.776,12.276,23,12,23z"/>
	<circle cx="12" cy="18.5" r="1"/>
	<rect x="0.5" y="16" width="23" height="1"/>
</g>
</svg>
