<?xml version="1.0" encoding="utf-8"?>
<!-- Generator: Adobe Illustrator 19.1.0, SVG Export Plug-In . SVG Version: 6.00 Build 0)  -->
<!DOCTYPE svg PUBLIC "-//W3C//DTD SVG 1.1 Tiny//EN" "http://www.w3.org/Graphics/SVG/1.1/DTD/svg11-tiny.dtd">
<svg version="1.1" baseProfile="tiny" id="Layer_1" xmlns="http://www.w3.org/2000/svg" xmlns:xlink="http://www.w3.org/1999/xlink"
	 x="0px" y="0px" viewBox="0 0 24 24" xml:space="preserve">
<g>
	<path d="M16.5,24h-16C0.2,24,0,23.8,0,23.5v-16C0,7.2,0.2,7,0.5,7h16C16.8,7,17,7.2,17,7.5v16C17,23.8,16.8,24,16.5,24z M1,23h15V8
		H1V23z"/>
	<path d="M22.5,17h-16C6.2,17,6,16.8,6,16.5v-15C6,1.2,6.2,1,6.5,1h16C22.8,1,23,1.2,23,1.5v15C23,16.8,22.8,17,22.5,17z M7,16h15V2
		H7V16z"/>
	<rect x="3" y="14.9" transform="matrix(0.7363 0.6767 -0.6767 0.7363 14.0475 2.7081)" width="1" height="9"/>
	<rect x="18.9" y="15.4" transform="matrix(0.7588 0.6514 -0.6514 0.7588 17.7257 -7.8224)" width="1" height="9.3"/>
	<path d="M0.5,8c-0.1,0-0.3,0-0.4-0.1C0,7.6,0,7.3,0.1,7.1l6-6C6.3,1,6.7,1,6.9,1.1C7,1.3,7,1.7,6.9,1.9l-6,6C0.8,7.9,0.6,8,0.5,8z"
		/>
	<rect x="18.8" y="0.5" transform="matrix(0.711 0.7032 -0.7032 0.711 8.9102 -12.1627)" width="1" height="8.5"/>
</g>
</svg>
