<?xml version="1.0" encoding="iso-8859-1"?>
<!-- Generator: Adobe Illustrator 19.1.0, SVG Export Plug-In . SVG Version: 6.00 Build 0)  -->
<!DOCTYPE svg PUBLIC "-//W3C//DTD SVG 1.1 Tiny//EN" "http://www.w3.org/Graphics/SVG/1.1/DTD/svg11-tiny.dtd">
<svg version="1.1" baseProfile="tiny" id="Layer_1" xmlns="http://www.w3.org/2000/svg" xmlns:xlink="http://www.w3.org/1999/xlink"
	 x="0px" y="0px" viewBox="0 0 24 24" xml:space="preserve">
<g>
	<path d="M16.5,24h-16C0.224,24,0,23.776,0,23.5v-16C0,7.224,0.224,7,0.5,7h16C16.776,7,17,7.224,17,7.5v16
		C17,23.776,16.776,24,16.5,24z M1,23h15V8H1V23z"/>
	<path d="M22.5,17h-16C6.224,17,6,16.776,6,16.5v-15C6,1.224,6.224,1,6.5,1h16C22.776,1,23,1.224,23,1.5v15
		C23,16.776,22.776,17,22.5,17z M7,16h15V2H7V16z"/>
	<rect x="3.05" y="14.869" transform="matrix(0.7363 0.6767 -0.6767 0.7363 14.0475 2.7081)" width="1" height="9.014"/>
	<rect x="18.924" y="15.379" transform="matrix(0.7588 0.6514 -0.6514 0.7588 17.7257 -7.8224)" width="1" height="9.281"/>
	<path d="M0.5,7.969c-0.128,0-0.257-0.049-0.354-0.147c-0.195-0.196-0.194-0.512,0.002-0.707l6-5.969
		C6.343,0.95,6.66,0.951,6.854,1.147C7.049,1.343,7.048,1.66,6.853,1.854l-6,5.969C0.755,7.92,0.627,7.969,0.5,7.969z"/>
	<rect x="18.752" y="0.497" transform="matrix(0.711 0.7032 -0.7032 0.711 8.9102 -12.1627)" width="1" height="8.524"/>
</g>
</svg>
