<svg baseProfile="tiny" xmlns="http://www.w3.org/2000/svg" viewBox="0 0 24 24"><path d="M16.5 24H.5a.5.5 0 0 1-.5-.5v-16A.5.5 0 0 1 .5 7h16a.5.5 0 0 1 .5.5v16a.5.5 0 0 1-.5.5zM1 23h15V8H1v15z"/><path d="M22.5 17h-16a.5.5 0 0 1-.5-.5v-15a.5.5 0 0 1 .5-.5h16a.5.5 0 0 1 .5.5v15a.5.5 0 0 1-.5.5zM7 16h15V2H7v14z"/><path d="M6.231 15.72l.737.677-6.1 6.637-.736-.677zM22.067 16.174l.76.652-6.046 7.042-.76-.651zM.5 7.969a.5.5 0 0 1-.352-.854l6-5.969a.5.5 0 0 1 .705.708l-6 5.969a.502.502 0 0 1-.353.146zM21.893 1.377l.711.703-5.994 6.06-.71-.702z"/></svg>