<?xml version="1.0" encoding="iso-8859-1"?>
<!-- Generator: Adobe Illustrator 19.2.1, SVG Export Plug-In . SVG Version: 6.00 Build 0)  -->
<!DOCTYPE svg PUBLIC "-//W3C//DTD SVG 1.1 Tiny//EN" "http://www.w3.org/Graphics/SVG/1.1/DTD/svg11-tiny.dtd">
<svg version="1.1" baseProfile="tiny" id="Layer_1" xmlns="http://www.w3.org/2000/svg" xmlns:xlink="http://www.w3.org/1999/xlink"
	 x="0px" y="0px" width="24px" height="24px" viewBox="0 0 24 24" xml:space="preserve">
<path d="M12.5,19.5c-0.276,0-0.5-0.224-0.5-0.5V2c0-0.276,0.224-0.5,0.5-0.5S13,1.724,13,2v17C13,19.276,12.776,19.5,12.5,19.5z"/>
<path d="M12.455,19.877c-0.152,0-0.295-0.069-0.391-0.188l-4.27-5.337c-0.172-0.216-0.137-0.53,0.078-0.703
	c0.217-0.172,0.53-0.137,0.703,0.078l3.879,4.849l3.878-4.849c0.174-0.215,0.488-0.247,0.703-0.078
	c0.216,0.173,0.25,0.487,0.078,0.703l-4.269,5.337C12.75,19.808,12.606,19.877,12.455,19.877z"/>
<path d="M23.5,24h-23C0.224,24,0,23.776,0,23.5V18c0-0.276,0.224-0.5,0.5-0.5S1,17.724,1,18v5h22v-5c0-0.276,0.224-0.5,0.5-0.5
	S24,17.724,24,18v5.5C24,23.776,23.776,24,23.5,24z"/>
</svg>
