<?xml version="1.0" encoding="utf-8"?>
<!-- Generator: Adobe Illustrator 19.1.0, SVG Export Plug-In . SVG Version: 6.00 Build 0)  -->
<!DOCTYPE svg PUBLIC "-//W3C//DTD SVG 1.1 Tiny//EN" "http://www.w3.org/Graphics/SVG/1.1/DTD/svg11-tiny.dtd">
<svg version="1.1" baseProfile="tiny" id="Layer_1" xmlns="http://www.w3.org/2000/svg" xmlns:xlink="http://www.w3.org/1999/xlink"
	 x="0px" y="0px" viewBox="0 0 24 24" xml:space="preserve">
<g>
	<path d="M23.5,21h-20C3.2,21,3,20.8,3,20.5v-20C3,0.2,3.2,0,3.5,0h20C23.8,0,24,0.2,24,0.5v20C24,20.8,23.8,21,23.5,21z M4,20h19V1
		H4V20z"/>
	<path d="M15.5,18h-4c-0.3,0-0.5-0.2-0.5-0.5V13H6.5C6.2,13,6,12.8,6,12.5v-4C6,8.2,6.2,8,6.5,8H11V3.5C11,3.2,11.2,3,11.5,3h4
		C15.8,3,16,3.2,16,3.5V8h4.5C20.8,8,21,8.2,21,8.5v4c0,0.3-0.2,0.5-0.5,0.5H16v4.5C16,17.8,15.8,18,15.5,18z M12,17h3v-4.5
		c0-0.3,0.2-0.5,0.5-0.5H20V9h-4.5C15.2,9,15,8.8,15,8.5V4h-3v4.5C12,8.8,11.8,9,11.5,9H7v3h4.5c0.3,0,0.5,0.2,0.5,0.5V17z"/>
	<path d="M19.5,24h-19C0.2,24,0,23.8,0,23.5v-19C0,4.2,0.2,4,0.5,4H2v1H1v18h18v-1h1v1.5C20,23.8,19.8,24,19.5,24z"/>
</g>
</svg>
