<?xml version="1.0" encoding="utf-8"?>
<!-- Generator: Adobe Illustrator 19.1.0, SVG Export Plug-In . SVG Version: 6.00 Build 0)  -->
<!DOCTYPE svg PUBLIC "-//W3C//DTD SVG 1.1 Tiny//EN" "http://www.w3.org/Graphics/SVG/1.1/DTD/svg11-tiny.dtd">
<svg version="1.1" baseProfile="tiny" id="Layer_1" xmlns="http://www.w3.org/2000/svg" xmlns:xlink="http://www.w3.org/1999/xlink"
	 x="0px" y="0px" viewBox="0 0 24 24" xml:space="preserve">
<path d="M12.5,13h-11C1.2,13,1,12.8,1,12.5v-11C1,1.2,1.2,1,1.5,1h11C12.8,1,13,1.2,13,1.5v11C13,12.8,12.8,13,12.5,13z M2,12h10V2
	H2V12z"/>
<path d="M22.5,23h-12c-0.3,0-0.5-0.2-0.5-0.5V15h1v7h11V12h-7v-1h7.5c0.3,0,0.5,0.2,0.5,0.5v11C23,22.8,22.8,23,22.5,23z"/>
<path d="M6,23.2c-0.1,0-0.3,0-0.4-0.1c-0.2-0.2-0.2-0.5,0-0.7l1.6-1.6l-1.6-1.6c-0.2-0.2-0.2-0.5,0-0.7s0.5-0.2,0.7,0l1.9,1.9
	c0.2,0.2,0.2,0.5,0,0.7L6.3,23C6.3,23.1,6.1,23.2,6,23.2z"/>
<path d="M7.9,21.3H7c-2.8,0-5-2.4-5-5.3c0-0.3,0.2-0.5,0.5-0.5S3,15.7,3,16c0,2.4,1.8,4.3,4,4.3h0.9c0.3,0,0.5,0.2,0.5,0.5
	S8.2,21.3,7.9,21.3z"/>
<path d="M17.9,5.9c-0.1,0-0.3,0-0.4-0.1l-1.9-1.9c-0.2-0.2-0.2-0.5,0-0.7l1.9-1.9c0.2-0.2,0.5-0.2,0.7,0s0.2,0.5,0,0.7l-1.6,1.6
	L18.3,5c0.2,0.2,0.2,0.5,0,0.7C18.2,5.8,18,5.9,17.9,5.9z"/>
<path d="M21.5,8.8c-0.3,0-0.5-0.2-0.5-0.5C21,5.9,19.2,4,16.9,4H16c-0.3,0-0.5-0.2-0.5-0.5S15.7,3,16,3h0.9C19.7,3,22,5.4,22,8.3
	C22,8.6,21.8,8.8,21.5,8.8z"/>
</svg>
