<svg baseProfile="tiny" xmlns="http://www.w3.org/2000/svg" viewBox="0 0 24 24"><path d="M12.5 13h-11a.5.5 0 0 1-.5-.5v-11a.5.5 0 0 1 .5-.5h11a.5.5 0 0 1 .5.5v11a.5.5 0 0 1-.5.5zM2 12h10V2H2v10z"/><path d="M22.5 23h-12a.5.5 0 0 1-.5-.5V15h1v7h11V12h-7v-1h7.5a.5.5 0 0 1 .5.5v11a.5.5 0 0 1-.5.5zM5.996 23.196a.5.5 0 0 1-.354-.853l1.568-1.568-1.568-1.569a.5.5 0 0 1 .707-.707l1.922 1.922a.5.5 0 0 1 0 .707L6.35 23.049a.5.5 0 0 1-.354.147z"/><path d="M7.918 21.274h-.905c-2.77 0-5.023-2.38-5.023-5.305a.5.5 0 0 1 1 0c0 2.374 1.805 4.305 4.023 4.305h.905a.5.5 0 0 1 0 1zM17.922 5.898a.502.502 0 0 1-.354-.146L15.646 3.83a.5.5 0 0 1 0-.707l1.922-1.922a.5.5 0 0 1 .707.707l-1.568 1.568 1.568 1.569a.5.5 0 0 1-.353.853z"/><path d="M21.519 8.781a.5.5 0 0 1-.5-.5c0-2.374-1.839-4.305-4.099-4.305H16a.5.5 0 0 1 0-1h.92c2.812 0 5.099 2.38 5.099 5.305a.5.5 0 0 1-.5.5z"/></svg>