<?xml version="1.0" encoding="iso-8859-1"?>
<!-- Generator: Adobe Illustrator 19.1.0, SVG Export Plug-In . SVG Version: 6.00 Build 0)  -->
<!DOCTYPE svg PUBLIC "-//W3C//DTD SVG 1.1 Tiny//EN" "http://www.w3.org/Graphics/SVG/1.1/DTD/svg11-tiny.dtd">
<svg version="1.1" baseProfile="tiny" id="Layer_1" xmlns="http://www.w3.org/2000/svg" xmlns:xlink="http://www.w3.org/1999/xlink"
	 x="0px" y="0px" viewBox="0 0 24 24" xml:space="preserve">
<path d="M12.5,13h-11C1.224,13,1,12.776,1,12.5v-11C1,1.224,1.224,1,1.5,1h11C12.776,1,13,1.224,13,1.5v11
	C13,12.776,12.776,13,12.5,13z M2,12h10V2H2V12z"/>
<path d="M22.5,23h-12c-0.276,0-0.5-0.224-0.5-0.5V15h1v7h11V12h-7v-1h7.5c0.276,0,0.5,0.224,0.5,0.5v11C23,22.776,22.776,23,22.5,23
	z"/>
<path d="M5.996,23.196c-0.128,0-0.256-0.049-0.354-0.146c-0.195-0.195-0.195-0.512,0-0.707l1.568-1.568l-1.568-1.569
	c-0.195-0.195-0.195-0.512,0-0.707s0.512-0.195,0.707,0l1.922,1.922c0.195,0.195,0.195,0.512,0,0.707L6.35,23.049
	C6.252,23.147,6.124,23.196,5.996,23.196z"/>
<path d="M7.918,21.274H7.013c-2.77,0-5.023-2.38-5.023-5.305c0-0.276,0.224-0.5,0.5-0.5s0.5,0.224,0.5,0.5
	c0,2.374,1.805,4.305,4.023,4.305h0.905c0.276,0,0.5,0.224,0.5,0.5S8.194,21.274,7.918,21.274z"/>
<path d="M17.922,5.898c-0.128,0-0.256-0.049-0.354-0.146L15.646,3.83c-0.195-0.195-0.195-0.512,0-0.707l1.922-1.922
	c0.195-0.195,0.512-0.195,0.707,0s0.195,0.512,0,0.707l-1.568,1.568l1.568,1.569c0.195,0.195,0.195,0.512,0,0.707
	C18.178,5.85,18.05,5.898,17.922,5.898z"/>
<path d="M21.519,8.781c-0.276,0-0.5-0.224-0.5-0.5c0-2.374-1.839-4.305-4.099-4.305H16c-0.276,0-0.5-0.224-0.5-0.5
	s0.224-0.5,0.5-0.5h0.92c2.812,0,5.099,2.38,5.099,5.305C22.019,8.558,21.795,8.781,21.519,8.781z"/>
</svg>
