<svg baseProfile="tiny" xmlns="http://www.w3.org/2000/svg" viewBox="0 0 24 24"><path d="M15.289 16.393l-.03-.001a.497.497 0 0 1-.424-.29L12.013 9.96l-3.741 5.234a.502.502 0 0 1-.866-.094l-1.805-4.209-1.599 1.863a.498.498 0 0 1-.379.175H1v-1h2.393l1.972-2.298a.5.5 0 0 1 .838.129l1.771 4.13L11.7 8.677a.512.512 0 0 1 .454-.207.502.502 0 0 1 .407.289l2.791 6.073 1.632-2.663a.5.5 0 0 1 .426-.239h5.568v1H17.69l-1.975 3.224a.5.5 0 0 1-.426.239z"/><path d="M22.781 20H1.219A1.226 1.226 0 0 1 0 18.77V1.23C0 .552.547 0 1.219 0h21.562C23.453 0 24 .552 24 1.23v17.54c0 .678-.547 1.23-1.219 1.23zM1.219 1A.225.225 0 0 0 1 1.23v17.54c0 .126.098.23.219.23h21.562a.225.225 0 0 0 .219-.23V1.23a.225.225 0 0 0-.219-.23H1.219z"/><path d="M23 5H1a.5.5 0 0 1 0-1h22a.5.5 0 0 1 0 1zM2.216 2.082a.5.5 0 1 0 0 1 .5.5 0 0 0 0-1zM4.216 2.082a.5.5 0 1 0 0 1 .5.5 0 0 0 0-1zM6.278 2.065a.495.495 0 1 0 0 .99.495.495 0 0 0 0-.99z"/></svg>