<?xml version="1.0" encoding="iso-8859-1"?>
<!-- Generator: Adobe Illustrator 19.1.0, SVG Export Plug-In . SVG Version: 6.00 Build 0)  -->
<!DOCTYPE svg PUBLIC "-//W3C//DTD SVG 1.1 Tiny//EN" "http://www.w3.org/Graphics/SVG/1.1/DTD/svg11-tiny.dtd">
<svg version="1.1" baseProfile="tiny" id="Layer_1" xmlns="http://www.w3.org/2000/svg" xmlns:xlink="http://www.w3.org/1999/xlink"
	 x="0px" y="0px" viewBox="0 0 24 24" xml:space="preserve">
<path d="M15.289,18c-0.01,0-0.02,0-0.03,0c-0.184,0-0.348,0.074-0.424-0.094l-2.822-6.044l-3.741,5.283
	c-0.105,0.146-0.279,0.252-0.46,0.231c-0.18-0.02-0.334-0.122-0.406-0.288l-1.805-4.203l-1.599,1.901
	C3.907,14.898,3.769,15,3.623,15H1v-1h2.393l1.972-2.333c0.112-0.132,0.28-0.216,0.455-0.187c0.171,0.026,0.316,0.13,0.384,0.288
	l1.771,4.125l3.726-5.215c0.104-0.145,0.279-0.221,0.454-0.208c0.177,0.018,0.333,0.126,0.407,0.289l2.791,6.073l1.632-2.628
	C17.075,14.056,17.236,14,17.41,14H23v1h-5.31l-1.975,2.992C15.624,18.142,15.462,18,15.289,18z"/>
<path d="M22.781,22H1.219C0.547,22,0,21.448,0,20.77V3.23C0,2.552,0.547,2,1.219,2h21.562C23.453,2,24,2.552,24,3.23V20.77
	C24,21.448,23.453,22,22.781,22z M1.219,3C1.098,3,1,3.104,1,3.23V20.77C1,20.896,1.098,21,1.219,21h21.562
	C22.902,21,23,20.896,23,20.77V3.23C23,3.104,22.902,3,22.781,3H1.219z"/>
<path d="M23,7H1C0.724,7,0.5,6.776,0.5,6.5S0.724,6,1,6h22c0.276,0,0.5,0.224,0.5,0.5S23.276,7,23,7z"/>
<path id="XMLID_9_" d="M2.216,4.082c-0.276,0-0.5,0.224-0.5,0.5c0,0.276,0.224,0.5,0.5,0.5s0.5-0.224,0.5-0.5
	C2.716,4.305,2.492,4.082,2.216,4.082L2.216,4.082z"/>
<path id="XMLID_8_" d="M4.216,4.082c-0.276,0-0.5,0.224-0.5,0.5c0,0.276,0.224,0.5,0.5,0.5s0.5-0.224,0.5-0.5
	C4.716,4.305,4.492,4.082,4.216,4.082L4.216,4.082z"/>
<path id="XMLID_6_" d="M6.278,4.065c-0.273,0-0.495,0.221-0.495,0.495c0,0.273,0.221,0.495,0.495,0.495
	c0.273,0,0.495-0.221,0.495-0.495C6.773,4.286,6.551,4.065,6.278,4.065L6.278,4.065z"/>
</svg>
