<?xml version="1.0" encoding="iso-8859-1"?>
<!-- Generator: Adobe Illustrator 19.1.0, SVG Export Plug-In . SVG Version: 6.00 Build 0)  -->
<!DOCTYPE svg PUBLIC "-//W3C//DTD SVG 1.1 Tiny//EN" "http://www.w3.org/Graphics/SVG/1.1/DTD/svg11-tiny.dtd">
<svg version="1.1" baseProfile="tiny" id="Layer_1" xmlns="http://www.w3.org/2000/svg" xmlns:xlink="http://www.w3.org/1999/xlink"
	 x="0px" y="0px" viewBox="0 0 24 24" xml:space="preserve">
<path d="M15.289,16.393c-0.01,0-0.02,0-0.03-0.001c-0.184-0.011-0.348-0.122-0.424-0.29L12.013,9.96l-3.741,5.234
	c-0.105,0.146-0.279,0.228-0.46,0.206c-0.18-0.02-0.334-0.134-0.406-0.3l-1.805-4.209l-1.599,1.863
	c-0.095,0.111-0.233,0.175-0.379,0.175H1v-1h2.393l1.972-2.298C5.476,9.5,5.644,9.434,5.819,9.463
	C5.99,9.489,6.135,9.602,6.203,9.76l1.771,4.13L11.7,8.677c0.104-0.145,0.279-0.22,0.454-0.207c0.177,0.018,0.333,0.127,0.407,0.289
	l2.791,6.073l1.632-2.663c0.091-0.148,0.252-0.239,0.426-0.239h5.568v1H17.69l-1.975,3.224
	C15.624,16.303,15.462,16.393,15.289,16.393z"/>
<path d="M22.781,20H1.219C0.547,20,0,19.448,0,18.77V1.23C0,0.552,0.547,0,1.219,0h21.562C23.453,0,24,0.552,24,1.23V18.77
	C24,19.448,23.453,20,22.781,20z M1.219,1C1.098,1,1,1.104,1,1.23V18.77C1,18.896,1.098,19,1.219,19h21.562
	C22.902,19,23,18.896,23,18.77V1.23C23,1.104,22.902,1,22.781,1H1.219z"/>
<path d="M23,5H1C0.724,5,0.5,4.776,0.5,4.5S0.724,4,1,4h22c0.276,0,0.5,0.224,0.5,0.5S23.276,5,23,5z"/>
<path id="XMLID_9_" d="M2.216,2.082c-0.276,0-0.5,0.224-0.5,0.5c0,0.276,0.224,0.5,0.5,0.5s0.5-0.224,0.5-0.5
	C2.716,2.305,2.492,2.082,2.216,2.082L2.216,2.082z"/>
<path id="XMLID_8_" d="M4.216,2.082c-0.276,0-0.5,0.224-0.5,0.5c0,0.276,0.224,0.5,0.5,0.5s0.5-0.224,0.5-0.5
	C4.716,2.305,4.492,2.082,4.216,2.082L4.216,2.082z"/>
<path id="XMLID_6_" d="M6.278,2.065c-0.273,0-0.495,0.221-0.495,0.495c0,0.273,0.221,0.495,0.495,0.495
	c0.273,0,0.495-0.221,0.495-0.495C6.773,2.286,6.551,2.065,6.278,2.065L6.278,2.065z"/>
</svg>
