<?xml version="1.0" encoding="iso-8859-1"?>
<!-- Generator: Adobe Illustrator 19.1.0, SVG Export Plug-In . SVG Version: 6.00 Build 0)  -->
<!DOCTYPE svg PUBLIC "-//W3C//DTD SVG 1.1 Tiny//EN" "http://www.w3.org/Graphics/SVG/1.1/DTD/svg11-tiny.dtd">
<svg version="1.1" baseProfile="tiny" id="Layer_1" xmlns="http://www.w3.org/2000/svg" xmlns:xlink="http://www.w3.org/1999/xlink"
	 x="0px" y="0px" viewBox="0 0 24 24" xml:space="preserve">
<path d="M11.816,21.917H4.183C2.979,21.917,2,20.938,2,19.734V4.266c0-1.203,0.979-2.183,2.183-2.183h7.634
	c1.203,0,2.183,0.979,2.183,2.183v2.977c0,0.276-0.224,0.5-0.5,0.5s-0.5-0.224-0.5-0.5V4.266c0-0.652-0.53-1.183-1.183-1.183H4.183
	C3.53,3.083,3,3.613,3,4.266v15.469c0,0.652,0.53,1.183,1.183,1.183h7.634c0.652,0,1.183-0.53,1.183-1.183v-3.026
	c0-0.276,0.224-0.5,0.5-0.5s0.5,0.224,0.5,0.5v3.026C13.999,20.938,13.02,21.917,11.816,21.917z"/>
<path d="M20.45,12.5H7.944c-0.276,0-0.5-0.224-0.5-0.5s0.224-0.5,0.5-0.5H20.45c0.276,0,0.5,0.224,0.5,0.5S20.727,12.5,20.45,12.5z"
	/>
<path d="M18.194,16.424c-0.11,0-0.22-0.036-0.312-0.109c-0.216-0.173-0.25-0.487-0.078-0.703L20.692,12l-2.889-3.611
	c-0.172-0.216-0.138-0.53,0.078-0.703c0.218-0.171,0.531-0.137,0.703,0.078l3.139,3.924c0.146,0.183,0.146,0.442,0,0.625
	l-3.139,3.924C18.486,16.359,18.341,16.424,18.194,16.424z"/>
</svg>
