<svg baseProfile="tiny" xmlns="http://www.w3.org/2000/svg" viewBox="0 0 24 24"><path d="M11.816 21.917H4.183A2.185 2.185 0 0 1 2 19.734V4.266c0-1.203.979-2.183 2.183-2.183h7.634c1.203 0 2.183.979 2.183 2.183v2.977a.5.5 0 0 1-1 0V4.266c0-.652-.53-1.183-1.183-1.183H4.183C3.53 3.083 3 3.613 3 4.266v15.469c0 .652.53 1.183 1.183 1.183h7.634c.652 0 1.183-.53 1.183-1.183v-3.026a.5.5 0 0 1 1 0v3.026a2.186 2.186 0 0 1-2.184 2.182z"/><path d="M20.45 12.5H7.944a.5.5 0 0 1 0-1H20.45a.5.5 0 0 1 0 1z"/><path d="M18.194 16.424a.5.5 0 0 1-.39-.812L20.692 12l-2.889-3.611a.5.5 0 0 1 .781-.625l3.139 3.924a.5.5 0 0 1 0 .625l-3.139 3.924a.5.5 0 0 1-.39.187z"/></svg>