<?xml version="1.0" encoding="utf-8"?>
<!-- Generator: Adobe Illustrator 19.1.0, SVG Export Plug-In . SVG Version: 6.00 Build 0)  -->
<!DOCTYPE svg PUBLIC "-//W3C//DTD SVG 1.1 Tiny//EN" "http://www.w3.org/Graphics/SVG/1.1/DTD/svg11-tiny.dtd">
<svg version="1.1" baseProfile="tiny" id="Layer_1" xmlns="http://www.w3.org/2000/svg" xmlns:xlink="http://www.w3.org/1999/xlink"
	 x="0px" y="0px" viewBox="0 0 24 24" xml:space="preserve">
<path d="M23.5,24h-23C0.2,24,0,23.8,0,23.5v-9.1c0-0.2,0.1-0.4,0.3-0.5l8.1-2.7c0.1,0,0.3,0,0.4,0l6.5,3.4l7.8-5.9
	c0.2-0.1,0.4-0.1,0.5,0C23.9,8.8,24,9,24,9.2v14.3C24,23.8,23.8,24,23.5,24z M1,23h22V10.2l-7.3,5.5c-0.2,0.1-0.4,0.1-0.5,0
	l-6.6-3.4L1,14.7V23z"/>
<path d="M15.4,8.6c-0.1,0-0.2,0-0.2-0.1L8.6,5.1L0.7,7.7C0.4,7.8,0.1,7.6,0,7.4c-0.1-0.3,0.1-0.5,0.3-0.6l8.1-2.7c0.1,0,0.3,0,0.4,0
	l6.5,3.4l7.8-5.9c0.2-0.2,0.5-0.1,0.7,0.1c0.2,0.2,0.1,0.5-0.1,0.7l-8.1,6.1C15.6,8.6,15.5,8.6,15.4,8.6z"/>
</svg>
