<?xml version="1.0" encoding="iso-8859-1"?>
<!-- Generator: Adobe Illustrator 19.2.1, SVG Export Plug-In . SVG Version: 6.00 Build 0)  -->
<!DOCTYPE svg PUBLIC "-//W3C//DTD SVG 1.1 Tiny//EN" "http://www.w3.org/Graphics/SVG/1.1/DTD/svg11-tiny.dtd">
<svg version="1.1" baseProfile="tiny" id="Layer_1" xmlns="http://www.w3.org/2000/svg" xmlns:xlink="http://www.w3.org/1999/xlink"
	 x="0px" y="0px" viewBox="0 0 24 24" xml:space="preserve">
<g>
	<path d="M19.409,24c-0.001,0-0.003,0-0.004,0L3.678,23.991c-0.808-0.001-1.525-0.426-1.919-1.149
		c-0.374-0.685-0.325-1.547,0.129-2.256l3.051-4.606L8,11.502V0.5c0-0.171,0.087-0.33,0.231-0.421
		c0.144-0.093,0.325-0.103,0.479-0.032l1.679,0.781c0.97,0.554,2.035,0.552,2.965,0.02l1.955-0.81
		c0.154-0.064,0.329-0.046,0.469,0.047C15.917,0.177,16,0.333,16,0.5v10.744l5.309,9.429c0.414,0.681,0.428,1.505,0.029,2.212
		S20.219,24,19.409,24z M19.409,23c0.443,0,0.839-0.218,1.058-0.606c0.219-0.388,0.211-0.84-0.021-1.223l-5.381-9.554
		C15.022,11.542,15,11.461,15,11.375V1.247l-1.206,0.497C12.607,2.43,11.177,2.431,9.93,1.715L9,1.283v10.373
		c0,0.101-0.03,0.199-0.087,0.282l-3.145,4.602l-3.043,4.595C2.469,21.536,2.435,22,2.637,22.37c0.22,0.403,0.593,0.635,1.037,0.636
		L19.409,23z M8.5,12h0.01H8.5z"/>
</g>
<g>
	<polygon points="5.782,1.479 5.335,0.584 6.502,0 8.529,0 8.529,1 6.738,1 	"/>
</g>
<g>
	<polygon points="18.212,1.477 17.272,1 15.453,1 15.453,0 17.512,0 18.665,0.585 	"/>
</g>
<g>
	<g>
		<ellipse transform="matrix(0.9873 -0.1587 0.1587 0.9873 -1.2646 1.963)" cx="11.66" cy="8.9" rx="1.56" ry="1.56"/>
	</g>
	<g>
		<ellipse transform="matrix(0.9873 -0.1587 0.1587 0.9873 -2.914 2.5034)" cx="14.22" cy="19.5" rx="1.5" ry="1.5"/>
	</g>
	<g>
		<ellipse transform="matrix(0.9874 -0.158 0.158 0.9874 -2.2166 2.1879)" cx="12.653" cy="15.036" rx="0.98" ry="0.98"/>
	</g>
</g>
</svg>
