<svg baseProfile="tiny" xmlns="http://www.w3.org/2000/svg" viewBox="0 0 24 24"><path d="M19.409 24h-.004l-15.727-.009a2.16 2.16 0 0 1-1.919-1.149c-.374-.685-.325-1.547.129-2.256l3.051-4.606L8 11.502V.5a.498.498 0 0 1 .71-.453l1.679.781c.97.554 2.035.552 2.965.02l1.955-.81A.5.5 0 0 1 16 .5v10.744l5.309 9.429c.414.681.428 1.505.029 2.212S20.219 24 19.409 24zm0-1a1.19 1.19 0 0 0 1.058-.606 1.19 1.19 0 0 0-.021-1.223l-5.381-9.554a.48.48 0 0 1-.065-.242V1.247l-1.206.497c-1.187.686-2.617.687-3.864-.029L9 1.283v10.373c0 .101-.03.199-.087.282L5.768 16.54l-3.043 4.595c-.256.401-.29.865-.088 1.235.22.403.593.635 1.037.636L19.409 23zM8.5 12h.01-.01z"/><path d="M5.782 1.479L5.335.584 6.502 0h2.027v1H6.738zM18.212 1.477L17.272 1h-1.819V0h2.059l1.153.585z"/><ellipse transform="rotate(-9.132 11.659 8.9)" cx="11.66" cy="8.9" rx="1.56" ry="1.56"/><ellipse transform="rotate(-9.132 14.217 19.497)" cx="14.22" cy="19.5" rx="1.5" ry="1.5"/><ellipse transform="rotate(-9.091 12.652 15.035)" cx="12.653" cy="15.036" rx=".98" ry=".98"/></svg>