<?xml version="1.0" encoding="iso-8859-1"?>
<!-- Generator: Adobe Illustrator 19.2.0, SVG Export Plug-In . SVG Version: 6.00 Build 0)  -->
<svg version="1.1" baseProfile="tiny" id="Layer_1" xmlns="http://www.w3.org/2000/svg" xmlns:xlink="http://www.w3.org/1999/xlink"
	 x="0px" y="0px" viewBox="0 0 24 24" xml:space="preserve">
<path d="M23.5,24h-23C0.224,24,0,23.776,0,23.5v-9.115c0-0.216,0.139-0.408,0.345-0.475l8.104-2.654
	c0.127-0.042,0.265-0.032,0.386,0.031l6.549,3.393l7.816-5.896c0.15-0.115,0.355-0.134,0.523-0.049C23.893,8.82,24,8.994,24,9.183
	V23.5C24,23.776,23.776,24,23.5,24z M1,23h22V10.187l-7.267,5.481c-0.153,0.117-0.359,0.133-0.531,0.045L8.56,12.271L1,14.747V23z"
	/>
<path d="M15.433,8.586c-0.079,0-0.157-0.019-0.23-0.056L8.56,5.088L0.655,7.677C0.394,7.762,0.11,7.62,0.024,7.357
	c-0.086-0.263,0.058-0.545,0.32-0.631l8.104-2.654c0.127-0.042,0.265-0.031,0.386,0.031l6.549,3.393l7.816-5.896
	c0.219-0.167,0.532-0.124,0.7,0.098c0.166,0.221,0.122,0.534-0.099,0.7l-8.067,6.086C15.646,8.552,15.539,8.586,15.433,8.586z"/>
</svg>
