<?xml version="1.0" encoding="utf-8"?>
<!-- Generator: Adobe Illustrator 19.1.0, SVG Export Plug-In . SVG Version: 6.00 Build 0)  -->
<!DOCTYPE svg PUBLIC "-//W3C//DTD SVG 1.1 Tiny//EN" "http://www.w3.org/Graphics/SVG/1.1/DTD/svg11-tiny.dtd">
<svg version="1.1" baseProfile="tiny" id="Layer_1" xmlns="http://www.w3.org/2000/svg" xmlns:xlink="http://www.w3.org/1999/xlink"
	 x="0px" y="0px" viewBox="0 0 24 24" xml:space="preserve">
<g>
	<path d="M18.5,24h-18C0.2,24,0,23.8,0,23.5v-18C0,5.2,0.2,5,0.5,5H9c0.3,0,0.5,0.2,0.5,0.5S9.3,6,9,6H1v17h17v-8
		c0-0.3,0.2-0.5,0.5-0.5S19,14.7,19,15v8.5C19,23.8,18.8,24,18.5,24z"/>
	<path d="M5.1,19.4c-0.1,0-0.3,0-0.4-0.1c-0.2-0.2-0.2-0.5,0-0.7L23,0.3c0.2-0.2,0.5-0.2,0.7,0s0.2,0.5,0,0.7L5.4,19.3
		C5.3,19.4,5.2,19.4,5.1,19.4z"/>
	<path d="M23.5,11.5c-0.3,0-0.5-0.2-0.5-0.5V1H13c-0.3,0-0.5-0.2-0.5-0.5S12.7,0,13,0h10.5C23.8,0,24,0.2,24,0.5V11
		C24,11.3,23.8,11.5,23.5,11.5z"/>
</g>
</svg>
