<?xml version="1.0" encoding="iso-8859-1"?>
<!-- Generator: Adobe Illustrator 19.2.1, SVG Export Plug-In . SVG Version: 6.00 Build 0)  -->
<!DOCTYPE svg PUBLIC "-//W3C//DTD SVG 1.1 Tiny//EN" "http://www.w3.org/Graphics/SVG/1.1/DTD/svg11-tiny.dtd">
<svg version="1.1" baseProfile="tiny" id="Layer_1" xmlns="http://www.w3.org/2000/svg" xmlns:xlink="http://www.w3.org/1999/xlink"
	 x="0px" y="0px" viewBox="0 0 24 24" xml:space="preserve">
<g>
	<path d="M17.5,24h-2c-0.276,0-0.5-0.224-0.5-0.5v-1.71c-0.087-0.023-0.19-0.049-0.299-0.076c-0.312-0.079-0.65-0.166-0.937-0.272
		l-1.199,1.266c-0.092,0.097-0.219,0.153-0.352,0.156c-0.142,0.015-0.263-0.049-0.359-0.141l-1.845-1.789
		c-0.099-0.096-0.153-0.228-0.152-0.365c0.001-0.137,0.06-0.268,0.16-0.36l1.192-1.105c-0.17-0.272-0.32-0.562-0.432-1.103H9.5
		C9.224,18,9,17.776,9,17.5v-2C9,15.224,9.224,15,9.5,15h1.364c0.03-0.12,0.063-0.263,0.091-0.383
		c0.106-0.46,0.198-0.839,0.305-1.13l-1.29-1.453c-0.175-0.197-0.167-0.497,0.019-0.685l1.832-1.845
		c0.095-0.096,0.218-0.152,0.356-0.147c0.133,0,0.261,0.054,0.355,0.149l1.225,1.246c0.281-0.107,0.614-0.198,0.92-0.281
		c0.118-0.032,0.229-0.062,0.322-0.088V9.5C15,9.224,15.224,9,15.5,9h2C17.776,9,18,9.224,18,9.5v0.777
		c0.601,0.117,1.004,0.286,1.36,0.48l1.257-1.211c0.198-0.189,0.513-0.185,0.705,0.012l1.845,1.894
		c0.187,0.191,0.189,0.496,0.007,0.69l-1.269,1.354c0.105,0.289,0.197,0.664,0.304,1.118c0.028,0.121,0.062,0.266,0.093,0.386H23.5
		c0.276,0,0.5,0.224,0.5,0.5v2c0,0.276-0.224,0.5-0.5,0.5h-1.112c-0.111,0.531-0.263,0.826-0.426,1.088l1.164,0.996
		c0.106,0.091,0.169,0.222,0.174,0.361c0.005,0.139-0.048,0.274-0.146,0.373l-1.853,1.845c-0.195,0.193-0.51,0.194-0.705,0.001
		l-1.243-1.229c-0.335,0.178-0.739,0.339-1.354,0.456V23.5C18,23.776,17.776,24,17.5,24z M16,23h1v-1.534
		c0-0.25,0.185-0.462,0.432-0.495c0.937-0.128,1.328-0.332,1.742-0.586c0.197-0.117,0.45-0.091,0.613,0.071l1.161,1.148l1.117-1.113
		l-1.083-0.926c-0.187-0.16-0.229-0.432-0.102-0.641l0.141-0.222c0.21-0.324,0.349-0.538,0.45-1.271
		C21.505,17.185,21.716,17,21.966,17H23v-1h-1.035c-0.459,0-0.55-0.387-0.731-1.157c-0.093-0.396-0.233-0.995-0.35-1.186
		c-0.117-0.192-0.092-0.438,0.062-0.603l1.17-1.247l-1.164-1.195l-1.171,1.128c-0.164,0.157-0.414,0.185-0.607,0.066
		c-0.475-0.29-0.853-0.489-1.742-0.61C17.185,11.163,17,10.951,17,10.701V10h-1v0.701c0,0.447-0.376,0.55-1.06,0.735
		c-0.355,0.096-0.841,0.229-1.033,0.345c-0.197,0.123-0.453,0.091-0.616-0.076l-1.117-1.137l-1.145,1.153l1.193,1.344
		c0.146,0.164,0.167,0.405,0.053,0.593c-0.116,0.189-0.254,0.788-0.346,1.185C11.75,15.613,11.661,16,11.2,16H10v1h1.2
		c0.25,0,0.461,0.185,0.496,0.433c0.101,0.736,0.231,0.939,0.449,1.276l0.137,0.216c0.124,0.203,0.088,0.466-0.087,0.627
		l-1.111,1.03l1.104,1.07l1.097-1.158c0.164-0.171,0.423-0.203,0.624-0.083c0.191,0.117,0.702,0.248,1.04,0.334
		C15.604,20.912,16,21.013,16,21.466V23z"/>
</g>
<g>
	<path d="M16.583,19.518c-1.894,0-3.435-1.541-3.435-3.435s1.541-3.435,3.435-3.435s3.435,1.541,3.435,3.435
		S18.477,19.518,16.583,19.518z M16.583,13.648c-1.342,0-2.435,1.092-2.435,2.435s1.092,2.435,2.435,2.435
		c1.343,0,2.435-1.092,2.435-2.435S17.926,13.648,16.583,13.648z"/>
</g>
<g>
	<path d="M6,20H2.5C1.122,20,0,18.879,0,17.5v-14C0,2.121,1.122,1,2.5,1h19C22.878,1,24,2.121,24,3.5V9c0,0.276-0.224,0.5-0.5,0.5
		S23,9.276,23,9V3.5C23,2.673,22.327,2,21.5,2h-19C1.673,2,1,2.673,1,3.5v14C1,18.327,1.673,19,2.5,19H6c0.276,0,0.5,0.224,0.5,0.5
		S6.276,20,6,20z"/>
</g>
<g>
	<path d="M23,7H1C0.724,7,0.5,6.776,0.5,6.5S0.724,6,1,6h22c0.276,0,0.5,0.224,0.5,0.5S23.276,7,23,7z"/>
</g>
<g>
	<path d="M4,5C3.449,5,3,4.552,3,4s0.449-1,1-1s1,0.448,1,1S4.551,5,4,5z M4,3.999C4,3.999,4,4,4,3.999L4.5,4L4,3.999z"/>
</g>
<g>
	<path d="M7,5C6.449,5,6,4.552,6,4s0.449-1,1-1s1,0.448,1,1S7.551,5,7,5z M7,3.999C7,3.999,7,4,7,3.999L7.5,4L7,3.999z"/>
</g>
<g>
	<path d="M10,5C9.449,5,9,4.552,9,4s0.449-1,1-1s1,0.448,1,1S10.551,5,10,5z M10,3.999C10,3.999,10,4,10,3.999L10.5,4L10,3.999z"/>
</g>
</svg>
