<svg baseProfile="tiny" xmlns="http://www.w3.org/2000/svg" viewBox="0 0 24 24"><path d="M17.5 24h-2a.5.5 0 0 1-.5-.5v-1.71l-.299-.076a9.65 9.65 0 0 1-.937-.272l-1.199 1.266a.501.501 0 0 1-.352.156.448.448 0 0 1-.359-.141l-1.845-1.789a.502.502 0 0 1 .008-.725l1.192-1.105c-.17-.272-.32-.562-.432-1.103H9.5A.502.502 0 0 1 9 17.5v-2a.5.5 0 0 1 .5-.5h1.364c.03-.12.063-.263.091-.383.106-.46.198-.839.305-1.13l-1.29-1.453a.501.501 0 0 1 .019-.685l1.832-1.845a.471.471 0 0 1 .356-.147.5.5 0 0 1 .355.149l1.225 1.246c.281-.107.614-.198.92-.281l.322-.088V9.5A.502.502 0 0 1 15.5 9h2a.5.5 0 0 1 .5.5v.777a4.476 4.476 0 0 1 1.36.48l1.257-1.211a.502.502 0 0 1 .705.012l1.845 1.894a.5.5 0 0 1 .007.69l-1.269 1.354c.105.289.197.664.304 1.118.028.121.062.266.093.386H23.5a.5.5 0 0 1 .5.5v2a.5.5 0 0 1-.5.5h-1.112a3.066 3.066 0 0 1-.426 1.088l1.164.996a.5.5 0 0 1 .028.734l-1.853 1.845a.502.502 0 0 1-.705.001l-1.243-1.229c-.335.178-.739.339-1.354.456V23.5a.499.499 0 0 1-.499.5zM16 23h1v-1.534a.5.5 0 0 1 .432-.495c.937-.128 1.328-.332 1.742-.586a.504.504 0 0 1 .613.071l1.161 1.148 1.117-1.113-1.083-.926a.501.501 0 0 1-.102-.641l.141-.222c.21-.324.349-.538.45-1.271a.5.5 0 0 1 .495-.431H23v-1h-1.035c-.459 0-.55-.387-.731-1.157-.093-.396-.233-.995-.35-1.186a.5.5 0 0 1 .062-.603l1.17-1.247-1.164-1.195-1.171 1.128a.5.5 0 0 1-.607.066c-.475-.29-.853-.489-1.742-.61a.5.5 0 0 1-.432-.495V10h-1v.701c0 .447-.376.55-1.06.735-.355.096-.841.229-1.033.345a.495.495 0 0 1-.616-.076l-1.117-1.137-1.145 1.153 1.193 1.344a.501.501 0 0 1 .053.593c-.116.189-.254.788-.346 1.185-.179.77-.268 1.157-.729 1.157H10v1h1.2c.25 0 .461.185.496.433.101.736.231.939.449 1.276l.137.216a.499.499 0 0 1-.087.627l-1.111 1.03 1.104 1.07 1.097-1.158a.505.505 0 0 1 .624-.083c.191.117.702.248 1.04.334.655.167 1.051.268 1.051.721V23z"/><path d="M16.583 19.518c-1.894 0-3.435-1.541-3.435-3.435s1.541-3.435 3.435-3.435 3.435 1.541 3.435 3.435-1.541 3.435-3.435 3.435zm0-5.87c-1.342 0-2.435 1.092-2.435 2.435s1.092 2.435 2.435 2.435 2.435-1.092 2.435-2.435-1.092-2.435-2.435-2.435z"/><path d="M6 20H2.5A2.503 2.503 0 0 1 0 17.5v-14C0 2.121 1.122 1 2.5 1h19C22.878 1 24 2.121 24 3.5V9a.5.5 0 0 1-1 0V3.5c0-.827-.673-1.5-1.5-1.5h-19C1.673 2 1 2.673 1 3.5v14c0 .827.673 1.5 1.5 1.5H6a.5.5 0 0 1 0 1z"/><path d="M23 7H1a.5.5 0 0 1 0-1h22a.5.5 0 0 1 0 1zM4 5a1.001 1.001 0 0 1 0-2 1.001 1.001 0 0 1 0 2zm0-1.001s0 .001 0 0L4.5 4 4 3.999zM7 5a1.001 1.001 0 0 1 0-2 1.001 1.001 0 0 1 0 2zm0-1.001s0 .001 0 0L7.5 4 7 3.999zM10 5a1.001 1.001 0 0 1 0-2 1.001 1.001 0 0 1 0 2zm0-1.001s0 .001 0 0l.5.001-.5-.001z"/></svg>