<?xml version="1.0" encoding="iso-8859-1"?>
<!-- Generator: Adobe Illustrator 19.1.0, SVG Export Plug-In . SVG Version: 6.00 Build 0)  -->
<!DOCTYPE svg PUBLIC "-//W3C//DTD SVG 1.1 Tiny//EN" "http://www.w3.org/Graphics/SVG/1.1/DTD/svg11-tiny.dtd">
<svg version="1.1" baseProfile="tiny" id="Layer_1" xmlns="http://www.w3.org/2000/svg" xmlns:xlink="http://www.w3.org/1999/xlink"
	 x="0px" y="0px" viewBox="0 0 24 24" xml:space="preserve">
<g>
	<path d="M18.5,24h-18C0.224,24,0,23.776,0,23.5v-18C0,5.224,0.224,5,0.5,5H9c0.276,0,0.5,0.224,0.5,0.5S9.276,6,9,6H1v17h17v-8
		c0-0.276,0.224-0.5,0.5-0.5S19,14.724,19,15v8.5C19,23.776,18.776,24,18.5,24z"/>
	<path d="M5.073,19.427c-0.128,0-0.256-0.049-0.354-0.146c-0.195-0.195-0.195-0.512,0-0.707L23.011,0.282
		c0.195-0.195,0.512-0.195,0.707,0s0.195,0.512,0,0.707L5.427,19.281C5.329,19.378,5.201,19.427,5.073,19.427z"/>
	<path d="M23.5,11.5c-0.276,0-0.5-0.224-0.5-0.5V1H13c-0.276,0-0.5-0.224-0.5-0.5S12.724,0,13,0h10.5C23.776,0,24,0.224,24,0.5V11
		C24,11.276,23.776,11.5,23.5,11.5z"/>
</g>
</svg>
