<?xml version="1.0" encoding="utf-8"?>
<!-- Generator: Adobe Illustrator 19.1.0, SVG Export Plug-In . SVG Version: 6.00 Build 0)  -->
<!DOCTYPE svg PUBLIC "-//W3C//DTD SVG 1.1 Tiny//EN" "http://www.w3.org/Graphics/SVG/1.1/DTD/svg11-tiny.dtd">
<svg version="1.1" baseProfile="tiny" id="Layer_1" xmlns="http://www.w3.org/2000/svg" xmlns:xlink="http://www.w3.org/1999/xlink"
	 x="0px" y="0px" viewBox="0 0 24 24" xml:space="preserve">
<g id="XMLID_700_">
	<path d="M12,19c-1,0-2.1-0.2-3.1-0.5c-0.3-0.1-0.4-0.4-0.3-0.6c0.1-0.3,0.4-0.4,0.6-0.3c1,0.3,1.9,0.4,2.9,0.4
		c5.2,0,9.7-4.7,10.8-6c-0.5-0.6-1.8-2-3.6-3.3C19,8.5,19,8.2,19.1,7.9c0.2-0.2,0.5-0.3,0.7-0.1c2.5,1.8,4,3.7,4.1,3.8
		c0.1,0.2,0.1,0.4,0,0.6C23.7,12.5,18.5,19,12,19z"/>
	<path d="M4.5,16.2c-0.1,0-0.2,0-0.3-0.1c-2.5-1.8-4-3.7-4.1-3.8c-0.1-0.2-0.1-0.4,0-0.6C0.3,11.4,5.5,5,12,5c0.9,0,1.7,0.1,2.6,0.3
		c0.3,0.1,0.4,0.3,0.4,0.6s-0.3,0.4-0.6,0.4C13.6,6.1,12.8,6,12,6c-5.2,0-9.7,4.7-10.8,6c0.5,0.6,1.8,2,3.6,3.3
		C5,15.4,5,15.7,4.9,15.9C4.8,16.1,4.6,16.2,4.5,16.2z"/>
	<path d="M8,12.5c-0.3,0-0.5-0.2-0.5-0.5c0-2.5,2-4.5,4.5-4.5c0.3,0,0.5,0.2,0.5,0.5S12.3,8.5,12,8.5c-1.9,0-3.5,1.6-3.5,3.5
		C8.5,12.2,8.3,12.5,8,12.5z"/>
	<path d="M12,16.5c-0.3,0-0.5-0.2-0.5-0.5s0.2-0.5,0.5-0.5c1.9,0,3.5-1.6,3.5-3.5c0-0.3,0.2-0.5,0.5-0.5s0.5,0.2,0.5,0.5
		C16.5,14.4,14.5,16.5,12,16.5z"/>
	<path d="M2.2,22.2c-0.1,0-0.3,0-0.4-0.1c-0.2-0.2-0.2-0.5,0-0.7L21.4,1.8c0.2-0.2,0.5-0.2,0.7,0s0.2,0.5,0,0.7L2.6,22.1
		C2.5,22.2,2.4,22.2,2.2,22.2z"/>
</g>
</svg>
