<?xml version="1.0" encoding="iso-8859-1"?>
<!-- Generator: Adobe Illustrator 19.1.0, SVG Export Plug-In . SVG Version: 6.00 Build 0)  -->
<!DOCTYPE svg PUBLIC "-//W3C//DTD SVG 1.1 Tiny//EN" "http://www.w3.org/Graphics/SVG/1.1/DTD/svg11-tiny.dtd">
<svg version="1.1" baseProfile="tiny" id="Layer_1" xmlns="http://www.w3.org/2000/svg" xmlns:xlink="http://www.w3.org/1999/xlink"
	 x="0px" y="0px" viewBox="0 0 24 24" xml:space="preserve">
<g id="XMLID_700_">
	<path d="M12,18.95c-1.03,0-2.089-0.164-3.148-0.486c-0.264-0.081-0.413-0.36-0.332-0.624c0.08-0.265,0.358-0.413,0.624-0.333
		c0.963,0.294,1.924,0.443,2.856,0.443c5.248,0,9.736-4.73,10.846-6.001c-0.531-0.609-1.836-2.016-3.621-3.306
		c-0.224-0.162-0.274-0.475-0.112-0.698c0.162-0.223,0.474-0.273,0.698-0.112c2.467,1.784,4.017,3.725,4.082,3.807
		c0.144,0.182,0.144,0.439,0,0.621C23.676,12.534,18.519,18.95,12,18.95z"/>
	<path d="M4.467,16.151c-0.102,0-0.204-0.031-0.293-0.095c-2.458-1.781-4.002-3.715-4.066-3.796c-0.144-0.182-0.144-0.439,0-0.621
		C0.324,11.366,5.481,4.95,12,4.95c0.859,0,1.744,0.114,2.628,0.341c0.268,0.068,0.429,0.341,0.36,0.608s-0.342,0.43-0.608,0.36
		C13.577,6.055,12.776,5.95,12,5.95c-5.248,0-9.736,4.73-10.846,6c0.53,0.609,1.83,2.009,3.607,3.296
		c0.224,0.162,0.273,0.475,0.111,0.698C4.775,16.08,4.622,16.151,4.467,16.151z"/>
	<path d="M8,12.45c-0.276,0-0.5-0.224-0.5-0.5c0-2.481,2.019-4.5,4.5-4.5c0.276,0,0.5,0.224,0.5,0.5s-0.224,0.5-0.5,0.5
		c-1.93,0-3.5,1.57-3.5,3.5C8.5,12.227,8.276,12.45,8,12.45z"/>
	<path d="M12,16.45c-0.276,0-0.5-0.224-0.5-0.5s0.224-0.5,0.5-0.5c1.93,0,3.5-1.57,3.5-3.5c0-0.276,0.224-0.5,0.5-0.5
		s0.5,0.224,0.5,0.5C16.5,14.432,14.481,16.45,12,16.45z"/>
	<path d="M2.25,22.2c-0.128,0-0.256-0.049-0.354-0.146c-0.195-0.195-0.195-0.512,0-0.707l19.5-19.5c0.195-0.195,0.512-0.195,0.707,0
		s0.195,0.512,0,0.707l-19.5,19.5C2.506,22.151,2.378,22.2,2.25,22.2z"/>
</g>
</svg>
