<svg baseProfile="tiny" xmlns="http://www.w3.org/2000/svg" viewBox="0 0 24 24"><path d="M12 19C5.481 19 .324 12.584.108 12.311a.5.5 0 0 1 0-.621C.324 11.416 5.481 5 12 5s11.676 6.416 11.892 6.689a.5.5 0 0 1 0 .621C23.676 12.584 18.519 19 12 19zM1.155 12C2.266 13.271 6.753 18 12 18s9.734-4.729 10.845-6C21.734 10.729 17.247 6 12 6s-9.734 4.729-10.845 6z"/><path d="M12 16.5c-2.481 0-4.5-2.019-4.5-4.5S9.519 7.5 12 7.5s4.5 2.019 4.5 4.5-2.019 4.5-4.5 4.5zm0-8c-1.93 0-3.5 1.57-3.5 3.5s1.57 3.5 3.5 3.5 3.5-1.57 3.5-3.5-1.57-3.5-3.5-3.5z"/></svg>