<svg baseProfile="tiny" xmlns="http://www.w3.org/2000/svg" viewBox="0 0 24 24"><path d="M12 18.95c-1.03 0-2.089-.164-3.148-.486a.5.5 0 1 1 .292-.957A9.793 9.793 0 0 0 12 17.95c5.248 0 9.736-4.73 10.846-6.001a22.411 22.411 0 0 0-3.621-3.306.5.5 0 1 1 .586-.81c2.467 1.784 4.017 3.725 4.082 3.807a.5.5 0 0 1 0 .621c-.217.273-5.374 6.689-11.893 6.689zM4.467 16.151a.5.5 0 0 1-.293-.095C1.716 14.275.172 12.341.108 12.26a.5.5 0 0 1 0-.621C.324 11.366 5.481 4.95 12 4.95c.859 0 1.744.114 2.628.341a.499.499 0 1 1-.248.968A9.691 9.691 0 0 0 12 5.95c-5.248 0-9.736 4.73-10.846 6 .53.609 1.83 2.009 3.607 3.296a.5.5 0 0 1-.294.905z"/><path d="M8 12.45a.5.5 0 0 1-.5-.5c0-2.481 2.019-4.5 4.5-4.5a.5.5 0 0 1 0 1c-1.93 0-3.5 1.57-3.5 3.5a.5.5 0 0 1-.5.5zM12 16.45a.5.5 0 0 1 0-1c1.93 0 3.5-1.57 3.5-3.5a.5.5 0 0 1 1 0c0 2.482-2.019 4.5-4.5 4.5zM2.25 22.2a.5.5 0 0 1-.354-.853l19.5-19.5a.5.5 0 0 1 .707.707l-19.5 19.5a.498.498 0 0 1-.353.146z"/></svg>