<?xml version="1.0" encoding="utf-8"?>
<!-- Generator: Adobe Illustrator 19.1.0, SVG Export Plug-In . SVG Version: 6.00 Build 0)  -->
<!DOCTYPE svg PUBLIC "-//W3C//DTD SVG 1.1 Tiny//EN" "http://www.w3.org/Graphics/SVG/1.1/DTD/svg11-tiny.dtd">
<svg version="1.1" baseProfile="tiny" id="Layer_1" xmlns="http://www.w3.org/2000/svg" xmlns:xlink="http://www.w3.org/1999/xlink"
	 x="0px" y="0px" viewBox="0 0 24 24" xml:space="preserve">
<g id="XMLID_706_">
	<path d="M12,19c-6.5,0-11.7-6.4-11.9-6.7c-0.1-0.2-0.1-0.4,0-0.6C0.3,11.4,5.5,5,12,5s11.7,6.4,11.9,6.7c0.1,0.2,0.1,0.4,0,0.6
		C23.7,12.6,18.5,19,12,19z M1.2,12c1.1,1.3,5.6,6,10.8,6s9.7-4.7,10.8-6c-1.1-1.3-5.6-6-10.8-6S2.3,10.7,1.2,12z"/>
	<path d="M12,16.5c-2.5,0-4.5-2-4.5-4.5s2-4.5,4.5-4.5s4.5,2,4.5,4.5S14.5,16.5,12,16.5z M12,8.5c-1.9,0-3.5,1.6-3.5,3.5
		s1.6,3.5,3.5,3.5s3.5-1.6,3.5-3.5S13.9,8.5,12,8.5z"/>
</g>
</svg>
