<?xml version="1.0" encoding="iso-8859-1"?>
<!-- Generator: Adobe Illustrator 19.1.0, SVG Export Plug-In . SVG Version: 6.00 Build 0)  -->
<!DOCTYPE svg PUBLIC "-//W3C//DTD SVG 1.1 Tiny//EN" "http://www.w3.org/Graphics/SVG/1.1/DTD/svg11-tiny.dtd">
<svg version="1.1" baseProfile="tiny" id="Layer_1" xmlns="http://www.w3.org/2000/svg" xmlns:xlink="http://www.w3.org/1999/xlink"
	 x="0px" y="0px" viewBox="0 0 24 24" xml:space="preserve">
<g id="XMLID_706_">
	<path d="M12,19c-6.519,0-11.676-6.416-11.892-6.689c-0.144-0.182-0.144-0.439,0-0.621C0.324,11.416,5.481,5,12,5
		s11.676,6.416,11.892,6.689c0.144,0.182,0.144,0.439,0,0.621C23.676,12.584,18.519,19,12,19z M1.155,12
		C2.266,13.271,6.753,18,12,18s9.734-4.729,10.845-6C21.734,10.729,17.247,6,12,6S2.266,10.729,1.155,12z"/>
	<path d="M12,16.5c-2.481,0-4.5-2.019-4.5-4.5S9.519,7.5,12,7.5s4.5,2.019,4.5,4.5S14.481,16.5,12,16.5z M12,8.5
		c-1.93,0-3.5,1.57-3.5,3.5s1.57,3.5,3.5,3.5s3.5-1.57,3.5-3.5S13.93,8.5,12,8.5z"/>
</g>
</svg>
