<svg baseProfile="tiny" xmlns="http://www.w3.org/2000/svg" viewBox="0 0 24 24"><path d="M9.5 22.448a.5.5 0 0 1-.5-.5V16H2.033C1.425 16 0 16 0 14.57V2.033C0 .912.912 0 2.033 0H21.98C23.094 0 24 .912 24 2.033V14.57C24 16 22.585 16 21.98 16h-6.67c-.555.726-1.974 2.342-5.434 6.278a.5.5 0 0 1-.376.17zM2.033 1C1.464 1 1 1.464 1 2.033V14.57c0 .259 0 .43 1.033.43H9.5a.5.5 0 0 1 .5.5v5.122c2.068-2.354 4.565-5.201 4.748-5.422a.503.503 0 0 1 .4-.2h6.832C23 15 23 14.838 23 14.57V2.033C23 1.464 22.543 1 21.98 1H2.033z"/><path d="M16 5H5a.5.5 0 0 1 0-1h11a.5.5 0 0 1 0 1zM13 8H5a.5.5 0 0 1 0-1h8a.5.5 0 0 1 0 1zM16 11H5a.5.5 0 0 1 0-1h11a.5.5 0 0 1 0 1z"/></svg>