<?xml version="1.0" encoding="iso-8859-1"?>
<!-- Generator: Adobe Illustrator 19.1.0, SVG Export Plug-In . SVG Version: 6.00 Build 0)  -->
<!DOCTYPE svg PUBLIC "-//W3C//DTD SVG 1.1 Tiny//EN" "http://www.w3.org/Graphics/SVG/1.1/DTD/svg11-tiny.dtd">
<svg version="1.1" baseProfile="tiny" id="Layer_1" xmlns="http://www.w3.org/2000/svg" xmlns:xlink="http://www.w3.org/1999/xlink"
	 x="0px" y="0px" viewBox="0 0 24 24" xml:space="preserve">
<path d="M9.5,22.448c-0.06,0-0.119-0.011-0.177-0.032C9.129,22.343,9,22.156,9,21.948V16H2.033C1.425,16,0,16,0,14.57V2.033
	C0,0.912,0.912,0,2.033,0H21.98C23.094,0,24,0.912,24,2.033V14.57C24,16,22.585,16,21.98,16H15.31
	c-0.555,0.726-1.974,2.342-5.434,6.278C9.778,22.389,9.641,22.448,9.5,22.448z M2.033,1C1.464,1,1,1.464,1,2.033V14.57
	C1,14.829,1,15,2.033,15H9.5c0.276,0,0.5,0.224,0.5,0.5v5.122c2.068-2.354,4.565-5.201,4.748-5.422c0.095-0.125,0.242-0.2,0.4-0.2
	h6.832C23,15,23,14.838,23,14.57V2.033C23,1.464,22.543,1,21.98,1H2.033z"/>
<path d="M16,5H5C4.724,5,4.5,4.776,4.5,4.5S4.724,4,5,4h11c0.276,0,0.5,0.224,0.5,0.5S16.276,5,16,5z"/>
<path d="M13,8H5C4.724,8,4.5,7.776,4.5,7.5S4.724,7,5,7h8c0.276,0,0.5,0.224,0.5,0.5S13.276,8,13,8z"/>
<path d="M16,11H5c-0.276,0-0.5-0.224-0.5-0.5S4.724,10,5,10h11c0.276,0,0.5,0.224,0.5,0.5S16.276,11,16,11z"/>
</svg>
