<?xml version="1.0" encoding="utf-8"?>
<!-- Generator: Adobe Illustrator 19.1.0, SVG Export Plug-In . SVG Version: 6.00 Build 0)  -->
<!DOCTYPE svg PUBLIC "-//W3C//DTD SVG 1.1 Tiny//EN" "http://www.w3.org/Graphics/SVG/1.1/DTD/svg11-tiny.dtd">
<svg version="1.1" baseProfile="tiny" id="Layer_1" xmlns="http://www.w3.org/2000/svg" xmlns:xlink="http://www.w3.org/1999/xlink"
	 x="0px" y="0px" viewBox="0 0 24 24" xml:space="preserve">
<path d="M17.5,17H4.8c-0.3,0-0.5-0.2-0.5-0.5c0-1.1,1-1.9,2.1-2.5h-5C1.2,14,1,13.8,1,13.5v-12C1,1.2,1.2,1,1.5,1h8
	C9.8,1,10,1.2,10,1.5V3h7.5C17.8,3,18,3.2,18,3.5v13C18,16.8,17.8,17,17.5,17z M5.5,16H17V4H9.5C9.2,4,9,3.8,9,3.5V2H2v11h7.4
	c0.3,0,0.5,0.2,0.5,0.4S9.8,13.9,9.5,14C8.2,14.3,6.1,15.1,5.5,16z"/>
<path d="M9.5,14C9.2,14,9,13.8,9,13.5V2c0-0.3,0.2-0.5,0.5-0.5S10,1.7,10,2v11.5C10,13.8,9.8,14,9.5,14z"/>
<path d="M1.5,24C1.2,24,1,23.8,1,23.5v-23C1,0.2,1.2,0,1.5,0S2,0.2,2,0.5v23C2,23.8,1.8,24,1.5,24z"/>
<path d="M4.4,17c-0.3,0-0.5-0.2-0.5-0.5V14c0-0.3,0.2-0.5,0.5-0.5s0.5,0.2,0.5,0.5v2.5C4.9,16.8,4.7,17,4.4,17z"/>
</svg>
