<svg baseProfile="tiny" xmlns="http://www.w3.org/2000/svg" viewBox="0 0 24 24"><path d="M17.5 17H4.843a.5.5 0 0 1-.5-.5c0-1.115 1.021-1.935 2.143-2.5H1.5a.5.5 0 0 1-.5-.5v-12a.5.5 0 0 1 .5-.5h8a.5.5 0 0 1 .5.5V3h7.5a.5.5 0 0 1 .5.5v13a.5.5 0 0 1-.5.5zM5.499 16H17V4H9.5a.5.5 0 0 1-.5-.5V2H2v11h7.438a.5.5 0 0 1 .106.988C8.159 14.291 6.08 15.06 5.499 16z"/><path d="M9.5 13.979a.5.5 0 0 1-.5-.5V2a.5.5 0 0 1 1 0v11.479a.5.5 0 0 1-.5.5zM1.5 24a.5.5 0 0 1-.5-.5V.5a.5.5 0 0 1 1 0v23a.5.5 0 0 1-.5.5zM4.417 17a.5.5 0 0 1-.5-.5V14a.5.5 0 0 1 1 0v2.5a.5.5 0 0 1-.5.5z"/></svg>