<?xml version="1.0" encoding="iso-8859-1"?>
<!-- Generator: Adobe Illustrator 19.1.0, SVG Export Plug-In . SVG Version: 6.00 Build 0)  -->
<!DOCTYPE svg PUBLIC "-//W3C//DTD SVG 1.1 Tiny//EN" "http://www.w3.org/Graphics/SVG/1.1/DTD/svg11-tiny.dtd">
<svg version="1.1" baseProfile="tiny" id="Layer_1" xmlns="http://www.w3.org/2000/svg" xmlns:xlink="http://www.w3.org/1999/xlink"
	 x="0px" y="0px" viewBox="0 0 24 24" xml:space="preserve">
<path d="M17.5,17H4.843c-0.276,0-0.5-0.224-0.5-0.5c0-1.115,1.021-1.935,2.143-2.5H1.5C1.224,14,1,13.776,1,13.5v-12
	C1,1.224,1.224,1,1.5,1h8C9.776,1,10,1.224,10,1.5V3h7.5C17.776,3,18,3.224,18,3.5v13C18,16.776,17.776,17,17.5,17z M5.499,16H17V4
	H9.5C9.224,4,9,3.776,9,3.5V2H2v11h7.438c0.255,0,0.47,0.192,0.497,0.446s-0.141,0.488-0.391,0.542
	C8.159,14.291,6.08,15.06,5.499,16z"/>
<path d="M9.5,13.979c-0.276,0-0.5-0.224-0.5-0.5V2c0-0.276,0.224-0.5,0.5-0.5S10,1.724,10,2v11.479
	C10,13.755,9.776,13.979,9.5,13.979z"/>
<path d="M1.5,24C1.224,24,1,23.776,1,23.5v-23C1,0.224,1.224,0,1.5,0S2,0.224,2,0.5v23C2,23.776,1.776,24,1.5,24z"/>
<path d="M4.417,17c-0.276,0-0.5-0.224-0.5-0.5V14c0-0.276,0.224-0.5,0.5-0.5s0.5,0.224,0.5,0.5v2.5C4.917,16.776,4.693,17,4.417,17z
	"/>
</svg>
