<?xml version="1.0" encoding="utf-8"?>
<!-- Generator: Adobe Illustrator 19.1.0, SVG Export Plug-In . SVG Version: 6.00 Build 0)  -->
<!DOCTYPE svg PUBLIC "-//W3C//DTD SVG 1.1 Tiny//EN" "http://www.w3.org/Graphics/SVG/1.1/DTD/svg11-tiny.dtd">
<svg version="1.1" baseProfile="tiny" id="Layer_1" xmlns="http://www.w3.org/2000/svg" xmlns:xlink="http://www.w3.org/1999/xlink"
	 x="0px" y="0px" viewBox="0 0 24 24" xml:space="preserve">
<g>
	<path d="M21.9,7H2.1C1,7,0,6,0,4.9V3.1C0,2,1,1,2.1,1h19.7C23,1,24,2,24,3.1v1.7C24,6,23,7,21.9,7z M2.1,2C1.5,2,1,2.5,1,3.1v1.7
		C1,5.5,1.5,6,2.1,6h19.7C22.5,6,23,5.5,23,4.9V3.1C23,2.5,22.5,2,21.9,2H2.1z"/>
	<path d="M21.9,15H2.1C1,15,0,14,0,12.9v-1.7C0,10,1,9,2.1,9h19.7C23,9,24,10,24,11.1v1.7C24,14,23,15,21.9,15z M2.1,10
		C1.5,10,1,10.5,1,11.1v1.7C1,13.5,1.5,14,2.1,14h19.7c0.6,0,1.1-0.5,1.1-1.1v-1.7c0-0.6-0.5-1.1-1.1-1.1H2.1z"/>
	<path d="M21.9,23H2.1C1,23,0,22,0,20.9v-1.7C0,18,1,17,2.1,17h19.7c1.2,0,2.1,1,2.1,2.1v1.7C24,22,23,23,21.9,23z M2.1,18
		C1.5,18,1,18.5,1,19.1v1.7C1,21.5,1.5,22,2.1,22h19.7c0.6,0,1.1-0.5,1.1-1.1v-1.7c0-0.6-0.5-1.1-1.1-1.1H2.1z"/>
</g>
</svg>
