<?xml version="1.0" encoding="iso-8859-1"?>
<!-- Generator: Adobe Illustrator 19.1.0, SVG Export Plug-In . SVG Version: 6.00 Build 0)  -->
<!DOCTYPE svg PUBLIC "-//W3C//DTD SVG 1.1 Tiny//EN" "http://www.w3.org/Graphics/SVG/1.1/DTD/svg11-tiny.dtd">
<svg version="1.1" baseProfile="tiny" id="Layer_1" xmlns="http://www.w3.org/2000/svg" xmlns:xlink="http://www.w3.org/1999/xlink"
	 x="0px" y="0px" viewBox="0 0 24 24" xml:space="preserve">
<g>
	<path d="M21.86,7H2.14C0.96,7,0,6.04,0,4.86V3.14C0,1.96,0.96,1,2.14,1h19.72C23.04,1,24,1.96,24,3.14v1.72
		C24,6.04,23.04,7,21.86,7z M2.14,2C1.511,2,1,2.511,1,3.14v1.72C1,5.489,1.511,6,2.14,6h19.72C22.489,6,23,5.489,23,4.86V3.14
		C23,2.511,22.489,2,21.86,2H2.14z"/>
	<path d="M21.86,15H2.14C0.96,15,0,14.04,0,12.86v-1.72C0,9.96,0.96,9,2.14,9h19.72C23.04,9,24,9.96,24,11.14v1.72
		C24,14.04,23.04,15,21.86,15z M2.14,10C1.511,10,1,10.511,1,11.14v1.72C1,13.489,1.511,14,2.14,14h19.72
		c0.629,0,1.14-0.511,1.14-1.14v-1.72c0-0.629-0.511-1.14-1.14-1.14H2.14z"/>
	<path d="M21.86,23H2.14C0.96,23,0,22.04,0,20.86v-1.72C0,17.96,0.96,17,2.14,17h19.72c1.18,0,2.14,0.96,2.14,2.14v1.72
		C24,22.04,23.04,23,21.86,23z M2.14,18C1.511,18,1,18.511,1,19.14v1.72C1,21.489,1.511,22,2.14,22h19.72
		c0.629,0,1.14-0.511,1.14-1.14v-1.72c0-0.629-0.511-1.14-1.14-1.14H2.14z"/>
</g>
</svg>
