<?xml version="1.0" encoding="iso-8859-1"?>
<!-- Generator: Adobe Illustrator 19.1.0, SVG Export Plug-In . SVG Version: 6.00 Build 0)  -->
<!DOCTYPE svg PUBLIC "-//W3C//DTD SVG 1.1 Tiny//EN" "http://www.w3.org/Graphics/SVG/1.1/DTD/svg11-tiny.dtd">
<svg version="1.1" baseProfile="tiny" id="Layer_1" xmlns="http://www.w3.org/2000/svg" xmlns:xlink="http://www.w3.org/1999/xlink"
	 x="0px" y="0px" viewBox="0 0 24 24" xml:space="preserve">
<path d="M11.936,24C5.354,24,0,18.626,0,12.021C0,5.393,5.354,0,11.936,0C18.588,0,24,5.383,24,12S18.588,24,11.936,24z M11.936,1
	C5.905,1,1,5.943,1,12.021C1,18.074,5.905,23,11.936,23C18.036,23,23,18.065,23,12S18.036,1,11.936,1z"/>
<path id="XMLID_754_" d="M10.458,13.336c0-2.457,3.24-2.698,3.24-4.409c0-0.786-0.623-1.45-1.912-1.45
	c-1.249,0-2.134,0.543-2.799,1.409l-1.37-1.51c1.028-1.268,2.577-1.993,4.391-1.993c2.538,0,4.088,1.349,4.088,3.161
	c0,2.98-3.585,3.222-3.585,5.014c0,0.321,0.163,0.705,0.444,0.905l-1.791,0.605C10.68,14.605,10.458,14,10.458,13.336z
	 M10.478,17.806c0-0.744,0.643-1.388,1.409-1.388c0.764,0,1.409,0.644,1.409,1.388c0,0.765-0.646,1.43-1.409,1.43
	C11.121,19.236,10.478,18.571,10.478,17.806z"/>
</svg>
