<?xml version="1.0" encoding="utf-8"?>
<!-- Generator: Adobe Illustrator 19.1.0, SVG Export Plug-In . SVG Version: 6.00 Build 0)  -->
<!DOCTYPE svg PUBLIC "-//W3C//DTD SVG 1.1 Tiny//EN" "http://www.w3.org/Graphics/SVG/1.1/DTD/svg11-tiny.dtd">
<svg version="1.1" baseProfile="tiny" id="Layer_1" xmlns="http://www.w3.org/2000/svg" xmlns:xlink="http://www.w3.org/1999/xlink"
	 x="0px" y="0px" viewBox="0 0 24 24" xml:space="preserve">
<path d="M11.9,24C5.4,24,0,18.6,0,12C0,5.4,5.4,0,11.9,0C18.6,0,24,5.4,24,12S18.6,24,11.9,24z M11.9,1C5.9,1,1,5.9,1,12
	c0,6.1,4.9,11,10.9,11C18,23,23,18.1,23,12S18,1,11.9,1z"/>
<path id="XMLID_754_" d="M10.5,13.3c0-2.5,3.2-2.7,3.2-4.4c0-0.8-0.6-1.5-1.9-1.5C10.5,7.5,9.7,8,9,8.9L7.6,7.4c1-1.3,2.6-2,4.4-2
	c2.5,0,4.1,1.3,4.1,3.2c0,3-3.6,3.2-3.6,5c0,0.3,0.2,0.7,0.4,0.9l-1.8,0.6C10.7,14.6,10.5,14,10.5,13.3z M10.5,17.8
	c0-0.7,0.6-1.4,1.4-1.4c0.8,0,1.4,0.6,1.4,1.4c0,0.8-0.6,1.4-1.4,1.4C11.1,19.2,10.5,18.6,10.5,17.8z"/>
</svg>
