<svg baseProfile="tiny" xmlns="http://www.w3.org/2000/svg" viewBox="0 0 24 24"><path d="M11.936 24C5.354 24 0 18.626 0 12.021 0 5.393 5.354 0 11.936 0 18.588 0 24 5.383 24 12s-5.412 12-12.064 12zm0-23C5.905 1 1 5.943 1 12.021 1 18.074 5.905 23 11.936 23 18.036 23 23 18.065 23 12S18.036 1 11.936 1z"/><path d="M10.458 13.336c0-2.457 3.24-2.698 3.24-4.409 0-.786-.623-1.45-1.912-1.45-1.249 0-2.134.543-2.799 1.409l-1.37-1.51c1.028-1.268 2.577-1.993 4.391-1.993 2.538 0 4.088 1.349 4.088 3.161 0 2.98-3.585 3.222-3.585 5.014 0 .321.163.705.444.905l-1.791.605c-.484-.463-.706-1.068-.706-1.732zm.02 4.47c0-.744.643-1.388 1.409-1.388.764 0 1.409.644 1.409 1.388 0 .765-.646 1.43-1.409 1.43-.766 0-1.409-.665-1.409-1.43z"/></svg>