<?xml version="1.0" encoding="iso-8859-1"?>
<!-- Generator: Adobe Illustrator 19.1.0, SVG Export Plug-In . SVG Version: 6.00 Build 0)  -->
<!DOCTYPE svg PUBLIC "-//W3C//DTD SVG 1.1 Tiny//EN" "http://www.w3.org/Graphics/SVG/1.1/DTD/svg11-tiny.dtd">
<svg version="1.1" baseProfile="tiny" id="Layer_1" xmlns="http://www.w3.org/2000/svg" xmlns:xlink="http://www.w3.org/1999/xlink"
	 x="0px" y="0px" viewBox="0 0 24 24" xml:space="preserve">
<path d="M4.378,15c-0.011,0-0.022,0-0.033,0c-0.155,0-0.297-0.316-0.383-0.445l-2.878-4.429C0.931,9.896,0.993,9.53,1.223,9.376
	c0.229-0.153,0.54-0.12,0.693,0.111l2.516,3.76l2.928-3.353c0.183-0.209,0.498-0.233,0.706-0.051
	c0.208,0.182,0.229,0.496,0.047,0.704l-3.358,4.06C4.659,14.716,4.521,15,4.378,15z"/>
<path d="M13.827,22c-0.268,0-0.49-0.101-0.5-0.371c-0.01-0.276,0.206-0.453,0.481-0.463c2.3-0.084,4.429-1.032,5.995-2.717
	s2.382-3.867,2.296-6.165c-0.084-2.299-1.059-4.421-2.745-5.987c-1.686-1.566-3.872-2.379-6.18-2.294
	c-2.394,0.088-4.682,1.216-6.278,3.092c-1.617,1.9-2.333,4.35-2.017,6.897c0.034,0.274-0.161,0.524-0.435,0.558
	c-0.277,0.037-0.524-0.16-0.558-0.434c-0.352-2.829,0.447-5.552,2.248-7.668c1.777-2.088,4.329-3.342,7.002-3.44
	c2.573-0.089,5.017,0.816,6.897,2.564c1.882,1.748,2.97,4.124,3.064,6.69c0.096,2.566-0.814,4.905-2.563,6.786
	C18.788,20.928,16.412,22,13.846,22C13.839,22,13.833,22,13.827,22z"/>
<path d="M16,14h-3.5c-0.276,0-0.5-0.224-0.5-0.5V8c0-0.276,0.224-0.5,0.5-0.5S13,7.724,13,8v5h3c0.276,0,0.5,0.224,0.5,0.5
	S16.276,14,16,14z"/>
</svg>
