<svg baseProfile="tiny" xmlns="http://www.w3.org/2000/svg" viewBox="0 0 24 24"><path d="M4.378 15h-.033c-.155 0-.297-.316-.383-.445l-2.878-4.429c-.153-.23-.091-.596.139-.75.229-.153.54-.12.693.111l2.516 3.76L7.36 9.894a.498.498 0 1 1 .753.653l-3.358 4.06c-.096.109-.234.393-.377.393z"/><path d="M13.827 22c-.268 0-.49-.101-.5-.371-.01-.276.206-.453.481-.463 2.3-.084 4.429-1.032 5.995-2.717s2.382-3.867 2.296-6.165a8.538 8.538 0 0 0-2.745-5.987 8.541 8.541 0 0 0-6.18-2.294c-2.394.088-4.682 1.216-6.278 3.092-1.617 1.9-2.333 4.35-2.017 6.897a.5.5 0 0 1-.993.124c-.352-2.829.447-5.552 2.248-7.668 1.777-2.088 4.329-3.342 7.002-3.44a9.56 9.56 0 0 1 6.897 2.564 9.548 9.548 0 0 1 3.064 6.69c.096 2.566-.814 4.905-2.563 6.786C18.788 20.928 16.412 22 13.846 22h-.019z"/><path d="M16 14h-3.5a.5.5 0 0 1-.5-.5V8a.5.5 0 0 1 1 0v5h3a.5.5 0 0 1 0 1z"/></svg>