<?xml version="1.0" encoding="utf-8"?>
<!-- Generator: Adobe Illustrator 19.1.0, SVG Export Plug-In . SVG Version: 6.00 Build 0)  -->
<!DOCTYPE svg PUBLIC "-//W3C//DTD SVG 1.1 Tiny//EN" "http://www.w3.org/Graphics/SVG/1.1/DTD/svg11-tiny.dtd">
<svg version="1.1" baseProfile="tiny" id="Layer_1" xmlns="http://www.w3.org/2000/svg" xmlns:xlink="http://www.w3.org/1999/xlink"
	 x="0px" y="0px" viewBox="0 0 24 24" xml:space="preserve">
<g>
	<path d="M4.2,15.7l-0.9-0.5l3.2-5.3c0.1-0.1,0.2-0.2,0.4-0.2c0.2,0,0.3,0.1,0.4,0.2l2.2,2.6l2.3-5.2C11.9,7.1,12.1,7,12.3,7
		c0.2,0,0.4,0.1,0.5,0.3l3.2,8L15,15.7l-2.8-6.9l-2.2,4.8c-0.1,0.2-0.2,0.3-0.4,0.3c-0.2,0-0.3,0-0.5-0.2L7,11L4.2,15.7z"/>
	<path d="M18.5,19h-18C0.2,19,0,18.8,0,18.5v-18C0,0.2,0.2,0,0.5,0h18C18.8,0,19,0.2,19,0.5v18C19,18.8,18.8,19,18.5,19z M1,18h17V1
		H1V18z"/>
	<path d="M21.5,23.5C21.5,23.5,21.5,23.5,21.5,23.5L5.5,22c-0.3,0-0.5-0.3-0.5-0.5c0-0.3,0.3-0.5,0.5-0.5l15.5,1.4l1.4-15l-1.6-0.1
		c-0.3,0-0.5-0.3-0.5-0.5c0-0.3,0.3-0.5,0.5-0.5L23,6.5c0.1,0,0.3,0.1,0.3,0.2c0.1,0.1,0.1,0.2,0.1,0.4L22,23c0,0.1-0.1,0.3-0.2,0.3
		C21.8,23.4,21.7,23.5,21.5,23.5z"/>
	<rect y="15" width="18" height="1"/>
	<path d="M5.3,7.4c-1.2,0-2.1-0.9-2.1-2.1c0-1.2,0.9-2.1,2.1-2.1s2.1,0.9,2.1,2.1C7.5,6.5,6.5,7.4,5.3,7.4z M5.3,4.2
		c-0.6,0-1.1,0.5-1.1,1.1s0.5,1.1,1.1,1.1c0.6,0,1.1-0.5,1.1-1.1S6,4.2,5.3,4.2z"/>
</g>
</svg>
