<svg baseProfile="tiny" xmlns="http://www.w3.org/2000/svg" viewBox="0 0 24 24"><path d="M4.173 15.733l-.858-.513 3.209-5.349a.496.496 0 0 1 .39-.241.474.474 0 0 1 .423.178l2.165 2.598 2.345-5.159c.083-.182.281-.281.467-.293.2.005.378.128.453.314l3.209 8.023-.928.371-2.775-6.937-2.19 4.818a.498.498 0 0 1-.839.113L7.02 10.989l-2.847 4.744z"/><path d="M18.5 19H.5a.5.5 0 0 1-.5-.5V.5A.5.5 0 0 1 .5 0h18a.5.5 0 0 1 .5.5v18a.5.5 0 0 1-.5.5zM1 18h17V1H1v17z"/><path d="M21.542 23.465l-.046-.002-15.979-1.458a.5.5 0 0 1 .09-.996l15.482 1.413 1.367-14.984-1.633-.148a.5.5 0 0 1-.453-.543.517.517 0 0 1 .543-.453l2.131.193a.498.498 0 0 1 .453.544l-1.458 15.98a.496.496 0 0 1-.497.454z"/><path d="M0 15h18v1H0zM5.349 7.419a2.106 2.106 0 0 1-2.104-2.105c0-1.16.944-2.104 2.104-2.104s2.105.944 2.105 2.104a2.108 2.108 0 0 1-2.105 2.105zm0-3.21a1.105 1.105 0 1 0 .002 2.21 1.105 1.105 0 0 0-.002-2.21z"/></svg>