<?xml version="1.0" encoding="iso-8859-1"?>
<!-- Generator: Adobe Illustrator 19.1.0, SVG Export Plug-In . SVG Version: 6.00 Build 0)  -->
<!DOCTYPE svg PUBLIC "-//W3C//DTD SVG 1.1 Tiny//EN" "http://www.w3.org/Graphics/SVG/1.1/DTD/svg11-tiny.dtd">
<svg version="1.1" baseProfile="tiny" id="Layer_1" xmlns="http://www.w3.org/2000/svg" xmlns:xlink="http://www.w3.org/1999/xlink"
	 x="0px" y="0px" viewBox="0 0 24 24" xml:space="preserve">
<g>
	<path d="M4.173,15.733L3.315,15.22l3.209-5.349c0.083-0.14,0.229-0.229,0.39-0.241c0.16-0.024,0.319,0.054,0.423,0.178l2.165,2.598
		l2.345-5.159c0.083-0.182,0.281-0.281,0.467-0.293c0.2,0.005,0.378,0.128,0.453,0.314l3.209,8.023l-0.928,0.371l-2.775-6.937
		l-2.19,4.818c-0.071,0.156-0.218,0.266-0.388,0.288c-0.173,0.022-0.341-0.044-0.451-0.175L7.02,10.989L4.173,15.733z"/>
	<path d="M18.5,19h-18C0.224,19,0,18.776,0,18.5v-18C0,0.224,0.224,0,0.5,0h18C18.776,0,19,0.224,19,0.5v18
		C19,18.776,18.776,19,18.5,19z M1,18h17V1H1V18z"/>
	<path d="M21.542,23.465c-0.015,0-0.03-0.001-0.046-0.002L5.517,22.005c-0.275-0.025-0.478-0.269-0.453-0.544
		c0.025-0.274,0.261-0.471,0.543-0.452l15.482,1.413l1.367-14.984l-1.633-0.148c-0.275-0.025-0.478-0.269-0.453-0.543
		c0.024-0.275,0.289-0.472,0.543-0.453l2.131,0.193c0.133,0.012,0.254,0.076,0.339,0.178c0.085,0.103,0.126,0.233,0.114,0.366
		l-1.458,15.98c-0.012,0.132-0.076,0.254-0.178,0.338C21.771,23.424,21.658,23.465,21.542,23.465z"/>
	<rect y="15" width="18" height="1"/>
	<path d="M5.349,7.419c-1.161,0-2.104-0.944-2.104-2.105c0-1.16,0.944-2.104,2.104-2.104s2.105,0.944,2.105,2.104
		C7.454,6.475,6.509,7.419,5.349,7.419z M5.349,4.209c-0.609,0-1.104,0.495-1.104,1.104S4.74,6.419,5.349,6.419
		c0.609,0,1.105-0.496,1.105-1.105S5.958,4.209,5.349,4.209z"/>
</g>
</svg>
