<?xml version="1.0" encoding="iso-8859-1"?>
<!-- Generator: Adobe Illustrator 19.1.0, SVG Export Plug-In . SVG Version: 6.00 Build 0)  -->
<!DOCTYPE svg PUBLIC "-//W3C//DTD SVG 1.1 Tiny//EN" "http://www.w3.org/Graphics/SVG/1.1/DTD/svg11-tiny.dtd">
<svg version="1.1" baseProfile="tiny" id="Layer_1" xmlns="http://www.w3.org/2000/svg" xmlns:xlink="http://www.w3.org/1999/xlink"
	 x="0px" y="0px" viewBox="0 0 24 24" xml:space="preserve">
<path d="M12,24C5.383,24,0,18.617,0,12S5.383,0,12,0s12,5.383,12,12S18.617,24,12,24z M12,1C5.935,1,1,5.935,1,12s4.935,11,11,11
	s11-4.935,11-11S18.065,1,12,1z"/>
<path d="M14.6,17.1c-0.128,0-0.256-0.049-0.354-0.146l-2.776-2.775c-0.195-0.195-0.195-0.512,0-0.707s0.512-0.195,0.707,0
	l2.776,2.775c0.195,0.195,0.195,0.512,0,0.707C14.855,17.051,14.728,17.1,14.6,17.1z"/>
<path d="M11.5,14.5c-0.276,0-0.5-0.224-0.5-0.5V7c0-0.276,0.224-0.5,0.5-0.5S12,6.724,12,7v7C12,14.276,11.776,14.5,11.5,14.5z"/>
</svg>
