<?xml version="1.0" encoding="utf-8"?>
<!-- Generator: Adobe Illustrator 19.1.0, SVG Export Plug-In . SVG Version: 6.00 Build 0)  -->
<!DOCTYPE svg PUBLIC "-//W3C//DTD SVG 1.1 Tiny//EN" "http://www.w3.org/Graphics/SVG/1.1/DTD/svg11-tiny.dtd">
<svg version="1.1" baseProfile="tiny" id="Layer_1" xmlns="http://www.w3.org/2000/svg" xmlns:xlink="http://www.w3.org/1999/xlink"
	 x="0px" y="0px" viewBox="0 0 24 24" xml:space="preserve">
<path fill="#231F20" d="M8.2,16.3C3.7,16.3,0,12.7,0,8.2C0,3.7,3.7,0,8.2,0s8.2,3.7,8.2,8.2C16.3,12.7,12.7,16.3,8.2,16.3z M8.2,1
	C4.2,1,1,4.2,1,8.2s3.2,7.2,7.2,7.2c4,0,7.2-3.2,7.2-7.2S12.1,1,8.2,1z"/>
<path fill="#231F20" d="M15.8,24c-4.5,0-8.2-3.7-8.2-8.2c0-4.5,3.7-8.2,8.2-8.2s8.2,3.7,8.2,8.2C24,20.3,20.3,24,15.8,24z M15.8,8.7
	c-4,0-7.2,3.2-7.2,7.2s3.2,7.2,7.2,7.2c4,0,7.2-3.2,7.2-7.2S19.8,8.7,15.8,8.7z"/>
</svg>
