<?xml version="1.0" encoding="iso-8859-1"?>
<!-- Generator: Adobe Illustrator 19.1.0, SVG Export Plug-In . SVG Version: 6.00 Build 0)  -->
<!DOCTYPE svg PUBLIC "-//W3C//DTD SVG 1.1 Tiny//EN" "http://www.w3.org/Graphics/SVG/1.1/DTD/svg11-tiny.dtd">
<svg version="1.1" baseProfile="tiny" id="Layer_1" xmlns="http://www.w3.org/2000/svg" xmlns:xlink="http://www.w3.org/1999/xlink"
	 x="0px" y="0px" viewBox="0 0 24 24" xml:space="preserve">
<path d="M8.167,16.333C3.664,16.333,0,12.67,0,8.167C0,3.664,3.664,0,8.167,0s8.166,3.664,8.166,8.167
	C16.333,12.67,12.67,16.333,8.167,16.333z M8.167,1C4.215,1,1,4.215,1,8.167s3.215,7.167,7.167,7.167
	c3.951,0,7.166-3.215,7.166-7.167S12.118,1,8.167,1z"/>
<path d="M15.833,24c-4.503,0-8.166-3.664-8.166-8.167c0-4.503,3.663-8.167,8.166-8.167S24,11.33,24,15.833
	C24,20.336,20.336,24,15.833,24z M15.833,8.667c-3.951,0-7.166,3.215-7.166,7.167S11.882,23,15.833,23
	C19.785,23,23,19.785,23,15.833S19.785,8.667,15.833,8.667z"/>
</svg>
