<svg baseProfile="tiny" xmlns="http://www.w3.org/2000/svg" viewBox="0 0 24 24"><path d="M8.167 16.333C3.664 16.333 0 12.67 0 8.167S3.664 0 8.167 0s8.166 3.664 8.166 8.167-3.663 8.166-8.166 8.166zM8.167 1C4.215 1 1 4.215 1 8.167s3.215 7.167 7.167 7.167c3.951 0 7.166-3.215 7.166-7.167S12.118 1 8.167 1z"/><path d="M15.833 24c-4.503 0-8.166-3.664-8.166-8.167s3.663-8.167 8.166-8.167S24 11.33 24 15.833 20.336 24 15.833 24zm0-15.333c-3.951 0-7.166 3.215-7.166 7.167S11.882 23 15.833 23C19.785 23 23 19.785 23 15.833s-3.215-7.166-7.167-7.166z"/></svg>