<?xml version="1.0" encoding="utf-8"?>
<!-- Generator: Adobe Illustrator 19.1.0, SVG Export Plug-In . SVG Version: 6.00 Build 0)  -->
<!DOCTYPE svg PUBLIC "-//W3C//DTD SVG 1.1 Tiny//EN" "http://www.w3.org/Graphics/SVG/1.1/DTD/svg11-tiny.dtd">
<svg version="1.1" baseProfile="tiny" id="Layer_1" xmlns="http://www.w3.org/2000/svg" xmlns:xlink="http://www.w3.org/1999/xlink"
	 x="0px" y="0px" viewBox="0 0 24 24" xml:space="preserve">
<g>
	<path d="M5.4,24c-1.2,0-2.3-0.5-3.2-1.3l-0.9-0.9c-0.8-0.8-1.3-2-1.3-3.2s0.5-2.3,1.3-3.2l6.1-6.1C8.3,8.5,9.4,8,10.6,8
		c1.2,0,2.3,0.5,3.2,1.3l0.9,0.9c0.2,0.2,0.2,0.5,0,0.7s-0.5,0.2-0.7,0L13.1,10c-1.3-1.3-3.6-1.3-4.9,0L2,16.1c-0.7,0.7-1,1.5-1,2.5
		c0,0.9,0.4,1.8,1,2.5L3,22c1.3,1.3,3.6,1.3,4.9,0l4.2-4.2c0.2-0.2,0.5-0.2,0.7,0s0.2,0.5,0,0.7l-4.2,4.2C7.8,23.5,6.6,24,5.4,24z"
		/>
	<path d="M13.4,16c-1.2,0-2.3-0.5-3.2-1.3c-0.2-0.2-0.2-0.5,0-0.7s0.5-0.2,0.7,0c1.3,1.3,3.6,1.3,4.9,0L22,7.9c0.7-0.7,1-1.5,1-2.5
		c0-0.9-0.4-1.8-1-2.5L21,2c-1.4-1.4-3.6-1.4-4.9,0l-4.2,4.2c-0.2,0.2-0.5,0.2-0.7,0s-0.2-0.5,0-0.7l4.2-4.2c1.7-1.7,4.6-1.7,6.3,0
		l0.9,0.9c0.8,0.8,1.3,2,1.3,3.2c0,1.2-0.5,2.3-1.3,3.2l-6.1,6.1C15.7,15.5,14.6,16,13.4,16z"/>
</g>
</svg>
