<?xml version="1.0" encoding="iso-8859-1"?>
<!-- Generator: Adobe Illustrator 19.1.0, SVG Export Plug-In . SVG Version: 6.00 Build 0)  -->
<!DOCTYPE svg PUBLIC "-//W3C//DTD SVG 1.1 Tiny//EN" "http://www.w3.org/Graphics/SVG/1.1/DTD/svg11-tiny.dtd">
<svg version="1.1" baseProfile="tiny" id="Layer_1" xmlns="http://www.w3.org/2000/svg" xmlns:xlink="http://www.w3.org/1999/xlink"
	 x="0px" y="0px" viewBox="0 0 24 24" xml:space="preserve">
<g>
	<path d="M5.425,23.999c-1.199,0-2.325-0.466-3.173-1.313l-0.938-0.938C0.467,20.9,0,19.774,0,18.576s0.467-2.324,1.313-3.171
		L7.42,9.299c0.847-0.848,1.974-1.314,3.172-1.314c1.197,0,2.324,0.467,3.171,1.314l0.939,0.939c0.195,0.195,0.195,0.512,0,0.707
		s-0.512,0.195-0.707,0l-0.939-0.939c-1.316-1.319-3.612-1.317-4.929,0l-6.106,6.106C1.362,16.77,1,17.645,1,18.576
		c0,0.931,0.362,1.806,1.021,2.464l0.938,0.938c1.315,1.315,3.614,1.317,4.93,0l4.229-4.227c0.195-0.195,0.512-0.195,0.707,0
		s0.195,0.512,0,0.707l-4.229,4.227C7.75,23.533,6.623,23.999,5.425,23.999z"/>
	<path d="M13.409,16.016c-1.198,0-2.324-0.467-3.171-1.314c-0.195-0.195-0.195-0.512,0-0.707s0.512-0.195,0.707,0
		c1.316,1.318,3.612,1.318,4.929,0l6.104-6.105C22.638,7.23,23,6.355,23,5.424c0-0.931-0.362-1.806-1.021-2.464L21.04,2.021
		c-1.36-1.358-3.57-1.356-4.929,0l-4.227,4.226c-0.195,0.195-0.512,0.195-0.707,0s-0.195-0.512,0-0.707l4.227-4.226
		c1.747-1.747,4.594-1.749,6.343,0l0.938,0.939C23.533,3.1,24,4.226,24,5.424c0,1.199-0.467,2.325-1.314,3.172l-6.104,6.105
		C15.734,15.549,14.607,16.016,13.409,16.016z"/>
</g>
</svg>
