<?xml version="1.0" encoding="iso-8859-1"?>
<!-- Generator: Adobe Illustrator 19.1.0, SVG Export Plug-In . SVG Version: 6.00 Build 0)  -->
<!DOCTYPE svg PUBLIC "-//W3C//DTD SVG 1.1 Tiny//EN" "http://www.w3.org/Graphics/SVG/1.1/DTD/svg11-tiny.dtd">
<svg version="1.1" baseProfile="tiny" id="Layer_1" xmlns="http://www.w3.org/2000/svg" xmlns:xlink="http://www.w3.org/1999/xlink"
	 x="0px" y="0px" viewBox="0 0 24 24" xml:space="preserve">
<path d="M20.936,24H16.6c-0.276,0-0.5-0.224-0.5-0.5s0.224-0.5,0.5-0.5h4.335C22.074,23,23,22.074,23,20.936V3.064
	C23,1.926,22.074,1,20.936,1H16.6c-0.276,0-0.5-0.224-0.5-0.5S16.324,0,16.6,0h4.335C22.625,0,24,1.375,24,3.064v17.871
	C24,22.625,22.625,24,20.936,24z"/>
<path d="M7.4,24H3.064C1.375,24,0,22.625,0,20.936V3.064C0,1.375,1.375,0,3.064,0H7.4c0.276,0,0.5,0.224,0.5,0.5S7.676,1,7.4,1
	H3.064C1.926,1,1,1.926,1,3.064v17.871C1,22.074,1.926,23,3.064,23H7.4c0.276,0,0.5,0.224,0.5,0.5S7.676,24,7.4,24z"/>
<path d="M6.155,15.309c0.192-0.132,0.388-0.198,0.588-0.198c0.096,0,0.192,0.013,0.287,0.042c0.097,0.027,0.2,0.073,0.312,0.138
	l0.421,0.228c0.055,0.033,0.109,0.054,0.162,0.066c0.052,0.012,0.11,0.018,0.174,0.018c0.2,0,0.354-0.049,0.462-0.15
	c0.108-0.1,0.386-0.451,0.834-1.051c0.296-0.391,0.969-1.348,2.017-2.869c0-0.055-0.092-0.485-0.276-1.291
	c-0.184-0.804-0.352-1.485-0.504-2.047c-0.152-0.568-0.288-0.942-0.408-1.122C10.104,6.892,9.88,6.803,9.552,6.803
	c-0.112,0-0.332,0.04-0.66,0.121C8.684,6.972,8.46,7.027,8.22,7.092L8.112,6.719l1.332-0.455c0.344-0.121,0.663-0.217,0.955-0.289
	s0.542-0.108,0.75-0.108c0.336,0,0.588,0.1,0.757,0.299c0.256,0.32,0.472,0.954,0.648,1.897l0.252,1.369
	c0.72-1.104,1.281-1.881,1.681-2.328c0.36-0.409,0.701-0.713,1.02-0.913c0.32-0.199,0.624-0.299,0.913-0.299
	c0.272,0,0.492,0.04,0.66,0.12c0.304,0.144,0.456,0.416,0.456,0.816c0,0.273-0.076,0.485-0.228,0.636
	c-0.153,0.153-0.348,0.229-0.588,0.229c-0.088,0-0.172-0.01-0.252-0.03c-0.08-0.021-0.164-0.051-0.252-0.091l-0.312-0.132
	c-0.088-0.039-0.172-0.073-0.252-0.102c-0.08-0.028-0.14-0.042-0.18-0.042c-0.36,0-0.86,0.467-1.5,1.399
	c-0.64,0.933-0.961,1.47-0.961,1.614c0,0.121,0.074,0.511,0.222,1.171c0.148,0.66,0.31,1.36,0.486,2.095
	c0.16,0.696,0.296,1.177,0.408,1.44c0.184,0.433,0.392,0.648,0.624,0.648c0.216,0,0.436-0.12,0.66-0.359
	c0.224-0.241,0.56-0.672,1.008-1.297l0.336,0.204c-0.344,0.624-0.701,1.157-1.068,1.598c-0.696,0.833-1.361,1.247-1.993,1.247
	c-0.401,0-0.717-0.192-0.949-0.575c-0.136-0.225-0.268-0.593-0.396-1.105l-0.744-2.965l-2.461,3.228
	c-0.481,0.562-0.851,0.937-1.111,1.129c-0.26,0.192-0.582,0.288-0.966,0.288c-0.513,0-0.861-0.16-1.045-0.479
	c-0.103-0.169-0.156-0.368-0.156-0.6C5.867,15.663,5.962,15.441,6.155,15.309z"/>
</svg>
