<?xml version="1.0" encoding="utf-8"?>
<!-- Generator: Adobe Illustrator 19.1.0, SVG Export Plug-In . SVG Version: 6.00 Build 0)  -->
<!DOCTYPE svg PUBLIC "-//W3C//DTD SVG 1.1 Tiny//EN" "http://www.w3.org/Graphics/SVG/1.1/DTD/svg11-tiny.dtd">
<svg version="1.1" baseProfile="tiny" id="Layer_1" xmlns="http://www.w3.org/2000/svg" xmlns:xlink="http://www.w3.org/1999/xlink"
	 x="0px" y="0px" viewBox="0 0 24 24" xml:space="preserve">
<path fill="#231F20" d="M20.9,24h-4.3c-0.3,0-0.5-0.2-0.5-0.5s0.2-0.5,0.5-0.5h4.3c1.1,0,2.1-0.9,2.1-2.1V3.1C23,1.9,22.1,1,20.9,1
	h-4.3c-0.3,0-0.5-0.2-0.5-0.5S16.3,0,16.6,0h4.3C22.6,0,24,1.4,24,3.1v17.9C24,22.6,22.6,24,20.9,24z"/>
<path fill="#231F20" d="M7.4,24H3.1C1.4,24,0,22.6,0,20.9V3.1C0,1.4,1.4,0,3.1,0h4.3c0.3,0,0.5,0.2,0.5,0.5S7.7,1,7.4,1H3.1
	C1.9,1,1,1.9,1,3.1v17.9C1,22.1,1.9,23,3.1,23h4.3c0.3,0,0.5,0.2,0.5,0.5S7.7,24,7.4,24z"/>
<path d="M6.2,15.3c0.2-0.1,0.4-0.2,0.6-0.2c0.1,0,0.2,0,0.3,0c0.1,0,0.2,0.1,0.3,0.1l0.4,0.2c0.1,0,0.1,0.1,0.2,0.1
	c0.1,0,0.1,0,0.2,0c0.2,0,0.4,0,0.5-0.1c0.1-0.1,0.4-0.5,0.8-1.1c0.3-0.4,1-1.3,2-2.9c0-0.1-0.1-0.5-0.3-1.3c-0.2-0.8-0.4-1.5-0.5-2
	c-0.2-0.6-0.3-0.9-0.4-1.1c-0.1-0.2-0.3-0.3-0.7-0.3c-0.1,0-0.3,0-0.7,0.1C8.7,7,8.5,7,8.2,7.1L8.1,6.7l1.3-0.5
	c0.3-0.1,0.7-0.2,1-0.3s0.5-0.1,0.8-0.1c0.3,0,0.6,0.1,0.8,0.3c0.3,0.3,0.5,1,0.6,1.9l0.3,1.4c0.7-1.1,1.3-1.9,1.7-2.3
	c0.4-0.4,0.7-0.7,1-0.9c0.3-0.2,0.6-0.3,0.9-0.3c0.3,0,0.5,0,0.7,0.1c0.3,0.1,0.5,0.4,0.5,0.8c0,0.3-0.1,0.5-0.2,0.6
	c-0.2,0.2-0.3,0.2-0.6,0.2c-0.1,0-0.2,0-0.3,0c-0.1,0-0.2-0.1-0.3-0.1l-0.3-0.1c-0.1,0-0.2-0.1-0.3-0.1c-0.1,0-0.1,0-0.2,0
	c-0.4,0-0.9,0.5-1.5,1.4c-0.6,0.9-1,1.5-1,1.6c0,0.1,0.1,0.5,0.2,1.2c0.1,0.7,0.3,1.4,0.5,2.1c0.2,0.7,0.3,1.2,0.4,1.4
	c0.2,0.4,0.4,0.6,0.6,0.6c0.2,0,0.4-0.1,0.7-0.4c0.2-0.2,0.6-0.7,1-1.3l0.3,0.2c-0.3,0.6-0.7,1.2-1.1,1.6c-0.7,0.8-1.4,1.2-2,1.2
	c-0.4,0-0.7-0.2-0.9-0.6c-0.1-0.2-0.3-0.6-0.4-1.1l-0.7-3l-2.5,3.2c-0.5,0.6-0.9,0.9-1.1,1.1c-0.3,0.2-0.6,0.3-1,0.3
	c-0.5,0-0.9-0.2-1-0.5c-0.1-0.2-0.2-0.4-0.2-0.6C5.9,15.7,6,15.4,6.2,15.3z"/>
</svg>
