<svg baseProfile="tiny" xmlns="http://www.w3.org/2000/svg" viewBox="0 0 24 24"><path d="M20.936 24H16.6a.5.5 0 0 1 0-1h4.335A2.067 2.067 0 0 0 23 20.936V3.064A2.066 2.066 0 0 0 20.936 1H16.6a.5.5 0 0 1 0-1h4.335A3.068 3.068 0 0 1 24 3.064v17.871A3.068 3.068 0 0 1 20.936 24zM7.4 24H3.064A3.068 3.068 0 0 1 0 20.936V3.064A3.068 3.068 0 0 1 3.064 0H7.4a.5.5 0 0 1 0 1H3.064A2.066 2.066 0 0 0 1 3.064v17.871C1 22.074 1.926 23 3.064 23H7.4a.5.5 0 0 1 0 1z"/><path d="M6.155 15.309c.192-.132.388-.198.588-.198.096 0 .192.013.287.042.097.027.2.073.312.138l.421.228a.548.548 0 0 0 .162.066c.052.012.11.018.174.018.2 0 .354-.049.462-.15.108-.1.386-.451.834-1.051.296-.391.969-1.348 2.017-2.869 0-.055-.092-.485-.276-1.291a54.903 54.903 0 0 0-.504-2.047c-.152-.568-.288-.942-.408-1.122-.12-.181-.344-.27-.672-.27-.112 0-.332.04-.66.121-.208.048-.432.103-.672.168l-.108-.373 1.332-.455c.344-.121.663-.217.955-.289s.542-.108.75-.108c.336 0 .588.1.757.299.256.32.472.954.648 1.897l.252 1.369c.72-1.104 1.281-1.881 1.681-2.328.36-.409.701-.713 1.02-.913.32-.199.624-.299.913-.299.272 0 .492.04.66.12.304.144.456.416.456.816 0 .273-.076.485-.228.636a.794.794 0 0 1-.588.229c-.088 0-.172-.01-.252-.03a1.58 1.58 0 0 1-.252-.091l-.312-.132a3.928 3.928 0 0 0-.252-.102.609.609 0 0 0-.18-.042c-.36 0-.86.467-1.5 1.399-.64.933-.961 1.47-.961 1.614 0 .121.074.511.222 1.171.148.66.31 1.36.486 2.095.16.696.296 1.177.408 1.44.184.433.392.648.624.648.216 0 .436-.12.66-.359.224-.241.56-.672 1.008-1.297l.336.204a10.186 10.186 0 0 1-1.068 1.598c-.696.833-1.361 1.247-1.993 1.247-.401 0-.717-.192-.949-.575-.136-.225-.268-.593-.396-1.105l-.744-2.965-2.461 3.228c-.481.562-.851.937-1.111 1.129-.26.192-.582.288-.966.288-.513 0-.861-.16-1.045-.479a1.129 1.129 0 0 1-.156-.6c.001-.314.096-.536.289-.668z"/></svg>