<svg baseProfile="tiny" xmlns="http://www.w3.org/2000/svg" viewBox="0 0 24 24"><path d="M20.5 23h-18a.5.5 0 0 1-.5-.5v-15a.5.5 0 0 1 .5-.5h18a.5.5 0 0 1 .5.5v15a.5.5 0 0 1-.5.5zM3 22h17V8H3v14z"/><path d="M17.5 7.5A.5.5 0 0 1 17 7v-.845C17 3.409 14.43 1 11.5 1S6 3.409 6 6.155V7a.5.5 0 0 1-1 0v-.845C5 2.818 7.977 0 11.5 0S18 2.818 18 6.155V7a.5.5 0 0 1-.5.5zM11.5 17.5a.5.5 0 0 1-.5-.5v-3a.5.5 0 0 1 1 0v3a.5.5 0 0 1-.5.5z"/><path d="M12.867 12.324a1.314 1.314 0 1 1-2.628-.002 1.314 1.314 0 0 1 2.628.002z"/><path d="M11.554 14.137c-1 0-1.813-.813-1.813-1.813s.813-1.813 1.813-1.813 1.813.813 1.813 1.813-.813 1.813-1.813 1.813zm0-2.626a.814.814 0 1 0 .001 1.625.814.814 0 0 0-.001-1.625z"/></svg>