<?xml version="1.0" encoding="utf-8"?>
<!-- Generator: Adobe Illustrator 19.1.0, SVG Export Plug-In . SVG Version: 6.00 Build 0)  -->
<!DOCTYPE svg PUBLIC "-//W3C//DTD SVG 1.1 Tiny//EN" "http://www.w3.org/Graphics/SVG/1.1/DTD/svg11-tiny.dtd">
<svg version="1.1" baseProfile="tiny" id="Layer_1" xmlns="http://www.w3.org/2000/svg" xmlns:xlink="http://www.w3.org/1999/xlink"
	 x="0px" y="0px" viewBox="0 0 24 24" xml:space="preserve">
<path d="M20.5,23h-18C2.2,23,2,22.8,2,22.5v-15C2,7.2,2.2,7,2.5,7h18C20.8,7,21,7.2,21,7.5v15C21,22.8,20.8,23,20.5,23z M3,22h17V8
	H3V22z"/>
<path d="M17.5,7.5C17.2,7.5,17,7.3,17,7V6.2C17,3.4,14.4,1,11.5,1S6,3.4,6,6.2V7c0,0.3-0.2,0.5-0.5,0.5S5,7.3,5,7V6.2
	C5,2.8,8,0,11.5,0S18,2.8,18,6.2V7C18,7.3,17.8,7.5,17.5,7.5z"/>
<path d="M11.5,17.5c-0.3,0-0.5-0.2-0.5-0.5v-3c0-0.3,0.2-0.5,0.5-0.5S12,13.7,12,14v3C12,17.3,11.8,17.5,11.5,17.5z"/>
<g>
	<path d="M12.9,12.3c0,0.7-0.6,1.3-1.3,1.3c-0.7,0-1.3-0.6-1.3-1.3c0-0.7,0.6-1.3,1.3-1.3C12.3,11,12.9,11.6,12.9,12.3z"/>
	<path d="M11.6,14.1c-1,0-1.8-0.8-1.8-1.8c0-1,0.8-1.8,1.8-1.8c1,0,1.8,0.8,1.8,1.8C13.4,13.3,12.6,14.1,11.6,14.1z M11.6,11.5
		c-0.4,0-0.8,0.4-0.8,0.8c0,0.4,0.4,0.8,0.8,0.8c0.4,0,0.8-0.4,0.8-0.8C12.4,11.9,12,11.5,11.6,11.5z"/>
</g>
</svg>
