<?xml version="1.0" encoding="iso-8859-1"?>
<!-- Generator: Adobe Illustrator 19.1.0, SVG Export Plug-In . SVG Version: 6.00 Build 0)  -->
<!DOCTYPE svg PUBLIC "-//W3C//DTD SVG 1.1 Tiny//EN" "http://www.w3.org/Graphics/SVG/1.1/DTD/svg11-tiny.dtd">
<svg version="1.1" baseProfile="tiny" id="Layer_1" xmlns="http://www.w3.org/2000/svg" xmlns:xlink="http://www.w3.org/1999/xlink"
	 x="0px" y="0px" viewBox="0 0 24 24" xml:space="preserve">
<g id="XMLID_45_">
	<g id="XMLID_47_">
		<path d="M23.5,19c-0.136,0-0.271-0.055-0.37-0.164l-7.706-8.49l-6.051,4.902c-0.206,0.167-0.504,0.145-0.684-0.051l-8.558-9.36
			c-0.186-0.204-0.172-0.52,0.032-0.707c0.203-0.186,0.52-0.172,0.707,0.032l8.24,9.012l6.053-4.903
			c0.203-0.167,0.505-0.144,0.685,0.053l8.023,8.84c0.186,0.205,0.17,0.521-0.034,0.706C23.74,18.957,23.62,19,23.5,19z"/>
	</g>
	<g id="XMLID_46_">
		<path d="M23.5,19h-7.422c-0.276,0-0.5-0.224-0.5-0.5s0.224-0.5,0.5-0.5H23v-7c0-0.276,0.224-0.5,0.5-0.5S24,10.724,24,11v7.5
			C24,18.776,23.776,19,23.5,19z"/>
	</g>
</g>
</svg>
