<svg baseProfile="tiny" xmlns="http://www.w3.org/2000/svg" viewBox="0 0 24 24"><path d="M12 24C5.383 24 0 18.617 0 12S5.383 0 12 0s12 5.383 12 12-5.383 12-12 12zm0-23C5.935 1 1 5.935 1 12s4.935 11 11 11 11-4.935 11-11S18.065 1 12 1z"/><path d="M19.5 17a.5.5 0 0 1-.38-.175l-4.866-5.69-3.9 3.16a.5.5 0 0 1-.684-.051L3.966 8.005a.5.5 0 0 1 .738-.675l5.386 5.891 3.913-3.169a.501.501 0 0 1 .694.063l5.183 6.06a.5.5 0 0 1-.38.825z"/><path d="M19.5 17H15a.5.5 0 0 1 0-1h4v-5a.5.5 0 0 1 1 0v5.5a.5.5 0 0 1-.5.5z"/></svg>