<?xml version="1.0" encoding="iso-8859-1"?>
<!-- Generator: Adobe Illustrator 19.1.0, SVG Export Plug-In . SVG Version: 6.00 Build 0)  -->
<!DOCTYPE svg PUBLIC "-//W3C//DTD SVG 1.1 Tiny//EN" "http://www.w3.org/Graphics/SVG/1.1/DTD/svg11-tiny.dtd">
<svg version="1.1" baseProfile="tiny" id="Layer_1" xmlns="http://www.w3.org/2000/svg" xmlns:xlink="http://www.w3.org/1999/xlink"
	 x="0px" y="0px" viewBox="0 0 24 24" xml:space="preserve">
<path d="M12,24C5.383,24,0,18.617,0,12S5.383,0,12,0c6.617,0,12,5.383,12,12S18.617,24,12,24z M12,1C5.935,1,1,5.935,1,12
	s4.935,11,11,11s11-4.935,11-11S18.065,1,12,1z"/>
<path d="M19.5,17c-0.141,0-0.281-0.06-0.38-0.175l-4.866-5.69l-3.9,3.16c-0.206,0.167-0.504,0.144-0.684-0.051L3.966,8.005
	C3.78,7.801,3.794,7.485,3.998,7.298C4.2,7.113,4.517,7.126,4.704,7.33l5.386,5.891l3.913-3.169
	c0.209-0.168,0.519-0.143,0.694,0.063l5.183,6.06c0.18,0.21,0.155,0.526-0.055,0.705C19.73,16.96,19.615,17,19.5,17z"/>
<path d="M19.5,17H15c-0.276,0-0.5-0.224-0.5-0.5S14.724,16,15,16h4v-5c0-0.276,0.224-0.5,0.5-0.5S20,10.724,20,11v5.5
	C20,16.776,19.776,17,19.5,17z"/>
</svg>
