<?xml version="1.0" encoding="utf-8"?>
<!-- Generator: Adobe Illustrator 19.1.0, SVG Export Plug-In . SVG Version: 6.00 Build 0)  -->
<!DOCTYPE svg PUBLIC "-//W3C//DTD SVG 1.1 Tiny//EN" "http://www.w3.org/Graphics/SVG/1.1/DTD/svg11-tiny.dtd">
<svg version="1.1" baseProfile="tiny" id="Layer_1" xmlns="http://www.w3.org/2000/svg" xmlns:xlink="http://www.w3.org/1999/xlink"
	 x="0px" y="0px" viewBox="0 0 24 24" xml:space="preserve">
<g id="XMLID_45_">
	<path d="M23.5,19c-0.1,0-0.3-0.1-0.4-0.2l-7.7-8.5l-6.1,4.9c-0.2,0.2-0.5,0.1-0.7-0.1L0.1,5.8c-0.2-0.2-0.2-0.5,0-0.7
		c0.2-0.2,0.5-0.2,0.7,0l8.2,9l6.1-4.9c0.2-0.2,0.5-0.1,0.7,0.1l8,8.8c0.2,0.2,0.2,0.5,0,0.7C23.7,19,23.6,19,23.5,19z"/>
	<path d="M23.5,19h-7.4c-0.3,0-0.5-0.2-0.5-0.5s0.2-0.5,0.5-0.5H23v-7c0-0.3,0.2-0.5,0.5-0.5S24,10.7,24,11v7.5
		C24,18.8,23.8,19,23.5,19z"/>
</g>
</svg>
