<?xml version="1.0" encoding="iso-8859-1"?>
<!-- Generator: Adobe Illustrator 19.1.0, SVG Export Plug-In . SVG Version: 6.00 Build 0)  -->
<!DOCTYPE svg PUBLIC "-//W3C//DTD SVG 1.1 Tiny//EN" "http://www.w3.org/Graphics/SVG/1.1/DTD/svg11-tiny.dtd">
<svg version="1.1" baseProfile="tiny" id="Layer_1" xmlns="http://www.w3.org/2000/svg" xmlns:xlink="http://www.w3.org/1999/xlink"
	 x="0px" y="0px" viewBox="0 0 24 24" xml:space="preserve">
<g>
	<path d="M16.5,24h-9C6.122,24,5,22.879,5,21.5v-19C5,1.121,6.122,0,7.5,0h9C17.878,0,19,1.121,19,2.5v19
		C19,22.879,17.878,24,16.5,24z M7.5,1C6.673,1,6,1.673,6,2.5v19C6,22.327,6.673,23,7.5,23h9c0.827,0,1.5-0.673,1.5-1.5v-19
		C18,1.673,17.327,1,16.5,1H7.5z"/>
	<path d="M18.5,5h-13C5.224,5,5,4.776,5,4.5S5.224,4,5.5,4h13C18.776,4,19,4.224,19,4.5S18.776,5,18.5,5z"/>
	<path d="M18.5,20h-13C5.224,20,5,19.776,5,19.5S5.224,19,5.5,19h13c0.276,0,0.5,0.224,0.5,0.5S18.776,20,18.5,20z"/>
	<path d="M14.5,22h-5C9.224,22,9,21.776,9,21.5S9.224,21,9.5,21h5c0.276,0,0.5,0.224,0.5,0.5S14.776,22,14.5,22z"/>
	<circle cx="12" cy="2.5" r="1"/>
</g>
</svg>
