<svg baseProfile="tiny" xmlns="http://www.w3.org/2000/svg" viewBox="0 0 24 24"><path d="M16.5 24h-9A2.503 2.503 0 0 1 5 21.5v-19C5 1.121 6.122 0 7.5 0h9C17.878 0 19 1.121 19 2.5v19c0 1.379-1.122 2.5-2.5 2.5zm-9-23C6.673 1 6 1.673 6 2.5v19c0 .827.673 1.5 1.5 1.5h9c.827 0 1.5-.673 1.5-1.5v-19c0-.827-.673-1.5-1.5-1.5h-9z"/><path d="M18.5 5h-13a.5.5 0 0 1 0-1h13a.5.5 0 0 1 0 1zM18.5 20h-13a.5.5 0 0 1 0-1h13a.5.5 0 0 1 0 1zM14.5 22h-5a.5.5 0 0 1 0-1h5a.5.5 0 0 1 0 1z"/><circle cx="12" cy="2.5" r="1"/></svg>