<?xml version="1.0" encoding="iso-8859-1"?>
<!-- Generator: Adobe Illustrator 19.2.1, SVG Export Plug-In . SVG Version: 6.00 Build 0)  -->
<!DOCTYPE svg PUBLIC "-//W3C//DTD SVG 1.1 Tiny//EN" "http://www.w3.org/Graphics/SVG/1.1/DTD/svg11-tiny.dtd">
<svg version="1.1" baseProfile="tiny" id="Layer_1" xmlns="http://www.w3.org/2000/svg" xmlns:xlink="http://www.w3.org/1999/xlink"
	 x="0px" y="0px" width="24px" height="24px" viewBox="0 0 24 24" xml:space="preserve">
<g>
	<g>
		<path d="M21.5,11h-8c-0.276,0-0.5-0.224-0.5-0.5v-10C13,0.224,13.224,0,13.5,0h5c0.12,0,0.237,0.044,0.328,0.122l3,2.604
			C21.938,2.822,22,2.96,22,3.104V10.5C22,10.776,21.776,11,21.5,11z M14,10h7V3.333L18.313,1H14V10z"/>
	</g>
	<g>
		<path d="M21,4h-2.5C18.224,4,18,3.776,18,3.5V1c0-0.276,0.224-0.5,0.5-0.5S19,0.724,19,1v2h2c0.276,0,0.5,0.224,0.5,0.5
			S21.276,4,21,4z"/>
	</g>
	<g>
		<path d="M10.5,11h-8C2.224,11,2,10.776,2,10.5v-10C2,0.224,2.224,0,2.5,0h5c0.12,0,0.237,0.044,0.328,0.122l3,2.604
			C10.938,2.822,11,2.96,11,3.104V10.5C11,10.776,10.776,11,10.5,11z M3,10h7V3.333L7.313,1H3V10z"/>
	</g>
	<g>
		<path d="M10,4H7.5C7.224,4,7,3.776,7,3.5V1c0-0.276,0.224-0.5,0.5-0.5S8,0.724,8,1v2h2c0.276,0,0.5,0.224,0.5,0.5S10.276,4,10,4z"
			/>
	</g>
	<g>
		<path d="M21.5,24h-8c-0.276,0-0.5-0.224-0.5-0.5v-10c0-0.276,0.224-0.5,0.5-0.5h5c0.12,0,0.237,0.044,0.328,0.122l3,2.604
			C21.938,15.822,22,15.96,22,16.104V23.5C22,23.776,21.776,24,21.5,24z M14,23h7v-6.667L18.313,14H14V23z"/>
	</g>
	<g>
		<path d="M21,17h-2.5c-0.276,0-0.5-0.224-0.5-0.5V14c0-0.276,0.224-0.5,0.5-0.5S19,13.724,19,14v2h2c0.276,0,0.5,0.224,0.5,0.5
			S21.276,17,21,17z"/>
	</g>
	<g>
		<path d="M10.5,24h-8C2.224,24,2,23.776,2,23.5v-10C2,13.224,2.224,13,2.5,13h5c0.12,0,0.237,0.044,0.328,0.122l3,2.604
			C10.938,15.822,11,15.96,11,16.104V23.5C11,23.776,10.776,24,10.5,24z M3,23h7v-6.667L7.313,14H3V23z"/>
	</g>
	<g>
		<path d="M10,17H7.5C7.224,17,7,16.776,7,16.5V14c0-0.276,0.224-0.5,0.5-0.5S8,13.724,8,14v2h2c0.276,0,0.5,0.224,0.5,0.5
			S10.276,17,10,17z"/>
	</g>
</g>
</svg>
