<svg id="Layer_1" data-name="Layer 1" xmlns="http://www.w3.org/2000/svg" viewBox="0 0 24 24"><g style="opacity:0.30000000000000004"><path d="M23.5,13.5A0.5,0.5,0,0,1,23,13V2.5A1.5,1.5,0,0,0,21.5,1h-9A1.5,1.5,0,0,0,11,2.5V10a0.5,0.5,0,0,1-1,0V2.5A2.5,2.5,0,0,1,12.5,0h9A2.5,2.5,0,0,1,24,2.5V13A0.5,0.5,0,0,1,23.5,13.5Z"/><path d="M23,5H11a0.5,0.5,0,0,1,0-1H23A0.5,0.5,0,0,1,23,5Z"/><path d="M17,3.5a1,1,0,1,1,1-1A1,1,0,0,1,17,3.5ZM17,2V2.5h0V2Z"/></g><path d="M21.5,24H2.5A2.5,2.5,0,0,1,0,21.5v-9A2.5,2.5,0,0,1,2.5,10h19A2.5,2.5,0,0,1,24,12.5v9A2.5,2.5,0,0,1,21.5,24ZM2.5,11A1.5,1.5,0,0,0,1,12.5v9A1.5,1.5,0,0,0,2.5,23h19A1.5,1.5,0,0,0,23,21.5v-9A1.5,1.5,0,0,0,21.5,11H2.5Z"/><path d="M5.5,23.5A0.5,0.5,0,0,1,5,23V11a0.5,0.5,0,0,1,1,0V23A0.5,0.5,0,0,1,5.5,23.5Z"/><path d="M19.5,23.5A0.5,0.5,0,0,1,19,23V11a0.5,0.5,0,0,1,1,0V23A0.5,0.5,0,0,1,19.5,23.5Z"/><path d="M21.5,19.5A0.5,0.5,0,0,1,21,19V15a0.5,0.5,0,0,1,1,0v4A0.5,0.5,0,0,1,21.5,19.5Z"/><path d="M3,17.5a1,1,0,1,1,1-1A1,1,0,0,1,3,17.5Zm0-1H3Z"/></svg>
