<svg data-name="Layer 1" xmlns="http://www.w3.org/2000/svg" viewBox="0 0 24 24"><path d="M21.5 24h-9a2.5 2.5 0 0 1-2.5-2.5v-19A2.5 2.5 0 0 1 12.5 0h9A2.5 2.5 0 0 1 24 2.5v19a2.5 2.5 0 0 1-2.5 2.5zm-9-23A1.5 1.5 0 0 0 11 2.5v19a1.5 1.5 0 0 0 1.5 1.5h9a1.5 1.5 0 0 0 1.5-1.5v-19A1.5 1.5 0 0 0 21.5 1h-9z"/><path d="M23 5H11a.5.5 0 0 1 0-1h12a.5.5 0 0 1 0 1zM23 20H11a.5.5 0 0 1 0-1h12a.5.5 0 0 1 0 1zM19 22h-4a.5.5 0 0 1 0-1h4a.5.5 0 0 1 0 1zM17 3.5a1 1 0 1 1 1-1 1 1 0 0 1-1 1zM17 2v.5V2z"/><g opacity=".3"><path d="M12 24H2.5A2.5 2.5 0 0 1 0 21.5v-9A2.5 2.5 0 0 1 2.5 10H10a.5.5 0 0 1 0 1H2.5A1.5 1.5 0 0 0 1 12.5v9A1.5 1.5 0 0 0 2.5 23H12a.5.5 0 0 1 0 1z"/><path d="M5.5 23.5A.5.5 0 0 1 5 23V11a.5.5 0 0 1 1 0v12a.5.5 0 0 1-.5.5zM3 17.5a1 1 0 1 1 1-1 1 1 0 0 1-1 1zm0-1z"/></g></svg>