<svg data-name="Layer 1" xmlns="http://www.w3.org/2000/svg" viewBox="0 0 24 24"><g opacity=".3"><path d="M23.5 13.5a.5.5 0 0 1-.5-.5V2.5A1.5 1.5 0 0 0 21.5 1h-9A1.5 1.5 0 0 0 11 2.5V10a.5.5 0 0 1-1 0V2.5A2.5 2.5 0 0 1 12.5 0h9A2.5 2.5 0 0 1 24 2.5V13a.5.5 0 0 1-.5.5z"/><path d="M23 5H11a.5.5 0 0 1 0-1h12a.5.5 0 0 1 0 1zM17 3.5a1 1 0 1 1 1-1 1 1 0 0 1-1 1zM17 2v.5V2z"/></g><path d="M21.5 24h-19A2.5 2.5 0 0 1 0 21.5v-9A2.5 2.5 0 0 1 2.5 10h19a2.5 2.5 0 0 1 2.5 2.5v9a2.5 2.5 0 0 1-2.5 2.5zm-19-13A1.5 1.5 0 0 0 1 12.5v9A1.5 1.5 0 0 0 2.5 23h19a1.5 1.5 0 0 0 1.5-1.5v-9a1.5 1.5 0 0 0-1.5-1.5h-19z"/><path d="M5.5 23.5A.5.5 0 0 1 5 23V11a.5.5 0 0 1 1 0v12a.5.5 0 0 1-.5.5zM19.5 23.5a.5.5 0 0 1-.5-.5V11a.5.5 0 0 1 1 0v12a.5.5 0 0 1-.5.5zM21.5 19.5a.5.5 0 0 1-.5-.5v-4a.5.5 0 0 1 1 0v4a.5.5 0 0 1-.5.5zM3 17.5a1 1 0 1 1 1-1 1 1 0 0 1-1 1zm0-1z"/></svg>