<svg id="Layer_1" data-name="Layer 1" xmlns="http://www.w3.org/2000/svg" viewBox="0 0 24 24"><path d="M21.5,24h-9A2.5,2.5,0,0,1,10,21.5V2.5A2.5,2.5,0,0,1,12.5,0h9A2.5,2.5,0,0,1,24,2.5v19A2.5,2.5,0,0,1,21.5,24Zm-9-23A1.5,1.5,0,0,0,11,2.5v19A1.5,1.5,0,0,0,12.5,23h9A1.5,1.5,0,0,0,23,21.5V2.5A1.5,1.5,0,0,0,21.5,1h-9Z"/><path d="M23,5H11a0.5,0.5,0,0,1,0-1H23A0.5,0.5,0,0,1,23,5Z"/><path d="M23,20H11a0.5,0.5,0,0,1,0-1H23A0.5,0.5,0,0,1,23,20Z"/><path d="M19,22H15a0.5,0.5,0,0,1,0-1h4A0.5,0.5,0,0,1,19,22Z"/><path d="M17,3.5a1,1,0,1,1,1-1A1,1,0,0,1,17,3.5ZM17,2V2.5h0V2Z"/><g style="opacity:0.30000000000000004"><path d="M12,24H2.5A2.5,2.5,0,0,1,0,21.5v-9A2.5,2.5,0,0,1,2.5,10H10a0.5,0.5,0,0,1,0,1H2.5A1.5,1.5,0,0,0,1,12.5v9A1.5,1.5,0,0,0,2.5,23H12A0.5,0.5,0,0,1,12,24Z"/><path d="M5.5,23.5A0.5,0.5,0,0,1,5,23V11a0.5,0.5,0,0,1,1,0V23A0.5,0.5,0,0,1,5.5,23.5Z"/><path d="M3,17.5a1,1,0,1,1,1-1A1,1,0,0,1,3,17.5Zm0-1H3Z"/></g></svg>
