<svg baseProfile="tiny" xmlns="http://www.w3.org/2000/svg" viewBox="0 0 24 24"><path d="M18.782 16H1.218A1.219 1.219 0 0 1 0 14.782V1.218C0 .546.546 0 1.218 0h17.564C19.454 0 20 .546 20 1.218v13.564c0 .672-.546 1.218-1.218 1.218zM1.218 1A.219.219 0 0 0 1 1.218v13.564c0 .12.098.218.218.218h17.564c.12 0 .218-.098.218-.218V1.218A.219.219 0 0 0 18.782 1H1.218z"/><path d="M19 4H1a.5.5 0 0 1 0-1h18a.5.5 0 0 1 0 1zM23 9h-1a.5.5 0 0 1 0-1h1a.5.5 0 0 1 0 1z"/><path d="M22.682 20H4.218C3.558 20 3 19.424 3 18.742V18a.5.5 0 0 1 1 0v.742c0 .13.107.258.218.258h18.464c.14 0 .318-.16.318-.258V5.218C23 5.14 22.84 5 22.682 5H22a.5.5 0 0 1 0-1h.682C23.306 4 24 4.5 24 5.218v13.524C24 19.4 23.372 20 22.682 20z"/></svg>