<?xml version="1.0" encoding="iso-8859-1"?>
<!-- Generator: Adobe Illustrator 19.1.0, SVG Export Plug-In . SVG Version: 6.00 Build 0)  -->
<!DOCTYPE svg PUBLIC "-//W3C//DTD SVG 1.1 Tiny//EN" "http://www.w3.org/Graphics/SVG/1.1/DTD/svg11-tiny.dtd">
<svg version="1.1" baseProfile="tiny" id="Layer_1" xmlns="http://www.w3.org/2000/svg" xmlns:xlink="http://www.w3.org/1999/xlink"
	 x="0px" y="0px" viewBox="0 0 24 24" xml:space="preserve">
<path d="M18.782,16H1.218C0.546,16,0,15.454,0,14.782V1.218C0,0.546,0.546,0,1.218,0h17.564C19.454,0,20,0.546,20,1.218v13.564
	C20,15.454,19.454,16,18.782,16z M1.218,1C1.098,1,1,1.098,1,1.218v13.564C1,14.902,1.098,15,1.218,15h17.564
	C18.902,15,19,14.902,19,14.782V1.218C19,1.098,18.902,1,18.782,1H1.218z"/>
<path d="M19,4H1C0.724,4,0.5,3.776,0.5,3.5S0.724,3,1,3h18c0.276,0,0.5,0.224,0.5,0.5S19.276,4,19,4z"/>
<path d="M23,9h-1c-0.276,0-0.5-0.224-0.5-0.5S21.724,8,22,8h1c0.276,0,0.5,0.224,0.5,0.5S23.276,9,23,9z"/>
<path d="M22.682,20H4.218C3.558,20,3,19.424,3,18.742V18c0-0.276,0.224-0.5,0.5-0.5S4,17.724,4,18v0.742C4,18.872,4.107,19,4.218,19
	h18.464C22.822,19,23,18.84,23,18.742V5.218C23,5.14,22.84,5,22.682,5H22c-0.276,0-0.5-0.224-0.5-0.5S21.724,4,22,4h0.682
	C23.306,4,24,4.5,24,5.218v13.524C24,19.4,23.372,20,22.682,20z"/>
</svg>
