<?xml version="1.0" encoding="iso-8859-1"?>
<!-- Generator: Adobe Illustrator 19.1.0, SVG Export Plug-In . SVG Version: 6.00 Build 0)  -->
<!DOCTYPE svg PUBLIC "-//W3C//DTD SVG 1.1 Tiny//EN" "http://www.w3.org/Graphics/SVG/1.1/DTD/svg11-tiny.dtd">
<svg version="1.1" baseProfile="tiny" id="Layer_1" xmlns="http://www.w3.org/2000/svg" xmlns:xlink="http://www.w3.org/1999/xlink"
	 x="0px" y="0px" viewBox="0 0 24 24" xml:space="preserve">
<path d="M18.782,17H1.218C0.546,17,0,16.454,0,15.782V2.218C0,1.546,0.546,1,1.218,1h17.564C19.454,1,20,1.546,20,2.218v13.564
	C20,16.454,19.454,17,18.782,17z M1.218,2C1.098,2,1,2.098,1,2.218v13.564C1,15.902,1.098,16,1.218,16h17.564
	C18.902,16,19,15.902,19,15.782V2.218C19,2.098,18.902,2,18.782,2H1.218z"/>
<path d="M19,5H1C0.724,5,0.5,4.776,0.5,4.5S0.724,4,1,4h18c0.276,0,0.5,0.224,0.5,0.5S19.276,5,19,5z"/>
<path d="M23,10h-1c-0.276,0-0.5-0.224-0.5-0.5S21.724,9,22,9h1c0.276,0,0.5,0.224,0.5,0.5S23.276,10,23,10z"/>
<path d="M22.682,21H4.218C3.558,21,3,20.424,3,19.742V19c0-0.276,0.224-0.5,0.5-0.5S4,18.724,4,19v0.742C4,19.872,4.107,20,4.218,20
	h18.464C22.822,20,23,19.84,23,19.742V6.218C23,6.14,22.84,6,22.682,6H22c-0.276,0-0.5-0.224-0.5-0.5S21.724,5,22,5h0.682
	C23.306,5,24,5.5,24,6.218v13.524C24,20.4,23.372,21,22.682,21z"/>
</svg>
