<svg baseProfile="tiny" xmlns="http://www.w3.org/2000/svg" viewBox="0 0 24 24"><path d="M10.5 24C7 24 7 20.237 7 19V6.5C7 2.43 8.869 0 12 0s5 2.43 5 6.5V15a.5.5 0 0 1-1 0V6.5c0-2.054-.52-5.5-4-5.5S8 4.446 8 6.5V19c0 3.525 1.264 4 2.5 4s2.5-.475 2.5-4l.001-9.786c.003-.872.006-1.695-.309-2.01C12.643 7.153 12.49 7 12 7s-.642.153-.692.204c-.314.315-.308 1.138-.308 2.01V18a.5.5 0 0 1-1 0l-.001-8.783c-.004-1.132-.008-2.11.6-2.72.329-.33.8-.497 1.401-.497s1.072.167 1.401.498c.607.609.599 1.587.599 2.719V19c0 1.237 0 5-3.5 5z"/></svg>