<?xml version="1.0" encoding="iso-8859-1"?>
<!-- Generator: Adobe Illustrator 19.1.0, SVG Export Plug-In . SVG Version: 6.00 Build 0)  -->
<!DOCTYPE svg PUBLIC "-//W3C//DTD SVG 1.1 Tiny//EN" "http://www.w3.org/Graphics/SVG/1.1/DTD/svg11-tiny.dtd">
<svg version="1.1" baseProfile="tiny" id="Layer_1" xmlns="http://www.w3.org/2000/svg" xmlns:xlink="http://www.w3.org/1999/xlink"
	 x="0px" y="0px" viewBox="0 0 24 24" xml:space="preserve">
<g>
	<path d="M10.5,24C7,24,7,20.237,7,19V6.5C7,2.43,8.869,0,12,0s5,2.43,5,6.5V15c0,0.276-0.224,0.5-0.5,0.5S16,15.276,16,15V6.5
		C16,4.446,15.48,1,12,1S8,4.446,8,6.5V19c0,3.525,1.264,4,2.5,4s2.5-0.475,2.5-4l0.001-9.786c0.003-0.872,0.006-1.695-0.309-2.01
		C12.643,7.153,12.49,7,12,7s-0.642,0.153-0.692,0.204C10.994,7.519,11,8.342,11,9.214V18c0,0.276-0.224,0.5-0.5,0.5
		S10,18.276,10,18L9.999,9.217c-0.004-1.132-0.008-2.11,0.6-2.72C10.928,6.167,11.399,6,12,6s1.072,0.167,1.401,0.498
		C14.008,7.107,14,8.085,14,9.217V19C14,20.237,14,24,10.5,24z"/>
</g>
</svg>
