<?xml version="1.0" encoding="iso-8859-1"?>
<!-- Generator: Adobe Illustrator 19.1.0, SVG Export Plug-In . SVG Version: 6.00 Build 0)  -->
<!DOCTYPE svg PUBLIC "-//W3C//DTD SVG 1.1 Tiny//EN" "http://www.w3.org/Graphics/SVG/1.1/DTD/svg11-tiny.dtd">
<svg version="1.1" baseProfile="tiny" id="Layer_1" xmlns="http://www.w3.org/2000/svg" xmlns:xlink="http://www.w3.org/1999/xlink"
	 x="0px" y="0px" viewBox="0 0 24 24" xml:space="preserve">
<path d="M23,21H12.927C9.521,21,6,19.094,6,15.903V5c0-0.276,0.224-0.5,0.5-0.5S7,4.724,7,5v10.903C7,18.729,10.466,20,12.927,20H23
	c0.276,0,0.5,0.224,0.5,0.5S23.276,21,23,21z"/>
<path d="M12,11.119c-0.128,0-0.256-0.049-0.354-0.146L6.5,5.826l-5.146,5.146c-0.195,0.195-0.512,0.195-0.707,0
	s-0.195-0.512,0-0.707l5.5-5.5c0.195-0.195,0.512-0.195,0.707,0l5.5,5.5c0.195,0.195,0.195,0.512,0,0.707
	C12.256,11.07,12.128,11.119,12,11.119z"/>
</svg>
