<?xml version="1.0" encoding="utf-8"?>
<!-- Generator: Adobe Illustrator 19.1.0, SVG Export Plug-In . SVG Version: 6.00 Build 0)  -->
<!DOCTYPE svg PUBLIC "-//W3C//DTD SVG 1.1 Tiny//EN" "http://www.w3.org/Graphics/SVG/1.1/DTD/svg11-tiny.dtd">
<svg version="1.1" baseProfile="tiny" id="Layer_1" xmlns="http://www.w3.org/2000/svg" xmlns:xlink="http://www.w3.org/1999/xlink"
	 x="0px" y="0px" viewBox="0 0 24 24" xml:space="preserve">
<path d="M23,21H12.9C9.5,21,6,19.1,6,15.9V5c0-0.3,0.2-0.5,0.5-0.5S7,4.7,7,5v10.9c0,2.8,3.5,4.1,5.9,4.1H23c0.3,0,0.5,0.2,0.5,0.5
	S23.3,21,23,21z"/>
<path d="M12,11.1c-0.1,0-0.3,0-0.4-0.1L6.5,5.8L1.4,11c-0.2,0.2-0.5,0.2-0.7,0s-0.2-0.5,0-0.7l5.5-5.5c0.2-0.2,0.5-0.2,0.7,0
	l5.5,5.5c0.2,0.2,0.2,0.5,0,0.7C12.3,11.1,12.1,11.1,12,11.1z"/>
</svg>
