<?xml version="1.0" encoding="iso-8859-1"?>
<!-- Generator: Adobe Illustrator 19.2.1, SVG Export Plug-In . SVG Version: 6.00 Build 0)  -->
<!DOCTYPE svg PUBLIC "-//W3C//DTD SVG 1.1 Tiny//EN" "http://www.w3.org/Graphics/SVG/1.1/DTD/svg11-tiny.dtd">
<svg version="1.1" baseProfile="tiny" id="Layer_1" xmlns="http://www.w3.org/2000/svg" xmlns:xlink="http://www.w3.org/1999/xlink"
	 x="0px" y="0px" viewBox="0 0 24 24" xml:space="preserve">
<g>
	<g>
		<g>
			<path d="M2.535,24c-0.001,0-0.001,0-0.002,0c-0.534,0-1.036-0.458-1.413-0.837c-0.377-0.376-0.585-1.003-0.585-1.537
				s0.208-1.099,0.585-1.477l6.571-6.602c0.188-0.188,0.52-0.203,0.707-0.016l2.121,2.113c0.195,0.195,0.195,0.508,0,0.703
				l-6.57,6.819C3.572,23.543,3.069,24,2.535,24z M8.045,14.575l-6.217,6.218c-0.189,0.189-0.293,0.44-0.293,0.708
				c0,0.267,0.104,0.518,0.292,0.706c0.189,0.189,0.439,0.294,0.706,0.294c0,0,0,0,0.001,0c0.267,0,0.518-0.104,0.707-0.294
				c0,0,0,0,0,0l6.217-6.218L8.045,14.575z"/>
		</g>
		<g>
			<path d="M11.227,17.549c-0.128,0-0.256-0.049-0.354-0.146l-4.24-4.242c-0.195-0.195-0.195-0.512,0-0.707s0.512-0.195,0.707,0
				l4.24,4.242c0.195,0.195,0.195,0.512,0,0.707C11.482,17.5,11.354,17.549,11.227,17.549z"/>
		</g>
		<g>
			<rect x="6.884" y="9.094" transform="matrix(0.7071 -0.7071 0.7071 0.7071 -2.554 13.0216)" width="15.114" height="1"/>
		</g>
		<g>
			<path d="M20.969,6c-0.132,0-0.259-0.086-0.354-0.18l-2.475-2.49c-0.104-0.104-0.158-0.258-0.145-0.406
				c0.013-0.148,0.091-0.286,0.213-0.37l3.541-2.462c0.199-0.139,0.468-0.115,0.639,0.056l1.5,1.499
				c0.176,0.176,0.196,0.454,0.047,0.653l-2.566,3.467C21.282,5.883,21.149,6,21.005,6C20.993,6,20.98,6,20.969,6z M19.271,3.029
				l1.643,1.642l1.961-2.623l-0.898-0.898L19.271,3.029z"/>
		</g>
	</g>
	<g>
		<path d="M9.45,12.27L5.933,8.734C4.328,9.271,2.549,8.851,1.316,7.617c-1.294-1.294-1.68-3.307-0.96-5.009
			c0.062-0.146,0.188-0.254,0.341-0.291c0.154-0.038,0.315-0.001,0.437,0.1L3.06,4H4V3.109L2.43,1.137
			C2.333,1.015,2.298,0.854,2.337,0.702c0.039-0.152,0.146-0.276,0.29-0.338C4.32-0.35,6.397,0.045,7.68,1.325
			c1.221,1.22,1.629,3,1.082,4.618l3.517,3.516l-0.707,0.707L7.826,6.422C7.682,6.278,7.64,6.062,7.719,5.873
			c0.559-1.321,0.266-2.829-0.747-3.841C6.129,1.19,4.846,0.841,3.666,1.084l1.225,1.539C4.961,2.712,5,2.821,5,2.935V4.5
			C5,4.776,4.776,5,4.5,5H2.881C2.765,5,2.653,4.96,2.563,4.886L1.071,3.659C0.83,4.823,1.178,6.064,2.023,6.91
			c1.027,1.028,2.534,1.333,3.84,0.782C6.051,7.611,6.27,7.654,6.413,7.8l3.746,3.765L9.45,12.27z"/>
	</g>
	<g>
		<path d="M19.216,23.859c-1.108,0-2.179-0.449-3.044-1.313c-1.221-1.221-1.628-3.001-1.082-4.618l-3.519-3.52l0.707-0.707
			l3.747,3.748c0.144,0.144,0.187,0.361,0.107,0.549c-0.559,1.32-0.266,2.828,0.747,3.841c0.82,0.818,1.837,1.16,2.876,0.975
			l-1.6-1.516C18.056,21.203,18,21.072,18,20.935V18.5c0-0.276,0.224-0.5,0.5-0.5h2.381c0.135,0,0.264,0.055,0.358,0.15l1.561,1.599
			c0.185-1.069-0.159-2.156-0.972-2.969c-0.99-0.991-2.498-1.263-3.84-0.693c-0.187,0.08-0.403,0.037-0.548-0.105l-3.745-3.72
			l0.705-0.709l3.516,3.492c1.636-0.559,3.417-0.174,4.619,1.028c1.302,1.301,1.67,3.15,0.96,4.828
			c-0.065,0.153-0.203,0.265-0.368,0.296c-0.165,0.032-0.333-0.023-0.451-0.142L20.67,19H19v1.72l2.069,1.961
			c0.122,0.116,0.178,0.286,0.148,0.452c-0.03,0.166-0.142,0.306-0.297,0.372C20.356,23.742,19.781,23.859,19.216,23.859z"/>
	</g>
</g>
</svg>
