<svg baseProfile="tiny" xmlns="http://www.w3.org/2000/svg" viewBox="0 0 24 24"><path d="M2.535 24h-.002c-.534 0-1.036-.458-1.413-.837-.377-.376-.585-1.003-.585-1.537s.208-1.099.585-1.477l6.571-6.602c.188-.188.52-.203.707-.016l2.121 2.113a.496.496 0 0 1 0 .703l-6.57 6.819c-.377.377-.88.834-1.414.834zm5.51-9.425l-6.217 6.218a.994.994 0 0 0-.293.708c0 .267.104.518.292.706a.992.992 0 0 0 .706.294h.001a.99.99 0 0 0 .707-.294l6.217-6.218-1.413-1.414z"/><path d="M11.227 17.549a.502.502 0 0 1-.354-.146l-4.24-4.242a.5.5 0 0 1 .707-.707l4.24 4.242a.5.5 0 0 1-.353.853z"/><path d="M8.744 14.584L19.431 3.897l.707.707L9.451 15.291z"/><path d="M20.969 6c-.132 0-.259-.086-.354-.18L18.14 3.33a.52.52 0 0 1-.145-.406.504.504 0 0 1 .213-.37L21.749.092a.499.499 0 0 1 .639.056l1.5 1.499a.5.5 0 0 1 .047.653l-2.566 3.467c-.087.116-.22.233-.364.233h-.036zm-1.698-2.971l1.643 1.642 1.961-2.623-.898-.898-2.706 1.879z"/><g><path d="M9.45 12.27L5.933 8.734c-1.605.537-3.384.117-4.617-1.117C.022 6.323-.364 4.31.356 2.608a.498.498 0 0 1 .778-.191L3.06 4H4v-.891L2.43 1.137a.5.5 0 0 1 .197-.773C4.32-.35 6.397.045 7.68 1.325a4.478 4.478 0 0 1 1.082 4.618l3.517 3.516-.707.707-3.746-3.744a.501.501 0 0 1-.107-.549 3.486 3.486 0 0 0-.747-3.841C6.129 1.19 4.846.841 3.666 1.084l1.225 1.539c.07.089.109.198.109.312V4.5a.5.5 0 0 1-.5.5H2.881a.5.5 0 0 1-.318-.114L1.071 3.659c-.241 1.164.107 2.405.952 3.251 1.027 1.028 2.534 1.333 3.84.782a.496.496 0 0 1 .55.108l3.746 3.765-.709.705z"/></g><g><path d="M19.216 23.859c-1.108 0-2.179-.449-3.044-1.313a4.48 4.48 0 0 1-1.082-4.618l-3.519-3.52.707-.707 3.747 3.748a.5.5 0 0 1 .107.549 3.487 3.487 0 0 0 .747 3.841c.82.818 1.837 1.16 2.876.975l-1.6-1.516a.503.503 0 0 1-.155-.363V18.5a.5.5 0 0 1 .5-.5h2.381c.135 0 .264.055.358.15l1.561 1.599c.185-1.069-.159-2.156-.972-2.969-.99-.991-2.498-1.263-3.84-.693a.502.502 0 0 1-.548-.105l-3.745-3.72.705-.709 3.516 3.492c1.636-.559 3.417-.174 4.619 1.028 1.302 1.301 1.67 3.15.96 4.828a.5.5 0 0 1-.819.154L20.67 19H19v1.72l2.069 1.961a.501.501 0 0 1-.149.824 4.389 4.389 0 0 1-1.704.354z"/></g></svg>