<svg baseProfile="tiny" xmlns="http://www.w3.org/2000/svg" viewBox="0 0 24 24"><path d="M3.919 8h-.838A2.084 2.084 0 0 1 1 5.919v-.838C1 3.934 1.934 3 3.081 3h.838C5.066 3 6 3.934 6 5.081v.838A2.084 2.084 0 0 1 3.919 8zm-.838-4C2.485 4 2 4.485 2 5.081v.838C2 6.515 2.485 7 3.081 7h.838C4.515 7 5 6.515 5 5.919v-.838C5 4.485 4.515 4 3.919 4h-.838zM3.919 15h-.838A2.084 2.084 0 0 1 1 12.919v-.838C1 10.934 1.934 10 3.081 10h.838C5.066 10 6 10.934 6 12.081v.838A2.084 2.084 0 0 1 3.919 15zm-.838-4C2.485 11 2 11.485 2 12.081v.838C2 13.515 2.485 14 3.081 14h.838C4.515 14 5 13.515 5 12.919v-.838C5 11.485 4.515 11 3.919 11h-.838zM3.919 22h-.838A2.084 2.084 0 0 1 1 19.919v-.838C1 17.934 1.934 17 3.081 17h.838C5.066 17 6 17.934 6 19.081v.838A2.084 2.084 0 0 1 3.919 22zm-.838-4C2.485 18 2 18.485 2 19.081v.838C2 20.515 2.485 21 3.081 21h.838C4.515 21 5 20.515 5 19.919v-.838C5 18.485 4.515 18 3.919 18h-.838zM21.919 8H10.081A2.084 2.084 0 0 1 8 5.919v-.838C8 3.934 8.934 3 10.081 3h11.838C23.066 3 24 3.934 24 5.081v.838A2.084 2.084 0 0 1 21.919 8zM10.081 4C9.485 4 9 4.485 9 5.081v.838C9 6.515 9.485 7 10.081 7h11.838C22.515 7 23 6.515 23 5.919v-.838C23 4.485 22.515 4 21.919 4H10.081zM21.919 15H10.081A2.084 2.084 0 0 1 8 12.919v-.838C8 10.934 8.934 10 10.081 10h11.838c1.147 0 2.081.934 2.081 2.081v.838A2.084 2.084 0 0 1 21.919 15zm-11.838-4C9.485 11 9 11.485 9 12.081v.838C9 13.515 9.485 14 10.081 14h11.838c.596 0 1.081-.485 1.081-1.081v-.838c0-.596-.485-1.081-1.081-1.081H10.081zM21.919 22H10.081A2.084 2.084 0 0 1 8 19.919v-.838C8 17.934 8.934 17 10.081 17h11.838c1.147 0 2.081.934 2.081 2.081v.838A2.084 2.084 0 0 1 21.919 22zm-11.838-4C9.485 18 9 18.485 9 19.081v.838C9 20.515 9.485 21 10.081 21h11.838c.596 0 1.081-.485 1.081-1.081v-.838c0-.596-.485-1.081-1.081-1.081H10.081z"/></svg>