<?xml version="1.0" encoding="utf-8"?>
<!-- Generator: Adobe Illustrator 19.1.0, SVG Export Plug-In . SVG Version: 6.00 Build 0)  -->
<!DOCTYPE svg PUBLIC "-//W3C//DTD SVG 1.1 Tiny//EN" "http://www.w3.org/Graphics/SVG/1.1/DTD/svg11-tiny.dtd">
<svg version="1.1" baseProfile="tiny" id="Layer_1" xmlns="http://www.w3.org/2000/svg" xmlns:xlink="http://www.w3.org/1999/xlink"
	 x="0px" y="0px" viewBox="0 0 24 24" xml:space="preserve">
<g>
	<path d="M3.9,8H3.1C1.9,8,1,7.1,1,5.9V5.1C1,3.9,1.9,3,3.1,3h0.8C5.1,3,6,3.9,6,5.1v0.8C6,7.1,5.1,8,3.9,8z M3.1,4
		C2.5,4,2,4.5,2,5.1v0.8C2,6.5,2.5,7,3.1,7h0.8C4.5,7,5,6.5,5,5.9V5.1C5,4.5,4.5,4,3.9,4H3.1z"/>
	<path d="M3.9,15H3.1C1.9,15,1,14.1,1,12.9v-0.8C1,10.9,1.9,10,3.1,10h0.8C5.1,10,6,10.9,6,12.1v0.8C6,14.1,5.1,15,3.9,15z M3.1,11
		C2.5,11,2,11.5,2,12.1v0.8C2,13.5,2.5,14,3.1,14h0.8C4.5,14,5,13.5,5,12.9v-0.8C5,11.5,4.5,11,3.9,11H3.1z"/>
	<path d="M3.9,22H3.1C1.9,22,1,21.1,1,19.9v-0.8C1,17.9,1.9,17,3.1,17h0.8C5.1,17,6,17.9,6,19.1v0.8C6,21.1,5.1,22,3.9,22z M3.1,18
		C2.5,18,2,18.5,2,19.1v0.8C2,20.5,2.5,21,3.1,21h0.8C4.5,21,5,20.5,5,19.9v-0.8C5,18.5,4.5,18,3.9,18H3.1z"/>
</g>
<path d="M21.9,8H10.1C8.9,8,8,7.1,8,5.9V5.1C8,3.9,8.9,3,10.1,3h11.8C23.1,3,24,3.9,24,5.1v0.8C24,7.1,23.1,8,21.9,8z M10.1,4
	C9.5,4,9,4.5,9,5.1v0.8C9,6.5,9.5,7,10.1,7h11.8C22.5,7,23,6.5,23,5.9V5.1C23,4.5,22.5,4,21.9,4H10.1z"/>
<path d="M21.9,15H10.1C8.9,15,8,14.1,8,12.9v-0.8c0-1.1,0.9-2.1,2.1-2.1h11.8c1.1,0,2.1,0.9,2.1,2.1v0.8C24,14.1,23.1,15,21.9,15z
	 M10.1,11C9.5,11,9,11.5,9,12.1v0.8c0,0.6,0.5,1.1,1.1,1.1h11.8c0.6,0,1.1-0.5,1.1-1.1v-0.8c0-0.6-0.5-1.1-1.1-1.1H10.1z"/>
<path d="M21.9,22H10.1C8.9,22,8,21.1,8,19.9v-0.8c0-1.1,0.9-2.1,2.1-2.1h11.8c1.1,0,2.1,0.9,2.1,2.1v0.8C24,21.1,23.1,22,21.9,22z
	 M10.1,18C9.5,18,9,18.5,9,19.1v0.8c0,0.6,0.5,1.1,1.1,1.1h11.8c0.6,0,1.1-0.5,1.1-1.1v-0.8c0-0.6-0.5-1.1-1.1-1.1H10.1z"/>
</svg>
