<?xml version="1.0" encoding="iso-8859-1"?>
<!-- Generator: Adobe Illustrator 19.1.0, SVG Export Plug-In . SVG Version: 6.00 Build 0)  -->
<!DOCTYPE svg PUBLIC "-//W3C//DTD SVG 1.1 Tiny//EN" "http://www.w3.org/Graphics/SVG/1.1/DTD/svg11-tiny.dtd">
<svg version="1.1" baseProfile="tiny" id="Layer_1" xmlns="http://www.w3.org/2000/svg" xmlns:xlink="http://www.w3.org/1999/xlink"
	 x="0px" y="0px" viewBox="0 0 24 24" xml:space="preserve">
<g>
	<path d="M3.919,8H3.081C1.934,8,1,7.066,1,5.919V5.081C1,3.934,1.934,3,3.081,3h0.838C5.066,3,6,3.934,6,5.081v0.838
		C6,7.066,5.066,8,3.919,8z M3.081,4C2.485,4,2,4.485,2,5.081v0.838C2,6.515,2.485,7,3.081,7h0.838C4.515,7,5,6.515,5,5.919V5.081
		C5,4.485,4.515,4,3.919,4H3.081z"/>
	<path d="M3.919,15H3.081C1.934,15,1,14.066,1,12.919v-0.838C1,10.934,1.934,10,3.081,10h0.838C5.066,10,6,10.934,6,12.081v0.838
		C6,14.066,5.066,15,3.919,15z M3.081,11C2.485,11,2,11.485,2,12.081v0.838C2,13.515,2.485,14,3.081,14h0.838
		C4.515,14,5,13.515,5,12.919v-0.838C5,11.485,4.515,11,3.919,11H3.081z"/>
	<path d="M3.919,22H3.081C1.934,22,1,21.066,1,19.919v-0.838C1,17.934,1.934,17,3.081,17h0.838C5.066,17,6,17.934,6,19.081v0.838
		C6,21.066,5.066,22,3.919,22z M3.081,18C2.485,18,2,18.485,2,19.081v0.838C2,20.515,2.485,21,3.081,21h0.838
		C4.515,21,5,20.515,5,19.919v-0.838C5,18.485,4.515,18,3.919,18H3.081z"/>
</g>
<path d="M21.919,8H10.081C8.934,8,8,7.066,8,5.919V5.081C8,3.934,8.934,3,10.081,3h11.838C23.066,3,24,3.934,24,5.081v0.838
	C24,7.066,23.066,8,21.919,8z M10.081,4C9.485,4,9,4.485,9,5.081v0.838C9,6.515,9.485,7,10.081,7h11.838C22.515,7,23,6.515,23,5.919
	V5.081C23,4.485,22.515,4,21.919,4H10.081z"/>
<path d="M21.919,15H10.081C8.934,15,8,14.066,8,12.919v-0.838C8,10.934,8.934,10,10.081,10h11.838C23.066,10,24,10.934,24,12.081
	v0.838C24,14.066,23.066,15,21.919,15z M10.081,11C9.485,11,9,11.485,9,12.081v0.838C9,13.515,9.485,14,10.081,14h11.838
	C22.515,14,23,13.515,23,12.919v-0.838C23,11.485,22.515,11,21.919,11H10.081z"/>
<path d="M21.919,22H10.081C8.934,22,8,21.066,8,19.919v-0.838C8,17.934,8.934,17,10.081,17h11.838C23.066,17,24,17.934,24,19.081
	v0.838C24,21.066,23.066,22,21.919,22z M10.081,18C9.485,18,9,18.485,9,19.081v0.838C9,20.515,9.485,21,10.081,21h11.838
	C22.515,21,23,20.515,23,19.919v-0.838C23,18.485,22.515,18,21.919,18H10.081z"/>
</svg>
