<?xml version="1.0" encoding="utf-8"?>
<!-- Generator: Adobe Illustrator 19.1.0, SVG Export Plug-In . SVG Version: 6.00 Build 0)  -->
<!DOCTYPE svg PUBLIC "-//W3C//DTD SVG 1.1 Tiny//EN" "http://www.w3.org/Graphics/SVG/1.1/DTD/svg11-tiny.dtd">
<svg version="1.1" baseProfile="tiny" id="Layer_1" xmlns="http://www.w3.org/2000/svg" xmlns:xlink="http://www.w3.org/1999/xlink"
	 x="0px" y="0px" viewBox="0 0 24 24" xml:space="preserve">
<g>
	<path d="M9.9,10.5c-0.2,0-0.4-0.1-0.5-0.3c0,0-1.1-3.2-3.7-3.2H1C0.7,7,0.5,6.8,0.5,6.5S0.7,6,1,6h4.8c3.3,0,4.6,3.7,4.6,3.9
		c0.1,0.3-0.1,0.5-0.3,0.6C10,10.5,9.9,10.5,9.9,10.5z"/>
	<path d="M5.8,18H1c-0.3,0-0.5-0.2-0.5-0.5S0.7,17,1,17h4.8c2.2,0,4-2.7,5.6-5.3C13.2,8.9,15,6,17.8,6H23c0.3,0,0.5,0.2,0.5,0.5
		S23.3,7,23,7h-5.2c-2.2,0-4,2.7-5.6,5.3C10.4,15.1,8.5,18,5.8,18z"/>
	<path d="M23,18h-5.2c-3.2,0-5.5-3.1-5.6-3.2c-0.2-0.2-0.1-0.5,0.1-0.7c0.2-0.2,0.5-0.1,0.7,0.1c0,0,2.1,2.8,4.8,2.8H23
		c0.3,0,0.5,0.2,0.5,0.5S23.3,18,23,18z"/>
	<path d="M21.3,10c-0.1,0-0.2,0-0.3-0.1c-0.2-0.2-0.3-0.5-0.1-0.7l1.8-2.7l-1.8-2.7c-0.2-0.2-0.1-0.5,0.1-0.7
		c0.2-0.2,0.5-0.1,0.7,0.1l2,3c0.1,0.2,0.1,0.4,0,0.6l-2,3C21.7,10,21.5,10,21.3,10z"/>
	<path d="M21.3,21.1c-0.1,0-0.2,0-0.3-0.1c-0.2-0.2-0.3-0.5-0.1-0.7l1.8-2.7l-1.8-2.7c-0.2-0.2-0.1-0.5,0.1-0.7
		c0.2-0.2,0.5-0.1,0.7,0.1l2,3c0.1,0.2,0.1,0.4,0,0.6l-2,3C21.7,21,21.5,21.1,21.3,21.1z"/>
</g>
</svg>
