<?xml version="1.0" encoding="iso-8859-1"?>
<!-- Generator: Adobe Illustrator 19.1.0, SVG Export Plug-In . SVG Version: 6.00 Build 0)  -->
<!DOCTYPE svg PUBLIC "-//W3C//DTD SVG 1.1 Tiny//EN" "http://www.w3.org/Graphics/SVG/1.1/DTD/svg11-tiny.dtd">
<svg version="1.1" baseProfile="tiny" id="Layer_1" xmlns="http://www.w3.org/2000/svg" xmlns:xlink="http://www.w3.org/1999/xlink"
	 x="0px" y="0px" viewBox="0 0 24 24" xml:space="preserve">
<g>
	<path d="M9.896,10.518c-0.211,0-0.408-0.136-0.476-0.347C9.409,10.139,8.365,7,5.757,7H1C0.724,7,0.5,6.776,0.5,6.5S0.724,6,1,6
		h4.757c3.342,0,4.564,3.708,4.615,3.865c0.083,0.263-0.061,0.544-0.324,0.628C9.998,10.51,9.946,10.518,9.896,10.518z"/>
	<path d="M5.757,18H1c-0.276,0-0.5-0.224-0.5-0.5S0.724,17,1,17h4.757c2.239,0,3.953-2.679,5.61-5.27
		C13.169,8.913,15.033,6,17.819,6H23c0.276,0,0.5,0.224,0.5,0.5S23.276,7,23,7h-5.181c-2.239,0-3.952,2.679-5.609,5.27
		C10.408,15.087,8.544,18,5.757,18z"/>
	<path d="M23,18h-5.181c-3.233,0-5.509-3.091-5.604-3.223c-0.162-0.223-0.112-0.535,0.111-0.697c0.223-0.163,0.535-0.113,0.698,0.11
		c0.02,0.028,2.077,2.81,4.794,2.81H23c0.276,0,0.5,0.224,0.5,0.5S23.276,18,23,18z"/>
	<path d="M21.336,10.03c-0.095,0-0.191-0.027-0.277-0.084c-0.23-0.153-0.292-0.464-0.139-0.693l1.825-2.737l-1.825-2.738
		c-0.153-0.229-0.091-0.54,0.139-0.693c0.229-0.153,0.54-0.092,0.693,0.139l2.01,3.016c0.112,0.168,0.112,0.387,0,0.555l-2.01,3.015
		C21.657,9.952,21.498,10.03,21.336,10.03z"/>
	<path d="M21.336,21.087c-0.095,0-0.191-0.027-0.277-0.084c-0.23-0.153-0.292-0.464-0.139-0.693l1.825-2.738l-1.825-2.737
		c-0.153-0.229-0.091-0.54,0.139-0.693c0.229-0.153,0.54-0.092,0.693,0.139l2.01,3.015c0.112,0.168,0.112,0.387,0,0.555l-2.01,3.016
		C21.657,21.009,21.498,21.087,21.336,21.087z"/>
</g>
</svg>
