<svg baseProfile="tiny" xmlns="http://www.w3.org/2000/svg" viewBox="0 0 24 24"><path d="M9.896 10.518a.502.502 0 0 1-.476-.347C9.409 10.139 8.365 7 5.757 7H1a.5.5 0 0 1 0-1h4.757c3.342 0 4.564 3.708 4.615 3.865a.5.5 0 0 1-.476.653z"/><path d="M5.757 18H1a.5.5 0 0 1 0-1h4.757c2.239 0 3.953-2.679 5.61-5.27C13.169 8.913 15.033 6 17.819 6H23a.5.5 0 0 1 0 1h-5.181c-2.239 0-3.952 2.679-5.609 5.27C10.408 15.087 8.544 18 5.757 18z"/><path d="M23 18h-5.181c-3.233 0-5.509-3.091-5.604-3.223a.5.5 0 0 1 .809-.587c.02.028 2.077 2.81 4.794 2.81H23a.5.5 0 0 1 0 1zM21.336 10.03a.5.5 0 0 1-.416-.777l1.825-2.737-1.825-2.738a.5.5 0 1 1 .832-.554l2.01 3.016a.5.5 0 0 1 0 .555l-2.01 3.015a.5.5 0 0 1-.416.22z"/><path d="M21.336 21.087a.5.5 0 0 1-.416-.777l1.825-2.738-1.825-2.737a.5.5 0 1 1 .832-.554l2.01 3.015a.5.5 0 0 1 0 .555l-2.01 3.016a.5.5 0 0 1-.416.22z"/></svg>