<?xml version="1.0" encoding="utf-8"?>
<!-- Generator: Adobe Illustrator 19.1.0, SVG Export Plug-In . SVG Version: 6.00 Build 0)  -->
<!DOCTYPE svg PUBLIC "-//W3C//DTD SVG 1.1 Tiny//EN" "http://www.w3.org/Graphics/SVG/1.1/DTD/svg11-tiny.dtd">
<svg version="1.1" baseProfile="tiny" id="Layer_1" xmlns="http://www.w3.org/2000/svg" xmlns:xlink="http://www.w3.org/1999/xlink"
	 x="0px" y="0px" viewBox="0 0 24 24" xml:space="preserve">
<path d="M10,22H6.9C3.2,22,0,18.5,0,14.5S3.2,7,6.9,7H23c0.3,0,0.5,0.2,0.5,0.5S23.3,8,23,8H6.9C3.8,8,1,11.1,1,14.5S3.8,21,6.9,21
	H10c0.3,0,0.5,0.2,0.5,0.5S10.3,22,10,22z"/>
<path d="M18.6,12.9c-0.1,0-0.3,0-0.4-0.1c-0.2-0.2-0.2-0.5,0-0.7l4.5-4.5l-4.5-3.6C18,3.7,18,3.4,18.2,3.2s0.5-0.3,0.7-0.1L23.8,7
	C23.9,7.1,24,7.3,24,7.4c0,0.1,0,0.3-0.1,0.4l-4.9,4.9C18.8,12.8,18.7,12.9,18.6,12.9z"/>
</svg>
