<?xml version="1.0" encoding="iso-8859-1"?>
<!-- Generator: Adobe Illustrator 19.1.0, SVG Export Plug-In . SVG Version: 6.00 Build 0)  -->
<!DOCTYPE svg PUBLIC "-//W3C//DTD SVG 1.1 Tiny//EN" "http://www.w3.org/Graphics/SVG/1.1/DTD/svg11-tiny.dtd">
<svg version="1.1" baseProfile="tiny" id="Layer_1" xmlns="http://www.w3.org/2000/svg" xmlns:xlink="http://www.w3.org/1999/xlink"
	 x="0px" y="0px" viewBox="0 0 24 24" xml:space="preserve">
<path d="M10,22H6.905C3.227,22,0,18.495,0,14.5S3.227,7,6.905,7H23c0.276,0,0.5,0.224,0.5,0.5S23.276,8,23,8H6.905
	C3.814,8,1,11.098,1,14.5S3.814,21,6.905,21H10c0.276,0,0.5,0.224,0.5,0.5S10.276,22,10,22z"/>
<path d="M18.573,12.854c-0.128,0-0.256-0.049-0.354-0.146c-0.195-0.195-0.195-0.512,0-0.707l4.531-4.532l-4.489-3.578
	c-0.216-0.172-0.252-0.486-0.079-0.702s0.488-0.253,0.702-0.079l4.927,3.927c0.111,0.088,0.18,0.221,0.188,0.362
	c0.008,0.143-0.045,0.281-0.146,0.382l-4.927,4.928C18.829,12.806,18.701,12.854,18.573,12.854z"/>
</svg>
