<svg baseProfile="tiny" xmlns="http://www.w3.org/2000/svg" viewBox="0 0 24 24"><path d="M10.516 22c3.552 0 6.809-1.755 8.772-4.75a.5.5 0 0 0-.836-.548c-1.845 2.813-4.971 4.431-8.301 4.292-5.234-.191-9.337-4.607-9.145-9.843.192-5.234 4.595-9.348 9.844-9.144a9.602 9.602 0 0 1 6.934 3.351c1.516 1.774 2.302 4.031 2.265 6.447L17.192 8.54a.5.5 0 1 0-.752.658l3.684 4.21a.496.496 0 0 0 .408.17.503.503 0 0 0 .384-.222l3.158-4.736a.5.5 0 1 0-.832-.554l-2.194 3.291c-.061-2.485-.924-4.8-2.502-6.648a10.612 10.612 0 0 0-7.657-3.701C5.086.794.222 5.328.007 11.113c-.212 5.787 4.322 10.668 10.107 10.88.135.005.269.007.402.007z"/></svg>