<?xml version="1.0" encoding="utf-8"?>
<!-- Generator: Adobe Illustrator 19.1.0, SVG Export Plug-In . SVG Version: 6.00 Build 0)  -->
<!DOCTYPE svg PUBLIC "-//W3C//DTD SVG 1.1 Tiny//EN" "http://www.w3.org/Graphics/SVG/1.1/DTD/svg11-tiny.dtd">
<svg version="1.1" baseProfile="tiny" id="Layer_1" xmlns="http://www.w3.org/2000/svg" xmlns:xlink="http://www.w3.org/1999/xlink"
	 x="0px" y="0px" viewBox="0 0 24 24" xml:space="preserve">
<path d="M13.6,22c-3.6,0-6.8-1.8-8.8-4.8C4.7,17,4.8,16.7,5,16.6c0.2-0.2,0.5-0.1,0.7,0.1c1.8,2.8,5,4.4,8.3,4.3
	c5.2-0.2,9.3-4.6,9.1-9.8C23,5.9,18.6,1.8,13.3,2c-2.7,0.1-5.2,1.3-6.9,3.4c-1.5,1.8-2.3,4-2.3,6.4L7,8.5c0.2-0.2,0.5-0.2,0.7,0
	c0.2,0.2,0.2,0.5,0,0.7L4,13.4c-0.1,0.1-0.3,0.2-0.4,0.2c-0.2,0-0.3-0.1-0.4-0.2L0.1,8.6C-0.1,8.4,0,8.1,0.2,7.9
	c0.2-0.2,0.5-0.1,0.7,0.1l2.2,3.3C3.2,8.9,4,6.6,5.6,4.7c1.9-2.2,4.7-3.6,7.7-3.7c5.8-0.2,10.7,4.3,10.9,10.1
	C24.4,16.9,19.8,21.8,14,22C13.9,22,13.8,22,13.6,22z"/>
</svg>
