<?xml version="1.0" encoding="iso-8859-1"?>
<!-- Generator: Adobe Illustrator 19.1.0, SVG Export Plug-In . SVG Version: 6.00 Build 0)  -->
<!DOCTYPE svg PUBLIC "-//W3C//DTD SVG 1.1 Tiny//EN" "http://www.w3.org/Graphics/SVG/1.1/DTD/svg11-tiny.dtd">
<svg version="1.1" baseProfile="tiny" id="Layer_1" xmlns="http://www.w3.org/2000/svg" xmlns:xlink="http://www.w3.org/1999/xlink"
	 x="0px" y="0px" viewBox="0 0 24 24" xml:space="preserve">
<path d="M10.516,22c3.552,0,6.809-1.755,8.772-4.75c0.151-0.231,0.087-0.541-0.144-0.692c-0.229-0.151-0.54-0.089-0.692,0.144
	c-1.845,2.813-4.971,4.431-8.301,4.292c-5.234-0.191-9.337-4.607-9.145-9.843c0.192-5.234,4.595-9.348,9.844-9.144
	c2.672,0.098,5.199,1.319,6.934,3.351c1.516,1.774,2.302,4.031,2.265,6.447L17.192,8.54c-0.183-0.209-0.499-0.228-0.705-0.047
	c-0.208,0.182-0.229,0.497-0.047,0.705l3.684,4.21c0.102,0.117,0.255,0.182,0.408,0.17c0.155-0.011,0.298-0.092,0.384-0.222
	l3.158-4.736c0.153-0.229,0.091-0.54-0.139-0.693c-0.228-0.152-0.538-0.092-0.693,0.139l-2.194,3.291
	c-0.061-2.485-0.924-4.8-2.502-6.648c-1.916-2.243-4.707-3.592-7.657-3.701C5.086,0.794,0.222,5.328,0.007,11.113
	c-0.212,5.787,4.322,10.668,10.107,10.88C10.249,21.998,10.383,22,10.516,22z"/>
</svg>
