<?xml version="1.0" encoding="iso-8859-1"?>
<!-- Generator: Adobe Illustrator 19.1.0, SVG Export Plug-In . SVG Version: 6.00 Build 0)  -->
<!DOCTYPE svg PUBLIC "-//W3C//DTD SVG 1.1 Tiny//EN" "http://www.w3.org/Graphics/SVG/1.1/DTD/svg11-tiny.dtd">
<svg version="1.1" baseProfile="tiny" id="Layer_1" xmlns="http://www.w3.org/2000/svg" xmlns:xlink="http://www.w3.org/1999/xlink"
	 x="0px" y="0px" viewBox="0 0 24 24" xml:space="preserve">
<path d="M13.642,22c-3.552,0-6.809-1.755-8.772-4.75c-0.151-0.231-0.087-0.541,0.144-0.692c0.229-0.151,0.54-0.089,0.692,0.144
	c1.845,2.813,4.971,4.431,8.301,4.292c5.234-0.191,9.337-4.607,9.145-9.843c-0.192-5.234-4.595-9.348-9.844-9.144
	c-2.672,0.098-5.199,1.319-6.934,3.351c-1.516,1.774-2.302,4.031-2.265,6.447L6.966,8.54c0.183-0.209,0.499-0.228,0.705-0.047
	C7.879,8.675,7.9,8.99,7.718,9.198l-3.684,4.21c-0.102,0.117-0.255,0.182-0.408,0.17c-0.155-0.011-0.298-0.092-0.384-0.222
	L0.084,8.62c-0.153-0.229-0.091-0.54,0.139-0.693C0.45,7.774,0.761,7.835,0.916,8.065l2.194,3.291
	c0.061-2.485,0.924-4.8,2.502-6.648c1.916-2.243,4.707-3.592,7.657-3.701c5.802-0.213,10.666,4.321,10.881,10.106
	c0.212,5.787-4.322,10.668-10.107,10.88C13.908,21.998,13.774,22,13.642,22z"/>
</svg>
