<?xml version="1.0" encoding="iso-8859-1"?>
<!-- Generator: Adobe Illustrator 19.1.0, SVG Export Plug-In . SVG Version: 6.00 Build 0)  -->
<!DOCTYPE svg PUBLIC "-//W3C//DTD SVG 1.1 Tiny//EN" "http://www.w3.org/Graphics/SVG/1.1/DTD/svg11-tiny.dtd">
<svg version="1.1" baseProfile="tiny" id="Layer_1" xmlns="http://www.w3.org/2000/svg" xmlns:xlink="http://www.w3.org/1999/xlink"
	 x="0px" y="0px" viewBox="0 0 24 24" xml:space="preserve">
<g id="XMLID_309_">
	<path d="M9.5,16c-0.128,0-0.256-0.049-0.354-0.146l-2.5-2.5c-0.195-0.195-0.195-0.512,0-0.707s0.512-0.195,0.707,0l2.159,2.158
		l7.146-6.67c0.202-0.188,0.519-0.177,0.707,0.024c0.188,0.201,0.177,0.518-0.024,0.706l-7.5,7C9.745,15.955,9.623,16,9.5,16z"/>
	<path d="M12,24C5.383,24,0,18.617,0,12S5.383,0,12,0s12,5.383,12,12S18.617,24,12,24z M12,1C5.935,1,1,5.935,1,12s4.935,11,11,11
		s11-4.935,11-11S18.065,1,12,1z"/>
</g>
</svg>
