<?xml version="1.0" encoding="utf-8"?>
<!-- Generator: Adobe Illustrator 19.1.0, SVG Export Plug-In . SVG Version: 6.00 Build 0)  -->
<!DOCTYPE svg PUBLIC "-//W3C//DTD SVG 1.1 Tiny//EN" "http://www.w3.org/Graphics/SVG/1.1/DTD/svg11-tiny.dtd">
<svg version="1.1" baseProfile="tiny" id="Layer_1" xmlns="http://www.w3.org/2000/svg" xmlns:xlink="http://www.w3.org/1999/xlink"
	 x="0px" y="0px" viewBox="0 0 24 24" xml:space="preserve">
<g id="XMLID_309_">
	<path d="M9.5,16c-0.1,0-0.3,0-0.4-0.1l-2.5-2.5c-0.2-0.2-0.2-0.5,0-0.7s0.5-0.2,0.7,0l2.2,2.2l7.1-6.7c0.2-0.2,0.5-0.2,0.7,0
		c0.2,0.2,0.2,0.5,0,0.7l-7.5,7C9.7,16,9.6,16,9.5,16z"/>
	<path d="M12,24C5.4,24,0,18.6,0,12S5.4,0,12,0s12,5.4,12,12S18.6,24,12,24z M12,1C5.9,1,1,5.9,1,12s4.9,11,11,11s11-4.9,11-11
		S18.1,1,12,1z"/>
</g>
</svg>
