<?xml version="1.0" encoding="utf-8"?>
<!-- Generator: Adobe Illustrator 19.1.0, SVG Export Plug-In . SVG Version: 6.00 Build 0)  -->
<!DOCTYPE svg PUBLIC "-//W3C//DTD SVG 1.1 Tiny//EN" "http://www.w3.org/Graphics/SVG/1.1/DTD/svg11-tiny.dtd">
<svg version="1.1" baseProfile="tiny" id="Layer_1" xmlns="http://www.w3.org/2000/svg" xmlns:xlink="http://www.w3.org/1999/xlink"
	 x="0px" y="0px" viewBox="0 0 24 24" xml:space="preserve">
<g>
	<g>
		<path d="M9.1,18.1c-5,0-9.1-4.1-9.1-9.1S4.1,0,9.1,0c5,0,9.1,4.1,9.1,9.1S14.1,18.1,9.1,18.1z M9.1,1C4.6,1,1,4.6,1,9.1
			s3.6,8.1,8.1,8.1c4.4,0,8.1-3.6,8.1-8.1S13.5,1,9.1,1z"/>
		<path d="M23,23.5c-0.1,0-0.3,0-0.4-0.1l-7.9-7.9c-0.2-0.2-0.2-0.5,0-0.7s0.5-0.2,0.7,0l7.9,7.9c0.2,0.2,0.2,0.5,0,0.7
			C23.3,23.5,23.1,23.5,23,23.5z"/>
	</g>
</g>
</svg>
