<?xml version="1.0" encoding="iso-8859-1"?>
<!-- Generator: Adobe Illustrator 19.1.0, SVG Export Plug-In . SVG Version: 6.00 Build 0)  -->
<!DOCTYPE svg PUBLIC "-//W3C//DTD SVG 1.1 Tiny//EN" "http://www.w3.org/Graphics/SVG/1.1/DTD/svg11-tiny.dtd">
<svg version="1.1" baseProfile="tiny" id="Layer_1" xmlns="http://www.w3.org/2000/svg" xmlns:xlink="http://www.w3.org/1999/xlink"
	 x="0px" y="0px" viewBox="0 0 24 24" xml:space="preserve">
<g>
	<g>
		<path d="M9.065,18.125C4.066,18.125,0,14.06,0,9.062S4.066,0,9.065,0c4.995,0,9.059,4.065,9.059,9.062S14.06,18.125,9.065,18.125z
			 M9.065,1C4.618,1,1,4.617,1,9.062s3.618,8.062,8.065,8.062c4.443,0,8.059-3.617,8.059-8.062S13.508,1,9.065,1z"/>
		<path d="M23,23.5c-0.128,0-0.256-0.049-0.354-0.146l-7.875-7.875c-0.195-0.195-0.195-0.512,0-0.707s0.512-0.195,0.707,0
			l7.875,7.875c0.195,0.195,0.195,0.512,0,0.707C23.256,23.451,23.128,23.5,23,23.5z"/>
	</g>
</g>
</svg>
