<?xml version="1.0" encoding="iso-8859-1"?>
<!-- Generator: Adobe Illustrator 19.1.0, SVG Export Plug-In . SVG Version: 6.00 Build 0)  -->
<!DOCTYPE svg PUBLIC "-//W3C//DTD SVG 1.1 Tiny//EN" "http://www.w3.org/Graphics/SVG/1.1/DTD/svg11-tiny.dtd">
<svg version="1.1" baseProfile="tiny" id="Layer_1" xmlns="http://www.w3.org/2000/svg" xmlns:xlink="http://www.w3.org/1999/xlink"
	 x="0px" y="0px" viewBox="0 0 24 24" xml:space="preserve">
<g id="XMLID_64_">
	<path d="M13.5,24h-3c-0.276,0-0.5-0.224-0.5-0.5v-2.854c-0.791-0.2-1.669-0.456-2.332-0.78l-2.032,2.034
		c-0.187,0.188-0.52,0.188-0.707,0L2.1,19.071c-0.094-0.094-0.146-0.221-0.146-0.354s0.053-0.26,0.146-0.354l2.033-2.033
		C3.811,15.669,3.555,14.791,3.354,14H0.5C0.224,14,0,13.776,0,13.5v-3C0,10.224,0.224,10,0.5,10h2.854
		c0.201-0.791,0.456-1.668,0.778-2.331L2.1,5.636C2.006,5.542,1.953,5.415,1.953,5.282S2.006,5.022,2.1,4.929l2.829-2.828
		c0.195-0.195,0.512-0.195,0.707,0l2.033,2.032C8.334,3.809,9.211,3.554,10,3.355V0.5C10,0.224,10.224,0,10.5,0h3
		C13.776,0,14,0.224,14,0.5v2.855c0.789,0.198,1.664,0.452,2.33,0.777l2.033-2.032c0.195-0.195,0.512-0.195,0.707,0l2.829,2.828
		c0.094,0.094,0.146,0.221,0.146,0.354s-0.053,0.26-0.146,0.354l-2.032,2.032C20.191,8.333,20.445,9.21,20.645,10H23.5
		c0.276,0,0.5,0.224,0.5,0.5v3c0,0.276-0.224,0.5-0.5,0.5h-2.854c-0.201,0.791-0.456,1.669-0.778,2.331l2.032,2.033
		c0.195,0.195,0.195,0.512,0,0.707l-2.828,2.828c-0.195,0.195-0.512,0.195-0.707,0l-2.034-2.032c-0.662,0.322-1.54,0.578-2.33,0.778
		V23.5C14,23.776,13.776,24,13.5,24z M11,23h2v-2.746c0-0.23,0.158-0.432,0.382-0.486c0.558-0.135,2.04-0.493,2.777-0.944
		c0.195-0.12,0.45-0.091,0.614,0.073l1.944,1.942l2.121-2.121l-1.942-1.943c-0.164-0.163-0.193-0.417-0.073-0.614
		c0.45-0.736,0.81-2.22,0.945-2.777C19.822,13.158,20.023,13,20.254,13H23v-2h-2.747c-0.231,0-0.432-0.158-0.486-0.383
		c-0.134-0.557-0.491-2.036-0.944-2.778c-0.12-0.197-0.09-0.451,0.073-0.614l1.942-1.942l-2.122-2.121l-1.943,1.942
		c-0.165,0.164-0.419,0.191-0.614,0.073c-0.668-0.408-1.904-0.733-2.776-0.942C13.159,4.181,13,3.979,13,3.748V1h-2v2.748
		c0,0.231-0.159,0.433-0.383,0.486C9.744,4.443,8.507,4.769,7.84,5.177C7.644,5.295,7.39,5.268,7.226,5.104L5.282,3.161L3.16,5.282
		l1.943,1.943C5.267,7.389,5.297,7.643,5.177,7.84c-0.451,0.737-0.81,2.22-0.945,2.777C4.178,10.842,3.977,11,3.746,11H1v2h2.746
		c0.231,0,0.432,0.158,0.486,0.383c0.135,0.558,0.495,2.041,0.945,2.777c0.12,0.197,0.09,0.451-0.073,0.614L3.16,18.718l2.122,2.121
		l1.942-1.944c0.163-0.164,0.417-0.193,0.615-0.073c0.738,0.453,2.22,0.812,2.778,0.946C10.842,19.822,11,20.023,11,20.254V23z"/>
	<path d="M12,17c-2.757,0-5-2.243-5-5s2.243-5,5-5s5,2.243,5,5S14.757,17,12,17z M12,8c-2.206,0-4,1.794-4,4s1.794,4,4,4
		s4-1.794,4-4S14.206,8,12,8z"/>
</g>
</svg>
