<?xml version="1.0" encoding="utf-8"?>
<!-- Generator: Adobe Illustrator 19.1.0, SVG Export Plug-In . SVG Version: 6.00 Build 0)  -->
<!DOCTYPE svg PUBLIC "-//W3C//DTD SVG 1.1 Tiny//EN" "http://www.w3.org/Graphics/SVG/1.1/DTD/svg11-tiny.dtd">
<svg version="1.1" baseProfile="tiny" id="Layer_1" xmlns="http://www.w3.org/2000/svg" xmlns:xlink="http://www.w3.org/1999/xlink"
	 x="0px" y="0px" viewBox="0 0 24 24" xml:space="preserve">
<g id="XMLID_64_">
	<path d="M13.5,24h-3c-0.3,0-0.5-0.2-0.5-0.5v-2.9c-0.8-0.2-1.7-0.5-2.3-0.8l-2,2c-0.2,0.2-0.5,0.2-0.7,0l-2.8-2.8
		C2,19,2,18.9,2,18.7s0.1-0.3,0.1-0.4l2-2c-0.3-0.7-0.6-1.5-0.8-2.3H0.5C0.2,14,0,13.8,0,13.5v-3C0,10.2,0.2,10,0.5,10h2.9
		c0.2-0.8,0.5-1.7,0.8-2.3l-2-2C2,5.5,2,5.4,2,5.3S2,5,2.1,4.9l2.8-2.8c0.2-0.2,0.5-0.2,0.7,0l2,2C8.3,3.8,9.2,3.6,10,3.4V0.5
		C10,0.2,10.2,0,10.5,0h3C13.8,0,14,0.2,14,0.5v2.9c0.8,0.2,1.7,0.5,2.3,0.8l2-2c0.2-0.2,0.5-0.2,0.7,0l2.8,2.8C22,5,22,5.1,22,5.3
		S22,5.5,21.9,5.6l-2,2c0.3,0.7,0.6,1.5,0.8,2.3h2.9c0.3,0,0.5,0.2,0.5,0.5v3c0,0.3-0.2,0.5-0.5,0.5h-2.9c-0.2,0.8-0.5,1.7-0.8,2.3
		l2,2c0.2,0.2,0.2,0.5,0,0.7l-2.8,2.8c-0.2,0.2-0.5,0.2-0.7,0l-2-2c-0.7,0.3-1.5,0.6-2.3,0.8v2.9C14,23.8,13.8,24,13.5,24z M11,23h2
		v-2.7c0-0.2,0.2-0.4,0.4-0.5c0.6-0.1,2-0.5,2.8-0.9c0.2-0.1,0.4-0.1,0.6,0.1l1.9,1.9l2.1-2.1l-1.9-1.9c-0.2-0.2-0.2-0.4-0.1-0.6
		c0.5-0.7,0.8-2.2,0.9-2.8c0.1-0.2,0.3-0.4,0.5-0.4H23v-2h-2.7c-0.2,0-0.4-0.2-0.5-0.4c-0.1-0.6-0.5-2-0.9-2.8
		c-0.1-0.2-0.1-0.5,0.1-0.6l1.9-1.9l-2.1-2.1l-1.9,1.9c-0.2,0.2-0.4,0.2-0.6,0.1c-0.7-0.4-1.9-0.7-2.8-0.9C13.2,4.2,13,4,13,3.7V1
		h-2v2.7c0,0.2-0.2,0.4-0.4,0.5C9.7,4.4,8.5,4.8,7.8,5.2C7.6,5.3,7.4,5.3,7.2,5.1L5.3,3.2L3.2,5.3l1.9,1.9c0.2,0.2,0.2,0.4,0.1,0.6
		c-0.5,0.7-0.8,2.2-0.9,2.8C4.2,10.8,4,11,3.7,11H1v2h2.7c0.2,0,0.4,0.2,0.5,0.4c0.1,0.6,0.5,2,0.9,2.8c0.1,0.2,0.1,0.5-0.1,0.6
		l-1.9,1.9l2.1,2.1l1.9-1.9c0.2-0.2,0.4-0.2,0.6-0.1c0.7,0.5,2.2,0.8,2.8,0.9c0.2,0.1,0.4,0.3,0.4,0.5V23z"/>
	<path d="M12,17c-2.8,0-5-2.2-5-5s2.2-5,5-5s5,2.2,5,5S14.8,17,12,17z M12,8c-2.2,0-4,1.8-4,4s1.8,4,4,4s4-1.8,4-4S14.2,8,12,8z"/>
</g>
</svg>
