<?xml version="1.0" encoding="utf-8"?>
<!-- Generator: Adobe Illustrator 19.1.0, SVG Export Plug-In . SVG Version: 6.00 Build 0)  -->
<!DOCTYPE svg PUBLIC "-//W3C//DTD SVG 1.1 Tiny//EN" "http://www.w3.org/Graphics/SVG/1.1/DTD/svg11-tiny.dtd">
<svg version="1.1" baseProfile="tiny" id="Layer_1" xmlns="http://www.w3.org/2000/svg" xmlns:xlink="http://www.w3.org/1999/xlink"
	 x="0px" y="0px" viewBox="0 0 24 24" xml:space="preserve">
<g>
	<path d="M18.8,22.5c-0.1,0-0.2,0-0.2-0.1L12,19l-6.6,3.4c-0.2,0.1-0.4,0.1-0.5,0c-0.2-0.1-0.2-0.3-0.2-0.5L6,14.6L0.7,9.5
		C0.5,9.3,0.5,9.1,0.5,9c0.1-0.2,0.2-0.3,0.4-0.3l7.4-1.1l3.3-6.6c0.2-0.3,0.7-0.3,0.9,0l3.3,6.6l7.4,1.1c0.2,0,0.3,0.2,0.4,0.3
		c0.1,0.2,0,0.4-0.1,0.5l-5.3,5.2l1.3,7.3c0,0.2,0,0.4-0.2,0.5C19,22.5,18.9,22.5,18.8,22.5z M12,17.9c0.1,0,0.2,0,0.2,0.1l5.9,3.1
		L17,14.5c0-0.2,0-0.3,0.1-0.4L22,9.5l-6.6-1c-0.2,0-0.3-0.1-0.4-0.3l-3-6l-3,6C9,8.4,8.9,8.5,8.7,8.5l-6.6,1l4.8,4.6
		C7,14.2,7,14.4,7,14.5l-1.1,6.5l5.9-3.1C11.9,18,11.9,17.9,12,17.9z"/>
</g>
</svg>
