<?xml version="1.0" encoding="iso-8859-1"?>
<!-- Generator: Adobe Illustrator 19.1.0, SVG Export Plug-In . SVG Version: 6.00 Build 0)  -->
<!DOCTYPE svg PUBLIC "-//W3C//DTD SVG 1.1 Tiny//EN" "http://www.w3.org/Graphics/SVG/1.1/DTD/svg11-tiny.dtd">
<svg version="1.1" baseProfile="tiny" id="Layer_1" xmlns="http://www.w3.org/2000/svg" xmlns:xlink="http://www.w3.org/1999/xlink"
	 x="0px" y="0px" viewBox="0 0 24 24" xml:space="preserve">
<g>
	<path d="M18.84,22.5c-0.079,0-0.158-0.019-0.231-0.057l-6.583-3.439l-6.581,3.439c-0.169,0.088-0.373,0.072-0.526-0.039
		c-0.154-0.112-0.23-0.302-0.198-0.489l1.256-7.281L0.652,9.476C0.515,9.343,0.466,9.144,0.524,8.962
		C0.583,8.781,0.74,8.648,0.929,8.621l7.36-1.062l3.289-6.627c0.169-0.34,0.727-0.34,0.896,0l3.292,6.627l7.358,1.062
		c0.188,0.027,0.346,0.16,0.404,0.341c0.059,0.182,0.01,0.381-0.128,0.514l-5.322,5.157l1.256,7.282
		c0.032,0.188-0.045,0.377-0.198,0.489C19.047,22.468,18.943,22.5,18.84,22.5z M12.025,17.939c0.08,0,0.159,0.019,0.231,0.057
		l5.918,3.093l-1.129-6.546c-0.027-0.163,0.026-0.329,0.146-0.444l4.781-4.633l-6.61-0.955c-0.163-0.023-0.304-0.126-0.377-0.272
		l-2.96-5.96l-2.958,5.96C8.995,8.385,8.854,8.487,8.691,8.511L2.079,9.466l4.783,4.633c0.119,0.115,0.173,0.281,0.145,0.444
		l-1.129,6.546l5.916-3.093C11.866,17.958,11.945,17.939,12.025,17.939z"/>
</g>
</svg>
