<?xml version="1.0" encoding="iso-8859-1"?>
<!-- Generator: Adobe Illustrator 19.1.0, SVG Export Plug-In . SVG Version: 6.00 Build 0)  -->
<!DOCTYPE svg PUBLIC "-//W3C//DTD SVG 1.1 Tiny//EN" "http://www.w3.org/Graphics/SVG/1.1/DTD/svg11-tiny.dtd">
<svg version="1.1" baseProfile="tiny" id="Layer_1" xmlns="http://www.w3.org/2000/svg" xmlns:xlink="http://www.w3.org/1999/xlink"
	 x="0px" y="0px" viewBox="0 0 24 24" xml:space="preserve">
<path d="M12.406,20.971c2.487,0.001,4.828-0.945,6.627-2.686c0.198-0.192,0.204-0.509,0.012-0.707
	c-0.191-0.197-0.509-0.203-0.707-0.012c-1.688,1.633-3.915,2.479-6.255,2.398c-2.403-0.088-4.676-1.187-6.236-3.014
	c-1.337-1.564-2.042-3.547-2.037-5.673l2.501,2.858c0.182,0.209,0.498,0.228,0.705,0.047c0.208-0.182,0.229-0.497,0.047-0.705
	L3.731,9.671C3.63,9.554,3.474,9.487,3.323,9.501C3.168,9.512,3.025,9.593,2.939,9.723l-2.855,4.283
	c-0.153,0.229-0.091,0.54,0.139,0.693c0.229,0.151,0.539,0.091,0.693-0.139l1.901-2.852c0.085,2.201,0.866,4.249,2.269,5.892
	c1.742,2.039,4.278,3.266,6.96,3.364C12.166,20.969,12.287,20.971,12.406,20.971z"/>
<path d="M20.645,13.506c0.011,0,0.021,0,0.032-0.001c0.156-0.011,0.298-0.092,0.384-0.222l2.855-4.284
	c0.153-0.229,0.091-0.54-0.139-0.693c-0.228-0.153-0.539-0.093-0.693,0.139l-1.901,2.853c-0.085-2.201-0.865-4.249-2.269-5.892
	c-1.741-2.039-4.278-3.266-6.96-3.364c-2.706-0.09-5.347,0.965-7.229,2.922C4.533,5.162,4.539,5.479,4.738,5.67
	c0.197,0.189,0.513,0.186,0.707-0.014c1.687-1.752,4.05-2.713,6.472-2.615c2.403,0.088,4.677,1.187,6.237,3.014
	c1.336,1.564,2.041,3.547,2.036,5.673l-2.501-2.858c-0.182-0.21-0.498-0.229-0.705-0.047c-0.208,0.182-0.229,0.497-0.047,0.705
	l3.331,3.808C20.363,13.444,20.501,13.506,20.645,13.506z"/>
</svg>
