<svg baseProfile="tiny" xmlns="http://www.w3.org/2000/svg" viewBox="0 0 24 24"><path d="M12.406 20.971a9.452 9.452 0 0 0 6.627-2.686.5.5 0 0 0-.695-.719 8.5 8.5 0 0 1-6.255 2.398 8.637 8.637 0 0 1-6.236-3.014c-1.337-1.564-2.042-3.547-2.037-5.673l2.501 2.858a.5.5 0 1 0 .752-.658L3.731 9.671a.49.49 0 0 0-.408-.17.503.503 0 0 0-.384.222L.084 14.006a.5.5 0 1 0 .832.554l1.901-2.852c.085 2.201.866 4.249 2.269 5.892a9.64 9.64 0 0 0 7.32 3.371zM20.645 13.506l.032-.001a.5.5 0 0 0 .384-.222l2.855-4.284a.5.5 0 1 0-.832-.554l-1.901 2.853c-.085-2.201-.865-4.249-2.269-5.892a9.639 9.639 0 0 0-6.96-3.364 9.598 9.598 0 0 0-7.229 2.922.498.498 0 1 0 .72.692 8.532 8.532 0 0 1 6.472-2.615 8.639 8.639 0 0 1 6.237 3.014c1.336 1.564 2.041 3.547 2.036 5.673L17.689 8.87a.499.499 0 1 0-.752.658l3.331 3.808c.095.108.233.17.377.17z"/></svg>