<?xml version="1.0" encoding="utf-8"?>
<!-- Generator: Adobe Illustrator 19.1.0, SVG Export Plug-In . SVG Version: 6.00 Build 0)  -->
<!DOCTYPE svg PUBLIC "-//W3C//DTD SVG 1.1 Tiny//EN" "http://www.w3.org/Graphics/SVG/1.1/DTD/svg11-tiny.dtd">
<svg version="1.1" baseProfile="tiny" id="Layer_1" xmlns="http://www.w3.org/2000/svg" xmlns:xlink="http://www.w3.org/1999/xlink"
	 x="0px" y="0px" viewBox="0 0 24 24" xml:space="preserve">
<path d="M11.6,21C9.1,21,6.8,20,5,18.3c-0.2-0.2-0.2-0.5,0-0.7c0.2-0.2,0.5-0.2,0.7,0c1.7,1.6,3.9,2.5,6.3,2.4
	c2.4-0.1,4.7-1.2,6.2-3c1.3-1.6,2-3.5,2-5.7l-2.5,2.9c-0.2,0.2-0.5,0.2-0.7,0c-0.2-0.2-0.2-0.5,0-0.7l3.3-3.8
	c0.1-0.1,0.3-0.2,0.4-0.2c0.2,0,0.3,0.1,0.4,0.2l2.9,4.3c0.2,0.2,0.1,0.5-0.1,0.7c-0.2,0.2-0.5,0.1-0.7-0.1l-1.9-2.9
	c-0.1,2.2-0.9,4.2-2.3,5.9c-1.7,2-4.3,3.3-7,3.4C11.8,21,11.7,21,11.6,21z"/>
<path d="M3.4,13.5C3.3,13.5,3.3,13.5,3.4,13.5c-0.2,0-0.3-0.1-0.4-0.2L0.1,9C-0.1,8.8,0,8.5,0.2,8.3c0.2-0.2,0.5-0.1,0.7,0.1
	l1.9,2.9C2.9,9.1,3.7,7,5.1,5.4c1.7-2,4.3-3.3,7-3.4C14.8,2,17.4,3,19.3,5c0.2,0.2,0.2,0.5,0,0.7c-0.2,0.2-0.5,0.2-0.7,0
	c-1.7-1.8-4-2.7-6.5-2.6c-2.4,0.1-4.7,1.2-6.2,3c-1.3,1.6-2,3.5-2,5.7l2.5-2.9c0.2-0.2,0.5-0.2,0.7,0c0.2,0.2,0.2,0.5,0,0.7
	l-3.3,3.8C3.6,13.4,3.5,13.5,3.4,13.5z"/>
</svg>
