<svg baseProfile="tiny" xmlns="http://www.w3.org/2000/svg" viewBox="0 0 24 24"><path d="M18.5 24h-13A2.503 2.503 0 0 1 3 21.5v-19C3 1.121 4.122 0 5.5 0h13C19.879 0 21 1.121 21 2.5v19c0 1.379-1.121 2.5-2.5 2.5zM5.5 1C4.673 1 4 1.673 4 2.5v19c0 .827.673 1.5 1.5 1.5h13c.827 0 1.5-.673 1.5-1.5v-19c0-.827-.673-1.5-1.5-1.5h-13z"/><path d="M18.5 20h-13a.5.5 0 0 1-.5-.5v-16a.5.5 0 0 1 .5-.5h13a.5.5 0 0 1 .5.5v16a.5.5 0 0 1-.5.5zM6 19h12V4H6v15zM12 1.5a.5.5 0 1 0 0 1 .5.5 0 0 0 0-1z"/><path d="M9.5 8h-1a.5.5 0 0 1-.5-.5v-1a.5.5 0 0 1 .5-.5h1a.5.5 0 0 1 .5.5v1a.5.5 0 0 1-.5.5zM12.5 8h-1a.5.5 0 0 1-.5-.5v-1a.5.5 0 0 1 .5-.5h1a.5.5 0 0 1 .5.5v1a.5.5 0 0 1-.5.5zM15.5 8h-1a.5.5 0 0 1-.5-.5v-1a.5.5 0 0 1 .5-.5h1a.5.5 0 0 1 .5.5v1a.5.5 0 0 1-.5.5zM9.5 11h-1a.5.5 0 0 1-.5-.5v-1a.5.5 0 0 1 .5-.5h1a.5.5 0 0 1 .5.5v1a.5.5 0 0 1-.5.5zM12.5 11h-1a.5.5 0 0 1-.5-.5v-1a.5.5 0 0 1 .5-.5h1a.5.5 0 0 1 .5.5v1a.5.5 0 0 1-.5.5zM15.5 11h-1a.5.5 0 0 1-.5-.5v-1a.5.5 0 0 1 .5-.5h1a.5.5 0 0 1 .5.5v1a.5.5 0 0 1-.5.5zM9.5 14h-1a.5.5 0 0 1-.5-.5v-1a.5.5 0 0 1 .5-.5h1a.5.5 0 0 1 .5.5v1a.5.5 0 0 1-.5.5zM12.5 14h-1a.5.5 0 0 1-.5-.5v-1a.5.5 0 0 1 .5-.5h1a.5.5 0 0 1 .5.5v1a.5.5 0 0 1-.5.5z"/><circle cx="12" cy="21.5" r="1"/></svg>