<?xml version="1.0" encoding="iso-8859-1"?>
<!-- Generator: Adobe Illustrator 19.1.0, SVG Export Plug-In . SVG Version: 6.00 Build 0)  -->
<!DOCTYPE svg PUBLIC "-//W3C//DTD SVG 1.1 Tiny//EN" "http://www.w3.org/Graphics/SVG/1.1/DTD/svg11-tiny.dtd">
<svg version="1.1" baseProfile="tiny" id="Layer_1" xmlns="http://www.w3.org/2000/svg" xmlns:xlink="http://www.w3.org/1999/xlink"
	 x="0px" y="0px" viewBox="0 0 24 24" xml:space="preserve">
<path d="M14.5,24c-0.128,0-0.256-0.049-0.354-0.146l-14-14C0.053,9.76,0,9.633,0,9.5v-7C0,2.224,0.224,2,0.5,2h7
	c0.133,0,0.26,0.053,0.354,0.146l14,14c0.195,0.195,0.195,0.512,0,0.707l-7,7C14.756,23.951,14.628,24,14.5,24z M1,9.293l13.5,13.5
	l6.293-6.293L7.293,3H1V9.293z"/>
<path d="M22.25,15c-0.146,0-0.292-0.064-0.391-0.188c-0.172-0.216-0.138-0.53,0.078-0.703l0.813-0.65L10.293,1H3
	C2.724,1,2.5,0.776,2.5,0.5S2.724,0,3,0h7.5c0.133,0,0.26,0.053,0.354,0.146l13,13c0.101,0.101,0.153,0.239,0.146,0.381
	c-0.008,0.143-0.075,0.274-0.187,0.363l-1.25,1C22.47,14.964,22.359,15,22.25,15z"/>
<path d="M5,9C3.897,9,3,8.103,3,7s0.897-2,2-2s2,0.897,2,2S6.103,9,5,9z M5,6C4.448,6,4,6.448,4,7s0.448,1,1,1s1-0.448,1-1
	S5.552,6,5,6z"/>
</svg>
