<svg baseProfile="tiny" xmlns="http://www.w3.org/2000/svg" viewBox="0 0 24 24"><path d="M14.5 24a.502.502 0 0 1-.354-.146l-14-14A.504.504 0 0 1 0 9.5v-7A.5.5 0 0 1 .5 2h7c.133 0 .26.053.354.146l14 14a.5.5 0 0 1 0 .707l-7 7A.5.5 0 0 1 14.5 24zM1 9.293l13.5 13.5 6.293-6.293L7.293 3H1v6.293z"/><path d="M22.25 15a.5.5 0 0 1-.313-.891l.813-.65L10.293 1H3a.5.5 0 0 1 0-1h7.5c.133 0 .26.053.354.146l13 13a.502.502 0 0 1-.041.744l-1.25 1a.502.502 0 0 1-.313.11zM5 9c-1.103 0-2-.897-2-2s.897-2 2-2 2 .897 2 2-.897 2-2 2zm0-3a1 1 0 1 0 0 2 1 1 0 0 0 0-2z"/></svg>