<svg baseProfile="tiny" xmlns="http://www.w3.org/2000/svg" viewBox="0 0 24 24"><path d="M20.2 19H3.8c-1 0-1.8-.8-1.8-1.8V4.8C2 3.8 2.8 3 3.8 3h16.4c1 0 1.8.8 1.8 1.8v12.4c0 1-.8 1.8-1.8 1.8zM3.8 4c-.4 0-.8.4-.8.8v12.4c0 .4.4.8.8.8h16.4c.4 0 .8-.4.8-.8V4.8c0-.4-.4-.8-.8-.8H3.8zM6 21h11v1H6z"/><path d="M15 22H9c-.2 0-.3-.1-.4-.2-.1-.1-.1-.3-.1-.4l.9-3c0-.3.2-.4.5-.4h4.3c.2 0 .4.1.5.4l.9 3c0 .2 0 .3-.1.4-.2.1-.3.2-.5.2zm-5.3-1h4.7l-.6-2h-3.5l-.6 2zM19.5 16h-15c-.3 0-.5-.2-.5-.5v-10c0-.3.2-.5.5-.5h15c.3 0 .5.2.5.5v10c0 .3-.2.5-.5.5zM5 15h14V6H5v9z"/><circle cx="12" cy="16.7" r=".9"/></svg>