<svg baseProfile="tiny" xmlns="http://www.w3.org/2000/svg" viewBox="0 0 24 24"><path d="M16 20H2.2c-1 0-1.2-.7-1.2-1V5.2C1 4.5 1.5 4 2.2 4H19c.5 0 1 .3 1 1.2V8c0 .3-.2.5-.5.5S19 8.3 19 8V5.2 5H2.2c-.1 0-.2.1-.2.2V19h14c.3 0 .5.2.5.5s-.2.5-.5.5z"/><path d="M19 8H2c-.3 0-.5-.2-.5-.5S1.7 7 2 7h17c.3 0 .5.2.5.5s-.2.5-.5.5zM8.8 17.5V9.4c0-.3.1-.4.3-.5.2-.1.5-.1.6.1l1.5 1.9c3.9-1.2 7.2-1 9.3.6 1.7 1.2 2.5 3.2 2.5 5.8 0 .3-.2.5-.5.5s-.5-.2-.5-.5c0-1.3-.4-2.1-1.2-2.6-1.2-.8-3.4-.6-5.7.5l1.9 2c.1.1.2.3.1.5s-.3.3-.5.3H9.3c-.3 0-.5-.2-.5-.5zm4.9-2.1c-.1-.1-.1-.2-.1-.4.1-.2.2-.3.3-.4 2.2-1.1 5.2-1.9 7.2-.8-.3-.6-.7-1.1-1.3-1.5-1.9-1.4-5-1.5-8.7-.4-.2 0-.4-.1-.5-.2l-.8-1V17h5.6l-1.7-1.6z"/></svg>