<?xml version="1.0" encoding="iso-8859-1"?>
<!-- Generator: Adobe Illustrator 19.1.0, SVG Export Plug-In . SVG Version: 6.00 Build 0)  -->
<!DOCTYPE svg PUBLIC "-//W3C//DTD SVG 1.1 Tiny//EN" "http://www.w3.org/Graphics/SVG/1.1/DTD/svg11-tiny.dtd">
<svg version="1.1" baseProfile="tiny" id="Layer_1" xmlns="http://www.w3.org/2000/svg" xmlns:xlink="http://www.w3.org/1999/xlink"
	 x="0px" y="0px" viewBox="0 0 24 24" xml:space="preserve">
<g id="XMLID_339_">
	<g id="XMLID_496_">
		<path id="XMLID_1305_" d="M20.2,19H3.8c-1,0-1.8-0.8-1.8-1.8V4.8C2,3.8,2.8,3,3.8,3h16.4c1,0,1.8,0.8,1.8,1.8v12.4
			C22,18.2,21.2,19,20.2,19z M3.8,4C3.4,4,3,4.4,3,4.8v12.4C3,17.6,3.4,18,3.8,18h16.4c0.4,0,0.8-0.4,0.8-0.8V4.8
			C21,4.4,20.6,4,20.2,4H3.8z"/>
	</g>
	<g id="XMLID_495_">
		<rect id="XMLID_1304_" x="6" y="21" width="11" height="1"/>
	</g>
	<g id="XMLID_494_">
		<path id="XMLID_1301_" d="M15,22H9c-0.2,0-0.3-0.1-0.4-0.2c-0.1-0.1-0.1-0.3-0.1-0.4l0.9-3c0-0.3,0.2-0.4,0.5-0.4h4.3
			c0.2,0,0.4,0.1,0.5,0.4l0.9,3c0,0.2,0,0.3-0.1,0.4C15.3,21.9,15.2,22,15,22z M9.7,21h4.7l-0.6-2h-3.5L9.7,21z"/>
	</g>
	<g id="XMLID_347_">
		<path id="XMLID_1298_" d="M19.5,16h-15C4.2,16,4,15.8,4,15.5v-10C4,5.2,4.2,5,4.5,5h15C19.8,5,20,5.2,20,5.5v10
			C20,15.8,19.8,16,19.5,16z M5,15h14V6H5V15z"/>
	</g>
	<g id="XMLID_346_">
		<circle id="XMLID_1297_" cx="12" cy="16.7" r="0.9"/>
	</g>
</g>
</svg>
