<svg baseProfile="tiny" xmlns="http://www.w3.org/2000/svg" viewBox="0 0 24 24"><path d="M6 14c-.1 0-.3 0-.4-.1-.2-.2-.2-.5 0-.7L7.8 11 5.6 8.9c-.2-.2-.2-.5 0-.7s.5-.2.7 0l2.5 2.5c.2.2.2.5 0 .7l-2.5 2.5c0 .1-.2.1-.3.1zM15 12h-4c-.3 0-.5-.2-.5-.5s.2-.5.5-.5h4c.3 0 .5.2.5.5s-.2.5-.5.5z"/><path d="M23.5 22H.5c-.3 0-.5-.2-.5-.5v-19c0-.3.2-.5.5-.5h23c.3 0 .5.2.5.5v19c0 .3-.2.5-.5.5zM1 21h22V3H1v18z"/><path d="M21.5 20h-19c-.3 0-.5-.2-.5-.5v-15c0-.3.2-.5.5-.5h19c.3 0 .5.2.5.5v15c0 .3-.2.5-.5.5zM3 19h18V5H3v14z"/></svg>