<?xml version="1.0" encoding="iso-8859-1"?>
<!-- Generator: Adobe Illustrator 19.1.0, SVG Export Plug-In . SVG Version: 6.00 Build 0)  -->
<!DOCTYPE svg PUBLIC "-//W3C//DTD SVG 1.1 Tiny//EN" "http://www.w3.org/Graphics/SVG/1.1/DTD/svg11-tiny.dtd">
<svg version="1.1" baseProfile="tiny" id="Layer_1" xmlns="http://www.w3.org/2000/svg" xmlns:xlink="http://www.w3.org/1999/xlink"
	 x="0px" y="0px" viewBox="0 0 24 24" xml:space="preserve">
<g id="XMLID_891_">
	<path id="XMLID_1229_" d="M16,20H2.2c-1,0-1.2-0.7-1.2-1V5.2C1,4.5,1.5,4,2.2,4H19c0.5,0,1,0.3,1,1.2V8c0,0.3-0.2,0.5-0.5,0.5
		S19,8.3,19,8V5.2C19,5,19,5,19,5H2.2C2.1,5,2,5.1,2,5.2V19c0,0,0.1,0,0.2,0H16c0.3,0,0.5,0.2,0.5,0.5S16.3,20,16,20z"/>
</g>
<g id="XMLID_890_">
	<path id="XMLID_1097_" d="M19,8H2C1.7,8,1.5,7.8,1.5,7.5S1.7,7,2,7h17c0.3,0,0.5,0.2,0.5,0.5S19.3,8,19,8z"/>
</g>
<g id="XMLID_888_">
	<g id="XMLID_889_">
		<path id="XMLID_869_" d="M22.5,18h-7.3c-0.2,0-0.4-0.1-0.5-0.3c-0.1-0.2,0-0.4,0.1-0.5l1.9-2c-2.3-1.1-4.5-1.3-5.7-0.5
			c-0.8,0.5-1.2,1.3-1.2,2.6c0,0.3-0.2,0.5-0.5,0.5s-0.5-0.2-0.5-0.5c0-2.6,0.8-4.6,2.5-5.8c2.1-1.6,5.4-1.8,9.3-0.6L22.1,9
			c0.1-0.2,0.4-0.2,0.6-0.1C22.9,9,23,9.1,23,9.4v8.1C23,17.8,22.8,18,22.5,18z M16.4,17H22v-6.3l-0.8,1c-0.1,0.1-0.3,0.2-0.5,0.2
			c-3.7-1.1-6.8-1-8.7,0.4c-0.6,0.4-1,0.9-1.3,1.5c2-1.1,5-0.3,7.2,0.8c0.1,0.1,0.2,0.2,0.3,0.4c0,0.2,0,0.3-0.1,0.4L16.4,17z"/>
	</g>
</g>
</svg>
