<?xml version="1.0" encoding="iso-8859-1"?>
<!-- Generator: Adobe Illustrator 19.1.0, SVG Export Plug-In . SVG Version: 6.00 Build 0)  -->
<!DOCTYPE svg PUBLIC "-//W3C//DTD SVG 1.1 Tiny//EN" "http://www.w3.org/Graphics/SVG/1.1/DTD/svg11-tiny.dtd">
<svg version="1.1" baseProfile="tiny" id="Layer_1" xmlns="http://www.w3.org/2000/svg" xmlns:xlink="http://www.w3.org/1999/xlink"
	 x="0px" y="0px" viewBox="0 0 24 24" xml:space="preserve">
<g id="XMLID_325_">
	<g id="XMLID_338_">
		<path id="XMLID_1292_" d="M20.8,19H4.2C3.3,19,2,18.3,2,17.2V6c0-1,1.3-2,2.2-2h16.6c1,0,2.2,1,2.2,2v11.2
			C23,18.3,21.7,19,20.8,19z M4.2,5C3.8,5,3,5.6,3,6v11.2C3,17.6,3.7,18,4.2,18h16.6c0.5,0,1.2-0.4,1.2-0.8V6c0-0.4-0.7-1-1.2-1H4.2
			z"/>
	</g>
	<g id="XMLID_335_">
		<rect id="XMLID_1291_" x="8" y="20" width="9" height="1"/>
	</g>
	<g id="XMLID_330_">
		<rect id="XMLID_1290_" x="12" y="19" width="1" height="1"/>
	</g>
	<g id="XMLID_328_">
		<circle id="XMLID_1289_" cx="12.6" cy="16.4" r="0.9"/>
	</g>
	<g id="XMLID_327_">
		<rect id="XMLID_1288_" x="3" y="14" width="19" height="1"/>
	</g>
</g>
</svg>
