<?xml version="1.0" encoding="iso-8859-1"?>
<!-- Generator: Adobe Illustrator 19.1.0, SVG Export Plug-In . SVG Version: 6.00 Build 0)  -->
<!DOCTYPE svg PUBLIC "-//W3C//DTD SVG 1.1 Tiny//EN" "http://www.w3.org/Graphics/SVG/1.1/DTD/svg11-tiny.dtd">
<svg version="1.1" baseProfile="tiny" id="Layer_1" xmlns="http://www.w3.org/2000/svg" xmlns:xlink="http://www.w3.org/1999/xlink"
	 x="0px" y="0px" viewBox="0 0 24 24" xml:space="preserve">
<g id="XMLID_712_">
	<g id="XMLID_714_">
		<path id="XMLID_78_" d="M17.4,23h-7.1c-0.2,0-0.3-0.05-0.4-0.15l-3.6-5.875c-0.4-0.5-0.5-1.488-0.2-2.188
			c0.2-0.4,0.55-0.594,0.95-0.594C7.95,14.194,9,14.4,10,16.1V7.9c0-1.1,1.1-1.8,2-1.8c1.1,0,2,0.9,2,1.8v5l3.65,1.2
			c1.2,0.4,1.425,2.2,1.225,3.2l-0.888,5.25C17.787,22.85,17.6,23,17.4,23z M10.5,22H17l0.9-4.85c0.2-0.8,0-1.875-0.5-2.075
			l-4-1.288C13.2,13.688,13,13.5,13,13.3V7.9c0-0.4-0.5-0.8-1-0.8s-1,0.4-1,0.8v9.8c0,0.2,0,0.4-0.2,0.5c-0.2,0.1-0.35,0-0.55-0.2
			c-2-2.7-2.375-2.7-3.075-2.7c-0.1,0-0.087,0-0.087,0.1c-0.1,0.2-0.094,0.75,0.206,1.15L10.5,22z"/>
	</g>
	<g id="XMLID_713_">
		<path id="XMLID_77_" d="M17.8,12H17v-1h0.8c1.1,0,2.2-0.5,2.2-1.7V3.9C20,2.6,18.9,2,17.8,2H6.2C5.2,2,4,2.6,4,3.9v5.3
			C4,10.5,5.1,11,6.2,11H8v1H6.2C4.3,12,3,10.8,3,9.2V3.9C3,2.2,4.3,1,6.2,1h11.6C19.7,1,21,2.3,21,3.9v5.3
			C21.1,10.9,19.7,12,17.8,12z"/>
	</g>
</g>
</svg>
