<?xml version="1.0" encoding="iso-8859-1"?>
<!-- Generator: Adobe Illustrator 19.1.0, SVG Export Plug-In . SVG Version: 6.00 Build 0)  -->
<!DOCTYPE svg PUBLIC "-//W3C//DTD SVG 1.1 Tiny//EN" "http://www.w3.org/Graphics/SVG/1.1/DTD/svg11-tiny.dtd">
<svg version="1.1" baseProfile="tiny" id="Layer_1" xmlns="http://www.w3.org/2000/svg" xmlns:xlink="http://www.w3.org/1999/xlink"
	 x="0px" y="0px" viewBox="0 0 24 24" xml:space="preserve">
<g id="XMLID_155_">
	<g id="XMLID_166_">
		<path id="XMLID_1269_" d="M6,14c-0.1,0-0.3,0-0.4-0.1c-0.2-0.2-0.2-0.5,0-0.7L7.8,11L5.6,8.9c-0.2-0.2-0.2-0.5,0-0.7
			s0.5-0.2,0.7,0l2.5,2.5c0.2,0.2,0.2,0.5,0,0.7l-2.5,2.5C6.3,14,6.1,14,6,14z"/>
	</g>
	<g id="XMLID_165_">
		<path id="XMLID_1268_" d="M15,12h-4c-0.3,0-0.5-0.2-0.5-0.5S10.7,11,11,11h4c0.3,0,0.5,0.2,0.5,0.5S15.3,12,15,12z"/>
	</g>
	<g id="XMLID_157_">
		<path id="XMLID_1265_" d="M23.5,22h-23C0.2,22,0,21.8,0,21.5v-19C0,2.2,0.2,2,0.5,2h23C23.8,2,24,2.2,24,2.5v19
			C24,21.8,23.8,22,23.5,22z M1,21h22V3H1V21z"/>
	</g>
	<g id="XMLID_156_">
		<path id="XMLID_1262_" d="M21.5,20h-19C2.2,20,2,19.8,2,19.5v-15C2,4.2,2.2,4,2.5,4h19C21.8,4,22,4.2,22,4.5v15
			C22,19.8,21.8,20,21.5,20z M3,19h18V5H3V19z"/>
	</g>
</g>
</svg>
