<svg baseProfile="tiny" xmlns="http://www.w3.org/2000/svg" viewBox="0 0 24 24"><path d="M16 20H2.2c-1 0-1.2-.7-1.2-1V5.2C1 4.5 1.5 4 2.2 4H19c.5 0 1 .3 1 1.2V8c0 .3-.2.5-.5.5S19 8.3 19 8V5.2 5H2.2c-.1 0-.2.1-.2.2V19h14c.3 0 .5.2.5.5s-.2.5-.5.5z"/><path d="M19 8H2c-.3 0-.5-.2-.5-.5S1.7 7 2 7h17c.3 0 .5.2.5.5s-.2.5-.5.5zM22.5 18h-7.3c-.2 0-.4-.1-.5-.3-.1-.2 0-.4.1-.5l1.9-2c-2.3-1.1-4.5-1.3-5.7-.5-.8.5-1.2 1.3-1.2 2.6 0 .3-.2.5-.5.5s-.5-.2-.5-.5c0-2.6.8-4.6 2.5-5.8 2.1-1.6 5.4-1.8 9.3-.6L22.1 9c.1-.2.4-.2.6-.1.2.1.3.2.3.5v8.1c0 .3-.2.5-.5.5zm-6.1-1H22v-6.3l-.8 1c-.1.1-.3.2-.5.2-3.7-1.1-6.8-1-8.7.4-.6.4-1 .9-1.3 1.5 2-1.1 5-.3 7.2.8.1.1.2.2.3.4 0 .2 0 .3-.1.4L16.4 17z"/></svg>