<?xml version="1.0" encoding="iso-8859-1"?>
<!-- Generator: Adobe Illustrator 18.1.1, SVG Export Plug-In . SVG Version: 6.00 Build 0)  -->
<!DOCTYPE svg PUBLIC "-//W3C//DTD SVG 1.1 Tiny//EN" "http://www.w3.org/Graphics/SVG/1.1/DTD/svg11-tiny.dtd">
<svg version="1.1" baseProfile="tiny" id="Layer_1" xmlns="http://www.w3.org/2000/svg" xmlns:xlink="http://www.w3.org/1999/xlink"
	 x="0px" y="0px" viewBox="0 0 24 24" xml:space="preserve">
<g id="XMLID_10_">
	<path id="XMLID_11_" d="M16,20H2.2c-1,0-1.2-0.7-1.2-1V5.2C1,4.5,1.5,4,2.2,4H19c0.5,0,1,0.3,1,1.2V8c0,0.3-0.2,0.5-0.5,0.5
		S19,8.3,19,8V5.2C19,5,19,5,19,5H2.2C2.1,5,2,5.1,2,5.2V19c0,0,0.1,0,0.2,0H16c0.3,0,0.5,0.2,0.5,0.5S16.3,20,16,20z"/>
</g>
<g id="XMLID_5_">
	<path id="XMLID_7_" d="M19,8H2C1.7,8,1.5,7.8,1.5,7.5S1.7,7,2,7h17c0.3,0,0.5,0.2,0.5,0.5S19.3,8,19,8z"/>
</g>
<g id="XMLID_2_">
	<g id="XMLID_3_">
		<path id="XMLID_4_" d="M8.8,17.5V9.4c0-0.3,0.1-0.4,0.3-0.5C9.3,8.8,9.6,8.8,9.7,9l1.5,1.9c3.9-1.2,7.2-1,9.3,0.6
			c1.7,1.2,2.5,3.2,2.5,5.8c0,0.3-0.2,0.5-0.5,0.5c-0.3,0-0.5-0.2-0.5-0.5c0-1.3-0.4-2.1-1.2-2.6c-1.2-0.8-3.4-0.6-5.7,0.5l1.9,2
			c0.1,0.1,0.2,0.3,0.1,0.5C17,17.9,16.8,18,16.6,18H9.3C9,18,8.8,17.8,8.8,17.5z M13.7,15.4c-0.1-0.1-0.1-0.2-0.1-0.4
			c0.1-0.2,0.2-0.3,0.3-0.4c2.2-1.1,5.2-1.9,7.2-0.8c-0.3-0.6-0.7-1.1-1.3-1.5c-1.9-1.4-5-1.5-8.7-0.4c-0.2,0-0.4-0.1-0.5-0.2
			l-0.8-1V17h5.6L13.7,15.4z"/>
	</g>
</g>
</svg>
