<?xml version="1.0" encoding="iso-8859-1"?>
<!-- Generator: Adobe Illustrator 19.1.0, SVG Export Plug-In . SVG Version: 6.00 Build 0)  -->
<!DOCTYPE svg PUBLIC "-//W3C//DTD SVG 1.1 Tiny//EN" "http://www.w3.org/Graphics/SVG/1.1/DTD/svg11-tiny.dtd">
<svg version="1.1" baseProfile="tiny" id="Layer_1" xmlns="http://www.w3.org/2000/svg" xmlns:xlink="http://www.w3.org/1999/xlink"
	 x="0px" y="0px" viewBox="0 0 24 24" xml:space="preserve">
<g id="XMLID_1063_">
	<path id="XMLID_1272_" fill="#010101" d="M12.8,21.6c-3.2,0-6.2-1.6-8-4.3c-0.1-0.3,0-0.6,0.2-0.7c0.2-0.2,0.5-0.1,0.7,0.1
		c1.7,2.5,4.4,4,7.5,3.9c4.7-0.2,8.4-4.1,8.2-8.8c-0.2-4.7-4.2-8.4-8.8-8.2c-2.4,0.1-4.7,1.2-6.2,3c-1.3,1.6-2,3.5-2,5.7l2.5-2.9
		c0.2-0.2,0.5-0.2,0.7,0s0.2,0.5,0,0.7l-3.3,3.8c-0.2,0-0.4,0.1-0.5,0.1c-0.2,0-0.3-0.1-0.4-0.2L0.5,9.5c-0.1-0.3,0-0.6,0.2-0.7
		c0.2-0.2,0.5-0.1,0.7,0.1l1.9,2.8c0.1-2.2,0.9-4.2,2.3-5.9c1.7-2,4.3-3.3,7-3.4c5.2-0.2,9.7,3.9,9.9,9.2s-3.9,9.7-9.2,9.9
		C13.1,21.6,13,21.6,12.8,21.6z"/>
</g>
</svg>
