<svg baseProfile="tiny" xmlns="http://www.w3.org/2000/svg" viewBox="0 0 24 24"><path d="M17.4 23h-7.1c-.2 0-.3-.05-.4-.15l-3.6-5.875c-.4-.5-.5-1.488-.2-2.188.2-.4.55-.594.95-.594.9.001 1.95.207 2.95 1.907V7.9c0-1.1 1.1-1.8 2-1.8 1.1 0 2 .9 2 1.8v5l3.65 1.2c1.2.4 1.425 2.2 1.225 3.2l-.888 5.25c-.2.3-.387.45-.587.45zm-6.9-1H17l.9-4.85c.2-.8 0-1.875-.5-2.075l-4-1.288c-.2-.099-.4-.287-.4-.487V7.9c0-.4-.5-.8-1-.8s-1 .4-1 .8v9.8c0 .2 0 .4-.2.5-.2.1-.35 0-.55-.2-2-2.7-2.375-2.7-3.075-2.7-.1 0-.087 0-.087.1-.1.2-.094.75.206 1.15L10.5 22z"/><path d="M17.8 12H17v-1h.8c1.1 0 2.2-.5 2.2-1.7V3.9C20 2.6 18.9 2 17.8 2H6.2C5.2 2 4 2.6 4 3.9v5.3C4 10.5 5.1 11 6.2 11H8v1H6.2C4.3 12 3 10.8 3 9.2V3.9C3 2.2 4.3 1 6.2 1h11.6C19.7 1 21 2.3 21 3.9v5.3c.1 1.7-1.3 2.8-3.2 2.8z"/></svg>