<?xml version="1.0" encoding="iso-8859-1"?>
<!-- Generator: Adobe Illustrator 19.1.0, SVG Export Plug-In . SVG Version: 6.00 Build 0)  -->
<!DOCTYPE svg PUBLIC "-//W3C//DTD SVG 1.1 Tiny//EN" "http://www.w3.org/Graphics/SVG/1.1/DTD/svg11-tiny.dtd">
<svg version="1.1" baseProfile="tiny" id="Layer_1" xmlns="http://www.w3.org/2000/svg" xmlns:xlink="http://www.w3.org/1999/xlink"
	 x="0px" y="0px" viewBox="0 0 24 24" xml:space="preserve">
<g id="XMLID_1063_">
	<path id="XMLID_1272_" d="M10.768,21.6c3.2,0,6.2-1.6,8-4.3c0.1-0.3,0-0.6-0.2-0.7c-0.2-0.2-0.5-0.1-0.7,0.1
		c-1.7,2.5-4.4,4-7.5,3.9c-4.7-0.2-8.4-4.1-8.2-8.8c0.2-4.7,4.2-8.4,8.8-8.2c2.4,0.1,4.7,1.2,6.2,3c1.3,1.6,2,3.5,2,5.7l-2.5-2.9
		c-0.2-0.2-0.5-0.2-0.7,0c-0.2,0.2-0.2,0.5,0,0.7l3.3,3.8c0.2,0,0.4,0.1,0.5,0.1c0.2,0,0.3-0.1,0.4-0.2l2.9-4.3
		c0.1-0.3,0-0.6-0.2-0.7c-0.2-0.2-0.5-0.1-0.7,0.1l-1.9,2.8c-0.1-2.2-0.9-4.2-2.3-5.9c-1.7-2-4.3-3.3-7-3.4
		c-5.2-0.2-9.7,3.9-9.9,9.2s3.9,9.7,9.2,9.9C10.468,21.6,10.568,21.6,10.768,21.6z"/>
</g>
</svg>
