<?xml version="1.0" encoding="iso-8859-1"?>
<!-- Generator: Adobe Illustrator 19.1.0, SVG Export Plug-In . SVG Version: 6.00 Build 0)  -->
<!DOCTYPE svg PUBLIC "-//W3C//DTD SVG 1.1 Tiny//EN" "http://www.w3.org/Graphics/SVG/1.1/DTD/svg11-tiny.dtd">
<svg version="1.1" baseProfile="tiny" id="Layer_1" xmlns="http://www.w3.org/2000/svg" xmlns:xlink="http://www.w3.org/1999/xlink"
	 x="0px" y="0px" viewBox="0 0 24 24" xml:space="preserve">
<path d="M18.968,24H6.032c-0.269,0-0.489-0.213-0.5-0.481l-0.746-20c-0.005-0.136,0.046-0.268,0.14-0.365
	C5.021,3.056,5.15,3,5.286,3h14.428c0.136,0,0.266,0.056,0.36,0.153c0.094,0.098,0.145,0.229,0.14,0.365l-0.746,20
	C19.457,23.787,19.236,24,18.968,24z M6.514,23h11.973l0.709-19H5.805L6.514,23z"/>
<path d="M15.5,4h-6C9.224,4,9,3.776,9,3.5v-3C9,0.224,9.224,0,9.5,0h6C15.776,0,16,0.224,16,0.5v3C16,3.776,15.776,4,15.5,4z M10,3
	h5V1h-5V3z"/>
<path d="M22,4H3C2.724,4,2.5,3.776,2.5,3.5S2.724,3,3,3h19c0.276,0,0.5,0.224,0.5,0.5S22.276,4,22,4z"/>
<path d="M9.5,19.5C9.224,19.5,9,19.276,9,19V8c0-0.276,0.224-0.5,0.5-0.5S10,7.724,10,8v11C10,19.276,9.776,19.5,9.5,19.5z"/>
<path d="M12.5,19.5c-0.276,0-0.5-0.224-0.5-0.5V8c0-0.276,0.224-0.5,0.5-0.5S13,7.724,13,8v11C13,19.276,12.776,19.5,12.5,19.5z"/>
<path d="M15.5,19.5c-0.276,0-0.5-0.224-0.5-0.5V8c0-0.276,0.224-0.5,0.5-0.5S16,7.724,16,8v11C16,19.276,15.776,19.5,15.5,19.5z"/>
</svg>
