<svg baseProfile="tiny" xmlns="http://www.w3.org/2000/svg" viewBox="0 0 24 24"><path d="M18.968 24H6.032a.501.501 0 0 1-.5-.481l-.746-20a.499.499 0 0 1 .5-.519h14.428a.502.502 0 0 1 .5.518l-.746 20a.502.502 0 0 1-.5.482zM6.514 23h11.973l.709-19H5.805l.709 19z"/><path d="M15.5 4h-6a.5.5 0 0 1-.5-.5v-3a.5.5 0 0 1 .5-.5h6a.5.5 0 0 1 .5.5v3a.5.5 0 0 1-.5.5zM10 3h5V1h-5v2z"/><path d="M22 4H3a.5.5 0 0 1 0-1h19a.5.5 0 0 1 0 1zM9.5 19.5A.5.5 0 0 1 9 19V8a.5.5 0 0 1 1 0v11a.5.5 0 0 1-.5.5zM12.5 19.5a.5.5 0 0 1-.5-.5V8a.5.5 0 0 1 1 0v11a.5.5 0 0 1-.5.5zM15.5 19.5a.5.5 0 0 1-.5-.5V8a.5.5 0 0 1 1 0v11a.5.5 0 0 1-.5.5z"/></svg>