<?xml version="1.0" encoding="utf-8"?>
<!-- Generator: Adobe Illustrator 19.1.0, SVG Export Plug-In . SVG Version: 6.00 Build 0)  -->
<!DOCTYPE svg PUBLIC "-//W3C//DTD SVG 1.1 Tiny//EN" "http://www.w3.org/Graphics/SVG/1.1/DTD/svg11-tiny.dtd">
<svg version="1.1" baseProfile="tiny" id="Layer_1" xmlns="http://www.w3.org/2000/svg" xmlns:xlink="http://www.w3.org/1999/xlink"
	 x="0px" y="0px" viewBox="0 0 24 24" xml:space="preserve">
<path d="M19,24H6c-0.3,0-0.5-0.2-0.5-0.5l-0.7-20c0-0.1,0-0.3,0.1-0.4C5,3.1,5.2,3,5.3,3h14.4c0.1,0,0.3,0.1,0.4,0.2
	c0.1,0.1,0.1,0.2,0.1,0.4l-0.7,20C19.5,23.8,19.2,24,19,24z M6.5,23h12l0.7-19H5.8L6.5,23z"/>
<path d="M15.5,4h-6C9.2,4,9,3.8,9,3.5v-3C9,0.2,9.2,0,9.5,0h6C15.8,0,16,0.2,16,0.5v3C16,3.8,15.8,4,15.5,4z M10,3h5V1h-5V3z"/>
<path d="M22,4H3C2.7,4,2.5,3.8,2.5,3.5S2.7,3,3,3h19c0.3,0,0.5,0.2,0.5,0.5S22.3,4,22,4z"/>
<path d="M9.5,19.5C9.2,19.5,9,19.3,9,19V8c0-0.3,0.2-0.5,0.5-0.5S10,7.7,10,8v11C10,19.3,9.8,19.5,9.5,19.5z"/>
<path d="M12.5,19.5c-0.3,0-0.5-0.2-0.5-0.5V8c0-0.3,0.2-0.5,0.5-0.5S13,7.7,13,8v11C13,19.3,12.8,19.5,12.5,19.5z"/>
<path d="M15.5,19.5c-0.3,0-0.5-0.2-0.5-0.5V8c0-0.3,0.2-0.5,0.5-0.5S16,7.7,16,8v11C16,19.3,15.8,19.5,15.5,19.5z"/>
</svg>
