<?xml version="1.0" encoding="iso-8859-1"?>
<!-- Generator: Adobe Illustrator 19.1.0, SVG Export Plug-In . SVG Version: 6.00 Build 0)  -->
<!DOCTYPE svg PUBLIC "-//W3C//DTD SVG 1.1 Tiny//EN" "http://www.w3.org/Graphics/SVG/1.1/DTD/svg11-tiny.dtd">
<svg version="1.1" baseProfile="tiny" id="Layer_1" xmlns="http://www.w3.org/2000/svg" xmlns:xlink="http://www.w3.org/1999/xlink"
	 x="0px" y="0px" viewBox="0 0 24 24" xml:space="preserve">
<path d="M17.095,22H14c-0.276,0-0.5-0.224-0.5-0.5S13.724,21,14,21h3.095C20.186,21,23,17.902,23,14.5S20.186,8,17.095,8H1
	C0.724,8,0.5,7.776,0.5,7.5S0.724,7,1,7h16.095C20.773,7,24,10.505,24,14.5S20.773,22,17.095,22z"/>
<path d="M5.427,12.854c-0.128,0-0.256-0.049-0.354-0.146L0.146,7.78C0.046,7.68-0.007,7.541,0.001,7.398
	c0.008-0.142,0.076-0.274,0.188-0.362l4.927-3.927c0.215-0.174,0.53-0.137,0.702,0.079c0.173,0.216,0.137,0.53-0.079,0.702
	L1.249,7.469l4.531,4.532c0.195,0.195,0.195,0.512,0,0.707C5.683,12.806,5.555,12.854,5.427,12.854z"/>
</svg>
