<?xml version="1.0" encoding="utf-8"?>
<!-- Generator: Adobe Illustrator 19.1.0, SVG Export Plug-In . SVG Version: 6.00 Build 0)  -->
<!DOCTYPE svg PUBLIC "-//W3C//DTD SVG 1.1 Tiny//EN" "http://www.w3.org/Graphics/SVG/1.1/DTD/svg11-tiny.dtd">
<svg version="1.1" baseProfile="tiny" id="Layer_1" xmlns="http://www.w3.org/2000/svg" xmlns:xlink="http://www.w3.org/1999/xlink"
	 x="0px" y="0px" viewBox="0 0 24 24" xml:space="preserve">
<path d="M17.1,22H14c-0.3,0-0.5-0.2-0.5-0.5S13.7,21,14,21h3.1c3.1,0,5.9-3.1,5.9-6.5S20.2,8,17.1,8H1C0.7,8,0.5,7.8,0.5,7.5
	S0.7,7,1,7h16.1c3.7,0,6.9,3.5,6.9,7.5S20.8,22,17.1,22z"/>
<path d="M5.4,12.9c-0.1,0-0.3,0-0.4-0.1L0.1,7.8C0,7.7,0,7.5,0,7.4C0,7.3,0.1,7.1,0.2,7l4.9-3.9C5.3,2.9,5.6,3,5.8,3.2
	C6,3.4,6,3.7,5.7,3.9L1.2,7.5L5.8,12c0.2,0.2,0.2,0.5,0,0.7C5.7,12.8,5.6,12.9,5.4,12.9z"/>
</svg>
