<?xml version="1.0" encoding="iso-8859-1"?>
<!-- Generator: Adobe Illustrator 19.1.0, SVG Export Plug-In . SVG Version: 6.00 Build 0)  -->
<!DOCTYPE svg PUBLIC "-//W3C//DTD SVG 1.1 Tiny//EN" "http://www.w3.org/Graphics/SVG/1.1/DTD/svg11-tiny.dtd">
<svg version="1.1" baseProfile="tiny" id="Layer_1" xmlns="http://www.w3.org/2000/svg" xmlns:xlink="http://www.w3.org/1999/xlink"
	 x="0px" y="0px" viewBox="0 0 24 24" xml:space="preserve">
<path d="M12.5,23.5c-0.276,0-0.5-0.224-0.5-0.5V7c0-0.276,0.224-0.5,0.5-0.5S13,6.724,13,7v16C13,23.276,12.776,23.5,12.5,23.5z"/>
<path d="M17,12.718c-0.146,0-0.292-0.064-0.391-0.188L12.5,7.394L8.391,12.53c-0.173,0.215-0.486,0.25-0.703,0.078
	c-0.215-0.173-0.25-0.487-0.078-0.703l4.5-5.625c0.19-0.236,0.591-0.236,0.781,0l4.5,5.625c0.172,0.216,0.138,0.53-0.078,0.703
	C17.22,12.682,17.109,12.718,17,12.718z"/>
<path d="M20.5,18H17c-0.276,0-0.5-0.224-0.5-0.5S16.724,17,17,17h3V1H4v16h4c0.276,0,0.5,0.224,0.5,0.5S8.276,18,8,18H3.5
	C3.224,18,3,17.776,3,17.5v-17C3,0.224,3.224,0,3.5,0h17C20.776,0,21,0.224,21,0.5v17C21,17.776,20.776,18,20.5,18z"/>
</svg>
