<?xml version="1.0" encoding="utf-8"?>
<!-- Generator: Adobe Illustrator 19.1.0, SVG Export Plug-In . SVG Version: 6.00 Build 0)  -->
<!DOCTYPE svg PUBLIC "-//W3C//DTD SVG 1.1 Tiny//EN" "http://www.w3.org/Graphics/SVG/1.1/DTD/svg11-tiny.dtd">
<svg version="1.1" baseProfile="tiny" id="Layer_1" xmlns="http://www.w3.org/2000/svg" xmlns:xlink="http://www.w3.org/1999/xlink"
	 x="0px" y="0px" viewBox="0 0 24 24" xml:space="preserve">
<path d="M12.5,23.5c-0.3,0-0.5-0.2-0.5-0.5V7c0-0.3,0.2-0.5,0.5-0.5S13,6.7,13,7v16C13,23.3,12.8,23.5,12.5,23.5z"/>
<path d="M17,12.7c-0.1,0-0.3-0.1-0.4-0.2l-4.1-5.1l-4.1,5.1c-0.2,0.2-0.5,0.2-0.7,0.1c-0.2-0.2-0.3-0.5-0.1-0.7l4.5-5.6
	c0.2-0.2,0.6-0.2,0.8,0l4.5,5.6c0.2,0.2,0.1,0.5-0.1,0.7C17.2,12.7,17.1,12.7,17,12.7z"/>
<path d="M20.5,18H17c-0.3,0-0.5-0.2-0.5-0.5S16.7,17,17,17h3V1H4v16h4c0.3,0,0.5,0.2,0.5,0.5S8.3,18,8,18H3.5C3.2,18,3,17.8,3,17.5
	v-17C3,0.2,3.2,0,3.5,0h17C20.8,0,21,0.2,21,0.5v17C21,17.8,20.8,18,20.5,18z"/>
</svg>
