<?xml version="1.0" encoding="iso-8859-1"?>
<!-- Generator: Adobe Illustrator 19.1.0, SVG Export Plug-In . SVG Version: 6.00 Build 0)  -->
<!DOCTYPE svg PUBLIC "-//W3C//DTD SVG 1.1 Tiny//EN" "http://www.w3.org/Graphics/SVG/1.1/DTD/svg11-tiny.dtd">
<svg version="1.1" baseProfile="tiny" id="Layer_1" xmlns="http://www.w3.org/2000/svg" xmlns:xlink="http://www.w3.org/1999/xlink"
	 x="0px" y="0px" viewBox="0 0 24 24" xml:space="preserve">
<path d="M1.629,21.124c-0.066,0-0.131-0.013-0.192-0.038c-0.777-0.323-0.318-2.425-0.312-2.445c0.11-0.397,0.511-0.541,1.884-0.979
	c0.614-0.196,1.641-0.524,1.829-0.699c0.233-0.24,0.377-1.084,0.401-1.579c0.013-0.275,0.263-0.504,0.523-0.475
	c0.276,0.013,0.489,0.247,0.476,0.523c-0.013,0.268-0.106,1.632-0.684,2.228c-0.311,0.322-1.054,0.575-2.241,0.954
	c-0.435,0.14-1.009,0.322-1.252,0.437c-0.042,0.272-0.072,0.764-0.06,1.073l10.984-0.021c0.024-0.313,0.015-0.796-0.019-1.036
	c-0.249-0.11-0.839-0.295-1.286-0.435c-1.289-0.403-2.094-0.672-2.405-0.998c-0.577-0.605-0.485-1.933-0.461-2.192
	c0.026-0.274,0.269-0.464,0.544-0.452c0.274,0.025,0.477,0.269,0.452,0.544c-0.047,0.523,0.019,1.231,0.19,1.411
	c0.197,0.176,1.312,0.524,1.979,0.732c1.327,0.415,1.654,0.537,1.829,0.789c0.221,0.318,0.324,2.072-0.074,2.483
	c-0.094,0.097-0.223,0.152-0.358,0.152L1.629,21.124C1.63,21.124,1.63,21.124,1.629,21.124z"/>
<path d="M7.416,16.396c-1.418,0-2.82-1.341-3.75-3.587c-0.277-0.67-0.442-2.14-0.442-3.933C3.223,6.188,5.104,4,7.416,4
	c2.351,0,4.192,2.108,4.192,4.801c0,1.867-0.167,3.364-0.445,4.006C10.172,15.088,8.807,16.396,7.416,16.396z M7.416,5
	c-1.76,0-3.192,1.739-3.192,3.877c0,1.841,0.184,3.109,0.366,3.55c0.907,2.189,2.055,2.97,2.827,2.97
	c0.741,0,1.874-0.785,2.83-2.988c0.18-0.415,0.362-1.691,0.362-3.607C10.607,6.67,9.206,5,7.416,5z"/>
<path d="M23,5h-8c-0.276,0-0.5-0.224-0.5-0.5S14.724,4,15,4h8c0.276,0,0.5,0.224,0.5,0.5S23.276,5,23,5z"/>
<path d="M23,8h-8c-0.276,0-0.5-0.224-0.5-0.5S14.724,7,15,7h8c0.276,0,0.5,0.224,0.5,0.5S23.276,8,23,8z"/>
<path d="M23,11h-8c-0.276,0-0.5-0.224-0.5-0.5S14.724,10,15,10h8c0.276,0,0.5,0.224,0.5,0.5S23.276,11,23,11z"/>
<path d="M23,14h-6c-0.276,0-0.5-0.224-0.5-0.5S16.724,13,17,13h6c0.276,0,0.5,0.224,0.5,0.5S23.276,14,23,14z"/>
</svg>
