<svg baseProfile="tiny" xmlns="http://www.w3.org/2000/svg" viewBox="0 0 24 24"><path d="M1.629 21.124a.506.506 0 0 1-.192-.038c-.777-.323-.318-2.425-.312-2.445.11-.397.511-.541 1.884-.979.614-.196 1.641-.524 1.829-.699.233-.24.377-1.084.401-1.579.013-.275.263-.504.523-.475a.5.5 0 0 1 .476.523c-.013.268-.106 1.632-.684 2.228-.311.322-1.054.575-2.241.954-.435.14-1.009.322-1.252.437a6.884 6.884 0 0 0-.06 1.073l10.984-.021a6.027 6.027 0 0 0-.019-1.036c-.249-.11-.839-.295-1.286-.435-1.289-.403-2.094-.672-2.405-.998-.577-.605-.485-1.933-.461-2.192a.51.51 0 0 1 .544-.452.5.5 0 0 1 .452.544c-.047.523.019 1.231.19 1.411.197.176 1.312.524 1.979.732 1.327.415 1.654.537 1.829.789.221.318.324 2.072-.074 2.483a.499.499 0 0 1-.358.152l-11.747.023c.001 0 .001 0 0 0z"/><path d="M7.416 16.396c-1.418 0-2.82-1.341-3.75-3.587-.277-.67-.442-2.14-.442-3.933C3.223 6.188 5.104 4 7.416 4c2.351 0 4.192 2.108 4.192 4.801 0 1.867-.167 3.364-.445 4.006-.991 2.281-2.356 3.589-3.747 3.589zM7.416 5c-1.76 0-3.192 1.739-3.192 3.877 0 1.841.184 3.109.366 3.55.907 2.189 2.055 2.97 2.827 2.97.741 0 1.874-.785 2.83-2.988.18-.415.362-1.691.362-3.607C10.607 6.67 9.206 5 7.416 5zM23 5h-8a.5.5 0 0 1 0-1h8a.5.5 0 0 1 0 1zM23 8h-8a.5.5 0 0 1 0-1h8a.5.5 0 0 1 0 1zM23 11h-8a.5.5 0 0 1 0-1h8a.5.5 0 0 1 0 1zM23 14h-6a.5.5 0 0 1 0-1h6a.5.5 0 0 1 0 1z"/></svg>