<?xml version="1.0" encoding="utf-8"?>
<!-- Generator: Adobe Illustrator 19.1.0, SVG Export Plug-In . SVG Version: 6.00 Build 0)  -->
<!DOCTYPE svg PUBLIC "-//W3C//DTD SVG 1.1 Tiny//EN" "http://www.w3.org/Graphics/SVG/1.1/DTD/svg11-tiny.dtd">
<svg version="1.1" baseProfile="tiny" id="Layer_1" xmlns="http://www.w3.org/2000/svg" xmlns:xlink="http://www.w3.org/1999/xlink"
	 x="0px" y="0px" viewBox="0 0 24 24" xml:space="preserve">
<path d="M1.6,21.1c-0.1,0-0.1,0-0.2,0c-0.8-0.3-0.3-2.4-0.3-2.4c0.1-0.4,0.5-0.5,1.9-1c0.6-0.2,1.6-0.5,1.8-0.7
	c0.2-0.2,0.4-1.1,0.4-1.6c0-0.3,0.3-0.5,0.5-0.5c0.3,0,0.5,0.2,0.5,0.5c0,0.3-0.1,1.6-0.7,2.2c-0.3,0.3-1.1,0.6-2.2,1
	c-0.4,0.1-1,0.3-1.3,0.4C2,19.3,2,19.8,2,20.1l11,0c0-0.3,0-0.8,0-1c-0.2-0.1-0.8-0.3-1.3-0.4c-1.3-0.4-2.1-0.7-2.4-1
	c-0.6-0.6-0.5-1.9-0.5-2.2c0-0.3,0.3-0.5,0.5-0.5c0.3,0,0.5,0.3,0.5,0.5c0,0.5,0,1.2,0.2,1.4c0.2,0.2,1.3,0.5,2,0.7
	c1.3,0.4,1.7,0.5,1.8,0.8c0.2,0.3,0.3,2.1-0.1,2.5c-0.1,0.1-0.2,0.2-0.4,0.2L1.6,21.1C1.6,21.1,1.6,21.1,1.6,21.1z"/>
<path d="M7.4,16.4c-1.4,0-2.8-1.3-3.8-3.6c-0.3-0.7-0.4-2.1-0.4-3.9C3.2,6.2,5.1,4,7.4,4c2.4,0,4.2,2.1,4.2,4.8c0,1.9-0.2,3.4-0.4,4
	C10.2,15.1,8.8,16.4,7.4,16.4z M7.4,5C5.7,5,4.2,6.7,4.2,8.9c0,1.8,0.2,3.1,0.4,3.5c0.9,2.2,2.1,3,2.8,3c0.7,0,1.9-0.8,2.8-3
	c0.2-0.4,0.4-1.7,0.4-3.6C10.6,6.7,9.2,5,7.4,5z"/>
<path d="M23,5h-8c-0.3,0-0.5-0.2-0.5-0.5S14.7,4,15,4h8c0.3,0,0.5,0.2,0.5,0.5S23.3,5,23,5z"/>
<path d="M23,8h-8c-0.3,0-0.5-0.2-0.5-0.5S14.7,7,15,7h8c0.3,0,0.5,0.2,0.5,0.5S23.3,8,23,8z"/>
<path d="M23,11h-8c-0.3,0-0.5-0.2-0.5-0.5S14.7,10,15,10h8c0.3,0,0.5,0.2,0.5,0.5S23.3,11,23,11z"/>
<path d="M23,14h-6c-0.3,0-0.5-0.2-0.5-0.5S16.7,13,17,13h6c0.3,0,0.5,0.2,0.5,0.5S23.3,14,23,14z"/>
</svg>
