<?xml version="1.0" encoding="iso-8859-1"?>
<!-- Generator: Adobe Illustrator 19.1.0, SVG Export Plug-In . SVG Version: 6.00 Build 0)  -->
<!DOCTYPE svg PUBLIC "-//W3C//DTD SVG 1.1 Tiny//EN" "http://www.w3.org/Graphics/SVG/1.1/DTD/svg11-tiny.dtd">
<svg version="1.1" baseProfile="tiny" id="Layer_1" xmlns="http://www.w3.org/2000/svg" xmlns:xlink="http://www.w3.org/1999/xlink"
	 x="0px" y="0px" viewBox="0 0 24 24" xml:space="preserve">
<path d="M22.5,23h-21C0.529,23,0,21.627,0,20.921V1.546C0,0.693,0.673,0,1.5,0h21C23.327,0,24,0.693,24,1.546v19.375
	C24,21.627,23.471,23,22.5,23z M1.5,1C1.224,1,1,1.245,1,1.546v19.375C1,21.354,1.339,22,1.506,22H22.5c0.161,0,0.5-0.646,0.5-1.079
	V1.546C23,1.245,22.776,1,22.5,1H1.5z"/>
<path d="M20,8h-2c-0.276,0-0.5-0.224-0.5-0.5S17.724,7,18,7h2c0.276,0,0.5,0.224,0.5,0.5S20.276,8,20,8z"/>
<path d="M12,8H4C3.724,8,3.5,7.776,3.5,7.5S3.724,7,4,7h8c0.276,0,0.5,0.224,0.5,0.5S12.276,8,12,8z"/>
<path d="M20,16h-8c-0.276,0-0.5-0.224-0.5-0.5S11.724,15,12,15h8c0.276,0,0.5,0.224,0.5,0.5S20.276,16,20,16z"/>
<path d="M7,16H4c-0.276,0-0.5-0.224-0.5-0.5S3.724,15,4,15h3c0.276,0,0.5,0.224,0.5,0.5S7.276,16,7,16z"/>
<path d="M15.5,10.5c-1.654,0-3-1.346-3-3s1.346-3,3-3s3,1.346,3,3S17.154,10.5,15.5,10.5z M15.5,5.5c-1.103,0-2,0.897-2,2
	s0.897,2,2,2s2-0.897,2-2S16.603,5.5,15.5,5.5z"/>
<path d="M9.5,18.5c-1.654,0-3-1.346-3-3s1.346-3,3-3s3,1.346,3,3S11.154,18.5,9.5,18.5z M9.5,13.5c-1.103,0-2,0.897-2,2s0.897,2,2,2
	s2-0.897,2-2S10.603,13.5,9.5,13.5z"/>
</svg>
