<svg baseProfile="tiny" xmlns="http://www.w3.org/2000/svg" viewBox="0 0 24 24"><path d="M22.5 23h-21C.529 23 0 21.627 0 20.921V1.546C0 .693.673 0 1.5 0h21c.827 0 1.5.693 1.5 1.546v19.375c0 .706-.529 2.079-1.5 2.079zM1.5 1c-.276 0-.5.245-.5.546v19.375c0 .433.339 1.079.506 1.079H22.5c.161 0 .5-.646.5-1.079V1.546c0-.301-.224-.546-.5-.546h-21z"/><path d="M20 8h-2a.5.5 0 0 1 0-1h2a.5.5 0 0 1 0 1zM12 8H4a.5.5 0 0 1 0-1h8a.5.5 0 0 1 0 1zM20 16h-8a.5.5 0 0 1 0-1h8a.5.5 0 0 1 0 1zM7 16H4a.5.5 0 0 1 0-1h3a.5.5 0 0 1 0 1z"/><path d="M15.5 10.5c-1.654 0-3-1.346-3-3s1.346-3 3-3 3 1.346 3 3-1.346 3-3 3zm0-5c-1.103 0-2 .897-2 2s.897 2 2 2 2-.897 2-2-.897-2-2-2zM9.5 18.5c-1.654 0-3-1.346-3-3s1.346-3 3-3 3 1.346 3 3-1.346 3-3 3zm0-5c-1.103 0-2 .897-2 2s.897 2 2 2 2-.897 2-2-.897-2-2-2z"/></svg>