<?xml version="1.0" encoding="utf-8"?>
<!-- Generator: Adobe Illustrator 19.1.0, SVG Export Plug-In . SVG Version: 6.00 Build 0)  -->
<!DOCTYPE svg PUBLIC "-//W3C//DTD SVG 1.1 Tiny//EN" "http://www.w3.org/Graphics/SVG/1.1/DTD/svg11-tiny.dtd">
<svg version="1.1" baseProfile="tiny" id="Layer_1" xmlns="http://www.w3.org/2000/svg" xmlns:xlink="http://www.w3.org/1999/xlink"
	 x="0px" y="0px" viewBox="0 0 24 24" xml:space="preserve">
<path d="M22.5,23h-21c-1,0-1.5-1.4-1.5-2.1V1.5C0,0.7,0.7,0,1.5,0h21C23.3,0,24,0.7,24,1.5v19.4C24,21.6,23.5,23,22.5,23z M1.5,1
	C1.2,1,1,1.2,1,1.5v19.4C1,21.4,1.3,22,1.5,22h21c0.2,0,0.5-0.6,0.5-1.1V1.5C23,1.2,22.8,1,22.5,1H1.5z"/>
<path d="M20,8h-2c-0.3,0-0.5-0.2-0.5-0.5S17.7,7,18,7h2c0.3,0,0.5,0.2,0.5,0.5S20.3,8,20,8z"/>
<path d="M12,8H4C3.7,8,3.5,7.8,3.5,7.5S3.7,7,4,7h8c0.3,0,0.5,0.2,0.5,0.5S12.3,8,12,8z"/>
<path d="M20,16h-8c-0.3,0-0.5-0.2-0.5-0.5S11.7,15,12,15h8c0.3,0,0.5,0.2,0.5,0.5S20.3,16,20,16z"/>
<path d="M7,16H4c-0.3,0-0.5-0.2-0.5-0.5S3.7,15,4,15h3c0.3,0,0.5,0.2,0.5,0.5S7.3,16,7,16z"/>
<path d="M15.5,10.5c-1.7,0-3-1.3-3-3s1.3-3,3-3s3,1.3,3,3S17.2,10.5,15.5,10.5z M15.5,5.5c-1.1,0-2,0.9-2,2s0.9,2,2,2s2-0.9,2-2
	S16.6,5.5,15.5,5.5z"/>
<path d="M9.5,18.5c-1.7,0-3-1.3-3-3s1.3-3,3-3s3,1.3,3,3S11.2,18.5,9.5,18.5z M9.5,13.5c-1.1,0-2,0.9-2,2s0.9,2,2,2s2-0.9,2-2
	S10.6,13.5,9.5,13.5z"/>
</svg>
