<?xml version="1.0" encoding="iso-8859-1"?>
<!-- Generator: Adobe Illustrator 19.2.1, SVG Export Plug-In . SVG Version: 6.00 Build 0)  -->
<!DOCTYPE svg PUBLIC "-//W3C//DTD SVG 1.1 Tiny//EN" "http://www.w3.org/Graphics/SVG/1.1/DTD/svg11-tiny.dtd">
<svg version="1.1" baseProfile="tiny" id="Layer_1" xmlns="http://www.w3.org/2000/svg" xmlns:xlink="http://www.w3.org/1999/xlink"
	 x="0px" y="0px" width="24px" height="24px" viewBox="0 0 24 24" xml:space="preserve">
<g>
	<g id="XMLID_26_">
		<path d="M7.725,18.867c-0.127,0-0.255-0.049-0.353-0.146l-6.725-6.688c-0.196-0.194-0.197-0.512-0.002-0.707l6.688-6.725
			C7.528,4.406,7.844,4.406,8.04,4.601s0.197,0.512,0.002,0.707l-6.335,6.37l6.37,6.335c0.196,0.194,0.197,0.512,0.002,0.707
			C7.981,18.818,7.853,18.867,7.725,18.867z"/>
	</g>
	<g id="XMLID_24_">
		<path d="M16.275,18.867c-0.128,0-0.257-0.049-0.354-0.147c-0.195-0.195-0.194-0.513,0.002-0.707l6.37-6.335l-6.335-6.37
			c-0.195-0.195-0.194-0.513,0.002-0.707c0.195-0.195,0.512-0.195,0.707,0.002l6.688,6.725c0.195,0.195,0.194,0.513-0.002,0.707
			l-6.725,6.688C16.53,18.818,16.403,18.867,16.275,18.867z"/>
	</g>
</g>
</svg>
