<?xml version="1.0" encoding="iso-8859-1"?>
<!-- Generator: Adobe Illustrator 19.2.1, SVG Export Plug-In . SVG Version: 6.00 Build 0)  -->
<!DOCTYPE svg PUBLIC "-//W3C//DTD SVG 1.1 Tiny//EN" "http://www.w3.org/Graphics/SVG/1.1/DTD/svg11-tiny.dtd">
<svg version="1.1" baseProfile="tiny" id="Layer_1" xmlns="http://www.w3.org/2000/svg" xmlns:xlink="http://www.w3.org/1999/xlink"
	 x="0px" y="0px" viewBox="0 0 24 24" xml:space="preserve">
<g>
	<g>
		<path d="M18.735,21h-6.401c-1.728,0-2.602-0.35-3.526-0.721c-1.242-0.497-2.788-1.116-7.307-1.116c-0.276,0-0.5-0.224-0.5-0.5
			v-8.265C1,10.122,1.224,10,1.5,10h2.955c3.257,0,6.886-2.862,6.886-6.897c0-0.885,0.745-1.577,1.732-1.577
			c0.574,0,1.131,0.228,1.528,0.646c0.317,0.334,0.695,0.955,0.695,1.999c0,1.419-0.546,3.83-0.833,4.83h7.227
			c1.072,0,1.977,0.85,1.977,1.867c0,0.792-0.548,1.483-1.296,1.754c0.196,0.291,0.312,0.631,0.312,0.994
			c0,0.792-0.548,1.487-1.296,1.758c0.196,0.291,0.312,0.633,0.312,0.995c0,0.792-0.548,1.488-1.296,1.758
			c0.196,0.291,0.312,0.634,0.312,0.996C20.712,20.14,19.807,21,18.735,21z M2,18.166c4.331,0.045,5.905,0.675,7.179,1.186
			C10.083,19.714,10.798,20,12.333,20h6.401c0.511,0,0.977-0.418,0.977-0.878c0-0.459-0.466-0.877-0.977-0.877
			c-0.276,0-0.5-0.346-0.5-0.623S18.458,17,18.735,17h0.985c0.511,0,0.977-0.295,0.977-0.755c0-0.459-0.466-0.816-0.977-0.816
			c-0.276,0-0.5-0.438-0.5-0.714S19.443,14,19.72,14h0.985c0.511,0,0.977-0.173,0.977-0.633c0-0.459-0.466-0.754-0.977-0.754
			c-0.276,0-0.5-0.03-0.5-0.306S20.428,12,20.705,12h0.985c0.511,0,0.977-0.541,0.977-1c0-0.459-0.466-1-0.977-1h-7.879
			c-0.157,0-0.304-0.083-0.398-0.208C13.317,9.667,13.287,9.5,13.329,9.35c0.01-0.034,0.966-3.448,0.966-5.193
			c0-0.565-0.146-1.019-0.42-1.308c-0.287-0.303-0.626-0.348-0.803-0.348c-0.294,0-0.732,0.198-0.732,0.602
			C12.341,7.727,8.185,11,4.455,11H2V18.166z"/>
	</g>
</g>
</svg>
