<svg baseProfile="tiny" xmlns="http://www.w3.org/2000/svg" viewBox="0 0 24 24"><path d="M11.594 22.5c-.574 0-1.131-.24-1.528-.659-.317-.334-.695-.961-.695-2.005 0-1.419.546-3.836.833-4.836H2.977C1.905 15 1 14.15 1 13.133c0-.792.548-1.483 1.296-1.754a1.774 1.774 0 0 1-.312-.994c0-.792.548-1.487 1.296-1.758a1.78 1.78 0 0 1-.31-.995c0-.792.548-1.488 1.296-1.758a1.782 1.782 0 0 1-.311-.996C3.955 3.86 4.86 3 5.932 3h6.402c1.728 0 2.601.35 3.526.72 1.242.498 2.955 1.117 7.474 1.117.276 0 .667.224.667.5v8.265c-.001.276-.558.398-.834.398h-2.955c-3.257 0-6.886 2.862-6.886 6.897 0 .885-.745 1.603-1.732 1.603zM2.977 12C2.466 12 2 12.541 2 13c0 .459.466 1 .977 1h7.879c.157 0 .304.083.398.208a.51.51 0 0 1 .083.442c-.01.034-.966 3.448-.966 5.193 0 .565.146 1.019.42 1.308.287.303.626.348.803.348.294 0 .732-.198.732-.602 0-4.624 4.156-7.897 7.886-7.897H23V5.834c-5-.045-6.072-.675-7.345-1.186C14.75 4.286 13.868 4 12.333 4H5.932c-.512 0-.977.418-.977.878 0 .459.466.877.977.877.276 0 .5.346.5.623S6.208 7 5.932 7h-.985c-.511 0-.977.295-.977.755 0 .459.466.816.977.816.276 0 .5.438.5.714s-.224.715-.5.715h-.985c-.511 0-.977.173-.977.633 0 .459.466.754.977.754.276 0 .5.03.5.306s-.224.307-.5.307h-.985z"/></svg>