<?xml version="1.0" encoding="iso-8859-1"?>
<!-- Generator: Adobe Illustrator 19.2.1, SVG Export Plug-In . SVG Version: 6.00 Build 0)  -->
<!DOCTYPE svg PUBLIC "-//W3C//DTD SVG 1.1 Tiny//EN" "http://www.w3.org/Graphics/SVG/1.1/DTD/svg11-tiny.dtd">
<svg version="1.1" baseProfile="tiny" id="Layer_1" xmlns="http://www.w3.org/2000/svg" xmlns:xlink="http://www.w3.org/1999/xlink"
	 x="0px" y="0px" viewBox="0 0 24 24" xml:space="preserve">
<g>
	<g>
		<path d="M11.594,22.5c-0.574,0-1.131-0.24-1.528-0.659c-0.317-0.334-0.695-0.961-0.695-2.005c0-1.419,0.546-3.836,0.833-4.836
			H2.977C1.905,15,1,14.15,1,13.133c0-0.792,0.548-1.483,1.296-1.754c-0.196-0.291-0.312-0.631-0.312-0.994
			c0-0.792,0.548-1.487,1.296-1.758C3.085,8.337,2.97,7.995,2.97,7.632c0-0.792,0.548-1.488,1.296-1.758
			C4.07,5.583,3.955,5.24,3.955,4.878C3.955,3.86,4.86,3,5.932,3h6.402c1.728,0,2.601,0.35,3.526,0.72
			c1.242,0.498,2.955,1.117,7.474,1.117c0.276,0,0.667,0.224,0.667,0.5v8.265C24,13.878,23.443,14,23.167,14h-2.955
			c-3.257,0-6.886,2.862-6.886,6.897C13.326,21.782,12.581,22.5,11.594,22.5z M2.977,12C2.466,12,2,12.541,2,13
			c0,0.459,0.466,1,0.977,1h7.879c0.157,0,0.304,0.083,0.398,0.208c0.095,0.125,0.125,0.292,0.083,0.442
			c-0.01,0.034-0.966,3.448-0.966,5.193c0,0.565,0.146,1.019,0.42,1.308c0.287,0.303,0.626,0.348,0.803,0.348
			c0.294,0,0.732-0.198,0.732-0.602c0-4.624,4.156-7.897,7.886-7.897H23V5.834c-5-0.045-6.072-0.675-7.345-1.186
			C14.75,4.286,13.868,4,12.333,4H5.932C5.42,4,4.955,4.418,4.955,4.878c0,0.459,0.466,0.877,0.977,0.877
			c0.276,0,0.5,0.346,0.5,0.623S6.208,7,5.932,7H4.947C4.436,7,3.97,7.295,3.97,7.755c0,0.459,0.466,0.816,0.977,0.816
			c0.276,0,0.5,0.438,0.5,0.714S5.223,10,4.947,10H3.962c-0.511,0-0.977,0.173-0.977,0.633c0,0.459,0.466,0.754,0.977,0.754
			c0.276,0,0.5,0.03,0.5,0.306S4.238,12,3.962,12H2.977z"/>
	</g>
</g>
</svg>
