<svg baseProfile="tiny" xmlns="http://www.w3.org/2000/svg" viewBox="0 0 24 24"><path d="M18.735 21h-6.401c-1.728 0-2.602-.35-3.526-.721-1.242-.497-2.788-1.116-7.307-1.116a.5.5 0 0 1-.5-.5v-8.265C1 10.122 1.224 10 1.5 10h2.955c3.257 0 6.886-2.862 6.886-6.897 0-.885.745-1.577 1.732-1.577.574 0 1.131.228 1.528.646.317.334.695.955.695 1.999 0 1.419-.546 3.83-.833 4.83h7.227c1.072 0 1.977.85 1.977 1.867 0 .792-.548 1.483-1.296 1.754.196.291.312.631.312.994 0 .792-.548 1.487-1.296 1.758.196.291.312.633.312.995 0 .792-.548 1.488-1.296 1.758.196.291.312.634.312.996-.003 1.017-.908 1.877-1.98 1.877zM2 18.166c4.331.045 5.905.675 7.179 1.186.904.362 1.619.648 3.154.648h6.401c.511 0 .977-.418.977-.878 0-.459-.466-.877-.977-.877-.276 0-.5-.346-.5-.623s.224-.622.501-.622h.985c.511 0 .977-.295.977-.755 0-.459-.466-.816-.977-.816-.276 0-.5-.438-.5-.714s.223-.715.5-.715h.985c.511 0 .977-.173.977-.633 0-.459-.466-.754-.977-.754-.276 0-.5-.03-.5-.306s.223-.307.5-.307h.985c.511 0 .977-.541.977-1 0-.459-.466-1-.977-1h-7.879a.507.507 0 0 1-.398-.208.507.507 0 0 1-.084-.442c.01-.034.966-3.448.966-5.193 0-.565-.146-1.019-.42-1.308a1.098 1.098 0 0 0-.803-.348c-.294 0-.732.198-.732.602C12.341 7.727 8.185 11 4.455 11H2v7.166z"/></svg>