<?xml version="1.0" encoding="utf-8"?>
<!-- Generator: Adobe Illustrator 19.1.0, SVG Export Plug-In . SVG Version: 6.00 Build 0)  -->
<!DOCTYPE svg PUBLIC "-//W3C//DTD SVG 1.1 Tiny//EN" "http://www.w3.org/Graphics/SVG/1.1/DTD/svg11-tiny.dtd">
<svg version="1.1" baseProfile="tiny" id="Layer_1" xmlns="http://www.w3.org/2000/svg" xmlns:xlink="http://www.w3.org/1999/xlink"
	 x="0px" y="0px" viewBox="0 0 24 24" xml:space="preserve">
<path d="M5,10c-1.3,0-2.3-0.4-3.1-1.2C0,6.9,0,3.4,0,1.7V1.5C0,1.2,0.2,1,0.5,1H4c0.3,0,0.5,0.2,0.5,0.5S4.3,2,4,2H1
	c0,1.6,0.1,4.6,1.6,6.1C3.2,8.7,4,9,5,9c0.3,0,0.5,0.2,0.5,0.5S5.3,10,5,10z"/>
<path d="M19,10c-0.3,0-0.5-0.2-0.5-0.5S18.7,9,19,9c1,0,1.8-0.3,2.4-0.9C22.9,6.6,23,3.6,23,2h-3c-0.3,0-0.5-0.2-0.5-0.5
	S19.7,1,20,1h3.5C23.8,1,24,1.2,24,1.5v0.2c0,1.7,0,5.2-1.9,7.1C21.3,9.6,20.3,10,19,10z"/>
<path d="M17.5,24h-11C6.2,24,6,23.8,6,23.5V22c0-1,0.7-1.8,1.7-1.9c1.6-0.2,2.2-0.7,2.2-3.6c0-1.8-0.8-2.3-2-3.2
	c-2-1.5-4.9-3.4-4.9-12.9C3.1,0.2,3.3,0,3.6,0h16.8c0.3,0,0.5,0.2,0.5,0.5c0,9.5-2.9,11.4-5,12.8c-1.2,0.8-2,1.4-2,3.2
	c0,2.8,0.8,3.4,2.3,3.6c1,0.1,1.8,1,1.8,2v1.4C18,23.8,17.8,24,17.5,24z M7,23h10v-0.9c0-0.5-0.4-1-0.9-1c-2.4-0.3-3.2-1.5-3.2-4.6
	c0-2.3,1.2-3.1,2.5-4c2-1.3,4.5-3,4.5-11.5H4.1c0.1,8.5,2.5,10.2,4.4,11.6c1.2,0.9,2.4,1.7,2.4,4c0,2.7-0.6,4.3-3.1,4.5
	C7.4,21.2,7,21.6,7,22V23z"/>
<path d="M13.6,8.8c-0.1,0-0.2,0-0.3-0.1l-1.3-1l-1.3,0.9c-0.2,0.1-0.4,0.1-0.6,0C9.9,8.5,9.9,8.2,9.9,8l0.5-1.3L9.1,5.9
	C9,5.8,8.9,5.6,8.9,5.4C9,5.1,9.2,5,9.4,5H11l0.5-1.5c0.1-0.4,0.8-0.4,1,0L13,5h1.6c0.2,0,0.4,0.1,0.5,0.4s0,0.4-0.2,0.6l-1.3,0.8
	l0.5,1.4c0.1,0.2,0,0.4-0.2,0.6C13.8,8.7,13.7,8.8,13.6,8.8z M12,6.6c0.1,0,0.2,0,0.3,0.1l0.3,0.2l-0.1-0.2c-0.1-0.2,0-0.5,0.2-0.6
	l0.1,0h-0.2c-0.2,0-0.4-0.1-0.5-0.3L12,5.2l-0.1,0.4C11.8,5.9,11.6,6,11.4,6h-0.2l0.1,0.1c0.2,0.1,0.3,0.4,0.2,0.6l-0.1,0.2l0.3-0.2
	C11.8,6.6,11.9,6.6,12,6.6z"/>
<circle cx="12" cy="6" r="1.1"/>
</svg>
