<svg baseProfile="tiny" xmlns="http://www.w3.org/2000/svg" viewBox="0 0 24 24"><path d="M12 24C5.383 24 0 18.617 0 12S5.383 0 12 0s12 5.383 12 12-5.383 12-12 12zm0-23C5.935 1 1 5.935 1 12s4.935 11 11 11 11-4.935 11-11S18.065 1 12 1z"/><path d="M4.335 17a.5.5 0 0 1-.369-.838L9.67 9.924a.504.504 0 0 1 .684-.051l3.9 3.159 4.866-5.689a.5.5 0 0 1 .76.65l-5.183 6.06a.5.5 0 0 1-.694.063l-3.913-3.17-5.386 5.892a.502.502 0 0 1-.369.162z"/><path d="M19.5 13.5a.5.5 0 0 1-.5-.5V8h-4a.5.5 0 0 1 0-1h4.5a.5.5 0 0 1 .5.5V13a.5.5 0 0 1-.5.5z"/></svg>