<?xml version="1.0" encoding="iso-8859-1"?>
<!-- Generator: Adobe Illustrator 19.1.0, SVG Export Plug-In . SVG Version: 6.00 Build 0)  -->
<!DOCTYPE svg PUBLIC "-//W3C//DTD SVG 1.1 Tiny//EN" "http://www.w3.org/Graphics/SVG/1.1/DTD/svg11-tiny.dtd">
<svg version="1.1" baseProfile="tiny" id="Layer_1" xmlns="http://www.w3.org/2000/svg" xmlns:xlink="http://www.w3.org/1999/xlink"
	 x="0px" y="0px" viewBox="0 0 24 24" xml:space="preserve">
<g id="XMLID_101_">
	<path d="M5,9.998c-1.271,0-2.324-0.409-3.13-1.216C-0.013,6.895,0,3.385,0,1.698V1.5C0,1.224,0.224,1,0.5,1H4
		c0.276,0,0.5,0.224,0.5,0.5S4.276,2,4,2H1c0.001,1.638,0.084,4.578,1.578,6.075C3.197,8.696,3.989,8.998,5,8.998
		c0.276,0,0.5,0.224,0.5,0.5S5.276,9.998,5,9.998z"/>
</g>
<g id="XMLID_100_">
	<path d="M18.987,9.998c-0.276,0-0.5-0.224-0.5-0.5s0.224-0.5,0.5-0.5c1.012,0,1.806-0.303,2.427-0.925
		C22.902,6.581,22.997,3.562,23,2h-3c-0.276,0-0.5-0.224-0.5-0.5S19.724,1,20,1h3.5C23.776,1,24,1.224,24,1.5v0.184
		c0.004,1.688,0.011,5.202-1.878,7.096C21.314,9.588,20.26,9.998,18.987,9.998z"/>
</g>
<g id="XMLID_99_">
	<path d="M17.5,24h-11C6.224,24,6,23.776,6,23.5v-1.453c0-0.984,0.745-1.807,1.732-1.911c1.609-0.172,2.153-0.71,2.201-3.553
		c0-1.789-0.786-2.345-1.975-3.187C5.91,11.946,3.105,9.961,3.105,0.5c0-0.276,0.224-0.5,0.5-0.5H20.4c0.276,0,0.5,0.224,0.5,0.5
		c0,9.466-2.886,11.419-4.992,12.846c-1.223,0.827-2.03,1.374-2.03,3.168c0,2.839,0.756,3.427,2.345,3.612
		c1.014,0.12,1.777,0.983,1.777,2.01V23.5C18,23.776,17.776,24,17.5,24z M7,23h10v-0.864c0-0.52-0.384-0.956-0.894-1.017
		c-2.354-0.274-3.229-1.523-3.229-4.605c0-2.325,1.199-3.137,2.47-3.996C17.337,11.17,19.805,9.5,19.897,1H4.108
		C4.198,9.51,6.6,11.209,8.536,12.58c1.232,0.873,2.396,1.697,2.396,4.012c-0.046,2.736-0.553,4.267-3.095,4.538
		C7.36,21.181,7,21.575,7,22.047V23z"/>
</g>
<g>
	<path d="M13.609,8.765c-0.106,0-0.212-0.034-0.302-0.102l-1.312-0.991L10.69,8.601c-0.178,0.125-0.418,0.122-0.592-0.009
		C9.924,8.46,9.856,8.23,9.93,8.024l0.476-1.325L9.147,5.926c-0.191-0.117-0.28-0.347-0.219-0.562C8.988,5.148,9.185,5,9.409,5h1.62
		l0.5-1.54c0.134-0.412,0.817-0.412,0.951,0l0.5,1.54h1.62c0.225,0,0.421,0.149,0.481,0.365s-0.03,0.445-0.222,0.562L13.6,6.693
		l0.482,1.409c0.071,0.208-0.001,0.438-0.18,0.567C13.815,8.733,13.712,8.765,13.609,8.765z M12.005,6.552
		c0.106,0,0.212,0.034,0.301,0.102l0.3,0.227l-0.083-0.243c-0.076-0.223,0.013-0.468,0.213-0.59L12.814,6h-0.197
		c-0.217,0-0.409-0.14-0.476-0.346l-0.137-0.422l-0.137,0.422C11.801,5.86,11.609,6,11.392,6h-0.215l0.098,0.061
		c0.202,0.124,0.289,0.372,0.209,0.595L11.41,6.861l0.305-0.217C11.802,6.583,11.903,6.552,12.005,6.552z"/>
</g>
<g>
	<circle cx="11.98" cy="5.979" r="1.125"/>
</g>
</svg>
