<?xml version="1.0" encoding="iso-8859-1"?>
<!-- Generator: Adobe Illustrator 19.1.0, SVG Export Plug-In . SVG Version: 6.00 Build 0)  -->
<!DOCTYPE svg PUBLIC "-//W3C//DTD SVG 1.1 Tiny//EN" "http://www.w3.org/Graphics/SVG/1.1/DTD/svg11-tiny.dtd">
<svg version="1.1" baseProfile="tiny" id="Layer_1" xmlns="http://www.w3.org/2000/svg" xmlns:xlink="http://www.w3.org/1999/xlink"
	 x="0px" y="0px" viewBox="0 0 24 24" xml:space="preserve">
<path d="M12,24C5.383,24,0,18.617,0,12S5.383,0,12,0c6.617,0,12,5.383,12,12S18.617,24,12,24z M12,1C5.935,1,1,5.935,1,12
	s4.935,11,11,11s11-4.935,11-11S18.065,1,12,1z"/>
<g>
	<path d="M4.335,17c-0.121,0-0.242-0.043-0.337-0.131c-0.204-0.187-0.218-0.503-0.032-0.707L9.67,9.924
		c0.18-0.194,0.478-0.215,0.684-0.051l3.9,3.159l4.866-5.689c0.18-0.209,0.495-0.234,0.705-0.055s0.234,0.495,0.055,0.705
		l-5.183,6.06c-0.177,0.206-0.486,0.233-0.694,0.063l-3.913-3.17l-5.386,5.892C4.605,16.945,4.47,17,4.335,17z"/>
	<path d="M19.5,13.5c-0.276,0-0.5-0.224-0.5-0.5V8h-4c-0.276,0-0.5-0.224-0.5-0.5S14.724,7,15,7h4.5C19.776,7,20,7.224,20,7.5V13
		C20,13.276,19.776,13.5,19.5,13.5z"/>
</g>
</svg>
