<?xml version="1.0" encoding="utf-8"?>
<!-- Generator: Adobe Illustrator 19.1.0, SVG Export Plug-In . SVG Version: 6.00 Build 0)  -->
<!DOCTYPE svg PUBLIC "-//W3C//DTD SVG 1.1 Tiny//EN" "http://www.w3.org/Graphics/SVG/1.1/DTD/svg11-tiny.dtd">
<svg version="1.1" baseProfile="tiny" id="Layer_1" xmlns="http://www.w3.org/2000/svg" xmlns:xlink="http://www.w3.org/1999/xlink"
	 x="0px" y="0px" viewBox="0 0 16 16" xml:space="preserve">
<g>
	<path d="M15.5,2h-15C0.2,2,0,2.2,0,2.5v3C0,5.8,0.2,6,0.5,6H1v7.5C1,13.8,1.2,14,1.5,14h13c0.3,0,0.5-0.2,0.5-0.5V6h0.5
		C15.8,6,16,5.8,16,5.5v-3C16,2.2,15.8,2,15.5,2z M14,13H2V6h12V13z M15,5h-0.5h-13H1V3h14V5z"/>
	<path d="M5.5,10h5c0.3,0,0.5-0.2,0.5-0.5v-2C11,7.2,10.8,7,10.5,7h-5C5.2,7,5,7.2,5,7.5v2C5,9.8,5.2,10,5.5,10z M6,8h4v1H6V8z"/>
</g>
</svg>
