<?xml version="1.0" encoding="utf-8"?>
<!-- Generator: Adobe Illustrator 19.1.0, SVG Export Plug-In . SVG Version: 6.00 Build 0)  -->
<!DOCTYPE svg PUBLIC "-//W3C//DTD SVG 1.1 Tiny//EN" "http://www.w3.org/Graphics/SVG/1.1/DTD/svg11-tiny.dtd">
<svg version="1.1" baseProfile="tiny" id="Layer_1" xmlns="http://www.w3.org/2000/svg" xmlns:xlink="http://www.w3.org/1999/xlink"
	 x="0px" y="0px" viewBox="0 0 16 16" xml:space="preserve">
<g>
	<path d="M11.5,11.8c-0.5-0.1-1.3-0.4-1.4-0.5C10,11.2,9.9,10.6,9.8,10C10.3,9.6,10.7,9,11,8.2c0.3-0.7,0.3-2.3,0.3-3
		c0-2.1-1.4-3.7-3.3-3.7c-1.8,0-3.3,1.7-3.3,3.7c0,1.3,0.1,2.4,0.3,3C5.5,9,5.9,9.6,6.4,10.1c-0.1,0.6-0.2,1.2-0.3,1.3
		c-0.1,0.1-0.9,0.4-1.3,0.5c-0.8,0.3-1.2,0.4-1.4,0.6c0,0,0-0.1,0-0.1c0-0.3-0.3-0.5-0.5-0.5c-0.1,0-0.8,0-1.4-0.1
		c0-0.1,0-0.2,0-0.3c0.2-0.1,0.4-0.1,0.6-0.2c0.8-0.2,1.2-0.4,1.4-0.6c0.2-0.2,0.3-0.6,0.4-1c0.2,0.1,0.4,0.1,0.6,0.1
		C4.8,9.9,5,9.7,5,9.4S4.8,8.9,4.5,8.9c-0.4,0-1-0.4-1.5-1.5C2.9,7.2,2.8,6.6,2.8,5.5c0-1.1,0.8-1.9,1.7-1.9C4.8,3.5,5,3.3,5,3
		S4.8,2.5,4.5,2.5C3,2.5,1.8,3.9,1.8,5.5c0,1,0.1,1.9,0.3,2.3c0.3,0.6,0.6,1,0.9,1.4C3,9.6,2.9,10,2.8,10c-0.1,0.1-0.7,0.3-1,0.4
		c-0.8,0.3-1.1,0.3-1.2,0.7c0,0-0.4,1.4,0.3,1.6c0,0,0.1,0,0.1,0c0.3,0,1.3,0.2,1.8,0.2c0,0,0.1,0,0.1,0c0.1,0,0.2-0.1,0.3-0.2
		c-0.1,0.3-0.3,1.6,0.3,1.9c0.4,0.2,2.1,0.3,4.5,0.3c4.3,0,4.5-0.2,4.7-0.4c0.3-0.4,0.3-1.7,0.1-2C12.7,12.3,12.4,12.1,11.5,11.8z
		 M5.8,5.2c0-1.5,1-2.7,2.3-2.7c1.3,0,2.3,1.2,2.3,2.7c0,1.4-0.1,2.3-0.3,2.6C9.9,8.3,9.6,8.7,9.4,9c0,0,0,0-0.1,0c0,0,0,0,0,0
		C9.1,9,8.9,9.3,8.8,9.6C8.6,9.8,8.3,9.9,8.1,9.9c-0.5,0-1.4-0.6-2-2.1C6,7.5,5.8,6.6,5.8,5.2z M12,13.8c-0.3,0.1-1.3,0.1-3.9,0.1
		c-2.3,0-3.5-0.1-3.9-0.1c0-0.2,0-0.5,0-0.6c0.2-0.1,0.6-0.2,0.8-0.3c0.9-0.3,1.5-0.5,1.7-0.7c0.3-0.3,0.4-0.8,0.5-1.4
		c0.3,0.1,0.5,0.2,0.8,0.2c0.3,0,0.5-0.1,0.8-0.2c0.1,0.5,0.2,1.1,0.4,1.3c0.2,0.3,0.8,0.4,1.8,0.8c0.3,0.1,0.7,0.2,0.9,0.3
		C12,13.3,12,13.6,12,13.8z"/>
	<path d="M15.4,11.1c-0.1-0.3-0.4-0.4-1.2-0.7c-0.3-0.1-0.9-0.3-1-0.3C13.1,10,13,9.6,13,9.2c0.4-0.4,0.7-0.8,0.9-1.4
		c0.2-0.4,0.3-1.2,0.3-2.3c0-1.6-1.2-2.9-2.7-2.9C11.2,2.5,11,2.8,11,3s0.2,0.5,0.5,0.5c0.9,0,1.7,0.9,1.7,1.9
		c0,1.1-0.1,1.7-0.2,1.9c-0.5,1.1-1.1,1.5-1.5,1.5c-0.3,0-0.5,0.2-0.5,0.5s0.2,0.5,0.5,0.5c0.2,0,0.4,0,0.6-0.1
		c0.1,0.4,0.2,0.8,0.4,1c0.2,0.2,0.6,0.3,1.4,0.6c0.2,0.1,0.4,0.1,0.6,0.2c0,0.1,0,0.2,0,0.3c-0.4,0.1-0.8,0.1-0.9,0.1
		c-0.3,0-0.5,0.2-0.5,0.5c0,0.3,0.2,0.5,0.5,0.5c0,0,0.1,0,0.1,0c0.4,0,1.2-0.1,1.5-0.2C15.8,12.5,15.4,11.1,15.4,11.1z"/>
</g>
</svg>
