<?xml version="1.0" encoding="utf-8"?>
<!-- Generator: Adobe Illustrator 19.1.0, SVG Export Plug-In . SVG Version: 6.00 Build 0)  -->
<!DOCTYPE svg PUBLIC "-//W3C//DTD SVG 1.1 Tiny//EN" "http://www.w3.org/Graphics/SVG/1.1/DTD/svg11-tiny.dtd">
<svg version="1.1" baseProfile="tiny" id="Layer_1" xmlns="http://www.w3.org/2000/svg" xmlns:xlink="http://www.w3.org/1999/xlink"
	 x="0px" y="0px" viewBox="0 0 16 16" xml:space="preserve">
<g>
	<g>
		<path d="M15.5,16h-15C0.2,16,0,15.8,0,15.5v-14C0,1.2,0.2,1,0.5,1H3c0.3,0,0.5,0.2,0.5,0.5S3.3,2,3,2H1v13h14V2h-1
			c-0.3,0-0.5-0.2-0.5-0.5S13.7,1,14,1h1.5C15.8,1,16,1.2,16,1.5v14C16,15.8,15.8,16,15.5,16z"/>
	</g>
	<g>
		<path d="M5.5,3h-2C3.2,3,3,2.8,3,2.5v-2C3,0.2,3.2,0,3.5,0h2C5.8,0,6,0.2,6,0.5v2C6,2.8,5.8,3,5.5,3z M4,2h1V1H4V2z"/>
	</g>
	<g>
		<path d="M13.5,3h-2C11.2,3,11,2.8,11,2.5v-2C11,0.2,11.2,0,11.5,0h2C13.8,0,14,0.2,14,0.5v2C14,2.8,13.8,3,13.5,3z M12,2h1V1h-1V2
			z"/>
	</g>
	<g>
		<path d="M11,2H6C5.7,2,5.5,1.8,5.5,1.5S5.7,1,6,1h5c0.3,0,0.5,0.2,0.5,0.5S11.3,2,11,2z"/>
	</g>
	<g>
		<rect y="4" width="15" height="1"/>
	</g>
	<g>
		<g>
			<path d="M6.5,12.5C6.2,12.5,6,12.3,6,12V8.7L5.5,9.1C5.3,9.3,5,9.3,4.8,9.1c-0.2-0.2-0.2-0.5,0-0.7l1.3-1.2
				C6.3,7.1,6.5,7,6.7,7.1C6.9,7.2,7,7.4,7,7.6V12C7,12.3,6.8,12.5,6.5,12.5z"/>
		</g>
		<g>
			<path d="M8,13H5c-0.3,0-0.5-0.2-0.5-0.5S4.7,12,5,12h3c0.3,0,0.5,0.2,0.5,0.5S8.3,13,8,13z"/>
		</g>
	</g>
	<g>
		<g>
			<path d="M9.6,13.2c-0.1,0-0.1,0-0.2,0c-0.3-0.1-0.4-0.4-0.3-0.6L10.7,8H9c0,0.3-0.2,0.5-0.5,0.5S8,8.3,8,8V7.5C8,7.2,8.2,7,8.5,7
				h2.9c0.2,0,0.3,0.1,0.4,0.2c0.1,0.1,0.1,0.3,0.1,0.5l-1.8,5.2C10,13.1,9.8,13.2,9.6,13.2z"/>
		</g>
	</g>
</g>
</svg>
