<?xml version="1.0" encoding="utf-8"?>
<!-- Generator: Adobe Illustrator 19.1.0, SVG Export Plug-In . SVG Version: 6.00 Build 0)  -->
<!DOCTYPE svg PUBLIC "-//W3C//DTD SVG 1.1 Tiny//EN" "http://www.w3.org/Graphics/SVG/1.1/DTD/svg11-tiny.dtd">
<svg version="1.1" baseProfile="tiny" id="Layer_1" xmlns="http://www.w3.org/2000/svg" xmlns:xlink="http://www.w3.org/1999/xlink"
	 x="0px" y="0px" viewBox="0 0 16 16" xml:space="preserve">
<g id="XMLID_20_">
	<path d="M11.5,14h-7C4.2,14,4,13.8,4,13.5v-9C4,4.2,4.2,4,4.5,4H5v9h6V4h0.5C11.8,4,12,4.2,12,4.5v9C12,13.8,11.8,14,11.5,14z"/>
</g>
<g id="XMLID_19_">
	<path d="M13.5,16h-11C2.2,16,2,15.8,2,15.5v-12C2,3.2,2.2,3,2.5,3H6v1H3v11h10V4h-3V3h3.5C13.8,3,14,3.2,14,3.5v12
		C14,15.8,13.8,16,13.5,16z"/>
</g>
<g id="XMLID_18_">
	<path d="M10.5,5h-5C5.2,5,5,4.8,5,4.5v-2C5,2.2,5.2,2,5.5,2h0.4C6.2,1,7.1,0.6,8,0.6c1,0,1.7,0.5,1.9,1.4h0.6C10.8,2,11,2.2,11,2.5
		v2C11,4.8,10.8,5,10.5,5z M6,4h4V3H9.5C9.2,3,9,2.8,9,2.5c0-0.8-0.5-0.9-1-0.9c-0.2,0-1.1,0-1.1,0.9C6.9,2.8,6.6,3,6.4,3H6V4z"/>
</g>
</svg>
