<?xml version="1.0" encoding="utf-8"?>
<!-- Generator: Adobe Illustrator 19.1.0, SVG Export Plug-In . SVG Version: 6.00 Build 0)  -->
<!DOCTYPE svg PUBLIC "-//W3C//DTD SVG 1.1 Tiny//EN" "http://www.w3.org/Graphics/SVG/1.1/DTD/svg11-tiny.dtd">
<svg version="1.1" baseProfile="tiny" id="Layer_1" xmlns="http://www.w3.org/2000/svg" xmlns:xlink="http://www.w3.org/1999/xlink"
	 x="0px" y="0px" viewBox="0 0 16 16" xml:space="preserve">
<g>
	<path d="M5,9.1c-0.1,0-0.3,0-0.4-0.1c-0.2-0.2-0.2-0.5,0-0.7L6,7L4.7,5.7C4.5,5.6,4.5,5.2,4.7,5c0.2-0.2,0.5-0.2,0.7,0L7,6.7
		c0.2,0.2,0.2,0.5,0,0.7L5.4,9C5.3,9.1,5.2,9.1,5,9.1z"/>
</g>
<g>
	<path d="M11,8H9C8.7,8,8.5,7.8,8.5,7.5S8.7,7,9,7h2c0.3,0,0.5,0.2,0.5,0.5S11.3,8,11,8z"/>
</g>
<g>
	<path d="M15.5,15h-15C0.2,15,0,14.8,0,14.5v-13C0,1.2,0.2,1,0.5,1h15C15.8,1,16,1.2,16,1.5v13C16,14.8,15.8,15,15.5,15z M1,14h14V2
		H1V14z"/>
</g>
<g>
	<path d="M13.5,13h-11C2.2,13,2,12.8,2,12.5v-9C2,3.2,2.2,3,2.5,3h11C13.8,3,14,3.2,14,3.5v9C14,12.8,13.8,13,13.5,13z M3,12h10V4H3
		V12z"/>
</g>
</svg>
