<?xml version="1.0" encoding="utf-8"?>
<!-- Generator: Adobe Illustrator 19.1.0, SVG Export Plug-In . SVG Version: 6.00 Build 0)  -->
<!DOCTYPE svg PUBLIC "-//W3C//DTD SVG 1.1 Tiny//EN" "http://www.w3.org/Graphics/SVG/1.1/DTD/svg11-tiny.dtd">
<svg version="1.1" baseProfile="tiny" id="Layer_1" xmlns="http://www.w3.org/2000/svg" xmlns:xlink="http://www.w3.org/1999/xlink"
	 x="0px" y="0px" viewBox="0 0 16 16" xml:space="preserve">
<g>
	<g>
		<path d="M11.5,16h-11C0.2,16,0,15.8,0,15.5v-11C0,4.2,0.2,4,0.5,4h11C11.8,4,12,4.2,12,4.5v11C12,15.8,11.8,16,11.5,16z M1,15h10
			V5H1V15z"/>
	</g>
	<g>
		<path d="M15.5,11h-11C4.2,11,4,10.8,4,10.5v-10C4,0.2,4.2,0,4.5,0h11C15.8,0,16,0.2,16,0.5v10C16,10.8,15.8,11,15.5,11z M5,10h10
			V1H5V10z"/>
	</g>
	<g>
		<rect x="2" y="9.7" transform="matrix(0.7363 0.6767 -0.6767 0.7363 9.2961 1.6487)" width="1" height="6"/>
	</g>
	<g>
		<rect x="13" y="9.8" transform="matrix(0.7844 0.6203 -0.6203 0.7844 10.9625 -5.5666)" width="1" height="6.4"/>
	</g>
	<g>
		<path d="M0.5,5c-0.1,0-0.3,0-0.4-0.1C0,4.6,0,4.3,0.1,4.1l4-4c0.2-0.2,0.5-0.2,0.7,0C5,0.3,5,0.7,4.9,0.9l-4,4
			C0.8,4.9,0.6,5,0.5,5z"/>
	</g>
	<g>
		<rect x="12.8" y="0.3" transform="matrix(0.711 0.7032 -0.7032 0.711 5.7581 -8.5448)" width="1" height="4.9"/>
	</g>
</g>
</svg>
