<?xml version="1.0" encoding="utf-8"?>
<!-- Generator: Adobe Illustrator 19.1.0, SVG Export Plug-In . SVG Version: 6.00 Build 0)  -->
<!DOCTYPE svg PUBLIC "-//W3C//DTD SVG 1.1 Tiny//EN" "http://www.w3.org/Graphics/SVG/1.1/DTD/svg11-tiny.dtd">
<svg version="1.1" baseProfile="tiny" id="Layer_1" xmlns="http://www.w3.org/2000/svg" xmlns:xlink="http://www.w3.org/1999/xlink"
	 x="0px" y="0px" viewBox="0 0 16 16" xml:space="preserve">
<g>
	<path d="M8.5,9h-7C1.2,9,1,8.8,1,8.5v-7C1,1.2,1.2,1,1.5,1h7C8.8,1,9,1.2,9,1.5v7C9,8.8,8.8,9,8.5,9z M2,8h6V2H2V8z"/>
</g>
<g>
	<path d="M8,11v3h6V8h-3V7h3.5C14.8,7,15,7.2,15,7.5v7c0,0.3-0.2,0.5-0.5,0.5h-7C7.2,15,7,14.8,7,14.5V11H8z"/>
</g>
<g>
	<path d="M4.3,15.2c-0.1,0-0.3,0-0.4-0.1c-0.2-0.2-0.2-0.5,0-0.7l0.9-0.9L4,12.6c-0.2-0.2-0.2-0.5,0-0.7s0.5-0.2,0.7,0l1.2,1.2
		c0.1,0.1,0.1,0.2,0.1,0.4S6,13.7,5.9,13.8L4.7,15C4.6,15.1,4.5,15.2,4.3,15.2z"/>
</g>
<g>
	<path d="M5.6,14H5c-2,0-3.5-1.6-3.5-3.5c0-0.3,0.2-0.5,0.5-0.5s0.5,0.2,0.5,0.5C2.4,11.8,3.6,13,5,13h0.6c0.3,0,0.5,0.2,0.5,0.5
		S5.8,14,5.6,14z"/>
</g>
<g>
	<path d="M11.7,4.2c-0.1,0-0.3,0-0.4-0.1l-1.2-1.2C10,2.8,9.9,2.7,9.9,2.5s0.1-0.3,0.1-0.4L11.3,1c0.2-0.2,0.5-0.2,0.7,0
		s0.2,0.5,0,0.7l-0.9,0.9L12,3.4c0.2,0.2,0.2,0.5,0,0.7C11.9,4.2,11.8,4.2,11.7,4.2z"/>
</g>
<g>
	<path d="M14.1,6.1c-0.3,0-0.5-0.2-0.5-0.5C13.6,4.2,12.4,3,11,3h-0.6c-0.3,0-0.5-0.2-0.5-0.5S10.2,2,10.4,2H11c2,0,3.5,1.6,3.5,3.5
		C14.6,5.8,14.4,6.1,14.1,6.1z"/>
</g>
</svg>
