<?xml version="1.0" encoding="utf-8"?>
<!-- Generator: Adobe Illustrator 19.1.0, SVG Export Plug-In . SVG Version: 6.00 Build 0)  -->
<!DOCTYPE svg PUBLIC "-//W3C//DTD SVG 1.1 Tiny//EN" "http://www.w3.org/Graphics/SVG/1.1/DTD/svg11-tiny.dtd">
<svg version="1.1" baseProfile="tiny" id="Layer_1" xmlns="http://www.w3.org/2000/svg" xmlns:xlink="http://www.w3.org/1999/xlink"
	 x="0px" y="0px" viewBox="0 0 16 16" xml:space="preserve">
<path d="M12.5,16h-12C0.2,16,0,15.8,0,15.5v-12C0,3.2,0.2,3,0.5,3H7c0.3,0,0.5,0.2,0.5,0.5S7.3,4,7,4H1v11h11v-5
	c0-0.3,0.2-0.5,0.5-0.5S13,9.7,13,10v5.5C13,15.8,12.8,16,12.5,16z"/>
<path d="M3.8,13c-0.1,0-0.3,0-0.4-0.1c-0.2-0.2-0.2-0.5,0-0.7l12-12C15.7,0,16,0,16.2,0.1s0.2,0.5,0,0.7l-12,12C4.1,13,4,13,3.8,13z
	"/>
<path d="M15.5,7.5C15.2,7.5,15,7.3,15,7V1h-5C9.7,1,9.5,0.8,9.5,0.5S9.7,0,10,0h5.5C15.8,0,16,0.2,16,0.5V7
	C16,7.3,15.8,7.5,15.5,7.5z"/>
</svg>
