<?xml version="1.0" encoding="utf-8"?>
<!-- Generator: Adobe Illustrator 19.1.0, SVG Export Plug-In . SVG Version: 6.00 Build 0)  -->
<!DOCTYPE svg PUBLIC "-//W3C//DTD SVG 1.1 Tiny//EN" "http://www.w3.org/Graphics/SVG/1.1/DTD/svg11-tiny.dtd">
<svg version="1.1" baseProfile="tiny" id="Layer_1" xmlns="http://www.w3.org/2000/svg" xmlns:xlink="http://www.w3.org/1999/xlink"
	 x="0px" y="0px" viewBox="0 0 16 16" xml:space="preserve">
<g id="XMLID_757_">
	<path d="M8,16c-4.4,0-8-3.6-8-8c0-4.4,3.6-8,8-8c4.4,0,8,3.6,8,8S12.4,16,8,16z M8,1C4.1,1,1,4.1,1,8c0,3.9,3.1,7,7,7
		c3.9,0,7-3.1,7-7S11.8,1,8,1z"/>
</g>
<g id="XMLID_754_">
	<path d="M7,8.9C7,7.3,9.1,7.1,9.1,6c0-0.5-0.4-0.9-1.2-0.9C7,5.1,6.5,5.4,6,6L5.1,5C5.8,4.2,6.8,3.7,8,3.7c1.7,0,2.7,0.9,2.7,2.1
		c0,1.9-2.3,2.1-2.3,3.3c0,0.2,0.1,0.5,0.3,0.6L7.5,10C7.1,9.7,7,9.3,7,8.9z M7,11.8c0-0.5,0.4-0.9,0.9-0.9c0.5,0,0.9,0.4,0.9,0.9
		c0,0.5-0.4,0.9-0.9,0.9C7.4,12.7,7,12.3,7,11.8z"/>
</g>
</svg>
