<?xml version="1.0" encoding="utf-8"?>
<!-- Generator: Adobe Illustrator 19.1.0, SVG Export Plug-In . SVG Version: 6.00 Build 0)  -->
<!DOCTYPE svg PUBLIC "-//W3C//DTD SVG 1.1 Tiny//EN" "http://www.w3.org/Graphics/SVG/1.1/DTD/svg11-tiny.dtd">
<svg version="1.1" baseProfile="tiny" id="Layer_1" xmlns="http://www.w3.org/2000/svg" xmlns:xlink="http://www.w3.org/1999/xlink"
	 x="0px" y="0px" viewBox="0 0 16 16" xml:space="preserve">
<g id="XMLID_48_">
	<g id="XMLID_50_">
		<path d="M15.5,13c-0.1,0-0.3-0.1-0.4-0.2l-4.9-5.6l-3.8,3.2c-0.2,0.2-0.5,0.2-0.7-0.1L0.1,4.1c-0.2-0.2-0.2-0.5,0-0.7
			c0.2-0.2,0.5-0.2,0.7,0l5.3,5.9L10,6.2C10.2,6,10.5,6,10.7,6.2l5.2,5.9c0.2,0.2,0.2,0.5,0,0.7C15.8,13,15.6,13,15.5,13z"/>
	</g>
	<g id="XMLID_49_">
		<path d="M15.5,13h-4.8c-0.3,0-0.5-0.2-0.5-0.5s0.2-0.5,0.5-0.5H15V8.3c0-0.3,0.2-0.5,0.5-0.5S16,8,16,8.3v4.2
			C16,12.8,15.8,13,15.5,13z"/>
	</g>
</g>
</svg>
