<?xml version="1.0" encoding="utf-8"?>
<!-- Generator: Adobe Illustrator 19.1.0, SVG Export Plug-In . SVG Version: 6.00 Build 0)  -->
<!DOCTYPE svg PUBLIC "-//W3C//DTD SVG 1.1 Tiny//EN" "http://www.w3.org/Graphics/SVG/1.1/DTD/svg11-tiny.dtd">
<svg version="1.1" baseProfile="tiny" id="Layer_1" xmlns="http://www.w3.org/2000/svg" xmlns:xlink="http://www.w3.org/1999/xlink"
	 x="0px" y="0px" viewBox="0 0 16 16" xml:space="preserve">
<g id="XMLID_51_">
	<g id="XMLID_53_">
		<path d="M6.5,16h-4C2.2,16,2,15.8,2,15.5v-15C2,0.2,2.2,0,2.5,0h4C6.8,0,7,0.2,7,0.5v15C7,15.8,6.8,16,6.5,16z M3,15h3V1H3V15z"/>
	</g>
	<g id="XMLID_52_">
		<path d="M13.5,16h-4C9.2,16,9,15.8,9,15.5v-15C9,0.2,9.2,0,9.5,0h4C13.8,0,14,0.2,14,0.5v15C14,15.8,13.8,16,13.5,16z M10,15h3V1
			h-3V15z"/>
	</g>
</g>
</svg>
