<?xml version="1.0" encoding="utf-8"?>
<!-- Generator: Adobe Illustrator 19.1.0, SVG Export Plug-In . SVG Version: 6.00 Build 0)  -->
<!DOCTYPE svg PUBLIC "-//W3C//DTD SVG 1.1 Tiny//EN" "http://www.w3.org/Graphics/SVG/1.1/DTD/svg11-tiny.dtd">
<svg version="1.1" baseProfile="tiny" id="Layer_1" xmlns="http://www.w3.org/2000/svg" xmlns:xlink="http://www.w3.org/1999/xlink"
	 x="0px" y="0px" viewBox="0 0 16 16" xml:space="preserve">
<g>
	<g>
		<path d="M2.4,4.9H1.6c-0.8,0-1.4-0.6-1.4-1.4V2.6c0-0.8,0.6-1.4,1.4-1.4h0.9c0.8,0,1.4,0.6,1.4,1.4v0.9C3.9,4.2,3.2,4.9,2.4,4.9z
			 M1.6,1.9c-0.4,0-0.7,0.3-0.7,0.7v0.9c0,0.4,0.3,0.7,0.7,0.7h0.9c0.4,0,0.7-0.3,0.7-0.7V2.6c0-0.4-0.3-0.7-0.7-0.7H1.6z"/>
	</g>
	<g>
		<path d="M2.4,9.9H1.6c-0.8,0-1.4-0.6-1.4-1.4V7.6c0-0.8,0.6-1.4,1.4-1.4h0.9c0.8,0,1.4,0.6,1.4,1.4v0.9C3.9,9.2,3.2,9.9,2.4,9.9z
			 M1.6,6.9c-0.4,0-0.7,0.3-0.7,0.7v0.9c0,0.4,0.3,0.7,0.7,0.7h0.9c0.4,0,0.7-0.3,0.7-0.7V7.6c0-0.4-0.3-0.7-0.7-0.7H1.6z"/>
	</g>
	<g>
		<path d="M2.4,14.9H1.6c-0.8,0-1.4-0.6-1.4-1.4v-0.9c0-0.8,0.6-1.4,1.4-1.4h0.9c0.8,0,1.4,0.6,1.4,1.4v0.9
			C3.9,14.2,3.2,14.9,2.4,14.9z M1.6,11.9c-0.4,0-0.7,0.3-0.7,0.7v0.9c0,0.4,0.3,0.7,0.7,0.7h0.9c0.4,0,0.7-0.3,0.7-0.7v-0.9
			c0-0.4-0.3-0.7-0.7-0.7H1.6z"/>
	</g>
</g>
<g>
	<path d="M14.4,4.9H6.6c-0.8,0-1.4-0.6-1.4-1.4V2.6c0-0.8,0.6-1.4,1.4-1.4h7.9c0.8,0,1.4,0.6,1.4,1.4v0.9
		C15.9,4.2,15.2,4.9,14.4,4.9z M6.6,1.9c-0.4,0-0.7,0.3-0.7,0.7v0.9c0,0.4,0.3,0.7,0.7,0.7h7.9c0.4,0,0.7-0.3,0.7-0.7V2.6
		c0-0.4-0.3-0.7-0.7-0.7H6.6z"/>
</g>
<g>
	<path d="M14.4,9.9H6.6c-0.8,0-1.4-0.6-1.4-1.4V7.6c0-0.8,0.6-1.4,1.4-1.4h7.9c0.8,0,1.4,0.6,1.4,1.4v0.9
		C15.9,9.2,15.2,9.9,14.4,9.9z M6.6,6.9c-0.4,0-0.7,0.3-0.7,0.7v0.9c0,0.4,0.3,0.7,0.7,0.7h7.9c0.4,0,0.7-0.3,0.7-0.7V7.6
		c0-0.4-0.3-0.7-0.7-0.7H6.6z"/>
</g>
<g>
	<path d="M14.4,14.9H6.6c-0.8,0-1.4-0.6-1.4-1.4v-0.9c0-0.8,0.6-1.4,1.4-1.4h7.9c0.8,0,1.4,0.6,1.4,1.4v0.9
		C15.9,14.2,15.2,14.9,14.4,14.9z M6.6,11.9c-0.4,0-0.7,0.3-0.7,0.7v0.9c0,0.4,0.3,0.7,0.7,0.7h7.9c0.4,0,0.7-0.3,0.7-0.7v-0.9
		c0-0.4-0.3-0.7-0.7-0.7H6.6z"/>
</g>
</svg>
