<?xml version="1.0" encoding="utf-8"?>
<!-- Generator: Adobe Illustrator 19.1.0, SVG Export Plug-In . SVG Version: 6.00 Build 0)  -->
<!DOCTYPE svg PUBLIC "-//W3C//DTD SVG 1.1 Tiny//EN" "http://www.w3.org/Graphics/SVG/1.1/DTD/svg11-tiny.dtd">
<svg version="1.1" baseProfile="tiny" id="Layer_1" xmlns="http://www.w3.org/2000/svg" xmlns:xlink="http://www.w3.org/1999/xlink"
	 x="0px" y="0px" viewBox="0 0 16 16" xml:space="preserve">
<path d="M15.9,5.2L12.6,2c-0.2-0.2-0.5-0.2-0.7,0s-0.2,0.5,0,0.7L14.2,5H4.7C2.2,5,0,7.3,0,10s2.2,5,4.7,5H7c0.3,0,0.5-0.2,0.5-0.5
	S7.3,14,7,14H4.7c-2,0-3.7-1.9-3.7-4s1.7-4,3.7-4h9.7l-2.4,2.4c-0.2,0.2-0.2,0.5,0,0.7c0.1,0.1,0.2,0.1,0.4,0.1s0.3,0,0.4-0.1
	l3.2-3.2C16,5.7,16,5.4,15.9,5.2z"/>
</svg>
