<?xml version="1.0" encoding="utf-8"?>
<!-- Generator: Adobe Illustrator 19.1.0, SVG Export Plug-In . SVG Version: 6.00 Build 0)  -->
<!DOCTYPE svg PUBLIC "-//W3C//DTD SVG 1.1 Tiny//EN" "http://www.w3.org/Graphics/SVG/1.1/DTD/svg11-tiny.dtd">
<svg version="1.1" baseProfile="tiny" id="Layer_1" xmlns="http://www.w3.org/2000/svg" xmlns:xlink="http://www.w3.org/1999/xlink"
	 x="0px" y="0px" viewBox="0 0 16 16" xml:space="preserve">
<g id="XMLID_72_">
	<path d="M7.7,13.8c-1.6,0-3-0.6-4.2-1.7c-0.2-0.2-0.2-0.5,0-0.7c0.2-0.2,0.5-0.2,0.7,0c1,1,2.3,1.5,3.6,1.4
		c1.4-0.1,2.7-0.7,3.6-1.8c0.7-0.8,1.1-1.7,1.2-2.8l-1.1,1.3c-0.2,0.2-0.5,0.2-0.7,0c-0.2-0.2-0.2-0.5,0-0.7l2-2.3
		c0.1-0.1,0.3-0.2,0.4-0.2c0.2,0,0.3,0.1,0.4,0.2l1.7,2.6c0.2,0.2,0.1,0.5-0.1,0.7c-0.2,0.2-0.5,0.1-0.7-0.1l-0.8-1.3
		c-0.2,1.2-0.6,2.2-1.4,3.1c-1.1,1.3-2.7,2-4.4,2.1C7.9,13.8,7.8,13.8,7.7,13.8z"/>
</g>
<g id="XMLID_70_">
	<path d="M2.7,9C2.7,9,2.7,9,2.7,9C2.5,9,2.4,8.9,2.3,8.8L0.6,6.2C0.4,6,0.5,5.6,0.7,5.5C1,5.3,1.3,5.4,1.4,5.6l0.8,1.3
		c0.1-1.2,0.6-2.2,1.4-3.1c1.1-1.3,2.7-2,4.4-2.1c1.7,0,3.3,0.6,4.5,1.8c0.2,0.2,0.2,0.5,0,0.7c-0.2,0.2-0.5,0.2-0.7,0
		c-1-1-2.4-1.6-3.8-1.5C6.6,2.7,5.3,3.4,4.4,4.4C3.7,5.2,3.3,6.1,3.2,7.2l1.1-1.3c0.2-0.2,0.5-0.2,0.7,0c0.2,0.2,0.2,0.5,0,0.7
		l-2,2.3C3,8.9,2.9,9,2.7,9z"/>
</g>
</svg>
