<?xml version="1.0" encoding="utf-8"?>
<!-- Generator: Adobe Illustrator 19.1.0, SVG Export Plug-In . SVG Version: 6.00 Build 0)  -->
<!DOCTYPE svg PUBLIC "-//W3C//DTD SVG 1.1 Tiny//EN" "http://www.w3.org/Graphics/SVG/1.1/DTD/svg11-tiny.dtd">
<svg version="1.1" baseProfile="tiny" id="Layer_1" xmlns="http://www.w3.org/2000/svg" xmlns:xlink="http://www.w3.org/1999/xlink"
	 x="0px" y="0px" viewBox="0 0 16 16" xml:space="preserve">
<g id="XMLID_107_">
	<path d="M4.5,7.1c-1.4,0-3-0.9-3.5-2.5C0.6,3.4,0.6,2,0.6,1.5c0-0.2,0.2-0.4,0.4-0.4h2.5v0.8H1.4c0,0.6,0.1,1.6,0.4,2.5
		c0.4,1.3,1.5,2,2.6,2L4.5,7.1z"/>
</g>
<g id="XMLID_106_">
	<path d="M11.6,6.3c2.1,0,3-2.3,3-4.4h-2.1V1.1H15c0.2,0,0.4,0.2,0.4,0.4c0,4.9-2.6,5.6-3.9,5.6L11.6,6.3z"/>
</g>
<g id="XMLID_98_">
	<path d="M11.2,15.9H5c-0.2,0-0.3-0.2-0.3-0.4v-1.8c0-0.2,0.1-0.4,0.3-0.4c1.6,0,2.1-0.3,2.1-2.3c0-1.1-0.5-1.5-1.1-2
		C4.8,8,3.1,6.7,3.1,0.5c0-0.2,0.1-0.4,0.3-0.4h9.1c0.2,0,0.3,0.2,0.3,0.4C12.9,6.7,11.2,8,10,9c-0.7,0.5-1.1,0.9-1.1,2
		c0,2,0.8,2.3,2.4,2.3c0.2,0,0.3,0.2,0.3,0.4v1.8C11.5,15.7,11.4,15.9,11.2,15.9z M5.4,15.1h5.2V14C9,14,8.2,13.4,8.2,11
		c0-1.5,0.7-2.1,1.4-2.7c1.1-0.9,2.5-2,2.6-7.5H3.8c0.1,5.5,1.4,6.6,2.6,7.5C7,8.9,7.7,9.5,7.7,11c0,2.4-0.8,3-2.3,3V15.1z"/>
</g>
<polygon points="8,2.6 8.3,3.6 9.3,3.6 8.5,4.2 8.8,5.1 8,4.5 7.2,5.1 7.5,4.2 6.7,3.6 7.7,3.6 "/>
</svg>
